<svg xmlns="http://www.w3.org/2000/svg" viewBox="0 0 598.11 33.46"><defs><style>.cls-1{fill:#bfaf93;}</style></defs><g id="レイヤー_2" data-name="レイヤー 2"><g id="レイヤー_1-2" data-name="レイヤー 1"><g id="レイヤー_2-2" data-name="レイヤー 2"><g id="layer"><path class="cls-1" d="M162.6,21.4a11.22,11.22,0,0,0,7.65,1.24,8.57,8.57,0,0,0,6.5-5.28,15,15,0,0,0,.87-3.86,7.06,7.06,0,0,0-1.14-4.87,5,5,0,0,0-2.94-1.89,5.68,5.68,0,0,0-3.21.27,6.07,6.07,0,0,0-2.53,1.8,5.64,5.64,0,0,0-1.25,3.31,3,3,0,1,0,6,.36h0a2.8,2.8,0,0,1,.09.81,11.16,11.16,0,0,1-.3,2.58,4,4,0,0,1-3,2.9,7.25,7.25,0,0,1-5.1-.4,3.8,3.8,0,0,1-2.42-3.7,9.26,9.26,0,0,1,2.37-5c2.58-2.82,7-3.94,11.14-4.46A30.66,30.66,0,0,1,181.75,5a25.08,25.08,0,0,1,4.07,1.22,3,3,0,0,0-.13.49,6.54,6.54,0,0,0,1,4.44,14.31,14.31,0,0,0,2.23,2.79,25.13,25.13,0,0,0,5.29,4c.95.53,1.9,1,2.89,1.47a16.4,16.4,0,0,0,3.21.94,41.76,41.76,0,0,0,6.29.79c1,.13,2,1.41,3.07,1.68a20.83,20.83,0,0,0,3.16,0,77.41,77.41,0,0,0,12.43-1.49c3.53-.64,7-1.44,10.48-2.22l2.16,1a40.36,40.36,0,0,0,13,2.85,84.08,84.08,0,0,0,13.27-.69,111.71,111.71,0,0,0,13.13-2.07l6.27-1.53a20.18,20.18,0,0,1,5.73-.7,5.44,5.44,0,0,1,4.13,2.35,5.2,5.2,0,0,1-.27,5c-1.81,3.46-5.91,5.52-9.88,6a2.93,2.93,0,0,1-2.11-.32c-.19-.13-.13-1.1.27-2a21.71,21.71,0,0,1,3.45-5.1V23.8h0a1.32,1.32,0,1,0-2-1.68l-.06.07a25.13,25.13,0,0,0-3.6,5.93,6.93,6.93,0,0,0-.49,1.89,3.13,3.13,0,0,0,.63,2.4,3.32,3.32,0,0,0,2.3,1,7.63,7.63,0,0,0,1.91,0,15.62,15.62,0,0,0,11.91-6.93,8.35,8.35,0,0,0,.9-7.59,7.32,7.32,0,0,0-2.68-3.2A10.37,10.37,0,0,0,290,14.13a18.24,18.24,0,0,0-7.28.39h0a42.12,42.12,0,0,0-4.11-4.34A22,22,0,0,0,273,6.29,14.49,14.49,0,0,0,266.29,5a12.14,12.14,0,0,0-3.43.62l-.46.18a23.35,23.35,0,0,0-4.12-1.66,31.08,31.08,0,0,0-6.63-1.2,20.38,20.38,0,0,0-6.78.52A12.54,12.54,0,0,0,241,5.32a6.18,6.18,0,0,0-1.12-.84,10.38,10.38,0,0,0-6.93-.86,22.17,22.17,0,0,0-6.48,2.15,11.64,11.64,0,0,0-4.65,4.15c-1.95-.79-3.93-1.54-5.92-2.24a5.57,5.57,0,0,0,.57-.52,10.21,10.21,0,0,1,1.72-1.43,15.21,15.21,0,0,1,4.2-1.92A41.89,41.89,0,0,1,227,3.17a14,14,0,0,1,4.65.15h.13a.86.86,0,0,0,.55,0,.94.94,0,0,0,.52-1.22,1,1,0,0,0-1.07-.57,8.06,8.06,0,0,1-2.45.1c-.82,0-1.64,0-2.45.07a17.86,17.86,0,0,0-4.79,1.06,21.79,21.79,0,0,0-4.53,1.92,22.14,22.14,0,0,0-2.08,1.39,6.87,6.87,0,0,0-.87.92l-.18.15c-2.42-.82-4.88-1.56-7.35-2.24a.9.9,0,0,0,.27-.21,12.3,12.3,0,0,1,1.72-1.24,13.66,13.66,0,0,1,4-1.68,23.65,23.65,0,0,1,4.28-.31,9.66,9.66,0,0,1,4.22.71l.15.08a.87.87,0,0,0,.59.09,1,1,0,0,0,.79-1.09A1,1,0,0,0,222,.46a8.64,8.64,0,0,1-2.32-.24,19.63,19.63,0,0,0-2.31-.2,13.17,13.17,0,0,0-4.57.72,19.84,19.84,0,0,0-4.32,1.71c-.68.37-1.35.77-2,1.19a8.17,8.17,0,0,0-.88.78l-.2.14c-1.2-.31-2.39-.65-3.6-.92-2.24-.51-4.5-.94-6.78-1.31A3,3,0,0,0,193.48,2h-.64c-1.43-.19-2.85-.41-4.29-.55-2.26-.16-4.56.85-6.78,1.13s-4.46.09-6.69.37a33.08,33.08,0,0,0-6.68,1.33,15.31,15.31,0,0,0-6.22,3.56,12.12,12.12,0,0,0-3.35,6.6,6.74,6.74,0,0,0,.82,4.11A8,8,0,0,0,162.6,21.4Zm9.71-9.5s.06,0,.1.13S172.3,11.92,172.31,11.9Zm.19.34a.17.17,0,0,1,0,.1C172.45,12.45,172.41,12.33,172.5,12.24Zm91.44,8.27a38.25,38.25,0,0,1-12.88,1A34.84,34.84,0,0,1,239,18.35c1.49-.33,3-.7,4.5-.94,2-.32,4.2-.25,6.38-.67a49.26,49.26,0,0,1,5.4-.84A24,24,0,0,1,261,16a26.31,26.31,0,0,1,8.11,2.94C267.42,19.45,265.7,20.05,263.94,20.51ZM262.43,7.07a13.79,13.79,0,0,1,1.26.84,3.43,3.43,0,0,1,1.55,2.25,2,2,0,0,1-1.5,1.75c-1.67.33-3.57-2-2.73-3.54A3.37,3.37,0,0,1,262.43,7.07Zm-21.08,3.46a3.45,3.45,0,0,1-1.62,2.13c-.83.5-1.8.6-2,.12a3.48,3.48,0,0,1,.29-2.43,9.2,9.2,0,0,1,1.85-2.45c.27-.26.55-.49.84-.73A4.06,4.06,0,0,1,241.35,10.53ZM227.08,7a20.57,20.57,0,0,1,6.06-2,9.2,9.2,0,0,1,6,.7,5.6,5.6,0,0,1,.68.49c-.29.24-.59.48-.87.73a10.44,10.44,0,0,0-2.17,2.78,5.4,5.4,0,0,0-.6,1.73,2.92,2.92,0,0,0,.36,2.1,2.19,2.19,0,0,0,2.09.95,4.43,4.43,0,0,0,1.86-.63,4.85,4.85,0,0,0,2.29-3,5.52,5.52,0,0,0-.93-4.6,11,11,0,0,1,3.33-1.69A19.35,19.35,0,0,1,251.56,4a28.17,28.17,0,0,1,6.38,1.19,23.26,23.26,0,0,1,3.24,1.29,4.22,4.22,0,0,0-1.25,1.44,3.54,3.54,0,0,0,.59,3.72,3.68,3.68,0,0,0,3.44,1.5,3.16,3.16,0,0,0,2.45-2.94,4.45,4.45,0,0,0-2-3.11c-.2-.15-.4-.26-.6-.4a10.17,10.17,0,0,1,2.51-.38,13.11,13.11,0,0,1,6.09,1.36,21,21,0,0,1,8.42,7.42c-1.53.4-3,.84-4.5,1.31s-2.79,1-4.17,1.48a68.54,68.54,0,0,0-10.48-4.45,24.94,24.94,0,0,0-6.5-1.48,12.08,12.08,0,0,0-6.61,1.47,25.79,25.79,0,0,1-5.39,2.74,45.28,45.28,0,0,1-6,1.12h-.26c-1.29-.71-2.6-1.46-4-2.18-2-1.05-4-2-6-3-1.22-.54-2.46-1-3.7-1.56A9.22,9.22,0,0,1,227.08,7Zm-1.21,7.9q3,1.1,6,2.39l.73.33c-2.55.15-5.11.2-7.66.22-4.07,0-8.12-.18-12.12-.26-1,0-2-.15-3-.06s-2.06,1.37-3.07,1.35a31.5,31.5,0,0,1-5.86-1,13,13,0,0,1-2.6-1.05,21.09,21.09,0,0,1-2.47-1.53,19.6,19.6,0,0,1-4.07-3.86,11,11,0,0,1-1.31-2.22c-.3-.7-.28-1.43-.15-1.46s0,.1.09.12a2.09,2.09,0,0,0,.5,0,8.15,8.15,0,0,1,2.15.23,3.6,3.6,0,0,0,.8.06,2.91,2.91,0,0,0,1.53-.53c1.82.26,3.64.54,5.46.86a154.18,154.18,0,0,1,25.05,6.41Z"/><path class="cls-1" d="M2.62,18.38a7.4,7.4,0,0,0,7.56,1.07,6.72,6.72,0,0,0,3-2.8,7.16,7.16,0,0,0,1.14-4,4.2,4.2,0,0,0-3.25-4,4.37,4.37,0,0,0-4.83,2.21L6,11.45a2.11,2.11,0,0,0-.18.59,2,2,0,1,0,3.91.85,1.35,1.35,0,0,0,0-.29.63.63,0,0,1,.83-.33.62.62,0,0,1,.38.6,4.06,4.06,0,0,1-.56,2.18,3.57,3.57,0,0,1-1.52,1.69,4.59,4.59,0,0,1-6.46-5C2.62,10,4,8.66,5.86,7.84a21.72,21.72,0,0,1,6-1.43,72,72,0,0,1,12.8.08,57.53,57.53,0,0,1,6.41.79c2.11.48,4.12,1.53,6.23,1.9l12.78,2.29c2.16.36,4.34.61,6.51.87s4.37.36,6.55.42c4.36.21,8.72.18,13.06.07l13-.38c4.32,0,8.63,0,12.93.37a58.81,58.81,0,0,1,12.68,2.35,32.26,32.26,0,0,0,13.22.92,58.24,58.24,0,0,0,12.77-3.44l6-2.35a17.82,17.82,0,0,1,6-1.49,3.81,3.81,0,0,1,2.53.71,3.25,3.25,0,0,1,1,2.38,10.09,10.09,0,0,1-.33,3c-.23,1.14-.5,1.6-1.34,1.87A5.06,5.06,0,0,1,149.77,15a.62.62,0,0,1,0-.75,3.15,3.15,0,0,1,.92-.86,2.46,2.46,0,0,1,2.3,0h.06a.84.84,0,0,0,1.13-.37h0a.83.83,0,0,0-.37-1.12h0a4.1,4.1,0,0,0-3.92.07,4.54,4.54,0,0,0-1.39,1.37,2.24,2.24,0,0,0-.05,2.33,5.63,5.63,0,0,0,3,2.23,6,6,0,0,0,3.66.26,3,3,0,0,0,1.7-1.2,3.16,3.16,0,0,0,.46-.94l.22-.82a12.07,12.07,0,0,0,.38-3.44,4.85,4.85,0,0,0-1.48-3.45,5.49,5.49,0,0,0-3.52-1.23,22.77,22.77,0,0,0-6.68,1.32l-3.63,1.16a1,1,0,0,0-.39.08h0c-.44.19-.91.33-1.37.48l-.77.25-.9.28a39.08,39.08,0,0,1-7.46,1.12A35.67,35.67,0,0,1,121,11.23a50.07,50.07,0,0,1-5.23-1.46,55.22,55.22,0,0,0-5.4-1.17c-3.62-.63-7.26-1-10.9-1.4a176.44,176.44,0,0,0-21.93-1c-3.67.08-7.33.28-11,.69A46.21,46.21,0,0,0,55.72,9.27c-1.68-.24-3.36-.5-5-.8C46.56,7.69,42.27,6.64,38,5.91c-2.15-.37-4.42,0-6.6-.11s-4.31-.56-6.48-.74a72.78,72.78,0,0,0-13.12-.35A23.82,23.82,0,0,0,5.18,6.14,9.15,9.15,0,0,0,2.1,8,6.64,6.64,0,0,0,.18,11.37,6.93,6.93,0,0,0,2.62,18.38Zm64-10.07c3.6-.4,7.22-.59,10.86-.66,7.26-.07,14.54,0,21.8.63,3.62.33,7.23.8,10.8,1.44,1.78.32,3.55.7,5.28,1.19s3.48,1.18,5.3,1.52a39.61,39.61,0,0,0,9,.81l-2,.42a33,33,0,0,1-12.56.47c-4.26-.82-8.53-1.71-12.86-2.18s-8.67-.63-13-.7l-13-.27A162.27,162.27,0,0,1,59,9.74,43.48,43.48,0,0,1,66.62,8.31Z"/><path class="cls-1" d="M314.65,33.4a7.63,7.63,0,0,0,1.91,0,3.24,3.24,0,0,0,2.15-1.08,3.17,3.17,0,0,0,.63-2.4,6.93,6.93,0,0,0-.49-1.89,25.17,25.17,0,0,0-3.61-5.93v-.05a1.32,1.32,0,0,0-2.14,1.55l.14.16h0a21.37,21.37,0,0,1,3.44,5.1c.41.87.47,1.84.28,2a2.93,2.93,0,0,1-2.11.32c-4-.46-8.07-2.52-9.88-6a5.2,5.2,0,0,1-.27-5,5.46,5.46,0,0,1,4.13-2.35,20.09,20.09,0,0,1,5.73.7l6.27,1.53A112,112,0,0,0,334,22.13a84.67,84.67,0,0,0,13.22.73,40.3,40.3,0,0,0,13-2.85,21.14,21.14,0,0,0,2.16-1c3.47.78,7,1.58,10.48,2.22a77.69,77.69,0,0,0,12.43,1.49,20.83,20.83,0,0,0,3.16,0c1.06-.27,2-1.55,3.07-1.68a41.44,41.44,0,0,0,6.29-.79,16.2,16.2,0,0,0,3.21-.94,31.37,31.37,0,0,0,2.89-1.47,25.13,25.13,0,0,0,5.29-4,14,14,0,0,0,2.23-2.79,6.49,6.49,0,0,0,1-4.44,3,3,0,0,0-.13-.49,25.08,25.08,0,0,1,4.07-1.22,30.61,30.61,0,0,1,6.42.26c4.14.52,8.56,1.64,11.14,4.46a9.3,9.3,0,0,1,2.37,5,3.82,3.82,0,0,1-2.42,3.7,7.25,7.25,0,0,1-5.1.4,4,4,0,0,1-3-2.9,11.16,11.16,0,0,1-.3-2.58,3.72,3.72,0,0,1,.09-.81,3,3,0,0,0,6-.36,5.51,5.51,0,0,0-1.25-3.31A5.92,5.92,0,0,0,427.76,7a5.7,5.7,0,0,0-3.22-.27,5,5,0,0,0-2.93,1.89,7.15,7.15,0,0,0-1,4.87,14.62,14.62,0,0,0,.88,3.86,8.58,8.58,0,0,0,6.5,5.28,11.2,11.2,0,0,0,7.65-1.24,7.87,7.87,0,0,0,3-2.87,6.76,6.76,0,0,0,.82-4.11A12.15,12.15,0,0,0,436,7.8a15.13,15.13,0,0,0-6.17-3.56,32.94,32.94,0,0,0-6.68-1.33c-2.24-.28-4.47-.16-6.69-.37S412,1.25,409.7,1.41c-1.44.14-2.86.36-4.29.55h-.66A2.64,2.64,0,0,0,404,2a3.73,3.73,0,0,0-.73.26c-2.28.37-4.53.8-6.77,1.31-1.21.27-2.41.61-3.61.92l-.2-.14a8.07,8.07,0,0,0-.87-.78c-.65-.42-1.32-.82-2-1.19A20,20,0,0,0,385.49.72,13.19,13.19,0,0,0,380.91,0a20,20,0,0,0-2.31.2,8.55,8.55,0,0,1-2.42.25,1,1,0,0,0-.54,1.93,1,1,0,0,0,.83-.14l.14-.08a9.84,9.84,0,0,1,4.22-.71,23.7,23.7,0,0,1,4.29.31,13.54,13.54,0,0,1,4.06,1.69,12.06,12.06,0,0,1,1.72,1.29.9.9,0,0,0,.27.21c-2.47.68-4.93,1.42-7.35,2.24L383.64,7a6.36,6.36,0,0,0-.88-.92,20.77,20.77,0,0,0-2.07-1.39,21.79,21.79,0,0,0-4.53-1.92,17.86,17.86,0,0,0-4.79-1.06c-.82-.06-1.63-.05-2.45-.07a8.06,8.06,0,0,1-2.45-.1.86.86,0,0,0-.55,0,.94.94,0,0,0-.51,1.23.93.93,0,0,0,1.06.56h.12a14,14,0,0,1,4.66-.15,41.89,41.89,0,0,1,4.61.64,15.37,15.37,0,0,1,4.2,1.92,10.21,10.21,0,0,1,1.76,1.45,5.57,5.57,0,0,0,.57.52c-2,.7-4,1.45-5.92,2.24a11.64,11.64,0,0,0-4.65-4.15,22.07,22.07,0,0,0-6.48-2.15,10.38,10.38,0,0,0-6.93.86,6.26,6.26,0,0,0-1.13.84,12.5,12.5,0,0,0-3.92-1.94,20.3,20.3,0,0,0-6.77-.52A31.08,31.08,0,0,0,340,4.13a23.66,23.66,0,0,0-4.12,1.66l-.46-.18A12.5,12.5,0,0,0,332,5a14.62,14.62,0,0,0-6.77,1.32,21.9,21.9,0,0,0-5.59,3.89,43.22,43.22,0,0,0-4.11,4.34h-.05a18,18,0,0,0-7.27-.39,10.37,10.37,0,0,0-3.66,1.53,7.26,7.26,0,0,0-2.68,3.2,8.38,8.38,0,0,0,.9,7.59A15.62,15.62,0,0,0,314.65,33.4Zm111-21.06v-.1c.13.09.09.21,0,.1Zm.22-.44a.16.16,0,0,1-.1.13c-.1.05.1-.15.12-.13Zm-78.69,9.61a38.27,38.27,0,0,1-12.88-1c-1.76-.46-3.48-1-5.19-1.62A26.44,26.44,0,0,1,337.18,16a24,24,0,0,1,5.74,0,48.89,48.89,0,0,1,5.4.84c2.18.42,4.33.35,6.38.67,1.52.24,3,.61,4.5.94A34.57,34.57,0,0,1,347.18,21.51Zm50.2-13.06c1.81-.32,3.63-.59,5.45-.85a3,3,0,0,0,2.34.46,8.24,8.24,0,0,1,2.15-.23,2,2,0,0,0,.49,0c.07,0,0-.14.1-.12a2,2,0,0,1-.16,1.46,9.38,9.38,0,0,1-1.31,2.28,18.73,18.73,0,0,1-4.11,3.89,20.41,20.41,0,0,1-2.48,1.53,13.26,13.26,0,0,1-2.59,1.05,31.5,31.5,0,0,1-5.86,1c-1,0-2.08-1.15-3.07-1.35a15.85,15.85,0,0,0-3,.06c-4,.08-8,.25-12.12.26-2.54,0-5.1-.07-7.66-.22l.74-.33q3-1.29,6-2.39A154.15,154.15,0,0,1,397.38,8.45ZM357.51,7.19c.28.24.57.47.83.73a8.91,8.91,0,0,1,1.84,2.43c.44.84.66,2,.3,2.43s-1.19.38-2-.12a3.49,3.49,0,0,1-1.62-2.13,4.06,4.06,0,0,1,.65-3.36ZM337.18,8.37c.83,1.5-1.07,3.87-2.73,3.54a2,2,0,0,1-1.5-1.75,3.41,3.41,0,0,1,1.55-2.25c.4-.3.82-.58,1.25-.84A3.27,3.27,0,0,1,337.18,8.37ZM325.8,7.6a13.11,13.11,0,0,1,6.09-1.36,10.17,10.17,0,0,1,2.51.38c-.2.14-.41.25-.6.4a4.43,4.43,0,0,0-2,3.11,3.17,3.17,0,0,0,2.44,2.94,3.69,3.69,0,0,0,3.45-1.5,3.52,3.52,0,0,0,.59-3.72A4.19,4.19,0,0,0,337,6.45a24.92,24.92,0,0,1,3.24-1.25A28.36,28.36,0,0,1,346.66,4a19.27,19.27,0,0,1,6.37.61,10.89,10.89,0,0,1,3.36,1.71,5.52,5.52,0,0,0-.93,4.6,4.88,4.88,0,0,0,2.29,3,4.43,4.43,0,0,0,1.86.63,2.19,2.19,0,0,0,2.09-1,2.81,2.81,0,0,0,.35-2.1,5.11,5.11,0,0,0-.61-1.77A10.44,10.44,0,0,0,359.27,7c-.28-.25-.58-.49-.88-.73a6.63,6.63,0,0,1,.69-.49,9.2,9.2,0,0,1,6-.7,20.57,20.57,0,0,1,6.06,2,9.2,9.2,0,0,1,3.78,3.56c-1.24.52-2.48,1-3.7,1.56-2,.93-4,1.9-6,2.95-1.36.72-2.66,1.47-4,2.18H361a45.58,45.58,0,0,1-6-1.12,26.35,26.35,0,0,1-5.43-2.74A12,12,0,0,0,343,12a24.87,24.87,0,0,0-6.43,1.44,67.56,67.56,0,0,0-10.48,4.45c-1.38-.5-2.77-1-4.17-1.48s-3-.91-4.5-1.31a21.13,21.13,0,0,1,8.42-7.46Z"/><path class="cls-1" d="M441,16.07a3.1,3.1,0,0,0,2.16,2.14A6,6,0,0,0,446.8,18a5.5,5.5,0,0,0,3-2.23,2.22,2.22,0,0,0,0-2.33A4.43,4.43,0,0,0,448.41,12a4.1,4.1,0,0,0-3.92-.07h0a.85.85,0,0,0-.61,1,.83.83,0,0,0,1,.61.72.72,0,0,0,.28-.13h0a2.46,2.46,0,0,1,2.3,0,3,3,0,0,1,.92.86.65.65,0,0,1,0,.75,5,5,0,0,1-4.87,1.77c-.84-.27-1.11-.73-1.35-1.87a10.84,10.84,0,0,1-.33-3,3.35,3.35,0,0,1,1-2.38,3.78,3.78,0,0,1,2.52-.71,17.82,17.82,0,0,1,6,1.49l6,2.35a57.83,57.83,0,0,0,12.71,3.48,32.3,32.3,0,0,0,13.23-.92A58.81,58.81,0,0,1,496,12.92c4.29-.36,8.61-.4,12.93-.37l13,.41c4.34.11,8.69.14,13.06-.07,2.18-.06,4.36-.26,6.54-.42s4.36-.51,6.52-.87l12.81-2.35c2.11-.37,4.12-1.42,6.23-1.9a57.36,57.36,0,0,1,6.4-.79,72.12,72.12,0,0,1,12.81-.11,21.72,21.72,0,0,1,6,1.43c1.86.82,3.24,2.12,3.48,3.9A4.5,4.5,0,0,1,594,16.33a4.44,4.44,0,0,1-4.68.48,3.72,3.72,0,0,1-1.52-1.69,4,4,0,0,1-.55-2.18.62.62,0,0,1,1.2-.27,2,2,0,0,0,.19.6,2,2,0,0,0,3.56-1.72L591.9,11a4.36,4.36,0,0,0-4.83-2.21,4.27,4.27,0,0,0-2.35,1.49,4.37,4.37,0,0,0-.91,2.47,7.34,7.34,0,0,0,1.15,4,6.66,6.66,0,0,0,3,2.8,7.37,7.37,0,0,0,7.55-1.12,7,7,0,0,0,2.42-7A6.62,6.62,0,0,0,596.18,8a9.32,9.32,0,0,0-3.08-1.89,24,24,0,0,0-6.6-1.41,72.7,72.7,0,0,0-13.11.35c-2.18.18-4.31.61-6.49.74s-4.44-.26-6.59.11c-4.29.73-8.57,1.78-12.73,2.56-1.67.3-3.35.56-5,.8a46.21,46.21,0,0,0-10.77-2.38c-3.66-.41-7.33-.61-11-.69a176.53,176.53,0,0,0-21.93,1c-3.64.35-7.28.77-10.9,1.4a55.22,55.22,0,0,0-5.4,1.17c-1.83.52-3.45,1.14-5.23,1.46a35.63,35.63,0,0,1-10.71.52,39.32,39.32,0,0,1-7.46-1.12l-.9-.28-.77-.25c-.46-.15-.93-.29-1.37-.48h0a.6.6,0,0,0-.19-.06h-.16L452.12,8.4a22.49,22.49,0,0,0-6.65-1.25A5.49,5.49,0,0,0,442,8.38a4.93,4.93,0,0,0-1.48,3.45,12.07,12.07,0,0,0,.38,3.44Zm36.56-3.62a47.92,47.92,0,0,0,5.3-1.52,45,45,0,0,1,5.28-1.19c3.57-.64,7.18-1.11,10.8-1.44,7.25-.61,14.54-.7,21.8-.63,3.63.07,7.26.26,10.86.66a42.58,42.58,0,0,1,7.6,1.41A162.27,162.27,0,0,1,522,11l-13,.27c-4.33.07-8.68.23-13,.7s-8.59,1.36-12.85,2.18a33,33,0,0,1-12.56-.47l-2-.42A39.72,39.72,0,0,0,477.54,12.45Z"/></g></g></g></g></svg>