<svg xmlns="http://www.w3.org/2000/svg" viewBox="0 0 598.16 33.47"><defs><style>.cls-1{fill:#87775c;}</style></defs><g id="レイヤー_2" data-name="レイヤー 2"><g id="layer"><path class="cls-1" d="M162.58,21.41a11.36,11.36,0,0,0,7.65,1.25,8.62,8.62,0,0,0,6.5-5.28,14.57,14.57,0,0,0,.88-3.87,7.1,7.1,0,0,0-1.15-4.87,5,5,0,0,0-2.93-1.89,5.86,5.86,0,0,0-3.22.27,5.94,5.94,0,0,0-2.52,1.81,5.47,5.47,0,0,0-1.25,3.3,3,3,0,0,0,3,3,3,3,0,0,0,3-2.67,3.23,3.23,0,0,1,.09.81,10.83,10.83,0,0,1-.3,2.57,4,4,0,0,1-3,2.91,7.31,7.31,0,0,1-5.1-.4,3.83,3.83,0,0,1-2.42-3.7,9.31,9.31,0,0,1,2.37-5c2.58-2.83,7-3.94,11.14-4.47A31.3,31.3,0,0,1,181.73,5a24.68,24.68,0,0,1,4.07,1.22c-.05.17-.1.33-.13.49a6.55,6.55,0,0,0,1,4.45,14.23,14.23,0,0,0,2.23,2.78,25.87,25.87,0,0,0,5.29,4c.95.52,1.91,1,2.89,1.47a17.37,17.37,0,0,0,3.21.94,42.92,42.92,0,0,0,6.29.79c1,.12,2,1.41,3.07,1.67a20.84,20.84,0,0,0,3.16,0,78.15,78.15,0,0,0,12.43-1.49c3.53-.64,7-1.44,10.48-2.22.71.32,1.41.65,2.16.94a40.31,40.31,0,0,0,13,2.86,86.53,86.53,0,0,0,13.27-.69,110.1,110.1,0,0,0,13.13-2.08l6.27-1.52a19.93,19.93,0,0,1,5.73-.7,5.37,5.37,0,0,1,4.13,2.35,5.19,5.19,0,0,1-.27,5c-1.81,3.46-5.91,5.51-9.88,6-.95.13-2-.08-2.11-.33s-.13-1.1.28-2a21.63,21.63,0,0,1,3.44-5.09l0-.05a.1.1,0,0,0,0-.05,1.32,1.32,0,0,0-2.08-1.61A25.34,25.34,0,0,0,279.33,28a7,7,0,0,0-.49,1.9,3.2,3.2,0,0,0,.63,2.4,3.31,3.31,0,0,0,2.15,1.08,8.17,8.17,0,0,0,1.91,0,15.68,15.68,0,0,0,11.91-6.94,8.39,8.39,0,0,0,.9-7.6,7.28,7.28,0,0,0-2.68-3.19A10.36,10.36,0,0,0,290,14.15a18.08,18.08,0,0,0-7.27.4h-.05a42.29,42.29,0,0,0-4.11-4.34A21.39,21.39,0,0,0,273,6.33,14.28,14.28,0,0,0,266.23,5a12.27,12.27,0,0,0-3.43.62l-.46.18a23.2,23.2,0,0,0-4.12-1.66,30.47,30.47,0,0,0-6.63-1.2,20.14,20.14,0,0,0-6.77.52,12.22,12.22,0,0,0-3.88,1.91,5.77,5.77,0,0,0-1.13-.85,10.41,10.41,0,0,0-6.93-.85,21.59,21.59,0,0,0-6.48,2.15A11.64,11.64,0,0,0,221.75,10c-1.95-.79-3.93-1.53-5.92-2.23a4.77,4.77,0,0,0,.57-.53,9.85,9.85,0,0,1,1.76-1.45,15.21,15.21,0,0,1,4.2-1.91A39.62,39.62,0,0,1,227,3.19a13.53,13.53,0,0,1,4.66.15l.12,0a.94.94,0,0,0,.55,0,.94.94,0,0,0-.55-1.8,8.09,8.09,0,0,1-2.45.11c-.82,0-1.63,0-2.45.07a17.56,17.56,0,0,0-4.79,1.05,21.93,21.93,0,0,0-4.53,1.92,20.32,20.32,0,0,0-2.07,1.4,5.48,5.48,0,0,0-.88.92l-.18.15C212,6.37,209.52,5.64,207.05,5a2.78,2.78,0,0,0,.27-.21A10.88,10.88,0,0,1,209,3.46a13.12,13.12,0,0,1,4-1.68,22.9,22.9,0,0,1,4.29-.32,9.58,9.58,0,0,1,4.22.72l.14.07a1,1,0,0,0,.59.1A1,1,0,1,0,222,.47a8.88,8.88,0,0,1-2.32-.24,15,15,0,0,0-2.31-.2,13,13,0,0,0-4.58.72,18.74,18.74,0,0,0-4.29,1.68c-.68.37-1.35.76-2,1.19a7.13,7.13,0,0,0-.87.78l-.2.13c-1.2-.31-2.4-.64-3.61-.91q-3.36-.77-6.78-1.31A3,3,0,0,0,193.46,2h-.09l-.55,0c-1.43-.2-2.85-.41-4.29-.55-2.25-.16-4.56.84-6.78,1.13s-4.45.08-6.69.37a31.88,31.88,0,0,0-6.68,1.33,15,15,0,0,0-6.17,3.55,12.21,12.21,0,0,0-3.4,6.58,6.8,6.8,0,0,0,.82,4.11A7.92,7.92,0,0,0,162.58,21.41Zm9.71-9.49s.06,0,.1.13S172.28,11.94,172.29,11.92Zm.19.34,0,.1C172.44,12.43,172.4,12.35,172.48,12.26Zm91.44,8.26a38.32,38.32,0,0,1-12.88,1A35.06,35.06,0,0,1,239,18.37c1.49-.34,3-.7,4.5-.95,2.05-.32,4.2-.24,6.38-.67a49,49,0,0,1,5.4-.83A23.5,23.5,0,0,1,261,16a26.5,26.5,0,0,1,8.11,2.93C267.4,19.5,265.68,20.07,263.92,20.52Zm-1.5-13.43a11.86,11.86,0,0,1,1.25.84,3.4,3.4,0,0,1,1.55,2.24,2,2,0,0,1-1.5,1.76c-1.66.32-3.56-2-2.73-3.54A3.2,3.2,0,0,1,262.42,7.09Zm-21.09,3.46a3.43,3.43,0,0,1-1.62,2.12c-.83.51-1.8.61-2,.13s-.14-1.59.3-2.44a9,9,0,0,1,1.85-2.45c.26-.25.55-.49.83-.73A4.07,4.07,0,0,1,241.33,10.55ZM227.06,7a20.19,20.19,0,0,1,6.06-2,9,9,0,0,1,6,.7,5.33,5.33,0,0,1,.69.48c-.3.25-.6.49-.88.74a10.11,10.11,0,0,0-2.17,2.78,5.09,5.09,0,0,0-.61,1.77,2.84,2.84,0,0,0,.35,2.1,2.18,2.18,0,0,0,2.09.94,4.55,4.55,0,0,0,1.86-.62,4.94,4.94,0,0,0,2.29-3,5.49,5.49,0,0,0-.93-4.6,10.92,10.92,0,0,1,3.36-1.72,19.09,19.09,0,0,1,6.37-.6,29,29,0,0,1,6.39,1.18,26.44,26.44,0,0,1,3.24,1.25,4.13,4.13,0,0,0-1.26,1.45,3.53,3.53,0,0,0,.59,3.72,3.7,3.7,0,0,0,3.45,1.5A2.85,2.85,0,0,0,265.64,12a2.8,2.8,0,0,0,.73-1.88,4.39,4.39,0,0,0-2-3.11c-.19-.15-.4-.27-.6-.4a10.17,10.17,0,0,1,2.51-.38,13,13,0,0,1,6.09,1.36A21,21,0,0,1,280.79,15c-1.53.4-3,.84-4.5,1.31s-2.79,1-4.17,1.48a66.74,66.74,0,0,0-10.48-4.45,24.67,24.67,0,0,0-6.43-1.44,11.91,11.91,0,0,0-6.6,1.47,26.81,26.81,0,0,1-5.43,2.73,43.43,43.43,0,0,1-6,1.12,2.48,2.48,0,0,1-.27,0c-1.29-.71-2.59-1.47-3.95-2.19-2-1-4-2-6-2.94-1.22-.55-2.46-1.05-3.7-1.56A9.18,9.18,0,0,1,227.06,7Zm-1.21,7.89c2,.74,4.05,1.53,6,2.39l.74.34c-2.56.15-5.12.2-7.66.22-4.08,0-8.13-.18-12.12-.26-1,0-2-.15-3-.06s-2,1.37-3.07,1.35a33.07,33.07,0,0,1-5.86-1,15.07,15.07,0,0,1-2.59-1,23.25,23.25,0,0,1-2.48-1.53,19.3,19.3,0,0,1-4.11-3.89,10.15,10.15,0,0,1-1.31-2.22c-.31-.71-.29-1.44-.16-1.46s0,.1.1.11a1.94,1.94,0,0,0,.49,0,8.19,8.19,0,0,1,2.15.23,3.55,3.55,0,0,0,.81.06,3.08,3.08,0,0,0,1.52-.53q2.73.39,5.46.85A154.45,154.45,0,0,1,225.85,14.93Z"/><path class="cls-1" d="M2.61,18.4a7.36,7.36,0,0,0,7.55,1.11,6.73,6.73,0,0,0,3-2.8,7.26,7.26,0,0,0,1.15-4,4.35,4.35,0,0,0-.91-2.48,4.21,4.21,0,0,0-2.35-1.48A4.35,4.35,0,0,0,6.24,11L6,11.57a2.24,2.24,0,0,0-.17.59,2,2,0,0,0,3.94.56.63.63,0,0,1,1.21.27,4,4,0,0,1-.55,2.18,3.75,3.75,0,0,1-1.52,1.69,4.46,4.46,0,0,1-4.68-.48,4.51,4.51,0,0,1-1.79-4.55C2.63,10.05,4,8.74,5.87,7.92a21.28,21.28,0,0,1,6-1.42,70.32,70.32,0,0,1,12.81.08,53.24,53.24,0,0,1,6.4.78c2.11.49,4.12,1.54,6.23,1.91l12.78,2.28c2.16.37,4.34.62,6.52.87s4.36.37,6.54.43c4.37.21,8.72.18,13.06.06l13-.4c4.32,0,8.64,0,12.93.36a58.93,58.93,0,0,1,12.68,2.35,32.27,32.27,0,0,0,13.23.93,59,59,0,0,0,12.71-3.48l6-2.36a18.18,18.18,0,0,1,6-1.49,3.83,3.83,0,0,1,2.52.72,3.28,3.28,0,0,1,1,2.38,10.72,10.72,0,0,1-.33,3c-.24,1.14-.51,1.59-1.35,1.87A5.06,5.06,0,0,1,149.73,15a.64.64,0,0,1,0-.75,3,3,0,0,1,.92-.87,2.47,2.47,0,0,1,2.3,0l.06,0h0a.84.84,0,0,0,1.12-.39.83.83,0,0,0-.38-1.12,4,4,0,0,0-3.92.06,4.58,4.58,0,0,0-1.39,1.38,2.23,2.23,0,0,0,0,2.32,5.57,5.57,0,0,0,3,2.24,6,6,0,0,0,3.66.26,3.18,3.18,0,0,0,1.71-1.2,3.25,3.25,0,0,0,.45-.94l.22-.83a12.19,12.19,0,0,0,.38-3.44,4.86,4.86,0,0,0-1.48-3.44,5.37,5.37,0,0,0-3.52-1.23,22.16,22.16,0,0,0-6.65,1.25l-3.62,1.16a1.09,1.09,0,0,0-.4.07h0c-.44.2-.91.33-1.37.49l-.77.25-.9.28a39.88,39.88,0,0,1-7.46,1.12,36.28,36.28,0,0,1-10.71-.52c-1.78-.32-3.4-.95-5.23-1.46s-3.59-.87-5.4-1.18c-3.62-.63-7.26-1-10.9-1.39a174.53,174.53,0,0,0-21.93-1c-3.66.07-7.33.28-11,.69A45.2,45.2,0,0,0,55.67,9.31c-1.68-.25-3.36-.5-5-.8C46.48,7.73,42.2,6.67,37.91,6c-2.15-.37-4.42,0-6.59-.11S27,5.28,24.83,5.1a71.65,71.65,0,0,0-13.11-.35,24,24,0,0,0-6.6,1.4A9.43,9.43,0,0,0,2,8.05,6.53,6.53,0,0,0,.19,11.39,7,7,0,0,0,2.61,18.4Zm64-10.08c3.6-.39,7.23-.59,10.86-.65,7.26-.07,14.55,0,21.8.63,3.62.32,7.23.8,10.8,1.43,1.78.32,3.55.71,5.28,1.2s3.48,1.18,5.3,1.51a40.21,40.21,0,0,0,9,.82c-.65.14-1.29.29-2,.41a33,33,0,0,1-12.56.48c-4.26-.82-8.53-1.71-12.85-2.19s-8.68-.62-13-.69l-13-.27A166.52,166.52,0,0,1,59,9.76,43.15,43.15,0,0,1,66.6,8.32Z"/><path class="cls-1" d="M314.63,33.42a8.17,8.17,0,0,0,1.91,0,3.31,3.31,0,0,0,2.15-1.08,3.15,3.15,0,0,0,.63-2.4,6.7,6.7,0,0,0-.49-1.9,25.31,25.31,0,0,0-3.6-5.93s0,0-.05-.05a1.32,1.32,0,0,0-2,1.71l0,.05a21.67,21.67,0,0,1,3.45,5.09c.4.87.46,1.84.27,2s-1.16.46-2.11.33c-4-.47-8.07-2.52-9.88-6a5.22,5.22,0,0,1-.27-5,5.39,5.39,0,0,1,4.13-2.35,19.89,19.89,0,0,1,5.73.7l6.27,1.52a110.43,110.43,0,0,0,13.13,2.08,86.6,86.6,0,0,0,13.27.69,40.31,40.31,0,0,0,13-2.86c.75-.29,1.45-.62,2.16-.94,3.47.78,6.95,1.58,10.48,2.22a78.28,78.28,0,0,0,12.43,1.49,20.84,20.84,0,0,0,3.16,0c1.06-.26,2-1.55,3.07-1.67a42.92,42.92,0,0,0,6.29-.79,17.37,17.37,0,0,0,3.21-.94c1-.44,1.94-1,2.89-1.47a25.6,25.6,0,0,0,5.29-4,13.87,13.87,0,0,0,2.23-2.78,6.55,6.55,0,0,0,1-4.45,3.24,3.24,0,0,0-.13-.49A25,25,0,0,1,416.43,5a31.3,31.3,0,0,1,6.42.26C427,5.76,431.41,6.87,434,9.7a9.23,9.23,0,0,1,2.37,5,3.8,3.8,0,0,1-2.42,3.7,7.31,7.31,0,0,1-5.1.4,4,4,0,0,1-3-2.91,10.83,10.83,0,0,1-.3-2.57,3.23,3.23,0,0,1,.09-.81,3,3,0,0,0,3,2.67,3,3,0,0,0,3-3,5.53,5.53,0,0,0-1.25-3.3A6,6,0,0,0,427.85,7a5.83,5.83,0,0,0-3.21-.27,5,5,0,0,0-2.94,1.89,7.09,7.09,0,0,0-1.14,4.87,15,15,0,0,0,.87,3.87,8.64,8.64,0,0,0,6.5,5.28,11.35,11.35,0,0,0,7.65-1.25,7.92,7.92,0,0,0,2.95-2.86,6.73,6.73,0,0,0,.82-4.11A12.19,12.19,0,0,0,436,7.86a15.12,15.12,0,0,0-6.18-3.55A31.75,31.75,0,0,0,423.1,3c-2.23-.29-4.46-.16-6.69-.37s-4.52-1.29-6.78-1.13c-1.44.14-2.86.35-4.29.55l-.54,0h-.11a3.64,3.64,0,0,0-.8.06,3.53,3.53,0,0,0-.73.27q-3.41.54-6.77,1.31c-1.21.27-2.4.6-3.6.91a1.37,1.37,0,0,1-.2-.13,7.22,7.22,0,0,0-.88-.78c-.65-.43-1.32-.82-2-1.19A18.39,18.39,0,0,0,385.42.75,12.91,12.91,0,0,0,380.85,0a14.8,14.8,0,0,0-2.31.2,8.92,8.92,0,0,1-2.32.24,1,1,0,0,0-.6.1.95.95,0,1,0,.88,1.68l.15-.07a9.53,9.53,0,0,1,4.22-.72,22.86,22.86,0,0,1,4.28.32,13,13,0,0,1,4,1.68,10.88,10.88,0,0,1,1.72,1.29,2.78,2.78,0,0,0,.27.21c-2.47.68-4.93,1.41-7.35,2.24l-.18-.15a5.85,5.85,0,0,0-.87-.92,20.45,20.45,0,0,0-2.08-1.4,21.7,21.7,0,0,0-4.53-1.92,17.56,17.56,0,0,0-4.79-1c-.81-.06-1.63-.05-2.45-.07a8.12,8.12,0,0,1-2.45-.11,1,1,0,0,0-.55,0,.94.94,0,0,0,.55,1.8l.13,0a13.46,13.46,0,0,1,4.65-.15,39.62,39.62,0,0,1,4.61.64A15.08,15.08,0,0,1,380,5.74a9.85,9.85,0,0,1,1.76,1.45,4.77,4.77,0,0,0,.57.53c-2,.7-4,1.44-5.92,2.23a11.57,11.57,0,0,0-4.65-4.14,21.59,21.59,0,0,0-6.48-2.15,10.41,10.41,0,0,0-6.93.85,5.71,5.71,0,0,0-1.12.85,12.33,12.33,0,0,0-3.88-1.91,20.2,20.2,0,0,0-6.78-.52,30.47,30.47,0,0,0-6.63,1.2,23.2,23.2,0,0,0-4.12,1.66l-.46-.18A12.2,12.2,0,0,0,331.93,5a14.22,14.22,0,0,0-6.74,1.34,21.44,21.44,0,0,0-5.6,3.89,42.29,42.29,0,0,0-4.11,4.34h0a18.14,18.14,0,0,0-7.28-.4,10.36,10.36,0,0,0-3.66,1.54,7.34,7.34,0,0,0-2.68,3.19,8.39,8.39,0,0,0,.9,7.6A15.71,15.71,0,0,0,314.63,33.42Zm111-21.06a.3.3,0,0,1,0-.1C425.77,12.35,425.73,12.43,425.66,12.36Zm.21-.44s0,.08-.1.13S425.85,11.9,425.87,11.92Zm-78.75,9.61a38.32,38.32,0,0,1-12.88-1c-1.76-.45-3.48-1-5.19-1.62A26.5,26.5,0,0,1,337.16,16a23.5,23.5,0,0,1,5.74-.05,49,49,0,0,1,5.4.83c2.18.43,4.34.35,6.38.67,1.52.25,3,.61,4.5.95A35.06,35.06,0,0,1,347.12,21.53ZM397.36,8.44c1.82-.31,3.63-.59,5.45-.85a3.07,3.07,0,0,0,2.34.47,8.19,8.19,0,0,1,2.15-.23,2,2,0,0,0,.5,0c.06,0,0-.13.09-.11s.15.75-.15,1.46a11,11,0,0,1-1.31,2.22,19.6,19.6,0,0,1-4.12,3.89,23.11,23.11,0,0,1-2.47,1.53,14.86,14.86,0,0,1-2.6,1,32.91,32.91,0,0,1-5.86,1c-1,0-2.08-1.15-3.07-1.35s-2,.07-3,.06c-4,.08-8.05.24-12.12.26-2.55,0-5.11-.07-7.66-.22l.73-.34c2-.86,4-1.65,6-2.39A155,155,0,0,1,397.36,8.44ZM357.49,7.18c.29.24.57.48.84.73a9,9,0,0,1,1.85,2.45c.43.85.65,2,.29,2.44s-1.19.38-2-.13a3.43,3.43,0,0,1-1.62-2.12A4.11,4.11,0,0,1,357.49,7.18ZM337.17,8.39c.84,1.5-1.06,3.86-2.73,3.54a2,2,0,0,1-1.5-1.76,3.43,3.43,0,0,1,1.55-2.24,12,12,0,0,1,1.26-.84A3.23,3.23,0,0,1,337.17,8.39Zm-11.38-.77a13,13,0,0,1,6.09-1.36,10.1,10.1,0,0,1,2.51.38c-.2.13-.4.25-.6.4a4.42,4.42,0,0,0-2,3.11,2.8,2.8,0,0,0,.73,1.88,2.84,2.84,0,0,0,1.72,1.06,3.69,3.69,0,0,0,3.44-1.5,3.53,3.53,0,0,0,.59-3.72A4.11,4.11,0,0,0,337,6.42a25.25,25.25,0,0,1,3.24-1.25A28.82,28.82,0,0,1,346.64,4a19.17,19.17,0,0,1,6.38.6,10.87,10.87,0,0,1,3.35,1.72,5.53,5.53,0,0,0-.93,4.6,4.94,4.94,0,0,0,2.29,3,4.55,4.55,0,0,0,1.86.62,2.17,2.17,0,0,0,2.09-.94,2.89,2.89,0,0,0,.36-2.1,5.1,5.1,0,0,0-.62-1.77A10.11,10.11,0,0,0,359.25,7c-.28-.25-.58-.49-.87-.74a4.63,4.63,0,0,1,.68-.48,9,9,0,0,1,6-.7,20.1,20.1,0,0,1,6.06,2,9.18,9.18,0,0,1,3.78,3.56c-1.24.51-2.48,1-3.7,1.56q-3,1.38-6,2.94c-1.36.72-2.67,1.48-4,2.19a2.06,2.06,0,0,1-.26,0,43.58,43.58,0,0,1-6-1.12,26.47,26.47,0,0,1-5.42-2.73A11.92,11.92,0,0,0,343,11.94a24.86,24.86,0,0,0-6.43,1.44A67.15,67.15,0,0,0,326,17.83c-1.38-.5-2.77-1-4.17-1.48s-3-.91-4.5-1.31A21,21,0,0,1,325.79,7.62Z"/><path class="cls-1" d="M441,16.09a3.28,3.28,0,0,0,.46.94,3.12,3.12,0,0,0,1.7,1.2,6,6,0,0,0,3.66-.26,5.63,5.63,0,0,0,3-2.24,2.23,2.23,0,0,0-.05-2.32A4.58,4.58,0,0,0,448.31,12a4,4,0,0,0-3.92-.06h0a.84.84,0,1,0,.77,1.49l.06,0a2.47,2.47,0,0,1,2.3,0,3,3,0,0,1,.92.87.61.61,0,0,1,0,.75,5.05,5.05,0,0,1-4.87,1.77c-.84-.28-1.11-.73-1.34-1.87a10.36,10.36,0,0,1-.33-3,3.24,3.24,0,0,1,1-2.38,3.84,3.84,0,0,1,2.53-.72,18.12,18.12,0,0,1,6,1.49l6,2.36a59.09,59.09,0,0,0,12.72,3.48,32.23,32.23,0,0,0,13.22-.93A59,59,0,0,1,496,12.87c4.3-.36,8.61-.4,12.93-.36l13,.4c4.34.12,8.7.15,13.06-.06,2.18-.06,4.36-.26,6.55-.43s4.35-.5,6.51-.87l12.78-2.28c2.11-.37,4.12-1.42,6.23-1.91a53.15,53.15,0,0,1,6.41-.78,70.21,70.21,0,0,1,12.8-.08,21.34,21.34,0,0,1,6,1.42c1.85.82,3.24,2.13,3.47,3.91a4.6,4.6,0,0,1-6.46,5,3.64,3.64,0,0,1-1.52-1.69,4.06,4.06,0,0,1-.56-2.18.63.63,0,0,1,1.21-.27,2.18,2.18,0,0,0,.18.6,2,2,0,0,0,3.58-1.76l-.28-.58a4.34,4.34,0,0,0-4.83-2.21,4.25,4.25,0,0,0-2.35,1.48,4.34,4.34,0,0,0-.9,2.48,7.17,7.17,0,0,0,1.14,4,6.78,6.78,0,0,0,3,2.8,7.38,7.38,0,0,0,7.56-1.11,6.94,6.94,0,0,0,2.41-7,6.53,6.53,0,0,0-1.85-3.34A9.33,9.33,0,0,0,593,6.15a24,24,0,0,0-6.59-1.4,71.73,71.73,0,0,0-13.12.35c-2.17.18-4.31.61-6.48.74s-4.45-.26-6.6.11c-4.28.72-8.57,1.78-12.73,2.56-1.67.3-3.35.55-5,.8a45.09,45.09,0,0,0-10.77-2.38c-3.66-.41-7.32-.62-11-.69a174.53,174.53,0,0,0-21.93,1c-3.64.35-7.28.76-10.9,1.39-1.81.31-3.61.69-5.4,1.18s-3.44,1.14-5.23,1.46a36.27,36.27,0,0,1-10.71.52,40.13,40.13,0,0,1-7.46-1.12l-.9-.28-.77-.25c-.46-.16-.93-.29-1.37-.49h0l-.19-.06h-.15L452,8.4a22.16,22.16,0,0,0-6.65-1.25,5.37,5.37,0,0,0-3.52,1.23,4.86,4.86,0,0,0-1.48,3.44,12.19,12.19,0,0,0,.38,3.44Zm36.56-3.65c1.82-.33,3.62-1,5.3-1.51s3.5-.88,5.28-1.2c3.57-.63,7.18-1.11,10.8-1.43,7.26-.61,14.54-.7,21.8-.63,3.64.06,7.26.26,10.86.65a43.44,43.44,0,0,1,7.57,1.44A166.93,166.93,0,0,1,521.93,11l-13,.27c-4.33.07-8.68.22-13,.69s-8.6,1.37-12.86,2.19a33,33,0,0,1-12.56-.48c-.65-.12-1.3-.27-1.95-.41A40.15,40.15,0,0,0,477.52,12.44Z"/></g></g></svg>