<svg xmlns="http://www.w3.org/2000/svg" viewBox="0 0 598.16 33.47"><defs><style>.cls-1{fill:#87775c;}</style></defs><g id="レイヤー_2" data-name="レイヤー 2"><g id="layer"><path class="cls-1" d="M435.58,12.05a11.29,11.29,0,0,0-7.65-1.24,8.6,8.6,0,0,0-6.5,5.28,15,15,0,0,0-.87,3.86,7.08,7.08,0,0,0,1.14,4.87,5,5,0,0,0,2.94,1.89,5.65,5.65,0,0,0,3.21-.27,6,6,0,0,0,2.53-1.8,5.59,5.59,0,0,0,1.25-3.31,3,3,0,0,0-6-.36,3.23,3.23,0,0,1-.09-.81,11,11,0,0,1,.3-2.58,4,4,0,0,1,3-2.9,7.31,7.31,0,0,1,5.1.4,3.8,3.8,0,0,1,2.42,3.7,9.23,9.23,0,0,1-2.37,5c-2.58,2.82-7,3.94-11.14,4.46a30.61,30.61,0,0,1-6.42.26,24,24,0,0,1-4.07-1.22,2.72,2.72,0,0,0,.13-.49,6.53,6.53,0,0,0-1-4.44,14.23,14.23,0,0,0-2.23-2.79,25.2,25.2,0,0,0-5.29-4c-.95-.53-1.9-1-2.89-1.47a16.63,16.63,0,0,0-3.21-.94,42.92,42.92,0,0,0-6.29-.79c-1-.13-2-1.41-3.07-1.68a22.22,22.22,0,0,0-3.16,0,78.28,78.28,0,0,0-12.43,1.49c-3.53.64-7,1.44-10.48,2.22-.71-.33-1.41-.65-2.16-1a40.56,40.56,0,0,0-13-2.85,85.35,85.35,0,0,0-13.27.69,112.49,112.49,0,0,0-13.13,2.07l-6.27,1.53a19.89,19.89,0,0,1-5.73.7,5.45,5.45,0,0,1-4.13-2.35,5.22,5.22,0,0,1,.27-5c1.81-3.46,5.91-5.52,9.88-6a3,3,0,0,1,2.11.32c.19.13.13,1.1-.27,2a21.53,21.53,0,0,1-3.45,5.1l0,.05,0,0a1.32,1.32,0,1,0,2.09,1.61,25.1,25.1,0,0,0,3.6-5.93,6.63,6.63,0,0,0,.49-1.89,3.15,3.15,0,0,0-.63-2.4A3.31,3.31,0,0,0,316.54.07a8.17,8.17,0,0,0-1.91,0A15.67,15.67,0,0,0,302.72,7a8.37,8.37,0,0,0-.9,7.59,7.32,7.32,0,0,0,2.68,3.2,10.34,10.34,0,0,0,3.66,1.53,18,18,0,0,0,7.28-.39h0a42.29,42.29,0,0,0,4.11,4.34,21.68,21.68,0,0,0,5.6,3.89,14.46,14.46,0,0,0,6.74,1.34,12.2,12.2,0,0,0,3.43-.62l.46-.18a23.2,23.2,0,0,0,4.12,1.66,31.08,31.08,0,0,0,6.63,1.2,20.2,20.2,0,0,0,6.78-.52,12.33,12.33,0,0,0,3.88-1.91,5.65,5.65,0,0,0,1.12.84,10.36,10.36,0,0,0,6.93.86,21.87,21.87,0,0,0,6.48-2.15,11.6,11.6,0,0,0,4.65-4.15c1.95.79,3.93,1.54,5.92,2.24a5.68,5.68,0,0,0-.57.52A9.85,9.85,0,0,1,380,27.72a15.1,15.1,0,0,1-4.2,1.92,39.62,39.62,0,0,1-4.61.64,13.71,13.71,0,0,1-4.65-.15l-.13,0a.86.86,0,0,0-.55,0,.94.94,0,0,0,.55,1.79,8.44,8.44,0,0,1,2.45-.1c.82,0,1.64,0,2.45-.07a17.57,17.57,0,0,0,4.79-1.06,21.18,21.18,0,0,0,4.53-1.92,20.35,20.35,0,0,0,2.08-1.39,6.32,6.32,0,0,0,.87-.92l.18-.15c2.42.82,4.88,1.56,7.35,2.24a1.31,1.31,0,0,0-.27.21A11.52,11.52,0,0,1,389.12,30a13.53,13.53,0,0,1-4,1.68,22.84,22.84,0,0,1-4.28.31,9.66,9.66,0,0,1-4.22-.71l-.15-.08a.91.91,0,0,0-.59-.09,1,1,0,0,0-.79,1.09,1,1,0,0,0,1.1.79,8.92,8.92,0,0,1,2.32.24,17.7,17.7,0,0,0,2.31.2,12.91,12.91,0,0,0,4.57-.72A19.31,19.31,0,0,0,389.71,31c.68-.37,1.35-.77,2-1.19a7.22,7.22,0,0,0,.88-.78l.2-.14c1.2.31,2.39.65,3.6.92,2.24.51,4.5.94,6.78,1.31a2.93,2.93,0,0,0,1.53.32h.1l.54,0c1.43.19,2.85.41,4.29.55,2.26.16,4.56-.85,6.78-1.13s4.46-.09,6.69-.37a32.4,32.4,0,0,0,6.68-1.33A15.14,15.14,0,0,0,436,25.6,12.13,12.13,0,0,0,439.35,19a6.73,6.73,0,0,0-.82-4.11A8,8,0,0,0,435.58,12.05Zm-9.71,9.5s-.06,0-.1-.13S425.88,21.53,425.87,21.55Zm-.19-.34a.36.36,0,0,1,0-.1C425.73,21,425.77,21.12,425.68,21.21Zm-91.44-8.27a38.57,38.57,0,0,1,12.88-1,34.83,34.83,0,0,1,12.06,3.16c-1.49.33-3,.7-4.5.94-2,.32-4.2.25-6.38.67a49.1,49.1,0,0,1-5.4.84,23.5,23.5,0,0,1-5.74-.05,26.26,26.26,0,0,1-8.11-2.94C330.76,14,332.48,13.4,334.24,12.94Zm1.51,13.44a13.79,13.79,0,0,1-1.26-.84,3.45,3.45,0,0,1-1.55-2.25,2,2,0,0,1,1.5-1.75c1.67-.33,3.57,2,2.73,3.54A3.28,3.28,0,0,1,335.75,26.38Zm21.08-3.46a3.48,3.48,0,0,1,1.62-2.13c.83-.5,1.8-.6,2-.12s.14,1.59-.29,2.43a8.85,8.85,0,0,1-1.85,2.45c-.27.26-.55.49-.84.73A4.09,4.09,0,0,1,356.83,22.92Zm14.27,3.51a20.38,20.38,0,0,1-6.06,2,9.14,9.14,0,0,1-6-.7,4.69,4.69,0,0,1-.68-.49c.29-.24.59-.48.87-.73a10.26,10.26,0,0,0,2.17-2.78A5.17,5.17,0,0,0,362,22a2.89,2.89,0,0,0-.36-2.1,2.2,2.2,0,0,0-2.09-.95,4.56,4.56,0,0,0-1.86.63,4.89,4.89,0,0,0-2.29,3,5.53,5.53,0,0,0,.93,4.6A10.85,10.85,0,0,1,353,28.87a19.17,19.17,0,0,1-6.38.61,28.28,28.28,0,0,1-6.38-1.19A22.61,22.61,0,0,1,337,27a4.16,4.16,0,0,0,1.25-1.44,3.53,3.53,0,0,0-.59-3.72,3.69,3.69,0,0,0-3.44-1.5,3.17,3.17,0,0,0-2.45,2.94,4.44,4.44,0,0,0,2,3.11c.2.15.4.26.6.4a10.1,10.1,0,0,1-2.51.38,13,13,0,0,1-6.09-1.36,21.06,21.06,0,0,1-8.42-7.42c1.53-.4,3-.84,4.5-1.31s2.79-1,4.17-1.48a67.15,67.15,0,0,0,10.48,4.45A24.86,24.86,0,0,0,343,21.53a12,12,0,0,0,6.61-1.47A26,26,0,0,1,355,17.32a46.78,46.78,0,0,1,6-1.12l.26,0c1.29.71,2.6,1.46,4,2.18,2,1.05,4,2,6,2.95,1.22.54,2.46,1,3.7,1.56A9.18,9.18,0,0,1,371.1,26.43Zm1.21-7.9q-3-1.09-6-2.39l-.73-.33c2.55-.15,5.11-.2,7.66-.22,4.07,0,8.12.18,12.12.26,1,0,2,.15,3,.06s2.06-1.37,3.07-1.35a32,32,0,0,1,5.86,1,13.45,13.45,0,0,1,2.6,1.05,21.61,21.61,0,0,1,2.47,1.53A19.6,19.6,0,0,1,406.43,22a10.74,10.74,0,0,1,1.31,2.22c.3.7.28,1.43.15,1.46s0-.1-.09-.12a3.19,3.19,0,0,0-.5,0,8.19,8.19,0,0,1-2.15-.23,3.51,3.51,0,0,0-.8-.06,3,3,0,0,0-1.53.53c-1.82-.26-3.64-.54-5.46-.86A154,154,0,0,1,372.31,18.53Z"/><path class="cls-1" d="M595.56,15.07A7.41,7.41,0,0,0,588,14a6.78,6.78,0,0,0-3,2.8,7.23,7.23,0,0,0-1.14,4,4.2,4.2,0,0,0,3.25,4,4.35,4.35,0,0,0,4.83-2.21l.29-.59a1.93,1.93,0,0,0,.18-.59,2,2,0,1,0-3.95-.56.63.63,0,0,1-1.21-.27,4.06,4.06,0,0,1,.56-2.18,3.64,3.64,0,0,1,1.52-1.69,4.6,4.6,0,0,1,6.46,5c-.23,1.78-1.62,3.08-3.47,3.9a21.35,21.35,0,0,1-6,1.43,71.11,71.11,0,0,1-12.8-.08,55.27,55.27,0,0,1-6.41-.79c-2.11-.48-4.12-1.53-6.23-1.9l-12.78-2.29c-2.16-.36-4.34-.61-6.51-.87s-4.37-.36-6.55-.42c-4.36-.21-8.72-.18-13.06-.07L509,21c-4.32,0-8.63,0-12.93-.37a58.43,58.43,0,0,1-12.68-2.35,32.4,32.4,0,0,0-13.22-.92A58.52,58.52,0,0,0,457.4,20.8l-6,2.35a17.64,17.64,0,0,1-6,1.49,3.78,3.78,0,0,1-2.53-.71,3.25,3.25,0,0,1-1-2.38,10.28,10.28,0,0,1,.33-3c.23-1.14.5-1.6,1.34-1.87a5.06,5.06,0,0,1,4.87,1.77.61.61,0,0,1,0,.75,3,3,0,0,1-.92.86,2.47,2.47,0,0,1-2.3,0l-.06,0h0a.84.84,0,0,0-1.13.38.84.84,0,0,0,.38,1.13,4.08,4.08,0,0,0,3.92-.07,4.44,4.44,0,0,0,1.39-1.37,2.25,2.25,0,0,0,.05-2.33,5.66,5.66,0,0,0-3-2.23,6,6,0,0,0-3.66-.26,3.12,3.12,0,0,0-1.7,1.2,3.28,3.28,0,0,0-.46.94l-.22.82a12.19,12.19,0,0,0-.38,3.44,4.88,4.88,0,0,0,1.48,3.45,5.43,5.43,0,0,0,3.52,1.23A22.48,22.48,0,0,0,452,25.07l3.63-1.16a.91.91,0,0,0,.39-.08h0c.44-.19.91-.33,1.37-.48l.77-.25.9-.28a40.13,40.13,0,0,1,7.46-1.12,35.93,35.93,0,0,1,10.71.52,53.28,53.28,0,0,1,5.23,1.46,53.62,53.62,0,0,0,5.4,1.17c3.62.63,7.26,1.05,10.9,1.4a174.53,174.53,0,0,0,21.93,1c3.67-.08,7.33-.28,11-.69a45.58,45.58,0,0,0,10.77-2.38c1.68.24,3.36.5,5,.8,4.16.78,8.45,1.83,12.73,2.56,2.15.37,4.42,0,6.6.11s4.31.56,6.48.74a71.73,71.73,0,0,0,13.12.35A23.7,23.7,0,0,0,593,27.31a9.14,9.14,0,0,0,3.08-1.89A6.61,6.61,0,0,0,598,22.08,6.94,6.94,0,0,0,595.56,15.07Zm-64,10.07c-3.6.4-7.22.59-10.86.66-7.26.07-14.54,0-21.8-.63-3.62-.33-7.23-.8-10.8-1.44-1.78-.32-3.55-.7-5.28-1.19s-3.48-1.18-5.3-1.52a40.14,40.14,0,0,0-8.95-.81l1.95-.42a33.19,33.19,0,0,1,12.56-.47c4.26.82,8.53,1.71,12.86,2.18s8.67.63,13,.7l13,.27a164.17,164.17,0,0,1,17.2,1.24A42.51,42.51,0,0,1,531.56,25.14Z"/><path class="cls-1" d="M283.53.05a8.17,8.17,0,0,0-1.91,0,3.31,3.31,0,0,0-2.15,1.08,3.19,3.19,0,0,0-.63,2.4,7,7,0,0,0,.49,1.89,25.14,25.14,0,0,0,3.61,5.93l0,.05a1.32,1.32,0,1,0,2-1.71l0,0a21.48,21.48,0,0,1-3.44-5.1c-.41-.87-.47-1.84-.28-2a3,3,0,0,1,2.11-.32c4,.46,8.07,2.52,9.88,6a5.19,5.19,0,0,1,.27,5,5.43,5.43,0,0,1-4.13,2.35,19.93,19.93,0,0,1-5.73-.7l-6.27-1.53a112.15,112.15,0,0,0-13.13-2.07A85.29,85.29,0,0,0,251,10.59a40.56,40.56,0,0,0-13,2.85c-.75.3-1.45.62-2.16,1-3.47-.78-6.95-1.58-10.48-2.22a78.15,78.15,0,0,0-12.43-1.49,22.22,22.22,0,0,0-3.16,0c-1.06.27-2,1.55-3.07,1.68a42.92,42.92,0,0,0-6.29.79,16.63,16.63,0,0,0-3.21.94c-1,.43-1.94.94-2.89,1.47a25.46,25.46,0,0,0-5.29,4,14.61,14.61,0,0,0-2.23,2.79,6.53,6.53,0,0,0-1,4.44,3.92,3.92,0,0,0,.13.49,23.76,23.76,0,0,1-4.07,1.22,30.61,30.61,0,0,1-6.42-.26c-4.14-.52-8.56-1.64-11.14-4.46a9.31,9.31,0,0,1-2.37-5,3.83,3.83,0,0,1,2.42-3.7,7.31,7.31,0,0,1,5.1-.4,4,4,0,0,1,3,2.9,11,11,0,0,1,.3,2.58,3.23,3.23,0,0,1-.09.81,3,3,0,0,0-6,.36,5.52,5.52,0,0,0,1.25,3.31,5.92,5.92,0,0,0,2.52,1.8,5.68,5.68,0,0,0,3.22.27,5,5,0,0,0,2.93-1.89A7.09,7.09,0,0,0,177.61,20a14.58,14.58,0,0,0-.88-3.86,8.58,8.58,0,0,0-6.5-5.28,11.29,11.29,0,0,0-7.65,1.24,8,8,0,0,0-3,2.87,6.8,6.8,0,0,0-.82,4.11,12.14,12.14,0,0,0,3.4,6.57,15,15,0,0,0,6.17,3.56,32.53,32.53,0,0,0,6.68,1.33c2.24.28,4.47.16,6.69.37s4.53,1.29,6.78,1.13c1.44-.14,2.86-.36,4.29-.55l.55,0h.11a2.66,2.66,0,0,0,.79-.06,3,3,0,0,0,.73-.26c2.28-.37,4.53-.8,6.77-1.31,1.21-.27,2.41-.61,3.61-.92l.2.14a7.13,7.13,0,0,0,.87.78c.65.42,1.32.82,2,1.19a19.7,19.7,0,0,0,4.29,1.68,13,13,0,0,0,4.58.72,18,18,0,0,0,2.31-.2A8.88,8.88,0,0,1,222,33a1,1,0,1,0-.29-1.79l-.14.08a9.71,9.71,0,0,1-4.22.71,22.89,22.89,0,0,1-4.29-.31A13.64,13.64,0,0,1,209,30a11.52,11.52,0,0,1-1.72-1.29,1.31,1.31,0,0,0-.27-.21c2.47-.68,4.93-1.42,7.35-2.24l.18.15a5.89,5.89,0,0,0,.88.92,20.22,20.22,0,0,0,2.07,1.39,21.4,21.4,0,0,0,4.53,1.92,17.57,17.57,0,0,0,4.79,1.06c.82.06,1.63.05,2.45.07a8.42,8.42,0,0,1,2.45.1.86.86,0,0,0,.55,0,.94.94,0,0,0-.55-1.79l-.12,0a13.78,13.78,0,0,1-4.66.15,39.62,39.62,0,0,1-4.61-.64,15.24,15.24,0,0,1-4.2-1.92,9.85,9.85,0,0,1-1.76-1.45,5.68,5.68,0,0,0-.57-.52c2-.7,4-1.45,5.92-2.24a11.67,11.67,0,0,0,4.65,4.15,21.87,21.87,0,0,0,6.48,2.15,10.36,10.36,0,0,0,6.93-.86,5.72,5.72,0,0,0,1.13-.84A12.22,12.22,0,0,0,244.82,30a20.14,20.14,0,0,0,6.77.52,31.08,31.08,0,0,0,6.63-1.2,23.2,23.2,0,0,0,4.12-1.66l.46.18a12.27,12.27,0,0,0,3.43.62A14.53,14.53,0,0,0,273,27.14a21.63,21.63,0,0,0,5.59-3.89,42.29,42.29,0,0,0,4.11-4.34h.05a17.91,17.91,0,0,0,7.27.39,10.34,10.34,0,0,0,3.66-1.53,7.25,7.25,0,0,0,2.68-3.2,8.37,8.37,0,0,0-.9-7.59A15.65,15.65,0,0,0,283.53.05Zm-111,21.06,0,.1C172.4,21.12,172.44,21,172.51,21.11Zm-.22.44s0-.08.1-.13S172.31,21.57,172.29,21.55ZM251,11.94a38.57,38.57,0,0,1,12.88,1c1.76.46,3.48,1,5.19,1.62A26.26,26.26,0,0,1,261,17.5a23.5,23.5,0,0,1-5.74.05,49.1,49.1,0,0,1-5.4-.84c-2.18-.42-4.33-.35-6.38-.67-1.52-.24-3-.61-4.5-.94A34.83,34.83,0,0,1,251,11.94ZM200.8,25c-1.81.32-3.63.59-5.45.85a3.07,3.07,0,0,0-2.34-.46,8.19,8.19,0,0,1-2.15.23,3.09,3.09,0,0,0-.49,0c-.07,0,0,.14-.1.12s-.15-.76.16-1.46A9.92,9.92,0,0,1,191.74,22a19.3,19.3,0,0,1,4.11-3.89,21.73,21.73,0,0,1,2.48-1.53,13.62,13.62,0,0,1,2.59-1.05,32.18,32.18,0,0,1,5.86-1c1,0,2.08,1.15,3.07,1.35s2-.07,3-.06c4-.08,8-.25,12.12-.26,2.54,0,5.1.07,7.66.22l-.74.33c-2,.86-4,1.66-6,2.39A153.43,153.43,0,0,1,200.8,25Zm39.87,1.26c-.28-.24-.57-.47-.83-.73A8.85,8.85,0,0,1,238,23.1c-.44-.84-.66-2-.3-2.43s1.19-.38,2,.12a3.48,3.48,0,0,1,1.62,2.13A4.05,4.05,0,0,1,240.67,26.28ZM261,25.08c-.83-1.5,1.07-3.87,2.73-3.54a2,2,0,0,1,1.5,1.75,3.41,3.41,0,0,1-1.55,2.25,13.63,13.63,0,0,1-1.25.84A3.26,3.26,0,0,1,261,25.08Zm11.38.77a13,13,0,0,1-6.09,1.36,10.17,10.17,0,0,1-2.51-.38c.2-.14.41-.25.6-.4a4.41,4.41,0,0,0,2-3.11,3.18,3.18,0,0,0-2.44-2.94,3.7,3.7,0,0,0-3.45,1.5,3.53,3.53,0,0,0-.59,3.72A4.19,4.19,0,0,0,261.15,27a23.56,23.56,0,0,1-3.24,1.25,28.46,28.46,0,0,1-6.39,1.19,19.09,19.09,0,0,1-6.37-.61,10.9,10.9,0,0,1-3.36-1.71,5.49,5.49,0,0,0,.93-4.6,4.89,4.89,0,0,0-2.29-3,4.56,4.56,0,0,0-1.86-.63,2.2,2.2,0,0,0-2.09.95,2.83,2.83,0,0,0-.35,2.1,5.16,5.16,0,0,0,.61,1.77,10.26,10.26,0,0,0,2.17,2.78c.28.25.58.49.88.73a5.41,5.41,0,0,1-.69.49,9.13,9.13,0,0,1-6,.7,20.47,20.47,0,0,1-6.06-2,9.18,9.18,0,0,1-3.78-3.56c1.24-.52,2.48-1,3.7-1.56,2-.93,4-1.9,6-2.95,1.36-.72,2.66-1.47,3.95-2.18l.27,0a46.63,46.63,0,0,1,6,1.12,26.33,26.33,0,0,1,5.43,2.74,12,12,0,0,0,6.6,1.47,24.67,24.67,0,0,0,6.43-1.44,66.74,66.74,0,0,0,10.48-4.45c1.38.5,2.77,1,4.17,1.48s3,.91,4.5,1.31A21.06,21.06,0,0,1,272.37,25.85Z"/><path class="cls-1" d="M157.2,17.38a3.25,3.25,0,0,0-.45-.94,3.18,3.18,0,0,0-1.71-1.2,6,6,0,0,0-3.66.26,5.6,5.6,0,0,0-3,2.23,2.25,2.25,0,0,0,0,2.33,4.44,4.44,0,0,0,1.39,1.37,4.08,4.08,0,0,0,3.92.07h0A.84.84,0,1,0,153,20L153,20a2.47,2.47,0,0,1-2.3,0,3,3,0,0,1-.92-.86.64.64,0,0,1,0-.75,5.06,5.06,0,0,1,4.87-1.77c.84.27,1.11.73,1.35,1.87a10.64,10.64,0,0,1,.33,3,3.3,3.3,0,0,1-1,2.38,3.77,3.77,0,0,1-2.52.71,17.7,17.7,0,0,1-6-1.49l-6-2.35a58.43,58.43,0,0,0-12.71-3.48,32.44,32.44,0,0,0-13.23.92,58.32,58.32,0,0,1-12.68,2.35c-4.29.36-8.61.4-12.93.37l-13-.41c-4.34-.11-8.69-.14-13.06.07-2.18.06-4.36.26-6.54.42s-4.36.51-6.52.87L37.33,24.2c-2.11.37-4.12,1.42-6.23,1.9a55.37,55.37,0,0,1-6.4.79A71.23,71.23,0,0,1,11.89,27a21.29,21.29,0,0,1-6-1.43c-1.86-.82-3.24-2.12-3.48-3.9a4.51,4.51,0,0,1,1.79-4.55,4.46,4.46,0,0,1,4.68-.48,3.75,3.75,0,0,1,1.52,1.69,4,4,0,0,1,.55,2.18.62.62,0,0,1-1.2.27,1.91,1.91,0,0,0-.19-.6A2,2,0,0,0,6,21.9l.28.59a4.36,4.36,0,0,0,4.83,2.21,4.23,4.23,0,0,0,2.35-1.49,4.3,4.3,0,0,0,.91-2.47,7.32,7.32,0,0,0-1.15-4,6.73,6.73,0,0,0-3-2.8,7.39,7.39,0,0,0-7.55,1.12,7,7,0,0,0-2.42,7A6.61,6.61,0,0,0,2,25.42a9.23,9.23,0,0,0,3.08,1.89,23.69,23.69,0,0,0,6.6,1.41,71.65,71.65,0,0,0,13.11-.35c2.18-.18,4.31-.61,6.49-.74s4.44.26,6.59-.11c4.29-.73,8.57-1.78,12.73-2.56,1.67-.3,3.35-.56,5-.8a45.69,45.69,0,0,0,10.77,2.38c3.66.41,7.33.61,11,.69a174.53,174.53,0,0,0,21.93-1c3.64-.35,7.28-.77,10.9-1.4a53.62,53.62,0,0,0,5.4-1.17c1.83-.52,3.45-1.14,5.23-1.46a36,36,0,0,1,10.71-.52,39.88,39.88,0,0,1,7.46,1.12l.9.28.77.25c.46.15.93.29,1.37.48h0a.7.7,0,0,0,.19.06h.16l3.67,1.18a22.48,22.48,0,0,0,6.65,1.25,5.43,5.43,0,0,0,3.52-1.23,4.88,4.88,0,0,0,1.48-3.45,12.19,12.19,0,0,0-.38-3.44ZM120.64,21c-1.82.34-3.62,1-5.3,1.52s-3.5.87-5.28,1.19c-3.57.64-7.18,1.11-10.8,1.44-7.25.61-14.54.7-21.8.63-3.63-.07-7.26-.26-10.86-.66A42.23,42.23,0,0,1,59,23.71a163.78,163.78,0,0,1,17.2-1.24l13-.27c4.33-.07,8.68-.23,13-.7s8.59-1.36,12.85-2.18a33.17,33.17,0,0,1,12.56.47c.66.13,1.3.28,2,.42A40.2,40.2,0,0,0,120.64,21Z"/></g></g></svg>