<svg xmlns="http://www.w3.org/2000/svg" viewBox="0 0 598.11 33.46"><defs><style>.cls-1{fill:#bfaf93;}</style></defs><g id="レイヤー_2" data-name="レイヤー 2"><g id="レイヤー_1-2" data-name="レイヤー 1"><g id="レイヤー_2-2" data-name="レイヤー 2"><g id="layer"><path class="cls-1" d="M435.51,12.06a11.22,11.22,0,0,0-7.65-1.24,8.57,8.57,0,0,0-6.5,5.28,14.6,14.6,0,0,0-.87,3.86,7.06,7.06,0,0,0,1.14,4.87,5,5,0,0,0,2.94,1.89,5.68,5.68,0,0,0,3.21-.27,6.07,6.07,0,0,0,2.53-1.8,5.64,5.64,0,0,0,1.25-3.31,3,3,0,0,0-6-.36h0a2.8,2.8,0,0,1-.09-.81,10.17,10.17,0,0,1,.3-2.58,4,4,0,0,1,3-2.9,7.25,7.25,0,0,1,5.1.4,3.8,3.8,0,0,1,2.42,3.7,9.26,9.26,0,0,1-2.37,5c-2.58,2.82-7,3.94-11.14,4.46a31.36,31.36,0,0,1-6.42.26,24.78,24.78,0,0,1-4.07-1.22,4.43,4.43,0,0,0,.13-.49,6.54,6.54,0,0,0-1-4.44,14.69,14.69,0,0,0-2.23-2.79,25.13,25.13,0,0,0-5.29-4c-.95-.53-1.9-1-2.89-1.47a16.6,16.6,0,0,0-3.21-.94,41.76,41.76,0,0,0-6.29-.79c-1-.13-2-1.41-3.07-1.68a20.83,20.83,0,0,0-3.16,0,77.41,77.41,0,0,0-12.43,1.49c-3.53.64-7,1.44-10.48,2.22l-2.16-1a40.36,40.36,0,0,0-13-2.85,84,84,0,0,0-13.27.69,111.71,111.71,0,0,0-13.13,2.07l-6.27,1.53a20.18,20.18,0,0,1-5.73.7,5.44,5.44,0,0,1-4.13-2.35,5.2,5.2,0,0,1,.27-5c1.81-3.46,5.91-5.52,9.88-6a2.94,2.94,0,0,1,2.11.32c.19.13.13,1.1-.27,2a22,22,0,0,1-3.45,5.1v.05h0a1.32,1.32,0,0,0,2,1.68l.06-.07a25.47,25.47,0,0,0,3.6-5.93,6.93,6.93,0,0,0,.49-1.89,3.17,3.17,0,0,0-.63-2.4,3.27,3.27,0,0,0-2.3-1,7.63,7.63,0,0,0-1.91,0A15.62,15.62,0,0,0,302.65,7a8.35,8.35,0,0,0-.9,7.59,7.32,7.32,0,0,0,2.68,3.2,10.37,10.37,0,0,0,3.66,1.53,18.25,18.25,0,0,0,7.28-.39h0a42.12,42.12,0,0,0,4.11,4.34,22,22,0,0,0,5.6,3.89,14.46,14.46,0,0,0,6.74,1.34,12.57,12.57,0,0,0,3.43-.62l.46-.18a23,23,0,0,0,4.12,1.66,31.08,31.08,0,0,0,6.63,1.2,20.38,20.38,0,0,0,6.78-.52,12.54,12.54,0,0,0,3.88-1.91,5.85,5.85,0,0,0,1.12.84,10.38,10.38,0,0,0,6.93.86,22.17,22.17,0,0,0,6.48-2.15,11.71,11.71,0,0,0,4.65-4.15c1.95.79,3.93,1.54,5.92,2.24a4,4,0,0,0-.57.52,10.21,10.21,0,0,1-1.72,1.43,15.21,15.21,0,0,1-4.2,1.92,42.57,42.57,0,0,1-4.61.64,14,14,0,0,1-4.65-.15h-.13a.86.86,0,0,0-.55,0,.93.93,0,0,0-.52,1.22,1,1,0,0,0,1.07.57,8,8,0,0,1,2.45-.1c.82,0,1.64,0,2.45-.07A18,18,0,0,0,376,30.7a21.79,21.79,0,0,0,4.53-1.92,22.14,22.14,0,0,0,2.08-1.39,6.87,6.87,0,0,0,.87-.92l.18-.15c2.42.82,4.88,1.56,7.35,2.24a.9.9,0,0,0-.27.21A12.3,12.3,0,0,1,389.05,30a13.93,13.93,0,0,1-4,1.68,23.65,23.65,0,0,1-4.28.31,9.64,9.64,0,0,1-4.22-.71l-.15-.08a.87.87,0,0,0-.59-.09,1,1,0,0,0-.79,1.09,1,1,0,0,0,1.1.79,8.25,8.25,0,0,1,2.32.24,19.63,19.63,0,0,0,2.31.2,13.17,13.17,0,0,0,4.57-.72A19.84,19.84,0,0,0,389.64,31c.68-.37,1.35-.77,2-1.19a9.26,9.26,0,0,0,.88-.78l.2-.14c1.2.31,2.39.65,3.6.92,2.24.51,4.5.94,6.78,1.31a3,3,0,0,0,1.53.32h.64c1.43.19,2.85.41,4.29.55,2.26.16,4.56-.85,6.78-1.13s4.46-.09,6.69-.37a33.22,33.22,0,0,0,6.68-1.33,15.38,15.38,0,0,0,6.22-3.56,12.26,12.26,0,0,0,3.35-6.6,6.74,6.74,0,0,0-.82-4.11A8,8,0,0,0,435.51,12.06Zm-9.71,9.5s-.06,0-.1-.13S425.81,21.54,425.8,21.56Zm-.19-.34a.17.17,0,0,1,0-.1C425.66,21,425.7,21.13,425.61,21.22ZM334.17,13a38.25,38.25,0,0,1,12.88-1,34.9,34.9,0,0,1,12.06,3.16c-1.49.33-3,.7-4.5.94-2,.32-4.2.25-6.38.67a49.64,49.64,0,0,1-5.4.84,24,24,0,0,1-5.74,0A26.31,26.31,0,0,1,329,14.57C330.69,14,332.41,13.41,334.17,13Zm1.51,13.44a13.79,13.79,0,0,1-1.26-.84,3.43,3.43,0,0,1-1.55-2.25,2,2,0,0,1,1.5-1.75c1.67-.33,3.57,2,2.73,3.54A3.43,3.43,0,0,1,335.68,26.39Zm21.08-3.46a3.42,3.42,0,0,1,1.62-2.13c.83-.5,1.8-.6,2-.12a3.48,3.48,0,0,1-.29,2.43,9.2,9.2,0,0,1-1.85,2.45c-.27.26-.55.49-.84.73A4.06,4.06,0,0,1,356.76,22.93ZM371,26.44a20.66,20.66,0,0,1-6.06,2,9.19,9.19,0,0,1-6-.7,5.6,5.6,0,0,1-.68-.49c.29-.24.59-.48.87-.73a10.65,10.65,0,0,0,2.17-2.78,5.4,5.4,0,0,0,.6-1.73,2.91,2.91,0,0,0-.36-2.1,2.2,2.2,0,0,0-2.09-.95,4.38,4.38,0,0,0-1.86.63,4.85,4.85,0,0,0-2.29,3,5.52,5.52,0,0,0,.93,4.6,11,11,0,0,1-3.33,1.69,19.35,19.35,0,0,1-6.38.61,28.17,28.17,0,0,1-6.38-1.19A22.78,22.78,0,0,1,336.93,27a4.22,4.22,0,0,0,1.25-1.44,3.56,3.56,0,0,0-.59-3.72,3.68,3.68,0,0,0-3.44-1.5,3.15,3.15,0,0,0-2.45,2.94,4.45,4.45,0,0,0,2,3.11c.2.15.4.26.6.4a10.17,10.17,0,0,1-2.51.38,13.11,13.11,0,0,1-6.09-1.36,21,21,0,0,1-8.42-7.42c1.53-.4,3-.84,4.5-1.31s2.79-1,4.17-1.48a68.12,68.12,0,0,0,10.48,4.45,24.94,24.94,0,0,0,6.5,1.48,12.1,12.1,0,0,0,6.61-1.47,25.79,25.79,0,0,1,5.39-2.74,45,45,0,0,1,6-1.12h.26c1.29.71,2.6,1.46,4,2.18,2,1.05,4,2,6,2.95,1.22.54,2.46,1,3.7,1.56A9.22,9.22,0,0,1,371,26.44Zm1.21-7.9q-3-1.09-6-2.39l-.73-.33c2.55-.15,5.11-.2,7.66-.22,4.07,0,8.12.18,12.12.26,1,0,2,.15,3,.06s2.06-1.37,3.07-1.35a31.5,31.5,0,0,1,5.86,1,13,13,0,0,1,2.6,1.05,21.09,21.09,0,0,1,2.47,1.53A19.6,19.6,0,0,1,406.36,22a11,11,0,0,1,1.31,2.22c.3.7.28,1.43.15,1.46s0-.1-.09-.12a2.09,2.09,0,0,0-.5,0,8.59,8.59,0,0,1-2.15-.23,3.64,3.64,0,0,0-.8-.06,2.91,2.91,0,0,0-1.53.53c-1.82-.26-3.64-.54-5.46-.86a154.18,154.18,0,0,1-25.05-6.41Z"/><path class="cls-1" d="M595.49,15.08A7.4,7.4,0,0,0,587.93,14a6.72,6.72,0,0,0-3,2.8,7.16,7.16,0,0,0-1.14,4,4.2,4.2,0,0,0,3.25,4,4.38,4.38,0,0,0,4.83-2.21l.29-.59a2.11,2.11,0,0,0,.18-.59,2,2,0,0,0-3.91-.85,1.35,1.35,0,0,0,0,.29.63.63,0,0,1-.83.33.62.62,0,0,1-.38-.6,4,4,0,0,1,.56-2.18,3.52,3.52,0,0,1,1.52-1.69,4.59,4.59,0,0,1,6.1,2.23,4.64,4.64,0,0,1,.36,2.77c-.23,1.78-1.62,3.08-3.47,3.9a21.8,21.8,0,0,1-6,1.43,72,72,0,0,1-12.8-.08,57.53,57.53,0,0,1-6.41-.79c-2.11-.48-4.12-1.53-6.23-1.9L548,22c-2.16-.36-4.34-.61-6.51-.87s-4.37-.36-6.55-.42c-4.36-.21-8.72-.18-13.06-.07l-13,.38c-4.32,0-8.63,0-12.93-.37a59.31,59.31,0,0,1-12.68-2.35,32.26,32.26,0,0,0-13.22-.92,58.09,58.09,0,0,0-12.77,3.44l-6,2.35a17.82,17.82,0,0,1-6,1.49,3.79,3.79,0,0,1-2.53-.71,3.27,3.27,0,0,1-1-2.38,10.09,10.09,0,0,1,.33-3c.23-1.14.5-1.6,1.34-1.87a5.06,5.06,0,0,1,4.87,1.77.62.62,0,0,1,0,.75,3.28,3.28,0,0,1-.92.86,2.52,2.52,0,0,1-2.3,0h-.06a.84.84,0,0,0-1.13.37h0a.83.83,0,0,0,.37,1.12h0a4.1,4.1,0,0,0,3.92-.07,4.54,4.54,0,0,0,1.39-1.37,2.27,2.27,0,0,0,.05-2.33,5.63,5.63,0,0,0-3-2.23,6,6,0,0,0-3.66-.26,3,3,0,0,0-1.7,1.2,2.94,2.94,0,0,0-.46.94l-.22.82a12.07,12.07,0,0,0-.38,3.44,4.85,4.85,0,0,0,1.48,3.45,5.47,5.47,0,0,0,3.52,1.23,22.77,22.77,0,0,0,6.68-1.32l3.63-1.16a1.09,1.09,0,0,0,.39-.08h0c.44-.19.91-.33,1.37-.48l.77-.25.9-.28a39.08,39.08,0,0,1,7.46-1.12,35.67,35.67,0,0,1,10.71.52,50.76,50.76,0,0,1,5.23,1.46,54.6,54.6,0,0,0,5.4,1.17c3.62.63,7.26,1.05,10.9,1.4a176.44,176.44,0,0,0,21.93,1c3.67-.08,7.33-.28,11-.69a46.21,46.21,0,0,0,10.77-2.38c1.68.24,3.36.5,5,.8,4.16.78,8.45,1.83,12.73,2.56,2.15.37,4.42,0,6.6.11s4.31.56,6.48.74a72.78,72.78,0,0,0,13.12.35,23.82,23.82,0,0,0,6.61-1.43A9.32,9.32,0,0,0,596,25.43a6.71,6.71,0,0,0,1.92-3.34A6.93,6.93,0,0,0,595.49,15.08Zm-64,10.07c-3.6.4-7.22.59-10.86.66-7.26.07-14.54,0-21.8-.63-3.62-.33-7.23-.8-10.8-1.44-1.78-.32-3.55-.7-5.28-1.19s-3.48-1.18-5.3-1.52a39.61,39.61,0,0,0-8.95-.81l1.95-.42A33,33,0,0,1,483,19.33c4.26.82,8.53,1.71,12.86,2.18s8.67.63,13,.7l13,.27a162.27,162.27,0,0,1,17.2,1.24A43.48,43.48,0,0,1,531.49,25.15Z"/><path class="cls-1" d="M283.46.06a7.63,7.63,0,0,0-1.91,0,3.24,3.24,0,0,0-2.15,1.08,3.13,3.13,0,0,0-.63,2.4,6.93,6.93,0,0,0,.49,1.89,24.84,24.84,0,0,0,3.61,5.93v.05A1.32,1.32,0,1,0,285,9.86a1,1,0,0,0-.13-.16h0a21.37,21.37,0,0,1-3.44-5.1c-.41-.87-.47-1.84-.28-2a2.93,2.93,0,0,1,2.11-.32c4,.46,8.07,2.52,9.88,6a5.2,5.2,0,0,1,.27,5,5.48,5.48,0,0,1-4.13,2.35,20.09,20.09,0,0,1-5.73-.7l-6.27-1.53a112.37,112.37,0,0,0-13.13-2.07,84.81,84.81,0,0,0-13.22-.73,40.3,40.3,0,0,0-13,2.85,21.14,21.14,0,0,0-2.16,1c-3.47-.78-7-1.58-10.48-2.22a77.69,77.69,0,0,0-12.43-1.49,20.83,20.83,0,0,0-3.16,0c-1.06.27-2,1.55-3.07,1.68a41.44,41.44,0,0,0-6.29.79,16.2,16.2,0,0,0-3.21.94,31.37,31.37,0,0,0-2.89,1.47,25.13,25.13,0,0,0-5.29,4,14,14,0,0,0-2.23,2.79,6.49,6.49,0,0,0-1,4.44,3,3,0,0,0,.13.49,25.08,25.08,0,0,1-4.07,1.22,31.3,31.3,0,0,1-6.42-.26c-4.14-.52-8.56-1.64-11.14-4.46a9.3,9.3,0,0,1-2.37-5,3.81,3.81,0,0,1,2.42-3.7,7.24,7.24,0,0,1,5.1-.4,4,4,0,0,1,3,2.9,11.16,11.16,0,0,1,.3,2.58,3.72,3.72,0,0,1-.09.81,3,3,0,1,0-6,.36,5.51,5.51,0,0,0,1.25,3.31,5.92,5.92,0,0,0,2.52,1.8,5.7,5.7,0,0,0,3.22.27,5,5,0,0,0,2.93-1.89,7.15,7.15,0,0,0,1-4.87,15,15,0,0,0-.88-3.86,8.6,8.6,0,0,0-6.5-5.28,11.2,11.2,0,0,0-7.65,1.24,7.87,7.87,0,0,0-3,2.87,6.76,6.76,0,0,0-.82,4.11,12.15,12.15,0,0,0,3.4,6.57,15.07,15.07,0,0,0,6.17,3.56,32.94,32.94,0,0,0,6.68,1.33c2.24.28,4.47.16,6.69.37s4.53,1.29,6.78,1.13c1.44-.14,2.86-.36,4.29-.55h.66a2.64,2.64,0,0,0,.79-.06,4,4,0,0,0,.73-.26c2.28-.37,4.53-.8,6.77-1.31,1.21-.27,2.41-.61,3.61-.92l.2.14a7.22,7.22,0,0,0,.87.78c.65.42,1.32.82,2,1.19a20,20,0,0,0,4.29,1.68,13.19,13.19,0,0,0,4.58.72,20,20,0,0,0,2.31-.2,8.55,8.55,0,0,1,2.42-.25,1,1,0,0,0,.54-1.93,1,1,0,0,0-.83.14l-.14.08a9.84,9.84,0,0,1-4.22.71A23.63,23.63,0,0,1,213,31.7,13.54,13.54,0,0,1,208.93,30a11.52,11.52,0,0,1-1.72-1.29,1,1,0,0,0-.27-.21c2.47-.68,4.93-1.42,7.35-2.24l.18.15a6.36,6.36,0,0,0,.88.92,20.77,20.77,0,0,0,2.07,1.39A21.79,21.79,0,0,0,222,30.65a17.86,17.86,0,0,0,4.79,1.06c.82.06,1.63.05,2.45.07a8.07,8.07,0,0,1,2.45.1.86.86,0,0,0,.55,0,.94.94,0,0,0,.51-1.23.93.93,0,0,0-1.06-.56h-.12a14,14,0,0,1-4.66.15,41.89,41.89,0,0,1-4.61-.64,15.37,15.37,0,0,1-4.2-1.92,9.85,9.85,0,0,1-1.76-1.45,5.57,5.57,0,0,0-.57-.52c2-.7,4-1.45,5.92-2.24a11.64,11.64,0,0,0,4.65,4.15,22.07,22.07,0,0,0,6.48,2.15,10.38,10.38,0,0,0,6.93-.86,6.26,6.26,0,0,0,1.13-.84A12.39,12.39,0,0,0,244.75,30a20.3,20.3,0,0,0,6.77.52,31.19,31.19,0,0,0,6.63-1.2,23.66,23.66,0,0,0,4.12-1.66l.46.18a12.81,12.81,0,0,0,3.43.62,14.62,14.62,0,0,0,6.77-1.32,22.08,22.08,0,0,0,5.59-3.89,43.22,43.22,0,0,0,4.11-4.34h.05a18,18,0,0,0,7.27.39,10.44,10.44,0,0,0,3.66-1.53,7.33,7.33,0,0,0,2.68-3.2,8.38,8.38,0,0,0-.9-7.59A15.62,15.62,0,0,0,283.46.06Zm-111,21.06v.1c-.13-.09-.09-.21,0-.1Zm-.22.44a.16.16,0,0,1,.1-.13c.1-.05-.1.15-.12.13ZM250.93,12a38.27,38.27,0,0,1,12.88,1c1.76.46,3.48,1,5.19,1.62a26.44,26.44,0,0,1-8.07,2.94,24,24,0,0,1-5.74,0,48.89,48.89,0,0,1-5.4-.84c-2.18-.42-4.33-.35-6.38-.67-1.52-.24-3-.61-4.5-.94A34.57,34.57,0,0,1,250.93,12ZM200.73,25c-1.81.32-3.63.59-5.45.85a3,3,0,0,0-2.34-.46,8.69,8.69,0,0,1-2.15.23,2,2,0,0,0-.49,0c-.07,0,0,.14-.1.12a2,2,0,0,1,.16-1.46A9.38,9.38,0,0,1,191.67,22a18.73,18.73,0,0,1,4.11-3.89,20.41,20.41,0,0,1,2.48-1.53,13.26,13.26,0,0,1,2.59-1.05,31.36,31.36,0,0,1,5.86-1c1,0,2.08,1.15,3.07,1.35a15.85,15.85,0,0,0,3-.06c4-.08,8-.25,12.12-.26,2.54,0,5.1.07,7.66.22l-.74.33q-3,1.29-6,2.39A154.15,154.15,0,0,1,200.73,25Zm39.87,1.26c-.28-.24-.57-.47-.83-.73a8.72,8.72,0,0,1-1.84-2.43c-.44-.84-.66-2-.3-2.43s1.19-.38,2,.12a3.49,3.49,0,0,1,1.62,2.13,4.06,4.06,0,0,1-.65,3.36Zm20.33-1.18c-.83-1.5,1.07-3.87,2.73-3.54a2,2,0,0,1,1.5,1.75,3.46,3.46,0,0,1-1.55,2.25c-.4.3-.82.58-1.25.84A3.27,3.27,0,0,1,260.93,25.09Zm11.38.77a13.11,13.11,0,0,1-6.09,1.36,10.58,10.58,0,0,1-2.51-.38c.2-.14.41-.25.6-.4a4.43,4.43,0,0,0,2-3.11,3.18,3.18,0,0,0-2.44-2.94,3.69,3.69,0,0,0-3.45,1.5,3.52,3.52,0,0,0-.59,3.72,4.19,4.19,0,0,0,1.25,1.4,24.92,24.92,0,0,1-3.24,1.25,29,29,0,0,1-6.39,1.19,19.24,19.24,0,0,1-6.37-.61,10.89,10.89,0,0,1-3.36-1.71,5.52,5.52,0,0,0,.93-4.6,4.92,4.92,0,0,0-2.29-3,4.47,4.47,0,0,0-1.86-.63,2.19,2.19,0,0,0-2.09,1,2.76,2.76,0,0,0-.35,2.1,5.11,5.11,0,0,0,.61,1.77,10.24,10.24,0,0,0,2.17,2.78c.28.25.58.49.88.73a6.63,6.63,0,0,1-.69.49,9.21,9.21,0,0,1-6,.7,20.47,20.47,0,0,1-6.06-2,9.2,9.2,0,0,1-3.78-3.56c1.24-.52,2.48-1,3.7-1.56,2-.93,4-1.9,6-2.95,1.36-.72,2.66-1.47,4-2.18h.27a45.58,45.58,0,0,1,6,1.12A26.35,26.35,0,0,1,248.54,20a12,12,0,0,0,6.6,1.47,25,25,0,0,0,6.43-1.44,67.56,67.56,0,0,0,10.48-4.45c1.38.5,2.77,1,4.17,1.48s3,.91,4.5,1.31a21.13,21.13,0,0,1-8.42,7.46Z"/><path class="cls-1" d="M157.13,17.39A3.1,3.1,0,0,0,155,15.25a6,6,0,0,0-3.66.26,5.5,5.5,0,0,0-3,2.23,2.22,2.22,0,0,0,0,2.33,4.43,4.43,0,0,0,1.39,1.37,4.1,4.1,0,0,0,3.92.07h0a.84.84,0,1,0-.41-1.63.72.72,0,0,0-.28.13h0a2.52,2.52,0,0,1-2.3,0,3,3,0,0,1-.92-.86.62.62,0,0,1,0-.75,5,5,0,0,1,4.87-1.77c.84.27,1.11.73,1.35,1.87a10.84,10.84,0,0,1,.33,3,3.35,3.35,0,0,1-1,2.38,3.8,3.8,0,0,1-2.52.71,17.7,17.7,0,0,1-6-1.49l-6-2.35A58,58,0,0,0,128,17.27a32.3,32.3,0,0,0-13.23.92,58.81,58.81,0,0,1-12.68,2.35c-4.29.36-8.61.4-12.93.37l-13-.41c-4.34-.11-8.69-.14-13.06.07-2.18.06-4.36.26-6.54.42s-4.36.51-6.52.87L37.26,24.21c-2.11.37-4.12,1.42-6.23,1.9a57.65,57.65,0,0,1-6.4.79A72.12,72.12,0,0,1,11.82,27a21.72,21.72,0,0,1-6-1.43c-1.86-.82-3.24-2.12-3.48-3.9a4.5,4.5,0,0,1,1.79-4.55,4.44,4.44,0,0,1,4.68-.48,3.72,3.72,0,0,1,1.52,1.69,4.14,4.14,0,0,1,.55,2.18.62.62,0,0,1-1.2.27,2,2,0,0,0-.19-.6,2,2,0,0,0-3.56,1.72l.28.59A4.36,4.36,0,0,0,11,24.71a4.31,4.31,0,0,0,2.35-1.49,4.37,4.37,0,0,0,.91-2.47,7.34,7.34,0,0,0-1.15-4,6.71,6.71,0,0,0-3-2.8A7.37,7.37,0,0,0,2.6,15.07a7,7,0,0,0-2.42,7,6.62,6.62,0,0,0,1.75,3.36A9.22,9.22,0,0,0,5,27.32a24,24,0,0,0,6.6,1.41,72.7,72.7,0,0,0,13.11-.35c2.18-.18,4.31-.61,6.49-.74s4.44.26,6.59-.11c4.29-.73,8.57-1.78,12.73-2.56,1.67-.3,3.35-.56,5-.8A46.1,46.1,0,0,0,66.3,26.55c3.66.41,7.33.61,11,.69a176.62,176.62,0,0,0,21.93-1c3.64-.35,7.28-.77,10.9-1.4,1.81-.3,3.62-.69,5.4-1.17s3.45-1.14,5.23-1.46a35.63,35.63,0,0,1,10.71-.52,39.32,39.32,0,0,1,7.46,1.12l.9.28.77.25c.46.15.93.29,1.37.48h0a1.06,1.06,0,0,0,.19.06h.16L146,25.06a22.49,22.49,0,0,0,6.65,1.25,5.51,5.51,0,0,0,3.52-1.23,4.93,4.93,0,0,0,1.48-3.45,12.44,12.44,0,0,0-.38-3.44ZM120.57,21a47.92,47.92,0,0,0-5.3,1.52A45,45,0,0,1,110,23.72c-3.57.64-7.18,1.11-10.8,1.44-7.25.61-14.54.7-21.8.63-3.63-.07-7.26-.26-10.86-.66a42.42,42.42,0,0,1-7.6-1.41,161.89,161.89,0,0,1,17.2-1.24l13-.27c4.33-.07,8.68-.23,13-.7s8.59-1.36,12.85-2.18a33,33,0,0,1,12.56.47l2,.42A39.72,39.72,0,0,0,120.57,21Z"/></g></g></g></g></svg>