<svg xmlns="http://www.w3.org/2000/svg" viewBox="0 0 401 351.57"><defs><style>.cls-1,.cls-5,.cls-7{fill:#fdfcf6;}.cls-1,.cls-10,.cls-3,.cls-5,.cls-8,.cls-9{stroke:#bfaf93;}.cls-1{stroke-miterlimit:10;}.cls-11,.cls-2{fill:#bfaf93;}.cls-2,.cls-4{stroke:#fdfcf6;}.cls-10,.cls-2,.cls-3,.cls-4,.cls-5,.cls-8,.cls-9{stroke-linecap:round;stroke-linejoin:round;}.cls-3{fill:#fff;}.cls-10,.cls-3,.cls-4{stroke-width:0.75px;}.cls-10,.cls-4,.cls-8,.cls-9{fill:none;}.cls-6{fill:#fff4d6;}.cls-8{stroke-width:1.5px;}.cls-12{fill:#d93924;}.cls-13{fill:#ab445a;}</style></defs><g id="レイヤー_2" data-name="レイヤー 2"><g id="レイヤー_1-2" data-name="レイヤー 1"><path class="cls-1" d="M400.5,175.78A104.17,104.17,0,0,0,326.16,76C298.56,30.39,252.58.5,200.5.5S102.44,30.39,74.84,76a104.15,104.15,0,0,0,0,199.59c27.6,45.6,73.58,75.49,125.66,75.49s98.06-29.89,125.66-75.49A104.18,104.18,0,0,0,400.5,175.78Z"/><path class="cls-1" d="M200.5,337.93c-45.44,0-88.21-25.86-114.42-69.16l-2.62-4.34L78.6,263a91,91,0,0,1,0-174.4l4.86-1.44,2.62-4.34c26.21-43.31,69-69.16,114.42-69.16S288.71,39.49,314.92,82.8l2.62,4.34,4.86,1.44a91,91,0,0,1,0,174.4l-4.86,1.45-2.62,4.34C288.71,312.07,245.93,337.93,200.5,337.93Z"/><path class="cls-2" d="M291.45,104.22a7.46,7.46,0,0,1-.82-9.46c.94-.86,5.49-2.26,9.17,1.71s5.11,11.81,4.17,12.68S295.13,108.19,291.45,104.22Z"/><path class="cls-3" d="M300.57,105.61a64.93,64.93,0,0,1-6.16-5.66,71.63,71.63,0,0,1-4.14-5.9"/><path class="cls-2" d="M227.93,31.58c7.08,1.44,8.53,8.12,8.23,9.61-.34,1.66-4.18,6.72-11.26,5.27S210.2,37.64,210.54,36C210.91,34.14,220.86,30.14,227.93,31.58Z"/><path class="cls-3" d="M217,37.16A88.18,88.18,0,0,1,228,38.5c3.31.86,9.07,3.18,9.07,3.18"/><path class="cls-2" d="M271.48,78.6c1.21,2.91,7.23,8.88,9.32,8s2.44-9.49,1.23-12.4-3.61-5.87-7.88-4.09C269.62,72,270.27,75.68,271.48,78.6Z"/><path class="cls-2" d="M283.18,74.45c-1.92,2.51-4.08,10.7-2.28,12.08s9.44-2.62,11.36-5.13,3.27-6.07-.41-8.88C288,69.54,285.1,71.94,283.18,74.45Z"/><path class="cls-2" d="M292.62,82.51c-3.13-.41-11.31,1.82-11.6,4.07s7,6.86,10.12,7.27,6.89-.2,7.49-4.79C299.26,84.2,295.75,82.92,292.62,82.51Z"/><path class="cls-2" d="M290.36,94.72c-1.21-2.92-7.23-8.88-9.32-8s-2.45,9.48-1.23,12.4,3.61,5.86,7.88,4.09C292.22,101.32,291.57,97.63,290.36,94.72Z"/><path class="cls-2" d="M278.66,98.86c1.92-2.5,4.08-10.7,2.28-12.07s-9.44,2.62-11.36,5.13-3.27,6.06.4,8.87C273.87,103.77,276.74,101.37,278.66,98.86Z"/><path class="cls-2" d="M269.22,90.8c3.13.41,11.3-1.82,11.6-4.06s-7-6.86-10.12-7.27-6.89.2-7.49,4.79C262.58,89.11,266.09,90.39,269.22,90.8Z"/><path class="cls-4" d="M277.22,74.44s4.4,12,3.58,12.17"/><path class="cls-4" d="M282.45,84c.45-1.82,5.46-7.14,5.46-7.14"/><path class="cls-4" d="M292.74,89.66s-8.77-2.23-8.49-3"/><path class="cls-4" d="M283.23,95.36s-1.63-5.65-.81-5.79c1.46-.26,4.68,7.11,4.68,7.11"/><path class="cls-4" d="M278.77,89.52c-1.2,3.76-5.76,7.72-5.76,7.72"/><path class="cls-4" d="M271.44,85.75s7,0,6.68.79"/><line class="cls-4" x1="268.89" y1="85.23" x2="267.28" y2="85.16"/><line class="cls-4" x1="292.79" y1="87.03" x2="291.04" y2="86.76"/><line class="cls-4" x1="284.81" y1="100.21" x2="284.42" y2="99.26"/><line class="cls-4" x1="274.87" y1="76.4" x2="274.33" y2="75.24"/><path class="cls-5" d="M278.43,88A3,3,0,1,0,280,84.07,3,3,0,0,0,278.43,88Z"/><path class="cls-2" d="M233,55.27c2.78,3.81,13.62,10.37,16.36,8.37s.22-14.64-2.57-18.45-7.31-7.25-12.89-3.17C228,46.34,230.21,51.46,233,55.27Z"/><path class="cls-2" d="M248.53,45.14c-1.9,4.32-2.16,17,.94,18.35s12.78-7.13,14.69-11.44,2.62-10-3.7-12.76C253.76,36.33,250.44,40.83,248.53,45.14Z"/><path class="cls-2" d="M265.08,53.54c-4.69.5-15.79,6.61-15.42,10s12.56,7.51,17.25,7,9.94-2.71,9.2-9.58C275.32,53.66,269.77,53,265.08,53.54Z"/><path class="cls-2" d="M266.08,72.06c-2.78-3.81-13.62-10.36-16.35-8.36s-.22,14.63,2.56,18.44,7.31,7.25,12.9,3.17C271.1,81,268.87,75.87,266.08,72.06Z"/><path class="cls-2" d="M250.54,82.2c1.91-4.32,2.17-17-.93-18.35S236.82,71,234.91,75.29s-2.62,10,3.71,12.75C245.31,91,248.63,86.51,250.54,82.2Z"/><path class="cls-2" d="M234,73.8c4.69-.51,15.79-6.61,15.43-10s-12.57-7.51-17.26-7-9.94,2.7-9.19,9.58C223.75,73.68,229.3,74.31,234,73.8Z"/><path class="cls-4" d="M239.87,47.22s10.62,15.92,9.48,16.42c-2,.88-11-12.48-11-12.48"/><path class="cls-4" d="M257.3,52.46s-5.48,7.49-6.49,6.75c-1.78-1.31,3.3-12.49,3.3-12.49"/><path class="cls-4" d="M265.47,64.79s-11.23-1.07-11.09-2.31c.24-2.19,8.4-2.72,8.4-2.72"/><path class="cls-4" d="M257,77.73s-5.35-9.86-4.21-10.36c2-.89,6.44,5.89,6.44,5.89"/><path class="cls-4" d="M240.21,81.32s6.2-13.48,7.2-12.74c1.78,1.31-1.94,10.66-1.94,10.66"/><path class="cls-4" d="M239.1,63.08s6.47.16,6.33,1.4c-.24,2.2-11.79,4.09-11.79,4.09"/><line class="cls-4" x1="235.69" y1="63.08" x2="231.52" y2="63.33"/><line class="cls-4" x1="265.64" y1="59.84" x2="268.09" y2="60.22"/><line class="cls-4" x1="259.21" y1="48.07" x2="258.79" y2="49.62"/><path class="cls-5" d="M246.38,66.48a4.48,4.48,0,1,0,1-6.26A4.49,4.49,0,0,0,246.38,66.48Z"/><path class="cls-2" d="M107.33,104.22a7.46,7.46,0,0,0,.82-9.46c-.94-.86-5.49-2.26-9.17,1.71s-5.11,11.81-4.17,12.68S103.65,108.19,107.33,104.22Z"/><path class="cls-3" d="M98.21,105.61a64.93,64.93,0,0,0,6.16-5.66,71.63,71.63,0,0,0,4.14-5.9"/><path class="cls-2" d="M170.85,31.58c-7.08,1.44-8.53,8.12-8.23,9.61.34,1.66,4.18,6.72,11.26,5.27s14.7-8.82,14.36-10.49C187.87,34.14,177.92,30.14,170.85,31.58Z"/><path class="cls-3" d="M181.81,37.16a88.18,88.18,0,0,0-11.07,1.34c-3.31.86-9.07,3.18-9.07,3.18"/><path class="cls-2" d="M127.3,78.6c-1.21,2.91-7.23,8.88-9.32,8s-2.45-9.49-1.23-12.4,3.61-5.87,7.88-4.09C129.16,72,128.51,75.68,127.3,78.6Z"/><path class="cls-2" d="M115.6,74.45c1.92,2.51,4.08,10.7,2.28,12.08s-9.44-2.62-11.36-5.13-3.27-6.07.4-8.88C110.81,69.54,113.68,71.94,115.6,74.45Z"/><path class="cls-2" d="M106.16,82.51c3.13-.41,11.3,1.82,11.6,4.07s-7,6.86-10.12,7.27-6.89-.2-7.49-4.79C99.52,84.2,103,82.92,106.16,82.51Z"/><path class="cls-2" d="M108.42,94.72c1.21-2.92,7.23-8.88,9.32-8s2.45,9.48,1.23,12.4-3.61,5.86-7.88,4.09C106.56,101.32,107.21,97.63,108.42,94.72Z"/><path class="cls-2" d="M120.12,98.86c-1.92-2.5-4.08-10.7-2.28-12.07s9.44,2.62,11.36,5.13,3.27,6.06-.41,8.87C124.9,103.77,122,101.37,120.12,98.86Z"/><path class="cls-2" d="M129.56,90.8c-3.13.41-11.31-1.82-11.6-4.06s7-6.86,10.12-7.27,6.89.2,7.49,4.79C136.2,89.11,132.69,90.39,129.56,90.8Z"/><path class="cls-4" d="M121.56,74.44s-4.41,12-3.58,12.17"/><path class="cls-4" d="M116.33,84c-.45-1.82-5.46-7.14-5.46-7.14"/><path class="cls-4" d="M106,89.66s8.77-2.23,8.48-3"/><path class="cls-4" d="M115.54,95.36s1.64-5.65.82-5.79c-1.46-.26-4.68,7.11-4.68,7.11"/><path class="cls-4" d="M120,89.52c1.2,3.76,5.76,7.72,5.76,7.72"/><path class="cls-4" d="M127.34,85.75s-7,0-6.68.79"/><line class="cls-4" x1="129.89" y1="85.23" x2="131.5" y2="85.16"/><line class="cls-4" x1="105.99" y1="87.03" x2="107.74" y2="86.76"/><line class="cls-4" x1="113.97" y1="100.21" x2="114.36" y2="99.26"/><line class="cls-4" x1="123.91" y1="76.4" x2="124.45" y2="75.24"/><path class="cls-5" d="M120.35,88a3,3,0,1,1-1.61-3.92A3,3,0,0,1,120.35,88Z"/><path class="cls-2" d="M165.79,55.27c-2.78,3.81-13.62,10.37-16.36,8.37S149.21,49,152,45.19s7.31-7.25,12.89-3.17C170.8,46.34,168.57,51.46,165.79,55.27Z"/><path class="cls-2" d="M150.25,45.14c1.9,4.32,2.16,17-.94,18.35s-12.78-7.13-14.69-11.44-2.62-10,3.7-12.76C145,36.33,148.34,40.83,150.25,45.14Z"/><path class="cls-2" d="M133.7,53.54c4.69.5,15.79,6.61,15.42,10s-12.56,7.51-17.25,7-9.94-2.71-9.2-9.58C123.46,53.66,129,53,133.7,53.54Z"/><path class="cls-2" d="M132.7,72.06c2.78-3.81,13.62-10.36,16.35-8.36s.22,14.63-2.56,18.44-7.31,7.25-12.9,3.17C127.68,81,129.91,75.87,132.7,72.06Z"/><path class="cls-2" d="M148.24,82.2c-1.91-4.32-2.17-17,.93-18.35S162,71,163.87,75.29s2.62,10-3.71,12.75C153.47,91,150.15,86.51,148.24,82.2Z"/><path class="cls-2" d="M164.79,73.8c-4.69-.51-15.79-6.61-15.43-10s12.57-7.51,17.26-7,9.93,2.7,9.19,9.58C175,73.68,169.48,74.31,164.79,73.8Z"/><path class="cls-4" d="M158.91,47.22s-10.62,15.92-9.48,16.42c2,.88,11-12.48,11-12.48"/><path class="cls-4" d="M141.48,52.46S147,60,148,59.21c1.77-1.31-3.3-12.49-3.3-12.49"/><path class="cls-4" d="M133.31,64.79s11.23-1.07,11.09-2.31c-.24-2.19-8.4-2.72-8.4-2.72"/><path class="cls-4" d="M141.82,77.73s5.36-9.86,4.21-10.36c-2-.89-6.43,5.89-6.43,5.89"/><path class="cls-4" d="M158.57,81.32s-6.2-13.48-7.21-12.74c-1.77,1.31,1.95,10.66,1.95,10.66"/><path class="cls-4" d="M159.68,63.08s-6.47.16-6.33,1.4c.24,2.2,11.79,4.09,11.79,4.09"/><line class="cls-4" x1="163.09" y1="63.08" x2="167.26" y2="63.33"/><line class="cls-4" x1="133.14" y1="59.84" x2="130.69" y2="60.22"/><line class="cls-4" x1="139.57" y1="48.07" x2="139.99" y2="49.62"/><path class="cls-5" d="M152.4,66.48a4.48,4.48,0,1,1-1-6.26A4.49,4.49,0,0,1,152.4,66.48Z"/><path class="cls-6" d="M65.79,222.66,71,210.19s-.83-2.83-8.27-6.23-11.16-1.7-11.16-1.7,1.54,7.19,6,12C62.58,219.73,65.79,222.66,65.79,222.66Z"/><path class="cls-7" d="M51.66,202.13s-4.85,18.48-10,26.92-10,11.4-10,11.4C48,263.26,59,266.91,82.13,268.7l16.92-41.17C71.74,224.94,59.88,220.38,51.66,202.13Z"/><polygon class="cls-6" points="74.03 241.21 79.03 283.33 87.39 288.7 99.05 227.53 74.03 241.21"/><path class="cls-6" d="M336.74,222.66l-5.17-12.47s.83-2.83,8.27-6.23,11.15-1.7,11.15-1.7-1.53,7.19-6,12C340,219.73,336.74,222.66,336.74,222.66Z"/><path class="cls-7" d="M350.86,202.13s4.86,18.48,10,26.92,10,11.4,10,11.4c-16.43,22.81-27.38,26.46-50.54,28.25l-16.92-41.17C330.79,224.94,342.65,220.38,350.86,202.13Z"/><polygon class="cls-6" points="328.5 241.21 323.49 283.33 315.14 288.7 303.48 227.53 328.5 241.21"/><path class="cls-7" d="M304.48,293.24c-17.24,0-29.24-7.9-41.93-16.26-15.3-10.07-31.12-20.48-61.14-20.48S155.57,266.91,140.27,277c-12.69,8.36-24.69,16.26-41.92,16.26a48.39,48.39,0,0,1-30-10.42S71.71,270.5,73,264.17,74,241,74,241a33.06,33.06,0,0,0,24.33,10.64c12.75,0,21.81-6,33.29-13.53,15.71-10.34,35.26-23.22,69.77-23.22s54.06,12.88,69.77,23.22c11.48,7.56,20.54,13.53,33.3,13.53A32.86,32.86,0,0,0,328.87,241s.36,13,1.2,21.36,4.46,20.42,4.46,20.42A48.42,48.42,0,0,1,304.48,293.24Z"/><path class="cls-8" d="M67.17,219.92,71,210.19s-.83-2.83-8.27-6.23-11.16-1.7-11.16-1.7"/><path class="cls-8" d="M99.05,227.53c-27.31-2.59-39.17-7.15-47.39-25.4,0,0-4.85,18.48-10,26.92s-10,11.4-10,11.4C44.92,259,54.64,264.86,70.22,267.37"/><polyline class="cls-9" points="94.89 249.69 99.05 227.53 74.03 241.21"/><path class="cls-8" d="M335.75,219.92l-4.18-9.73s.83-2.83,8.27-6.23,11.15-1.7,11.15-1.7"/><path class="cls-8" d="M303.48,227.53c27.31-2.59,39.17-7.15,47.38-25.4,0,0,4.86,18.48,10,26.92s10,11.4,10,11.4c-13.41,18.63-23.17,24.48-38.91,27"/><polyline class="cls-9" points="307.7 249.35 303.48 227.53 328.5 241.21"/><path class="cls-8" d="M304.48,293.24c-17.24,0-29.24-7.9-41.93-16.26-15.3-10.07-31.12-20.48-61.14-20.48S155.57,266.91,140.27,277c-12.69,8.36-24.69,16.26-41.92,16.26a48.39,48.39,0,0,1-30-10.42S71.71,270.5,73,264.17,74,241,74,241a33.06,33.06,0,0,0,24.33,10.64c12.75,0,21.81-6,33.29-13.53,15.71-10.34,35.26-23.22,69.77-23.22s54.06,12.88,69.77,23.22c11.48,7.56,20.54,13.53,33.3,13.53A32.86,32.86,0,0,0,328.87,241s.36,13,1.2,21.36,4.46,20.42,4.46,20.42A48.42,48.42,0,0,1,304.48,293.24Z"/><path class="cls-10" d="M51.8,245.39c3.71,4.36,7.39,6.24,12.87,8.75"/><path class="cls-10" d="M39.35,232.7c3.65,5.7,8.71,10.6,9,10.27"/><path class="cls-10" d="M49.61,210.57c12.77,20.08,26.23,18.93,26.23,18.93"/><path class="cls-10" d="M51.69,231.05a137.35,137.35,0,0,0,12.65,10"/><path class="cls-10" d="M52.18,222.45a18.23,18.23,0,0,0,6.33,6.37"/><path class="cls-10" d="M36.61,236.58c3.88,6.15,8.44,12.08,16.55,16.84"/><path class="cls-10" d="M86.37,285c8.21,2.28,22.06,2.19,28.85-1.82"/><path class="cls-10" d="M97.74,258.5a15.82,15.82,0,0,0,5.2.72c5.91-.29,7.62-2.8,7.62-2.8"/><path class="cls-10" d="M100.87,271.73a25.32,25.32,0,0,0,10.93-1.17"/><path class="cls-10" d="M110.9,264.25a7.11,7.11,0,0,0,2.93-1.26"/><path class="cls-10" d="M81.78,275.7c5.5,3.41,13.94,4.78,21.47,3.07"/><path class="cls-10" d="M72.53,270.31c1.57,1.48,3.78,2.88,3.85,2.45"/><path class="cls-10" d="M74.26,249c9.36,7.3,18,7.81,18,7.81"/><path class="cls-10" d="M74,262.58c2.86,2.05,6.94,8.32,22.45,8.78"/><path class="cls-10" d="M78.38,258.42c1,.58,10.75,8.62,27.57,6.87"/><path class="cls-10" d="M70.15,276.23c3,4.25,6.72,5.41,10.19,7.2"/><path class="cls-10" d="M316.18,285c-8.21,2.28-22.06,2.19-28.86-1.82"/><path class="cls-10" d="M304.8,258.5a15.79,15.79,0,0,1-5.19.72c-5.91-.29-7.62-2.8-7.62-2.8"/><path class="cls-10" d="M301.68,271.73a25.28,25.28,0,0,1-10.93-1.17"/><path class="cls-10" d="M291.64,264.25a7.11,7.11,0,0,1-2.93-1.26"/><path class="cls-10" d="M320.77,275.7c-5.5,3.41-13.94,4.78-21.47,3.07"/><path class="cls-10" d="M330,270.31c-1.57,1.48-3.79,2.88-3.85,2.45"/><path class="cls-10" d="M328.29,249c-9.36,7.3-18,7.81-18,7.81"/><path class="cls-10" d="M328.6,262.58c-2.86,2.05-7,8.32-22.46,8.78"/><path class="cls-10" d="M324.16,258.42c-1,.58-10.75,8.62-27.56,6.87"/><path class="cls-10" d="M332.4,276.23c-3,4.25-6.72,5.41-10.19,7.2"/><path class="cls-10" d="M350.56,245.39c-3.71,4.36-7.39,6.24-12.87,8.75"/><path class="cls-10" d="M363,232.7c-3.65,5.7-8.72,10.6-9,10.27"/><path class="cls-10" d="M352.75,210.57C340,230.65,326.52,229.5,326.52,229.5"/><path class="cls-10" d="M350.67,231.05a138.7,138.7,0,0,1-12.65,10"/><path class="cls-10" d="M350.18,222.45a18.23,18.23,0,0,1-6.33,6.37"/><path class="cls-10" d="M365.75,236.58c-3.88,6.15-8.44,12.08-16.55,16.84"/><path class="cls-11" d="M215.55,158.07a3.91,3.91,0,0,0,.34-.59c.35-.58.66-1.11,1-1.76.5-.94.78-1.11,1-1.11.81,0,3.05,2.75,3.05,3.81a1,1,0,0,1-1.08.94h-10a.58.58,0,0,1,.3.53c0,.41-.19.58-1,.82-.16.35-.16.35-1.36,3.11l3-.18c.89-.06,1.71-.12,2.6-.23a19.63,19.63,0,0,0-1.32-2.88c-.27-.47-.31-.58-.31-.7a.26.26,0,0,1,.23-.24,26.81,26.81,0,0,1,3,1.06c2.79,1.23,4,2.64,4,4.75a2.61,2.61,0,0,1-2.59,2.87,1.91,1.91,0,0,1-2.13-1.64c-.2-.94-.43-1.82-.51-2.11a40.7,40.7,0,0,1-9.4,5.1,3.75,3.75,0,0,0-.78.47,2.27,2.27,0,0,1-1.08.53c-.43,0-.66-.53-1.43-2.76a17.09,17.09,0,0,1-1-3.81c0-.12.08-.17.31-.17l1,.05c1.82.06,1.82.06,2.51.06.55-3.16.55-3.16.7-4.57a43.13,43.13,0,0,0-4.68.23c-.62-1.05-.66-1.17-.66-1.29s.12-.41.31-.41c1.12.06,2.52.12,3.21.12h.89v-5.75c0-5.86,0-7.8,0-9,0-.3,0-.41.16-.41a8,8,0,0,1,1.55.35c1.89.59,2.94,1.17,3.25,2h5.53c1.2-2.4,2-3.63,2.4-3.63,1,0,3.45,2.75,3.45,3.81a1.11,1.11,0,0,1-1,1.17H208.58c-.43.47-.47.7-.47,3.11H213l.66-1.35c.42-.88.62-1.17.93-1.17.69,0,2.36,2.23,2.36,3.16a.65.65,0,0,1-.7.65h-8.17v3H213c.39-.76.62-1.23.89-1.76s.47-.76.74-.76c.62,0,2.28,2.17,2.28,3,0,.53-.27.82-.74.82h-8.09v2.76Zm-4.26,15.6a48,48,0,0,0,.89-4.75c.15-1.12.15-1.18.42-1.18s1.2.3,4.49,1.65a24.3,24.3,0,0,0,7-4.52,40.12,40.12,0,0,0,6.54-7.21c3,1.82,4.92,3.93,4.92,5.28,0,.94-.43,1.29-2,1.58-.46.29-.81.53-1,.65a35.78,35.78,0,0,1-14.44,4.8,1.28,1.28,0,0,1,.62,1.12,1,1,0,0,1-.42.82c-.12.06-.27.18-.39.24a1.58,1.58,0,0,0-.35.23l-.46,1.29h10.72c.27-.53.27-.53.58-1.11.5-.94.62-1.12.89-1.65.73-1.46,1.24-2.11,1.66-2.11s1.36.76,2.71,2.23c1.09,1.23,1.67,2.23,1.67,3a.94.94,0,0,1-.85.94H216.51c-1,2.35-1,2.35-1.35,3.17h5.34c1.43-2.41,1.43-2.41,1.9-2.41a4.49,4.49,0,0,1,2.28,1.53c1.9,1.93,2.32,2.58,2.32,3.4s-.38,1.23-1.54,1.7a35.11,35.11,0,0,1-3,4.58,34.75,34.75,0,0,0,10.88,1.34h1.16c.47,0,.54,0,.54.24s0,.23-.38.59a16.91,16.91,0,0,0-3.45,5.74c-.38,1.35-.58,1.53-1.62,1.53a13.93,13.93,0,0,1-11-5.16c-4.29,3.4-8,4.75-13.23,4.75a20.34,20.34,0,0,1-4.92-.59c-.39-.12-.43-.17-.43-.35a.27.27,0,0,1,.28-.29h.23a19.06,19.06,0,0,0,15.83-8.51,23.35,23.35,0,0,1-1.67-6.8h-.11c-2.75,5.63-5.5,9.09-9.21,11.73-1.63,1.11-4.46,2.52-5.11,2.52-.12,0-.2-.06-.2-.23s0-.3.35-.47c1.55-.94,3.87-3.58,5.69-6.46A43.42,43.42,0,0,0,211,175H203.2a21.7,21.7,0,0,0-2.79.12c-.62-1-.66-1.12-.66-1.23s.12-.41.31-.41a20.28,20.28,0,0,0,2.21.23Zm4.1,5.75.31.88a10,10,0,0,0,2.36,3.75,21.27,21.27,0,0,0,2.25-4.63Zm14.28-31.09c-4.64,2.41-7.93,3.7-10.6,4.22a5.08,5.08,0,0,1-.66.12,2.37,2.37,0,0,1-.5.06c-.23,0-.35-.06-.35-.18a.5.5,0,0,1,.23-.41c2.9-2.17,5.15-4.86,8.52-10.61,3.44,2.05,5.38,3.93,5.38,5.28C231.69,147.92,231.22,148.27,229.67,148.33ZM232,156c-5.42,3.52-9.18,5.28-12.55,5.8l-.77.12a2.71,2.71,0,0,1-.58.06c-.23,0-.31-.06-.31-.23s0-.18.19-.3a17,17,0,0,0,4.57-3.4,45,45,0,0,0,6.85-8.92,28.76,28.76,0,0,1,3.41,3,3.6,3.6,0,0,1,1.16,2.29C234,155.43,233.51,156,232,156Z"/><path class="cls-11" d="M253.3,177.65c-.37,5.63-1.28,9.5-3,12.77a15.78,15.78,0,0,1-1.72,2.52c-.19.23-.35.35-.43.35s-.15-.12-.15-.24a1,1,0,0,1,.12-.41,17.77,17.77,0,0,0,.95-4.45,72.24,72.24,0,0,0,.39-7.8c0-1.11,0-1.52-.05-6.39.5.17.5.17,2.24.71,1.51.48,2.36,1.13,2.36,1.71C254,176.83,253.85,177.13,253.3,177.65Zm-2.25-5.58a3.23,3.23,0,0,1-1.59.93c-.43,0-.62-.36-.73-1.35-.26-1.94-.41-3.58-.55-5.64q4.75.47,5.91.56A99.48,99.48,0,0,0,259,151.23a17.18,17.18,0,0,1,4,3.77,3.38,3.38,0,0,1,.8,1.88c0,.77-.47,1.17-1.59,1.34-1.84,2.75-2.85,4.21-6,8.54,2.09.12,2.09.12,3.91.19a13,13,0,0,0-1-2.82c-.19-.29-.19-.29-.19-.41s0-.18.19-.17a6.29,6.29,0,0,1,2.51,1,6.61,6.61,0,0,1,3.19,5.59c0,2.22-1,4-2.46,4-1.09,0-1.78-.89-1.85-2.18,0-.59-.11-1.64-.21-3.23-.47.18-1.44.53-1.79.64,0,6,0,6,.12,21.58V193a2.29,2.29,0,0,1-.62,1.93,4.46,4.46,0,0,1-2.64.93c-1.08,0-1.32-.36-1.31-2,0-.23.1-4,.38-13.89,0-.18.06-3.29.13-9.27-.55.23-1.24.52-2.14.87Zm8.21-24.48a59.58,59.58,0,0,1-4.88,7.49,5.77,5.77,0,0,1,1.49,4c0,2.29-1.18,4-2.73,4-1.27,0-1.62-.65-2-3.52a16.72,16.72,0,0,0-2.05-6.76.48.48,0,0,1-.12-.29.22.22,0,0,1,.2-.24,15.93,15.93,0,0,1,3.47,1.19c.87-4.1,1.47-7.5,2-11.78a18.4,18.4,0,0,1,4.78,2.38A2.6,2.6,0,0,1,260.7,146C260.7,146.78,260.31,147.19,259.26,147.59ZM262.08,188a1.63,1.63,0,0,1-1.62-1.36,7.25,7.25,0,0,1-.15-1.93c0-4.46-.27-6.69-1-8.34a.47.47,0,0,1-.08-.29c0-.12.08-.12.16-.12.58,0,2,1.07,3.08,2.25a7.9,7.9,0,0,1,2.22,5.64C264.64,186.27,263.59,188,262.08,188Zm15.57-34.23c.32-.71.87-2,1.61-3.81.47-1.17.94-1.69,1.4-1.69s1.39.89,2.58,3a6.92,6.92,0,0,1,1.11,2.88,1,1,0,0,1-1,1.11l-8.51,0-.05,10.56h2.47c.4-.82.75-1.58,1.57-3.4.47-1,1-1.63,1.4-1.63,1.08,0,3.47,3.71,3.46,5.35a1,1,0,0,1-1,1.11l-15.05-.07a25.4,25.4,0,0,0-3,.1c-.58-1.12-.61-1.24-.61-1.35s.11-.41.31-.41c.85.06,1.89.13,2.44.13h3.05l.06-10.43-3.29,0a25,25,0,0,0-3,.16c-.61-1.29-.65-1.41-.65-1.53s.12-.41.32-.41c.85.12,1.89.24,2.43.25l4.14,0q0-5.81-.05-11.61c0-.3,0-.36.19-.35a13.89,13.89,0,0,1,4.68,1c1,.42,1.47.95,1.46,1.71,0,.59-.31,1-1.17,1.7l-.11,7.62Zm-1.73,20.81c.24-.53.47-1.11,1-2.28.39-.88.74-1.35,1.05-1.35a8.08,8.08,0,0,1,2.78,2.13c1.35,1.36,1.89,2.24,1.88,3.18,0,.64-.31,1.11-1.29,1.93,0,1.46.09,5.8.25,12.43,0,1.23,0,1.47,0,1.58a3.68,3.68,0,0,1-.55,2.17,4.45,4.45,0,0,1-3.3,1.28c-1.12,0-1.5-.6-1.5-2.3v-1.46l-6.35,0v.65a2.59,2.59,0,0,1-1.33,2.63,5.42,5.42,0,0,1-1.7.46c-1.13,0-1.63-.48-1.62-1.53.05-2.29.14-4.52.19-6.81.05-1.81.05-3.16.06-4.74,0-3.29,0-6.93,0-8.51v-.82c0-.71,0-.82.31-.82,1.16,0,4.06,1.43,4.48,2.19Zm.37,11.44c0-3,0-8,0-9,0-.82-.19-1.12-.77-1.12l-4.92,0c-.54,0-.73.64-.74,2.4,0,4.05,0,9.1,0,12.15l6.39,0Z"/><path class="cls-11" d="M322.17,150.27c.34-.77,1-2,2.2-4.28.58-1.12.78-1.29,1.16-1.29.58,0,1.78,1.11,3.22,3.05,1,1.4,1.43,2.16,1.43,2.81s-.35,1.17-1,1.17h-25c-.89.53-1,.71-1,3.29v4.57c0,14-.39,19.07-1.94,24.4A30.74,30.74,0,0,1,296,194.2c-.46.59-.77.82-.93.82s-.19-.12-.19-.29,0-.24.46-1.06a24.65,24.65,0,0,0,2.48-8.62,68.63,68.63,0,0,0,.5-11c0-5.34,0-12.61-.15-19.06,0-2.41-.08-5.63-.16-7.45,0-.29.12-.47.39-.47a19,19,0,0,1,4,1.41,3.87,3.87,0,0,1,2,1.76H311c0-4.46,0-5.63-.08-7.92,0-.35.08-.41.31-.41a19.11,19.11,0,0,1,4,.59c1.93.47,2.63.93,2.63,1.93,0,.65-.27,1.06-1.12,1.64l0,4.17Zm1.31,14c.39-.83.39-.83,1.59-3.46.54-1.24.89-1.65,1.28-1.65s1.24.71,2.51,2.35c1.12,1.41,1.59,2.35,1.59,3.11s-.39,1-1.24,1H317.79l.08,10.62h3.44c1-2.46,1.55-3.34,2-3.34s1.31.53,3.09,2.23c1.55,1.46,1.86,2,1.86,2.75s-.15.94-1.12,2.11v1.12c0,1.7.12,5.57.23,8.62,0,1,.08,2.17.08,2.64a2.41,2.41,0,0,1-1.05,2.29,5.63,5.63,0,0,1-3,.94c-1.31,0-1.85-.47-1.85-1.76v-1.59H309.66c0,1.7-.23,2.23-1.08,2.88a4.74,4.74,0,0,1-2.4.7c-1.2,0-1.7-.53-1.7-1.82,0-.29.07-5.1.15-8.09,0-2.29.08-5.57.08-8,0-1.46,0-2.75,0-3.81v-.23c0-.36.08-.47.31-.47A16.12,16.12,0,0,1,309.2,175a1.92,1.92,0,0,1,1.08,1.29h2.33c0-3.11,0-4,0-6.69,0-4.86-.07-13.6-.11-15.77v-.24c0-.53,0-.59.35-.59a17.68,17.68,0,0,1,4.41.83c1.43.52,1.9,1,1.9,1.81s-.43,1.3-1.4,1.82v6.87Zm-1.93,17.06c0-3.46,0-3.81-.62-3.81H310.28c-.31,0-.5.41-.58.94,0,.23-.07,1.17-.07,1.82l0,10.56h11.89Z"/><path class="cls-11" d="M247.12,305.55c0-21.71-20.88-39.31-46.63-39.31s-46.62,17.6-46.62,39.31a33.79,33.79,0,0,0,2.37,12.39h6.24V307.29A23.79,23.79,0,0,1,166,303.1v14.84h3V300.6a34.75,34.75,0,0,1,3.55-2.27v19.61h3V296.78c1.15-.53,2.33-1,3.56-1.48v22.64h3V294.29c1.16-.35,2.35-.66,3.56-1v24.6h3V292.72c1.17-.21,2.35-.39,3.56-.54v25.76h3V291.89c1.17-.09,2.36-.15,3.56-.17v26.22h3V291.72c1.21,0,2.39.08,3.56.17v26.05h3V292.18c1.21.15,2.4.33,3.56.54v25.22h3v-24.6c1.22.29,2.4.6,3.56,1v23.65h3V295.3c1.23.45,2.42.95,3.56,1.48v21.16h3V298.33a36,36,0,0,1,3.56,2.27v17.34h3V303.1a23.79,23.79,0,0,1,3.56,4.19v10.65h6.24A33.8,33.8,0,0,0,247.12,305.55Z"/><path class="cls-12" d="M175.44,278a1.32,1.32,0,0,0-.36,1.21c0,.31.68,1,.8,1a2.18,2.18,0,0,0,1.34,0,1.3,1.3,0,0,0,.79-.88,1.39,1.39,0,0,0,0-1,.8.8,0,0,0-.22-.32A1.62,1.62,0,0,0,175.44,278Z"/><path class="cls-12" d="M177.4,273.37c.2-.63.88-.75,1.16-.87a1.65,1.65,0,0,1,1.94,1.8,1.47,1.47,0,0,1-.62,1.16,1.68,1.68,0,0,1-1.06.38.84.84,0,0,1-.42-.1A1.73,1.73,0,0,1,177.4,273.37Z"/><path class="cls-6" d="M183.63,281.11s-.51-2.84-.14-3.92c.53-1.55-.23-2-.79-1.25a2.94,2.94,0,0,0-.09,2.82,11.67,11.67,0,0,0,.83,2.15C183.68,281.27,183.63,281.11,183.63,281.11Z"/><path class="cls-6" d="M183.43,281.43a19.35,19.35,0,0,0-3.87,1.64c-1.7,1.12-3.26-.49-2-1.49s2.31-.54,3.4-.5a9.17,9.17,0,0,1,2.54.21C184.16,281.53,183.43,281.43,183.43,281.43Z"/><path class="cls-6" d="M183.75,281a12,12,0,0,1,2-4.28c1.12-1.22-.13-2.51-1.09-1.42s-.67,2.11-.79,3.18-.13,1.4-.28,2.39C183.52,281.56,183.75,281,183.75,281Z"/><path class="cls-6" d="M183.75,281a12,12,0,0,1,2-4.28c1.12-1.22-.13-2.51-1.09-1.42s-.67,2.11-.79,3.18-.13,1.4-.28,2.39C183.52,281.56,183.75,281,183.75,281Z"/><path class="cls-6" d="M187,284.1a8.54,8.54,0,0,0-4.22,1.86c-1.58,1.34-2-.32-.87-1.51s1.87-.85,2.84-.85a7.23,7.23,0,0,1,2.51.29C187.81,284.14,187,284.1,187,284.1Z"/><path class="cls-6" d="M187.83,283.83s-1.1-2-.17-3.64c1.45-2.49-1.07-1.8-1.41-.6a3.31,3.31,0,0,0,.47,2.51,8.76,8.76,0,0,0,1.07,2C188.15,284.51,187.83,283.83,187.83,283.83Z"/><path class="cls-6" d="M190,285a5.39,5.39,0,0,1-.24-2.38c.36-1.13-.25-1.19-.66-.52a1.5,1.5,0,0,0,0,1.78,4.08,4.08,0,0,0,.72,1C190.09,285.05,190,285,190,285Z"/><path class="cls-6" d="M189.56,285a5.55,5.55,0,0,0-2.14,1.11c-.76.94-1.13.45-.78-.28a1.49,1.49,0,0,1,1.51-1,4.07,4.07,0,0,1,1.28,0C189.65,285,189.56,285,189.56,285Z"/><path class="cls-6" d="M194.6,284.23a.29.29,0,0,0-.38-.12h0a7.14,7.14,0,0,1-.94.39,7,7,0,0,1-1,.26,6.07,6.07,0,0,1-2,.05,4.89,4.89,0,0,1-1-.26,8.76,8.76,0,0,1-.93-.45c-.65-.33-1.29-.62-1.92-.94a9.77,9.77,0,0,1-1.76-1.13,6.39,6.39,0,0,1-.76-.71l-.35-.39c-.11-.14-.23-.28-.35-.41a8,8,0,0,0-1.65-1.41l-.22-.13,0,0a3.84,3.84,0,0,1-1.38-1.71,1.77,1.77,0,0,1,.21-1.78c.26-.33-2,.11-1.67.51.47.65,1.13,1.33,1.26,1.58a5.65,5.65,0,0,0,.83,1.1,3.35,3.35,0,0,0-.55-.11l-.28,0c-.29,0-1-.34-1.72-.51-.42-.1-.09,1.83.11,1.52s.59-.64,1.45-.74a3,3,0,0,1,1.51.36l.33.2a7.29,7.29,0,0,1,1.55,1.39c.11.13.23.27.33.41s.24.27.35.41a8.22,8.22,0,0,0,.79.77,10.84,10.84,0,0,0,1.8,1.2c.64.34,1.28.64,1.9,1a9.94,9.94,0,0,0,1,.49,5.18,5.18,0,0,0,1.07.3,6.62,6.62,0,0,0,2.22,0,7.94,7.94,0,0,0,1.07-.26,7,7,0,0,0,1-.42h0A.29.29,0,0,0,194.6,284.23Z"/><path class="cls-6" d="M194.6,284.23a.29.29,0,0,0-.38-.12h0a7.14,7.14,0,0,1-.94.39,7,7,0,0,1-1,.26,6.07,6.07,0,0,1-2,.05,4.89,4.89,0,0,1-1-.26,8.76,8.76,0,0,1-.93-.45c-.65-.33-1.29-.62-1.92-.94a9.77,9.77,0,0,1-1.76-1.13,6.39,6.39,0,0,1-.76-.71l-.35-.39c-.11-.14-.23-.28-.35-.41a8,8,0,0,0-1.65-1.41l-.22-.13,0,0a3.84,3.84,0,0,1-1.38-1.71,1.77,1.77,0,0,1,.21-1.78c.26-.33-2,.11-1.67.51.47.65,1.13,1.33,1.26,1.58a5.65,5.65,0,0,0,.83,1.1,3.35,3.35,0,0,0-.55-.11l-.28,0c-.29,0-1-.34-1.72-.51-.42-.1-.09,1.83.11,1.52s.59-.64,1.45-.74a3,3,0,0,1,1.51.36l.33.2a7.29,7.29,0,0,1,1.55,1.39c.11.13.23.27.33.41s.24.27.35.41a8.22,8.22,0,0,0,.79.77,10.84,10.84,0,0,0,1.8,1.2c.64.34,1.28.64,1.9,1a9.94,9.94,0,0,0,1,.49,5.18,5.18,0,0,0,1.07.3,6.62,6.62,0,0,0,2.22,0,7.94,7.94,0,0,0,1.07-.26,7,7,0,0,0,1-.42h0A.29.29,0,0,0,194.6,284.23Z"/><path class="cls-6" d="M200.15,281.55l.13,0v-3a.85.85,0,0,0-1-.52.84.84,0,0,0-.62.91Z"/><path class="cls-6" d="M199.73,281.83a.47.47,0,0,1,.1-.1l-1.48-2.56a.84.84,0,0,0-1.22,1.15Z"/><path class="cls-6" d="M196.51,282.28h3a.5.5,0,0,1,0-.13L197,280.67a.85.85,0,0,0-.47,1.61Z"/><path class="cls-6" d="M200.78,281.55l1.48-2.56a.84.84,0,0,0-.62-1,.83.83,0,0,0-1,.47v3Z"/><path class="cls-6" d="M201.2,281.83l2.56-1.48a.86.86,0,0,0,0-1.14h0a.84.84,0,0,0-1.09-.09l-1.51,2.61Z"/><path class="cls-6" d="M201.42,282.28h3a.84.84,0,0,0,.49-1h0a.85.85,0,0,0-.9-.62l-2.61,1.51Z"/><path class="cls-6" d="M204.41,282.66h-3l0,.12,2.58,1.49a.86.86,0,0,0,.94-.61h0A.85.85,0,0,0,204.41,282.66Z"/><path class="cls-6" d="M199.51,282.66h-3a.84.84,0,0,0,.4,1.62l2.6-1.5A.56.56,0,0,1,199.51,282.66Z"/><path class="cls-6" d="M201.2,283.11l-.09.09,1.49,2.58a.84.84,0,0,0,1.12-.07.85.85,0,0,0,.07-1.11Z"/><path class="cls-6" d="M200.78,283.39l-.12,0v3a.83.83,0,0,0,1,.5h0a.85.85,0,0,0,.62-.92Z"/><path class="cls-6" d="M200.15,283.39,198.67,286a.84.84,0,0,0,1.61.46v-3Z"/><path class="cls-6" d="M199.73,283.11l-2.57,1.48a.84.84,0,0,0,.06,1.13.86.86,0,0,0,1.11.08l1.5-2.6Z"/><path class="cls-6" d="M193.42,281.74l.14.05a7.58,7.58,0,0,1,.09-1,3.27,3.27,0,0,1,1.07-2.32c.32-.24.47-1,.21-1.11a1.67,1.67,0,0,0-1.45.57,3,3,0,0,0-.27,2.43A11.25,11.25,0,0,1,193.42,281.74Z"/><path class="cls-6" d="M194.16,283.52a1,1,0,0,0-.19.21c-.22-.47-1.2-3.17-1.45-3.53-.92-1.31-1.69-2.07-3-2.07-.63,0-1.33-.93-1-1.3a2,2,0,0,1,2-.27c1.21.33,2.09,2.64,2.48,3.58C193.1,280.41,194,283.06,194.16,283.52Z"/><path class="cls-6" d="M176.87,285.09A.42.42,0,0,1,177,285a9.51,9.51,0,0,1-.86-.77,3.77,3.77,0,0,1-1.38-2.58c0-.45-.63-1.14-.87-.94a1.88,1.88,0,0,0-.48,1.7,3.46,3.46,0,0,0,2,1.93A13.31,13.31,0,0,1,176.87,285.09Z"/><path class="cls-6" d="M179,285.63a1.65,1.65,0,0,0,.06.32c-.57-.12-3.71-1.07-4.22-1.09-1.82-.06-3.05.12-4,1.34-.42.57-1.77.58-1.84,0a2.27,2.27,0,0,1,1.1-2c1.12-.87,3.84-.09,5,.19C175.43,284.47,178.47,285.47,179,285.63Z"/><path class="cls-12" d="M225.54,278a1.32,1.32,0,0,1,.36,1.21c0,.31-.68,1-.8,1a2.18,2.18,0,0,1-1.34,0,1.3,1.3,0,0,1-.79-.88,1.39,1.39,0,0,1,0-1,.8.8,0,0,1,.22-.32A1.62,1.62,0,0,1,225.54,278Z"/><path class="cls-12" d="M223.58,273.37c-.2-.63-.87-.75-1.16-.87a1.65,1.65,0,0,0-1.94,1.8,1.47,1.47,0,0,0,.62,1.16,1.68,1.68,0,0,0,1.06.38.84.84,0,0,0,.42-.1A1.73,1.73,0,0,0,223.58,273.37Z"/><path class="cls-6" d="M217.36,281.11a12.42,12.42,0,0,0,.14-3.92c-.53-1.55.22-2,.78-1.25a2.94,2.94,0,0,1,.09,2.82,11.67,11.67,0,0,1-.83,2.15C217.3,281.27,217.36,281.11,217.36,281.11Z"/><path class="cls-6" d="M217.55,281.43a19.35,19.35,0,0,1,3.87,1.64c1.7,1.12,3.26-.49,2-1.49s-2.31-.54-3.4-.5a9.17,9.17,0,0,0-2.54.21C216.83,281.53,217.55,281.43,217.55,281.43Z"/><path class="cls-6" d="M217.23,281a12,12,0,0,0-2-4.28c-1.12-1.22.13-2.51,1.09-1.42s.67,2.11.79,3.18.14,1.4.28,2.39C217.46,281.56,217.23,281,217.23,281Z"/><path class="cls-6" d="M217.23,281a12,12,0,0,0-2-4.28c-1.12-1.22.13-2.51,1.09-1.42s.67,2.11.79,3.18.14,1.4.28,2.39C217.46,281.56,217.23,281,217.23,281Z"/><path class="cls-6" d="M214,284.1a8.51,8.51,0,0,1,4.22,1.86c1.58,1.34,2-.32.87-1.51s-1.87-.85-2.84-.85a7.23,7.23,0,0,0-2.51.29C213.17,284.14,214,284.1,214,284.1Z"/><path class="cls-6" d="M213.15,283.83s1.1-2,.17-3.64c-1.45-2.49,1.07-1.8,1.41-.6a3.26,3.26,0,0,1-.47,2.51,8.76,8.76,0,0,1-1.07,2C212.83,284.51,213.15,283.83,213.15,283.83Z"/><path class="cls-6" d="M210.94,285a5.39,5.39,0,0,0,.24-2.38c-.36-1.13.25-1.19.66-.52a1.5,1.5,0,0,1,0,1.78,4.09,4.09,0,0,1-.73,1C210.89,285.05,210.94,285,210.94,285Z"/><path class="cls-6" d="M211.42,285a5.55,5.55,0,0,1,2.14,1.11c.76.94,1.13.45.78-.28a1.49,1.49,0,0,0-1.51-1,4.07,4.07,0,0,0-1.28,0C211.33,285,211.42,285,211.42,285Z"/><path class="cls-6" d="M206.38,284.23a.29.29,0,0,1,.38-.12h0a7.14,7.14,0,0,0,.94.39,7,7,0,0,0,1,.26,6.07,6.07,0,0,0,2,.05,4.89,4.89,0,0,0,1-.26,8.76,8.76,0,0,0,.93-.45c.65-.33,1.3-.62,1.92-.94a9.77,9.77,0,0,0,1.76-1.13,6.39,6.39,0,0,0,.76-.71l.35-.39c.11-.14.23-.28.35-.41a8,8,0,0,1,1.65-1.41l.22-.13,0,0a3.84,3.84,0,0,0,1.38-1.71,1.77,1.77,0,0,0-.21-1.78c-.26-.33,2,.11,1.67.51-.47.65-1.13,1.33-1.26,1.58a5.65,5.65,0,0,1-.83,1.1,3.35,3.35,0,0,1,.55-.11l.28,0c.29,0,1.05-.34,1.72-.51.42-.1.09,1.83-.11,1.52s-.59-.64-1.45-.74a3,3,0,0,0-1.51.36l-.33.2a7.29,7.29,0,0,0-1.55,1.39c-.11.13-.23.27-.33.41l-.35.41a9.45,9.45,0,0,1-.78.77,11.36,11.36,0,0,1-1.81,1.2c-.64.34-1.28.64-1.9,1a9.94,9.94,0,0,1-1,.49,5.18,5.18,0,0,1-1.07.3,6.55,6.55,0,0,1-2.21,0,7.73,7.73,0,0,1-1.08-.26,7,7,0,0,1-1-.42h0A.29.29,0,0,1,206.38,284.23Z"/><path class="cls-6" d="M206.38,284.23a.29.29,0,0,1,.38-.12h0a7.14,7.14,0,0,0,.94.39,7,7,0,0,0,1,.26,6.07,6.07,0,0,0,2,.05,4.89,4.89,0,0,0,1-.26,8.76,8.76,0,0,0,.93-.45c.65-.33,1.3-.62,1.92-.94a9.77,9.77,0,0,0,1.76-1.13,6.39,6.39,0,0,0,.76-.71l.35-.39c.11-.14.23-.28.35-.41a8,8,0,0,1,1.65-1.41l.22-.13,0,0a3.84,3.84,0,0,0,1.38-1.71,1.77,1.77,0,0,0-.21-1.78c-.26-.33,2,.11,1.67.51-.47.65-1.13,1.33-1.26,1.58a5.65,5.65,0,0,1-.83,1.1,3.35,3.35,0,0,1,.55-.11l.28,0c.29,0,1.05-.34,1.72-.51.42-.1.09,1.83-.11,1.52s-.59-.64-1.45-.74a3,3,0,0,0-1.51.36l-.33.2a7.29,7.29,0,0,0-1.55,1.39c-.11.13-.23.27-.33.41l-.35.41a9.45,9.45,0,0,1-.78.77,11.36,11.36,0,0,1-1.81,1.2c-.64.34-1.28.64-1.9,1a9.94,9.94,0,0,1-1,.49,5.18,5.18,0,0,1-1.07.3,6.55,6.55,0,0,1-2.21,0,7.73,7.73,0,0,1-1.08-.26,7,7,0,0,1-1-.42h0A.29.29,0,0,1,206.38,284.23Z"/><path class="cls-6" d="M207.56,281.74l-.14.05a7.65,7.65,0,0,0-.08-1,3.27,3.27,0,0,0-1.08-2.32c-.32-.24-.47-1-.21-1.11a1.67,1.67,0,0,1,1.45.57,3,3,0,0,1,.27,2.43C207.73,280.56,207.58,281.42,207.56,281.74Z"/><path class="cls-6" d="M206.82,283.52a1,1,0,0,1,.19.21c.22-.47,1.2-3.17,1.45-3.53.92-1.31,1.69-2.07,3-2.07.63,0,1.33-.93,1-1.3a2,2,0,0,0-2-.27c-1.21.33-2.08,2.64-2.47,3.58C207.88,280.41,207,283.06,206.82,283.52Z"/><path class="cls-6" d="M224.11,285.09A.42.42,0,0,0,224,285a9.51,9.51,0,0,0,.86-.77,3.77,3.77,0,0,0,1.38-2.58c0-.45.63-1.14.87-.94a1.88,1.88,0,0,1,.48,1.7,3.43,3.43,0,0,1-2,1.93A13.31,13.31,0,0,0,224.11,285.09Z"/><path class="cls-6" d="M222,285.63a1.65,1.65,0,0,1-.06.32c.58-.12,3.71-1.07,4.22-1.09,1.82-.06,3.05.12,4,1.34.42.57,1.77.58,1.84,0a2.27,2.27,0,0,0-1.1-2c-1.12-.87-3.84-.09-5,.19C225.55,284.47,222.51,285.47,222,285.63Z"/><path class="cls-11" d="M163.1,128.25l.53-1.19-6.72-3.15-.47,1-.45-.21a11.48,11.48,0,0,0,1.07-3.17l.28-.14,1.19.56a4.2,4.2,0,0,1-.11-3.09,2.87,2.87,0,0,1,1.84-1.74c.62-.18,1.26,0,2.61.61l4.2,2,.52-1.06.45.21-2,4.32-.45-.21.42-.94-5-2.33c-.81-.37-1.2-.45-1.52-.3a1.1,1.1,0,0,0-.59.57,2.45,2.45,0,0,0-.1,1.51c.08.36.17.65.34.73l5.53,2.6.42-.87.46.21-2,4.27Z"/><path class="cls-11" d="M160.15,107.45a1.35,1.35,0,0,1,1.87-.19,1.25,1.25,0,0,1,.16,1.79,1.29,1.29,0,0,1-2-1.6Zm8.51,10.1.79-1-5.79-4.65-.73.94-.37-.3a11.94,11.94,0,0,0,1.84-3l.26-.1c.52.46,1,.89,1.56,1.35l4.75,3.81.76-.92.39.32-3.07,3.84Z"/><path class="cls-11" d="M172.64,112.3l1-.75-7.32-10.13-1,.71-.27-.38c1.58-1.26,1.89-1.59,2.39-2.55l.32,0c.45.71,1,1.49,1.56,2.31l2.3,3.19a3.92,3.92,0,0,1,1.44-2.85,3,3,0,0,1,2.85-.37,4.07,4.07,0,0,1,1.46,1.46l2.81,3.88.92-.65.3.41-3.74,2.7-.3-.4.83-.63L175,103.67c-.48-.66-.69-.83-1.06-.9a1.11,1.11,0,0,0-.78.22,2.48,2.48,0,0,0-.89,1.4,1.34,1.34,0,0,0,0,1.08l3.36,4.65.86-.59.29.41-3.83,2.77Z"/><path class="cls-11" d="M187.25,105a4.36,4.36,0,0,1-5.69-2.94,4.41,4.41,0,0,1,3.14-5.67,4.49,4.49,0,1,1,2.55,8.61Zm-.12-.45a1.54,1.54,0,0,0,1.09-1.3,8,8,0,0,0-.39-3.11,8.24,8.24,0,0,0-1.4-2.84,1.52,1.52,0,0,0-1.62-.48c-1.24.37-1.48,1.9-.72,4.44S185.89,105,187.13,104.58Z"/><path class="cls-11" d="M193.36,102.66l1.3,0-.15-7.41-1.15,0v-.5a11.17,11.17,0,0,0,3.31-.43l.25.18,0,1.31a4.2,4.2,0,0,1,2.72-1.46,2.9,2.9,0,0,1,2.37.88c.43.47.58,1.12.6,2.6l.1,4.63h1.18v.5l-4.76.09v-.5l1,0L200.05,97c0-.89-.12-1.28-.4-1.5a1.12,1.12,0,0,0-.76-.28,2.49,2.49,0,0,0-1.4.59c-.29.23-.51.43-.51.62l.12,6.09h1v.5l-4.71.09Z"/><path class="cls-11" d="M206.25,102c.19-.94.7-1.39,2-1.74a2.54,2.54,0,0,1-1-2.5c.35-1.69,2.21-2.67,4.28-2.26a4.07,4.07,0,0,1,2.36,1.35,5.06,5.06,0,0,1,.49.75c.48-1.17,1-1.6,1.75-1.44a1,1,0,0,1,.85,1.23.8.8,0,0,1-1,.69.58.58,0,0,1-.5-.72c0-.17.09-.25.1-.31s0-.12-.12-.13c-.29-.06-.65.43-.78,1.07a3.35,3.35,0,0,0-.05.58,3.72,3.72,0,0,1-.08.68,2.63,2.63,0,0,1-1.85,2,5.35,5.35,0,0,1-2.36.09,4.08,4.08,0,0,1-1.21-.5,1.07,1.07,0,0,0-.33-.14.93.93,0,0,0-1,.71c-.1.49.41.87,1.41,1.08.63.13,1.09.22,2.13.38l1.08.18a2.57,2.57,0,0,1,2.2,1.56,2.07,2.07,0,0,1,.12,1.36,4.2,4.2,0,0,1-2,2.82,6,6,0,0,1-3.95.37c-2.55-.52-4.11-1.91-3.82-3.39.18-.87.91-1.31,2.79-1.63C206.53,103.66,206,103,206.25,102Zm.65,3.8c-.26,1.25.89,2.49,2.69,2.85s3.86-.46,4.14-1.86a1.2,1.2,0,0,0-.45-1.23c-.48-.34-.62-.39-2.86-.82-.74-.15-1.1-.23-1.55-.34-.15,0-.42-.08-.67-.15A2.11,2.11,0,0,0,206.9,105.76Zm3.54-4.94c1,.2,1.71-.54,2-2s-.07-2.65-1-2.84-1.81.69-2.12,2.22S209.47,100.63,210.44,100.82Z"/><path class="cls-11" d="M223.8,101.7a1.24,1.24,0,0,0-.54-1.84c-.63-.32-1.31-.33-1.46,0-.06.12-.06.2,0,.46a.76.76,0,0,1,0,.65.88.88,0,0,1-1.21.42,1,1,0,0,1-.41-1.4c.53-1,2.22-1.13,4-.23a2.81,2.81,0,0,1,1.69,1.84,2.94,2.94,0,0,1-.47,2l-2,4a.59.59,0,0,0,.17.84c.23.12.38.07,1.08-.32l.26.36a2.34,2.34,0,0,1-2.63.33,1.83,1.83,0,0,1-1-1.12,1.93,1.93,0,0,1,0-.78,3.25,3.25,0,0,1-2.86,0,2.09,2.09,0,0,1-1.12-2.85c.54-1.07,1.86-1.49,3.54-1.1a16.2,16.2,0,0,1,2,.66ZM222.63,104a6.25,6.25,0,0,0-1.47-.35,1.8,1.8,0,0,0-1.93,1,1.27,1.27,0,0,0,.47,1.85,1.59,1.59,0,0,0,1.76-.19Z"/><path class="cls-11" d="M225.89,109.29l.83,1,5.77-4.68-.75-.89.38-.32a10,10,0,0,0,2.4,2.36l0,.32-1.17.94a8,8,0,0,1,.95.12,3.54,3.54,0,0,1,2.14,1.13,2.47,2.47,0,0,1,.44,2.29,7.2,7.2,0,0,1-.23.74,6.56,6.56,0,0,1,.79,0,4,4,0,0,1,2.62,1.41,2.61,2.61,0,0,1,.42,2.59,3.12,3.12,0,0,1-1.16,1.44c-.68.55-1.35,1-2.14,1.67l-1.84,1.49.73.94-.39.31-3-3.7.39-.32.72.87,4.17-3.38c.59-.48.85-.83.86-1.22a1.24,1.24,0,0,0-.28-.94,2.71,2.71,0,0,0-1.46-.8,1.19,1.19,0,0,0-1,.21l-4.38,3.55.69.88-.39.31-2.9-3.57.39-.32.72.86,4.38-3.55c.85-.69,1-1.35.56-1.94a1.68,1.68,0,0,0-1.19-.54,3,3,0,0,0-1.64.3l-4.07,3.31.67.86-.39.31-3.05-3.76Z"/><path class="cls-11" d="M235.86,123.53l.46,1.21,7-2.52-.42-1.11.45-.17a11.7,11.7,0,0,0,1.56,3.11l-.06.27c-.66.2-1.27.39-2,.63L237.15,127l.38,1.12-.47.17-1.67-4.62Zm13-2a1.34,1.34,0,0,1-.81,1.69,1.24,1.24,0,0,1-1.61-.8,1.29,1.29,0,0,1,2.42-.89Z"/><path class="cls-11" d="M120.82,268.27a3,3,0,0,0,.62-1.63,3.09,3.09,0,0,0-.53-1.82l.2-.18c.35.4.74.88,1,1.17l.57.65,1.09-1,.27.3-1.09,1,2.34,2.59a6.2,6.2,0,0,0,1.16,1.13.63.63,0,0,0,.75-.09,1.62,1.62,0,0,0,.44-1.12l.37,0a2.51,2.51,0,0,1-.86,1.91,1.88,1.88,0,0,1-2,.52,2.23,2.23,0,0,1-1-.71c-.19-.21-.47-.54-.71-.8L121.6,268l-.56.51Z"/><path class="cls-11" d="M129,268.75l.73-.61c-.24-.33-.46-.61-.72-.94l-1.88-2.28c-.33-.41-.6-.71-.94-1.08l-.67.57-.24-.29a7.89,7.89,0,0,0,1.75-1.8h.23l.84,1c0-.29-.06-.41-.08-.56a1.76,1.76,0,0,1,.58-1.64,1.16,1.16,0,0,1,1.7.14.73.73,0,0,1-.09,1.09.69.69,0,0,1-1.06-.17c-.06-.06-.09-.13-.15-.2s-.22-.13-.37,0a1.36,1.36,0,0,0-.11,1.49,4.86,4.86,0,0,0,1,1.55l1.6,1.94.8-.65.24.29-3,2.43Z"/><path class="cls-11" d="M134.31,258.58a.91.91,0,0,0-1.41-.25c-.43.31-.66.76-.51,1s.11.11.3.16a.57.57,0,0,1,.42.24.66.66,0,0,1-.12,1,.75.75,0,0,1-1.07-.19c-.53-.71,0-1.88,1.17-2.76a2.11,2.11,0,0,1,1.8-.52,2.21,2.21,0,0,1,1.19,1l2,2.69a.45.45,0,0,0,.62.16c.16-.12.18-.23.15-.83l.32-.05a1.74,1.74,0,0,1-.65,1.87,1.37,1.37,0,0,1-1.08.29,1.39,1.39,0,0,1-.51-.29,2.36,2.36,0,0,1-1,1.91,1.55,1.55,0,0,1-2.28-.19c-.54-.72-.38-1.75.44-2.75a11.32,11.32,0,0,1,1.12-1.14Zm1.13,1.54a4.4,4.4,0,0,0-.73.86,1.35,1.35,0,0,0,0,1.62,1,1,0,0,0,1.4.3,1.19,1.19,0,0,0,.46-1.24Z"/><path class="cls-11" d="M138.55,250l-.19-.29c1.31-.92,1.53-1.12,1.93-1.85h.26c.38.63.8,1.33,1.27,2l4.21,6.43.74-.49.19.3-.22.14a7.63,7.63,0,0,0-1.67,1.41l-.23,0-.58-.78a2.3,2.3,0,0,1-.07.52,2.44,2.44,0,0,1-1.07,1.5,2.92,2.92,0,0,1-4.08-1.17c-1.09-1.68-.91-3.6.45-4.5a2.15,2.15,0,0,1,1.42-.34,2.74,2.74,0,0,1,1,.34l-2.48-3.8Zm4,4.32a1.9,1.9,0,0,0-1-.9,1.27,1.27,0,0,0-1.12.14,1.14,1.14,0,0,0-.54,1,4.05,4.05,0,0,0,.73,2c.92,1.42,1.87,1.9,2.69,1.36a1.4,1.4,0,0,0,.6-1.5Z"/><path class="cls-11" d="M144.56,245.88a1,1,0,0,1,1.36.37,1,1,0,1,1-1.36-.37Zm3.23,9.36.83-.5-2.8-4.81-.76.46-.18-.31a8.77,8.77,0,0,0,2.08-1.57h.21c.24.45.45.88.73,1.36l2.3,3.94.77-.43.19.32L148,255.57Z"/><path class="cls-11" d="M149.12,247.7a2.9,2.9,0,0,0,1-1.43,3.16,3.16,0,0,0-.06-1.89l.23-.13c.24.48.5,1,.69,1.39l.39.76,1.3-.69.19.36-1.3.69,1.63,3.09a5.48,5.48,0,0,0,.85,1.37.6.6,0,0,0,.74.1c.32-.17.49-.42.71-1l.34.12a2.51,2.51,0,0,1-1.3,1.64,1.89,1.89,0,0,1-2,0,2.33,2.33,0,0,1-.75-.93c-.13-.24-.32-.63-.49-.95L150,247.62l-.67.36Z"/><path class="cls-11" d="M154.39,240.66a1,1,0,0,1,1.33.48A1,1,0,0,1,154,242,.94.94,0,0,1,154.39,240.66Zm2.47,9.6.87-.44-2.41-5-.79.4-.16-.33a8.66,8.66,0,0,0,2.2-1.39l.22,0c.19.48.37.92.61,1.42l2,4.12.81-.38.17.34L157,250.6Z"/><path class="cls-11" d="M164.85,247.27a3.27,3.27,0,0,1-4.46-1.77,3.31,3.31,0,0,1,1.92-4.46,3.36,3.36,0,1,1,2.54,6.23Zm-.12-.33a1.12,1.12,0,0,0,.71-1,5.91,5.91,0,0,0-.52-2.3,6,6,0,0,0-1.25-2,1.14,1.14,0,0,0-1.24-.24c-.9.37-1,1.52-.21,3.36S163.83,247.31,164.73,246.94Z"/><path class="cls-11" d="M169,245l.92-.31-1.71-5.29-.82.27-.12-.35a9.12,9.12,0,0,0,2.29-1l.21.07.3.94a3.2,3.2,0,0,1,1.64-1.64,2.18,2.18,0,0,1,1.89.12c.42.25.66.68,1,1.74l1.07,3.31.85-.27.12.36-3.4,1.1-.12-.36.73-.24-1.27-3.91c-.2-.63-.36-.89-.61-1a.81.81,0,0,0-.61,0,1.87,1.87,0,0,0-.88.72c-.16.23-.27.43-.22.56l1.4,4.35.7-.21.11.36-3.36,1.09Z"/><path class="cls-11" d="M179.88,236.85a.92.92,0,0,0-1.2-.78c-.52.12-.92.44-.86.68s.07.15.22.27a.57.57,0,0,1,.29.39.65.65,0,0,1-.48.83.77.77,0,0,1-.92-.6c-.2-.85.72-1.73,2.17-2.08a2.15,2.15,0,0,1,1.86.23,2.26,2.26,0,0,1,.71,1.38l.77,3.25a.46.46,0,0,0,.51.4c.19,0,.25-.15.46-.71l.32.08c-.26.89-.63,1.29-1.34,1.46a1.36,1.36,0,0,1-1.11-.15,1.56,1.56,0,0,1-.35-.47,2.44,2.44,0,0,1-1.63,1.39,1.58,1.58,0,0,1-2-1.08c-.21-.88.34-1.76,1.48-2.36a14,14,0,0,1,1.49-.61Zm.43,1.86a4.55,4.55,0,0,0-1,.51,1.37,1.37,0,0,0-.64,1.5,1,1,0,0,0,1.17.82,1.19,1.19,0,0,0,.92-1Z"/><path class="cls-11" d="M184.7,240.64l.93-.18c-.08-.6-.18-1.27-.3-2l-1.23-7.23-.91.18-.06-.37a5.15,5.15,0,0,0,2.51-.94l.24.16c.06.6.17,1.33.28,2l1.35,7.9.91-.14.06.37-3.72.64Z"/><path class="cls-11" d="M195.39,233.71l0-.34a10.12,10.12,0,0,0,2.68-.49l.18.12c0,.63,0,1.46.05,2.21l.07,1.41a16.9,16.9,0,0,1-.15,4.84,2.38,2.38,0,0,1-2.18,2c-.89,0-1.49-.33-1.52-.94a.7.7,0,0,1,.67-.77.64.64,0,0,1,.63.94.34.34,0,0,0,0,.21.35.35,0,0,0,.37.31c.5,0,.68-.69.6-2.37-.06-1.28-.17-2.83-.25-4.63l-.12-2.58Zm1.78-4.27a1,1,0,0,1,1,.94.93.93,0,0,1-.93,1,1,1,0,0,1-1-.92A.94.94,0,0,1,197.17,229.44Z"/><path class="cls-11" d="M204.15,234.38a.93.93,0,0,0-1-1.07c-.53,0-1,.2-1,.45s0,.15.15.31a.62.62,0,0,1,.18.45.66.66,0,0,1-.68.68.76.76,0,0,1-.74-.81c0-.88,1.14-1.49,2.62-1.46a2.1,2.1,0,0,1,1.74.7,2.18,2.18,0,0,1,.34,1.51l-.07,3.33c0,.27.14.51.39.51s.28-.07.62-.57l.29.16a1.76,1.76,0,0,1-1.67,1.08,1.37,1.37,0,0,1-1-.43,1.44,1.44,0,0,1-.22-.55,2.4,2.4,0,0,1-1.93.93,1.57,1.57,0,0,1-1.69-1.55c0-.91.78-1.61,2-1.9a12.91,12.91,0,0,1,1.59-.22Zm-.06,1.9a4.07,4.07,0,0,0-1.1.24,1.34,1.34,0,0,0-1,1.28,1,1,0,0,0,.92,1.1,1.2,1.2,0,0,0,1.13-.7Z"/><path class="cls-11" d="M207.37,243l.94.06c.09-.58.15-1,.21-1.59l.72-6.72a7,7,0,0,0,.08-1l-.88-.1,0-.36a8.13,8.13,0,0,0,2.59,0l.15.16-.12,1a4.41,4.41,0,0,1,.53-.43,2.35,2.35,0,0,1,1.66-.41c1.62.17,2.67,1.7,2.47,3.59s-1.61,3.27-3.31,3.09a2.27,2.27,0,0,1-1.78-1l-.43,4,1,.15,0,.36-3.83-.41Zm3.36-4.89a1.1,1.1,0,0,0,.35,1.13,1.52,1.52,0,0,0,.84.38c1,.11,1.66-.84,1.87-2.73.17-1.62-.24-2.55-1.16-2.65a1.84,1.84,0,0,0-1.57.77Z"/><path class="cls-11" d="M221.11,236.25a.92.92,0,0,0-.78-1.2c-.52-.1-1,0-1.06.28s0,.16.1.33a.63.63,0,0,1,.11.47.67.67,0,0,1-.79.57.76.76,0,0,1-.59-.92c.16-.86,1.36-1.29,2.82-1a2.13,2.13,0,0,1,1.61,1,2.23,2.23,0,0,1,.09,1.55l-.61,3.29a.44.44,0,0,0,.31.56c.19,0,.28,0,.71-.46l.26.21a1.75,1.75,0,0,1-1.82.79,1.38,1.38,0,0,1-1-.59,1.65,1.65,0,0,1-.13-.58,2.41,2.41,0,0,1-2,.62,1.58,1.58,0,0,1-1.42-1.81c.16-.89,1-1.47,2.31-1.56a12.12,12.12,0,0,1,1.61,0Zm-.36,1.88a4.34,4.34,0,0,0-1.13.06,1.34,1.34,0,0,0-1.18,1.11,1,1,0,0,0,.73,1.23,1.23,1.23,0,0,0,1.23-.51Z"/><path class="cls-11" d="M224.13,241.64l.94.24,1.42-5.38-.84-.21.1-.36a8.22,8.22,0,0,0,2.47.36l.14.18-.25,1a3.15,3.15,0,0,1,2.26-.5,2.16,2.16,0,0,1,1.53,1.12c.22.43.19.93-.1,2l-.88,3.36.86.24-.1.37-3.45-.91.09-.37.74.19,1.05-4c.17-.65.17-.94,0-1.16a.85.85,0,0,0-.5-.36,1.83,1.83,0,0,0-1.13.13c-.26.11-.45.21-.49.35l-1.16,4.42.69.2-.09.36L224,242Z"/><path class="cls-11" d="M239.19,244.92a2.93,2.93,0,0,1-3.32.72,3.25,3.25,0,0,1-2.17-4.25,3.37,3.37,0,0,1,4.33-2.13,3,3,0,0,1,1.85,1.72,2.62,2.62,0,0,1,.17,1.68.33.33,0,0,1-.21.22,6.45,6.45,0,0,1-1.68-.49l-2.47-.84-.09.26c-.68,2-.38,3.07,1,3.52.85.29,1.41.14,2.41-.68Zm-.77-2.81c.47-1.48.33-2.24-.48-2.51s-1.53.26-2.12,1.63Z"/><path class="cls-11" d="M240.21,246.86a5.14,5.14,0,0,0,.61-1.2l.27-.71.34.14a1.92,1.92,0,0,0-.06,1.35,1.84,1.84,0,0,0,1.1,1.26,1.2,1.2,0,0,0,1.65-.44c.18-.45,0-.82-.81-1.42a4.5,4.5,0,0,1-1.29-1.31,1.82,1.82,0,0,1,0-1.55,2.12,2.12,0,0,1,2.84-1.16,3.11,3.11,0,0,1,1.28,1l.38-.19.14.12c-.22.45-.34.69-.45,1s-.19.51-.29.75l-.31-.08a2.11,2.11,0,0,0,.07-1.17,1.6,1.6,0,0,0-1-1.07,1.05,1.05,0,0,0-1.46.43c-.22.52,0,.88.94,1.64a4,4,0,0,1,1.18,1.23,1.82,1.82,0,0,1,0,1.52,2.2,2.2,0,0,1-3.07,1,2.85,2.85,0,0,1-1.48-1.25l-.42.22Z"/><path class="cls-11" d="M252.51,250.7a3,3,0,0,1-3.4.34,3.26,3.26,0,0,1-1.67-4.48,3.36,3.36,0,0,1,4.55-1.62,2.92,2.92,0,0,1,1.65,1.91,2.63,2.63,0,0,1,0,1.7.37.37,0,0,1-.24.2,7.49,7.49,0,0,1-1.61-.69l-2.37-1.12-.12.25c-.9,1.91-.73,3,.54,3.62.82.38,1.4.3,2.49-.4Zm-.46-2.89c.64-1.42.59-2.19-.18-2.55s-1.56.08-2.3,1.38Z"/><path class="cls-11" d="M258.46,255.18l.81.48,4.86-8-.76-.45.18-.3a5.1,5.1,0,0,0,2.45.91l.12.22c-.36.51-.75,1.09-1.14,1.74l-1.53,2.52a3,3,0,0,1,2.39.17,2.2,2.2,0,0,1,1.08,1.86,3.06,3.06,0,0,1-.58,1.44l-1.86,3.06.71.45-.19.32-3-1.79.19-.32.68.39,2.18-3.6c.32-.52.37-.72.32-1a.87.87,0,0,0-.38-.47,1.9,1.9,0,0,0-1.23-.21,1,1,0,0,0-.74.33l-2.23,3.69.66.41-.2.32-3-1.84Z"/><path class="cls-11" d="M271.63,258a.93.93,0,0,0-.22-1.42c-.44-.3-.94-.38-1.09-.17s-.06.14,0,.34a.55.55,0,0,1-.1.47.65.65,0,0,1-.94.2.77.77,0,0,1-.17-1.08c.5-.72,1.77-.63,3,.22a2.11,2.11,0,0,1,1.08,1.53,2.26,2.26,0,0,1-.55,1.45l-1.89,2.75a.44.44,0,0,0,.05.64c.16.11.28.09.83-.13l.16.29a1.75,1.75,0,0,1-2,0,1.4,1.4,0,0,1-.63-.93,1.67,1.67,0,0,1,.12-.58,2.37,2.37,0,0,1-2.12-.28,1.57,1.57,0,0,1-.57-2.22c.52-.75,1.53-.93,2.75-.48.46.19.71.31,1.45.69Zm-1.09,1.56a4.3,4.3,0,0,0-1.06-.4,1.35,1.35,0,0,0-1.53.53,1,1,0,0,0,.17,1.42,1.21,1.21,0,0,0,1.33,0Z"/><path class="cls-11" d="M272.15,264.11l.79.58,3.35-4.43-.72-.52.22-.29a8.69,8.69,0,0,0,2.24,1.31l.08.2c-.33.39-.64.75-1,1.2l-2.75,3.63.7.54-.23.3-2.93-2.22Zm7.38-6.57a1,1,0,0,1,.18,1.39.91.91,0,0,1-1.33.16.93.93,0,0,1-.19-1.34A1,1,0,0,1,279.53,257.54Z"/><path class="cls-11" d="M276.18,267.17l.73.59c.28-.29.52-.56.79-.88l1.89-2.26c.34-.41.59-.73.89-1.13l-.68-.55.24-.29a7.72,7.72,0,0,0,2.09,1.38l.05.23-.85,1,.53-.18a1.78,1.78,0,0,1,1.72.26,1.17,1.17,0,0,1,.18,1.7.72.72,0,0,1-1.09.12.7.7,0,0,1,0-1.08l.17-.18c.11-.13.09-.24-.06-.36a1.36,1.36,0,0,0-1.48.16c-.38.22-.57.41-1.33,1.32L278.33,269l.78.67-.24.29-2.93-2.45Z"/><path class="cls-13" d="M368.32,166.13a5,5,0,0,0-9.72,2.2L355,169.5v-3.88a5,5,0,1,0-1.83,0v3.8l-3.68-1.2a5,5,0,1,0-.57,1.74l3.61,1.17-2.28,3.14a5,5,0,1,0,1.48,1.07l2.23-3.07,2.28,3.14a5,5,0,1,0,1.48-1.08l-2.24-3.07,3.69-1.2a5,5,0,0,0,9.16-3.93Z"/><path class="cls-13" d="M64,166.13a5,5,0,0,0-9.72,2.2l-3.61,1.17v-3.88a5,5,0,1,0-1.82,0v3.8l-3.69-1.2a5,5,0,1,0-.56,1.74l3.61,1.17-2.28,3.14a5,5,0,1,0,1.47,1.07l2.24-3.07,2.28,3.14a5,5,0,1,0,1.47-1.08l-2.23-3.07,3.69-1.2A5,5,0,0,0,64,166.13Z"/><path class="cls-11" d="M79.52,173.3l.75-2.77a.37.37,0,0,1,.19-.26,8.34,8.34,0,0,1,4.43-1.56q1.9,0,5.78-2.08c.53-.34,1.07-.66,1.63-.95q-.42-4.85-.88-5.28a9.3,9.3,0,0,1-1.68-3.12,15.3,15.3,0,0,1-.89-5.45.6.6,0,0,1,.05-.26l.79-2.85c.06-.18.16-.26.28-.26,3.23,0,5.26.75,6.06,2.25a9.51,9.51,0,0,1,.84,5.71,65.09,65.09,0,0,0-.32,6.75c.53-.29,1-.61,1.54-.95,2.33-1.44,4.15-2.66,5.45-3.64a6.13,6.13,0,0,1,3.22-1.47,3.37,3.37,0,0,1,2.54,1.56,8.94,8.94,0,0,1,1.71,3.89,4.13,4.13,0,0,1-1.78,4.33,11.9,11.9,0,0,0-3,3.55l-4.29,8a.27.27,0,0,1-.47,0l-.79-1.47a1.16,1.16,0,0,1,0-.78,20,20,0,0,0,1.54-6.14,5.83,5.83,0,0,0-.33-2.47c-.21-.37-1-.56-2.51-.56a5.56,5.56,0,0,0-2.85.86v9.35a47.9,47.9,0,0,0,.37,7.19,5,5,0,0,0,2.15,3.2,4.48,4.48,0,0,0,4.15.69,17.1,17.1,0,0,0,3.55-1.39,4.82,4.82,0,0,1,2.42-.69,4.88,4.88,0,0,1,2.43.69c1,.58,1.18,2.06.56,4.42-.56,2.14-2.07,3.43-4.53,3.9a20.43,20.43,0,0,1-7.88,0c-2.92-.47-4.81-1.48-5.65-3A17.19,17.19,0,0,1,92.4,186a31.39,31.39,0,0,1,0-7.44,56.33,56.33,0,0,0,.1-7.53c-.91.81-1.84,1.58-2.8,2.33a12.07,12.07,0,0,0-3.45,3.55,2.82,2.82,0,0,1-2.59,1.65c-1.14,0-2.51-1.53-4.13-4.59A1.09,1.09,0,0,1,79.52,173.3Z"/><path class="cls-11" d="M138.19,149.85l.69-1.25a.22.22,0,0,1,.2-.14,4.05,4.05,0,0,1,3.94,2.06,13.71,13.71,0,0,1,1.43,4.56,9.07,9.07,0,0,1-1.79,6c-.71,1-1.44,2.18-2.2,3.46a32,32,0,0,0,.21,7.14,15.74,15.74,0,0,1,.36,5.74,34.24,34.24,0,0,0,0,6.63q.33,4.41.33,6.92a9.1,9.1,0,0,1-.73,4.05,4,4,0,0,1-.88,1,1.65,1.65,0,0,1-1,.37c-.82,0-1.36-.74-1.63-2.21a38.5,38.5,0,0,1,0-7.66,78.33,78.33,0,0,0,0-9.79,39,39,0,0,0-.85-5,47.43,47.43,0,0,1-4.55,6,35.18,35.18,0,0,1-7.56,6.18.22.22,0,0,1-.29-.07l-.69-1.25h0c-.24-.35-.22-.61.08-.81a29.92,29.92,0,0,0,6.4-6.74,45.83,45.83,0,0,0,5.06-9.09,76,76,0,0,1,3.42-7.51,9.64,9.64,0,0,0,1.3-4.64,4.17,4.17,0,0,0-1.22-3.24C138.05,150.47,138,150.2,138.19,149.85Z"/><path class="cls-11" d="M162.56,158.12l.77-1.6c.06-.13.13-.19.22-.19a10.11,10.11,0,0,1,4.2.85,9.15,9.15,0,0,0,3.74.85,9,9,0,0,0,4.46-1.61,21.7,21.7,0,0,1,5.32-2.35,5.39,5.39,0,0,1,4.24,0q1.67.75,2.48,4.24a9.5,9.5,0,0,1-.41,6.32,33.42,33.42,0,0,0-2.21,6.89,37.43,37.43,0,0,0-1,6.41c.51.82,1,1.57,1.31,2.26a4.79,4.79,0,0,1,0,4.15,5.38,5.38,0,0,1-2.84,2.55,4.62,4.62,0,0,1-3.88,0q-1.84-.75-5.54.76a17.42,17.42,0,0,1-5.73,1.5c-1.32,0-2.51-.81-3.56-2.45a6.88,6.88,0,0,1-.54-.94,4.45,4.45,0,0,1-.27-4l.72-1.51c.09-.19.19-.25.31-.19a8.06,8.06,0,0,0,4.51,1.51,17,17,0,0,0,4.83-.76,17.54,17.54,0,0,0,5.63-3.11,8.47,8.47,0,0,1,1.35-.94,41.19,41.19,0,0,1,0-9.72c.06-.38.1-.72.14-1a3.44,3.44,0,0,0-.32-1.88,2.71,2.71,0,0,0-1.49-1,10.33,10.33,0,0,0-5.18,0,34.51,34.51,0,0,0-4.51,1.6,9.22,9.22,0,0,1-3.83.85c-1.42,0-2.39-2.26-2.93-6.79A1.42,1.42,0,0,1,162.56,158.12Z"/></g></g></svg>