<svg xmlns="http://www.w3.org/2000/svg" viewBox="0 0 400 350.57"><defs><style>.cls-1,.cls-11{fill:#bfaf93;}.cls-10,.cls-2,.cls-5,.cls-9{fill:none;}.cls-11,.cls-2{stroke:#fff4d6;}.cls-11,.cls-2,.cls-8{stroke-miterlimit:10;}.cls-3,.cls-7{fill:#fff4d6;}.cls-10,.cls-3,.cls-4,.cls-5,.cls-8,.cls-9{stroke:#bfaf93;}.cls-10,.cls-3,.cls-4,.cls-5,.cls-9{stroke-linecap:round;stroke-linejoin:round;}.cls-4{fill:#fff;}.cls-4,.cls-5{stroke-width:0.75px;}.cls-6,.cls-8{fill:#f4dcc7;}.cls-9{stroke-width:1.5px;}.cls-12{fill:#d93924;}.cls-13{fill:#b81a35;}</style></defs><g id="レイヤー_2" data-name="レイヤー 2"><g id="レイヤー_1-2" data-name="レイヤー 1"><path class="cls-1" d="M400,175.28a104.17,104.17,0,0,0-74.34-99.79C298.06,29.89,252.08,0,200,0S101.94,29.89,74.34,75.49a104.15,104.15,0,0,0,0,199.59c27.6,45.6,73.58,75.49,125.66,75.49s98.06-29.89,125.66-75.49A104.18,104.18,0,0,0,400,175.28Z"/><path class="cls-2" d="M200,337.43c-45.44,0-88.21-25.86-114.42-69.16L83,263.93l-4.86-1.45a91,91,0,0,1,0-174.4L83,86.64l2.62-4.34C111.79,39,154.56,13.14,200,13.14S288.21,39,314.42,82.3L317,86.64l4.86,1.44a91,91,0,0,1,0,174.4L317,263.93l-2.62,4.34C288.21,311.57,245.43,337.43,200,337.43Z"/><path class="cls-3" d="M108.46,103.72a7.46,7.46,0,0,0,.82-9.46c-.93-.86-5.49-2.26-9.17,1.71S95,107.78,95.94,108.65,104.78,107.69,108.46,103.72Z"/><path class="cls-4" d="M99.34,105.11a64.93,64.93,0,0,0,6.16-5.66c1.65-2,4.15-5.9,4.15-5.9"/><path class="cls-3" d="M172,31.08c-7.07,1.44-8.53,8.12-8.23,9.61.34,1.66,4.19,6.72,11.26,5.27s14.7-8.82,14.36-10.49C189,33.64,179.05,29.64,172,31.08Z"/><path class="cls-4" d="M182.94,36.66A88.18,88.18,0,0,0,171.87,38c-3.3.86-9.06,3.18-9.06,3.18"/><path class="cls-3" d="M166.92,54.77c-2.78,3.81-13.62,10.37-16.36,8.37s-.21-14.64,2.57-18.45,7.31-7.25,12.89-3.17C171.94,45.84,169.7,51,166.92,54.77Z"/><path class="cls-3" d="M151.38,44.64c1.9,4.32,2.16,17-.94,18.35s-12.78-7.13-14.69-11.44-2.62-10,3.7-12.76C146.15,35.83,149.47,40.33,151.38,44.64Z"/><path class="cls-3" d="M134.83,53c4.69.5,15.79,6.61,15.42,10S137.69,70.53,133,70s-9.94-2.71-9.2-9.58C124.59,53.16,130.14,52.53,134.83,53Z"/><path class="cls-3" d="M133.83,71.56c2.78-3.81,13.62-10.36,16.36-8.36s.21,14.63-2.57,18.44-7.31,7.25-12.9,3.17C128.81,80.49,131,75.37,133.83,71.56Z"/><path class="cls-3" d="M149.37,81.7c-1.91-4.32-2.16-17,.94-18.35S163.09,70.48,165,74.79s2.62,10-3.71,12.75C154.6,90.5,151.28,86,149.37,81.7Z"/><path class="cls-3" d="M165.92,73.3c-4.69-.51-15.79-6.61-15.42-10s12.56-7.51,17.25-7,9.94,2.7,9.19,9.58C176.16,73.18,170.61,73.81,165.92,73.3Z"/><path class="cls-3" d="M128.43,78.1c-1.21,2.91-7.23,8.88-9.32,8s-2.44-9.49-1.23-12.4,3.61-5.87,7.89-4.09C130.29,71.5,129.64,75.18,128.43,78.1Z"/><path class="cls-3" d="M116.73,74c1.92,2.51,4.08,10.7,2.28,12.08s-9.44-2.62-11.36-5.13-3.27-6.07.41-8.88C112,69,114.81,71.44,116.73,74Z"/><path class="cls-3" d="M107.29,82c3.13-.41,11.31,1.82,11.6,4.07s-7,6.86-10.12,7.27-6.89-.2-7.49-4.79C100.65,83.7,104.16,82.42,107.29,82Z"/><path class="cls-3" d="M109.55,94.22c1.21-2.92,7.23-8.88,9.32-8s2.45,9.48,1.24,12.4-3.62,5.86-7.89,4.09C107.69,100.82,108.34,97.13,109.55,94.22Z"/><path class="cls-3" d="M121.25,98.36c-1.92-2.5-4.08-10.7-2.28-12.07s9.44,2.62,11.36,5.13,3.27,6.06-.4,8.87C126,103.27,123.17,100.87,121.25,98.36Z"/><path class="cls-3" d="M130.69,90.3c-3.13.41-11.3-1.82-11.6-4.06s7-6.86,10.12-7.27,6.89.2,7.49,4.79C137.33,88.61,133.82,89.89,130.69,90.3Z"/><path class="cls-5" d="M160,46.72s-10.62,15.92-9.48,16.42c2,.88,11-12.48,11-12.48"/><path class="cls-5" d="M142.62,52s5.47,7.49,6.48,6.75c1.78-1.31-3.3-12.49-3.3-12.49"/><path class="cls-5" d="M134.44,64.29s11.23-1.07,11.09-2.31c-.24-2.19-8.4-2.72-8.4-2.72"/><path class="cls-5" d="M143,77.23s5.35-9.86,4.21-10.36c-2-.89-6.44,5.89-6.44,5.89"/><path class="cls-5" d="M159.7,80.82s-6.2-13.48-7.2-12.74c-1.78,1.31,1.95,10.66,1.95,10.66"/><path class="cls-5" d="M160.81,62.58s-6.47.16-6.33,1.4c.24,2.2,11.79,4.09,11.79,4.09"/><line class="cls-5" x1="164.22" y1="62.58" x2="168.39" y2="62.83"/><line class="cls-5" x1="134.27" y1="59.34" x2="131.82" y2="59.72"/><line class="cls-5" x1="140.7" y1="47.57" x2="141.12" y2="49.12"/><path class="cls-5" d="M122.69,73.94s-4.4,12-3.58,12.17"/><path class="cls-5" d="M117.46,83.46C117,81.64,112,76.32,112,76.32"/><path class="cls-5" d="M107.17,89.16s8.77-2.23,8.49-3"/><path class="cls-5" d="M116.68,94.86s1.63-5.65.81-5.79c-1.46-.26-4.68,7.11-4.68,7.11"/><path class="cls-5" d="M121.14,89c1.2,3.76,5.77,7.72,5.77,7.72"/><path class="cls-5" d="M128.47,85.25s-7,0-6.68.79"/><line class="cls-5" x1="131.02" y1="84.73" x2="132.63" y2="84.66"/><line class="cls-5" x1="107.12" y1="86.53" x2="108.87" y2="86.26"/><line class="cls-5" x1="115.1" y1="99.71" x2="115.49" y2="98.76"/><line class="cls-5" x1="125.04" y1="75.9" x2="125.58" y2="74.74"/><path class="cls-3" d="M121.48,87.49a3,3,0,1,1-1.61-3.92A3,3,0,0,1,121.48,87.49Z"/><path class="cls-3" d="M153.53,66a4.48,4.48,0,1,1-1-6.26A4.47,4.47,0,0,1,153.53,66Z"/><path class="cls-3" d="M291,103.72a7.46,7.46,0,0,1-.82-9.46c.94-.86,5.49-2.26,9.17,1.71s5.11,11.81,4.17,12.68S294.63,107.69,291,103.72Z"/><path class="cls-4" d="M300.07,105.11a64.93,64.93,0,0,1-6.16-5.66,71.63,71.63,0,0,1-4.14-5.9"/><path class="cls-3" d="M227.43,31.08c7.08,1.44,8.53,8.12,8.23,9.61-.34,1.66-4.18,6.72-11.26,5.27S209.7,37.14,210,35.47C210.41,33.64,220.36,29.64,227.43,31.08Z"/><path class="cls-4" d="M216.47,36.66A88.18,88.18,0,0,1,227.54,38c3.31.86,9.07,3.18,9.07,3.18"/><path class="cls-3" d="M232.49,54.77c2.78,3.81,13.62,10.37,16.36,8.37s.22-14.64-2.57-18.45-7.31-7.25-12.89-3.17C227.48,45.84,229.71,51,232.49,54.77Z"/><path class="cls-3" d="M248,44.64c-1.9,4.32-2.16,17,.94,18.35s12.78-7.13,14.69-11.44,2.62-10-3.7-12.76C253.26,35.83,249.94,40.33,248,44.64Z"/><path class="cls-3" d="M264.58,53c-4.69.5-15.79,6.61-15.42,10s12.56,7.51,17.25,7,9.94-2.71,9.2-9.58C274.82,53.16,269.27,52.53,264.58,53Z"/><path class="cls-3" d="M265.58,71.56C262.8,67.75,252,61.2,249.23,63.2s-.22,14.63,2.56,18.44,7.31,7.25,12.9,3.17C270.6,80.49,268.37,75.37,265.58,71.56Z"/><path class="cls-3" d="M250,81.7c1.91-4.32,2.17-17-.93-18.35s-12.79,7.13-14.7,11.44-2.62,10,3.71,12.75C244.81,90.5,248.13,86,250,81.7Z"/><path class="cls-3" d="M233.49,73.3c4.69-.51,15.79-6.61,15.43-10s-12.57-7.51-17.26-7-9.94,2.7-9.19,9.58C223.25,73.18,228.8,73.81,233.49,73.3Z"/><path class="cls-3" d="M271,78.1c1.21,2.91,7.23,8.88,9.32,8s2.44-9.49,1.23-12.4-3.61-5.87-7.88-4.09C269.12,71.5,269.77,75.18,271,78.1Z"/><path class="cls-3" d="M282.68,74c-1.92,2.51-4.08,10.7-2.28,12.08s9.44-2.62,11.36-5.13,3.27-6.07-.41-8.88C287.46,69,284.6,71.44,282.68,74Z"/><path class="cls-3" d="M292.12,82c-3.13-.41-11.31,1.82-11.6,4.07s7,6.86,10.12,7.27,6.89-.2,7.49-4.79C298.76,83.7,295.25,82.42,292.12,82Z"/><path class="cls-3" d="M289.86,94.22c-1.21-2.92-7.23-8.88-9.32-8s-2.45,9.48-1.23,12.4,3.61,5.86,7.88,4.09C291.72,100.82,291.07,97.13,289.86,94.22Z"/><path class="cls-3" d="M278.16,98.36c1.92-2.5,4.08-10.7,2.28-12.07s-9.44,2.62-11.36,5.13-3.27,6.06.4,8.87C273.37,103.27,276.24,100.87,278.16,98.36Z"/><path class="cls-3" d="M268.72,90.3c3.13.41,11.3-1.82,11.6-4.06s-7-6.86-10.12-7.27-6.89.2-7.49,4.79C262.08,88.61,265.59,89.89,268.72,90.3Z"/><path class="cls-5" d="M239.37,46.72S250,62.64,248.85,63.14c-2,.88-11-12.48-11-12.48"/><path class="cls-5" d="M256.8,52s-5.48,7.49-6.49,6.75c-1.78-1.31,3.3-12.49,3.3-12.49"/><path class="cls-5" d="M265,64.29S253.74,63.22,253.88,62c.24-2.19,8.4-2.72,8.4-2.72"/><path class="cls-5" d="M256.45,77.23s-5.35-9.86-4.21-10.36c2-.89,6.44,5.89,6.44,5.89"/><path class="cls-5" d="M239.71,80.82s6.2-13.48,7.2-12.74c1.78,1.31-1.94,10.66-1.94,10.66"/><path class="cls-5" d="M238.6,62.58s6.47.16,6.33,1.4c-.24,2.2-11.79,4.09-11.79,4.09"/><line class="cls-5" x1="235.19" y1="62.58" x2="231.02" y2="62.83"/><line class="cls-5" x1="265.14" y1="59.34" x2="267.59" y2="59.72"/><line class="cls-5" x1="258.71" y1="47.57" x2="258.29" y2="49.12"/><path class="cls-5" d="M276.72,73.94s4.4,12,3.58,12.17"/><path class="cls-5" d="M282,83.46c.45-1.82,5.46-7.14,5.46-7.14"/><path class="cls-5" d="M292.24,89.16s-8.77-2.23-8.49-3"/><path class="cls-5" d="M282.73,94.86s-1.63-5.65-.81-5.79c1.46-.26,4.68,7.11,4.68,7.11"/><path class="cls-5" d="M278.27,89c-1.2,3.76-5.76,7.72-5.76,7.72"/><path class="cls-5" d="M270.94,85.25s7,0,6.68.79"/><line class="cls-5" x1="268.39" y1="84.73" x2="266.78" y2="84.66"/><line class="cls-5" x1="292.29" y1="86.53" x2="290.54" y2="86.26"/><line class="cls-5" x1="284.31" y1="99.71" x2="283.92" y2="98.76"/><line class="cls-5" x1="274.37" y1="75.9" x2="273.83" y2="74.74"/><path class="cls-3" d="M277.93,87.49a3,3,0,1,0,1.61-3.92A3,3,0,0,0,277.93,87.49Z"/><path class="cls-3" d="M245.88,66a4.48,4.48,0,1,0,1-6.26A4.49,4.49,0,0,0,245.88,66Z"/><path class="cls-6" d="M65.29,222.16l5.17-12.47s-.83-2.83-8.27-6.23S51,201.76,51,201.76s1.54,7.19,6,12C62.08,219.23,65.29,222.16,65.29,222.16Z"/><path class="cls-7" d="M51.16,201.63s-4.85,18.48-10,26.92-10,11.4-10,11.4c16.42,22.81,27.37,26.46,50.54,28.25L98.55,227C71.24,224.44,59.38,219.88,51.16,201.63Z"/><polygon class="cls-8" points="73.53 240.71 78.53 282.83 86.89 288.2 98.55 227.03 73.53 240.71"/><path class="cls-6" d="M336.24,222.16l-5.17-12.47s.83-2.83,8.27-6.23,11.15-1.7,11.15-1.7-1.53,7.19-6,12C339.45,219.23,336.24,222.16,336.24,222.16Z"/><path class="cls-7" d="M350.36,201.63s4.86,18.48,10,26.92,10,11.4,10,11.4C354,262.76,343.06,266.41,319.9,268.2L303,227C330.29,224.44,342.15,219.88,350.36,201.63Z"/><polygon class="cls-6" points="328 240.71 322.99 282.83 314.64 288.2 302.98 227.03 328 240.71"/><path class="cls-7" d="M304,292.74c-17.24,0-29.24-7.9-41.93-16.26C246.75,266.41,230.93,256,200.91,256s-45.84,10.41-61.14,20.48c-12.69,8.36-24.69,16.26-41.92,16.26a48.39,48.39,0,0,1-30-10.42s3.35-12.32,4.66-18.65,1-23.14,1-23.14a33.06,33.06,0,0,0,24.33,10.64c12.75,0,21.81-6,33.29-13.53,15.71-10.34,35.26-23.22,69.77-23.22S255,227.3,270.68,237.64c11.48,7.56,20.54,13.53,33.3,13.53a32.86,32.86,0,0,0,24.39-10.68s.36,13,1.2,21.36S334,282.27,334,282.27A48.42,48.42,0,0,1,304,292.74Z"/><path class="cls-9" d="M66.67,219.42l3.79-9.73s-.83-2.83-8.27-6.23S51,201.76,51,201.76"/><path class="cls-9" d="M98.55,227c-27.31-2.59-39.17-7.15-47.39-25.4,0,0-4.85,18.48-10,26.92s-10,11.4-10,11.4c13.33,18.51,23.05,24.41,38.63,26.92"/><polyline class="cls-10" points="94.39 249.19 98.55 227.03 73.53 240.71"/><path class="cls-9" d="M335.25,219.42l-4.18-9.73s.83-2.83,8.27-6.23,11.15-1.7,11.15-1.7"/><path class="cls-9" d="M303,227c27.31-2.59,39.17-7.15,47.38-25.4,0,0,4.86,18.48,10,26.92s10,11.4,10,11.4c-13.41,18.63-23.17,24.48-38.91,27"/><polyline class="cls-10" points="307.2 248.85 302.98 227.03 328 240.71"/><path class="cls-9" d="M304,292.74c-17.24,0-29.24-7.9-41.93-16.26C246.75,266.41,230.93,256,200.91,256s-45.84,10.41-61.14,20.48c-12.69,8.36-24.69,16.26-41.92,16.26a48.39,48.39,0,0,1-30-10.42s3.35-12.32,4.66-18.65,1-23.14,1-23.14a33.06,33.06,0,0,0,24.33,10.64c12.75,0,21.81-6,33.29-13.53,15.71-10.34,35.26-23.22,69.77-23.22S255,227.3,270.68,237.64c11.48,7.56,20.54,13.53,33.3,13.53a32.86,32.86,0,0,0,24.39-10.68s.36,13,1.2,21.36S334,282.27,334,282.27A48.42,48.42,0,0,1,304,292.74Z"/><path class="cls-5" d="M51.3,244.89c3.71,4.36,7.39,6.24,12.87,8.75"/><path class="cls-5" d="M38.85,232.2c3.65,5.7,8.71,10.6,9,10.27"/><path class="cls-5" d="M49.11,210.07C61.88,230.15,75.34,229,75.34,229"/><path class="cls-5" d="M51.19,230.55a137.35,137.35,0,0,0,12.65,10"/><path class="cls-5" d="M51.68,222A18.23,18.23,0,0,0,58,228.32"/><path class="cls-5" d="M36.11,236.08c3.88,6.15,8.44,12.08,16.55,16.84"/><path class="cls-5" d="M85.87,284.54c8.21,2.28,22.06,2.19,28.85-1.82"/><path class="cls-5" d="M97.24,258a15.82,15.82,0,0,0,5.2.72c5.91-.29,7.62-2.8,7.62-2.8"/><path class="cls-5" d="M100.37,271.23a25.32,25.32,0,0,0,10.93-1.17"/><path class="cls-5" d="M110.4,263.75a7.11,7.11,0,0,0,2.93-1.26"/><path class="cls-5" d="M81.28,275.2c5.5,3.41,13.94,4.78,21.47,3.07"/><path class="cls-5" d="M72,269.81c1.57,1.48,3.78,2.88,3.85,2.45"/><path class="cls-5" d="M73.76,248.45c9.36,7.3,18,7.81,18,7.81"/><path class="cls-5" d="M73.45,262.08c2.86,2.05,6.94,8.32,22.45,8.78"/><path class="cls-5" d="M77.88,257.92c1,.58,10.75,8.62,27.57,6.87"/><path class="cls-5" d="M69.65,275.73c3,4.25,6.72,5.41,10.19,7.2"/><path class="cls-5" d="M315.68,284.54c-8.21,2.28-22.06,2.19-28.86-1.82"/><path class="cls-5" d="M304.3,258a15.79,15.79,0,0,1-5.19.72c-5.91-.29-7.62-2.8-7.62-2.8"/><path class="cls-5" d="M301.18,271.23a25.28,25.28,0,0,1-10.93-1.17"/><path class="cls-5" d="M291.14,263.75a7.11,7.11,0,0,1-2.93-1.26"/><path class="cls-5" d="M320.27,275.2c-5.5,3.41-13.94,4.78-21.47,3.07"/><path class="cls-5" d="M329.52,269.81c-1.57,1.48-3.79,2.88-3.85,2.45"/><path class="cls-5" d="M327.79,248.45c-9.36,7.3-18,7.81-18,7.81"/><path class="cls-5" d="M328.1,262.08c-2.86,2.05-7,8.32-22.46,8.78"/><path class="cls-5" d="M323.66,257.92c-1,.58-10.75,8.62-27.56,6.87"/><path class="cls-5" d="M331.9,275.73c-3,4.25-6.72,5.41-10.19,7.2"/><path class="cls-5" d="M350.06,244.89c-3.71,4.36-7.39,6.24-12.87,8.75"/><path class="cls-5" d="M362.51,232.2c-3.65,5.7-8.72,10.6-9,10.27"/><path class="cls-5" d="M352.25,210.07C339.47,230.15,326,229,326,229"/><path class="cls-5" d="M350.17,230.55a138.7,138.7,0,0,1-12.65,10"/><path class="cls-5" d="M349.68,222a18.23,18.23,0,0,1-6.33,6.37"/><path class="cls-5" d="M365.25,236.08c-3.88,6.15-8.44,12.08-16.55,16.84"/><path class="cls-7" d="M79.34,143.48a4.91,4.91,0,0,0,3.47,2.36s2.07.2,3.54.31l-.07,9.12a9.21,9.21,0,0,0,4.32-1c3.78-1.85,7.9-5.08,11.81-5,0,0,2.41.06,3.13,1.13-.65.31-.72.57-.72,1.7h0v4.25c0,4.15-1.67,12.82-5.17,17.13a24.16,24.16,0,0,1-6.88,5.74c2.56-2.51,4-7.23,4-7.23,1.19-3.79,1.94-5.74,1.94-12.92H86.28l-.07,13.18c0,6.2,3.61,12.36,6.36,12.41l4.94.1a19.76,19.76,0,0,0,2.65-.25V194H93.29a14.52,14.52,0,0,0-2.62-.2c-5.21-.16-11.36-10.62-11.36-18.77v-16H75.15c.11-3.49.11-4.82.11-4.82a19.72,19.72,0,0,0-.34-3.23,20.17,20.17,0,0,0,4.42,2.36Z"/><path class="cls-7" d="M140.5,145.89h4.25c-.95,8.61-2.14,11.38-2.14,11.38a17.18,17.18,0,0,1-6.46,7.95,4.3,4.3,0,0,1-.48.26l2.82.77a3.2,3.2,0,0,0-1,.72s-.41.56-.41,2.77v25h-8V168.3a125.84,125.84,0,0,1-17,6.87,74.91,74.91,0,0,0,16.87-12.46c5-5,7.66-9.28,8-14.21,0,0,.24-3.74-.34-5C138.56,145.89,140.5,145.89,140.5,145.89Z"/><path class="cls-7" d="M171.7,149.68c3.74,1.85,7.18,3.29,11,1.8a18.2,18.2,0,0,0,4.73-2.67,20.13,20.13,0,0,0-.44,3.54c0,.41,0,.77,0,1.08v39.49h-8v-1.75H158v-3.38c0-1.85.07-2.16-.68-2.52,2.15-1.33,4.42-2.4,4.42-2.4,4.05-2.16,6.33-.93,10,.87,2.52,1.23,4.86,2.3,7.28,2.41v-29H158v-3.38c0-1.9.07-2.21-.68-2.57,2.15-1.33,4.42-2.41,4.42-2.41C165.74,146.61,168,147.84,171.7,149.68Z"/><path class="cls-7" d="M215.05,157.57a3.91,3.91,0,0,0,.34-.59c.35-.58.66-1.11,1-1.76.5-.94.78-1.11,1-1.11.81,0,3.05,2.75,3.05,3.81a1,1,0,0,1-1.08.94h-10a.58.58,0,0,1,.3.53c0,.41-.19.58-1,.82-.16.35-.16.35-1.36,3.11l3-.18c.89-.06,1.71-.12,2.6-.23a19.63,19.63,0,0,0-1.32-2.88c-.27-.47-.31-.58-.31-.7a.26.26,0,0,1,.23-.24,26.81,26.81,0,0,1,3,1.06c2.79,1.23,4,2.64,4,4.75a2.61,2.61,0,0,1-2.59,2.87,1.91,1.91,0,0,1-2.13-1.64c-.2-.94-.43-1.82-.51-2.11a40.7,40.7,0,0,1-9.4,5.1,3.75,3.75,0,0,0-.78.47,2.27,2.27,0,0,1-1.08.53c-.43,0-.66-.53-1.43-2.76a17.09,17.09,0,0,1-1-3.81c0-.12.08-.17.31-.17l1,.05c1.82.06,1.82.06,2.51.06.55-3.16.55-3.16.7-4.57a43.13,43.13,0,0,0-4.68.23c-.62-1.05-.66-1.17-.66-1.29s.12-.41.31-.41c1.12.06,2.52.12,3.21.12h.89v-5.75c0-5.86,0-7.8,0-9,0-.3,0-.41.16-.41a8,8,0,0,1,1.55.35c1.89.59,2.94,1.17,3.25,2h5.53c1.2-2.4,2-3.63,2.4-3.63,1,0,3.45,2.75,3.45,3.81a1.11,1.11,0,0,1-1,1.17H208.08c-.43.47-.47.7-.47,3.11h4.92l.66-1.35c.42-.88.62-1.17.93-1.17.69,0,2.36,2.23,2.36,3.16a.65.65,0,0,1-.7.65h-8.17v3h4.92c.39-.76.62-1.23.89-1.76s.47-.76.74-.76c.62,0,2.28,2.17,2.28,3,0,.53-.27.82-.74.82h-8.09v2.76Zm-4.26,15.6a48,48,0,0,0,.89-4.75c.15-1.12.15-1.18.42-1.18s1.2.3,4.49,1.65a24.3,24.3,0,0,0,7-4.52,40.12,40.12,0,0,0,6.54-7.21c3,1.82,4.92,3.93,4.92,5.28,0,.94-.43,1.29-2,1.58-.46.29-.81.53-1,.65a35.78,35.78,0,0,1-14.44,4.8,1.28,1.28,0,0,1,.62,1.12,1,1,0,0,1-.42.82c-.12.06-.27.18-.39.24a1.58,1.58,0,0,0-.35.23l-.46,1.29h10.72c.27-.53.27-.53.58-1.11.5-.94.62-1.12.89-1.65.73-1.46,1.24-2.11,1.66-2.11s1.36.76,2.71,2.23c1.09,1.23,1.67,2.23,1.67,3a.94.94,0,0,1-.85.94H216c-1,2.35-1,2.35-1.35,3.17H220c1.43-2.41,1.43-2.41,1.9-2.41a4.49,4.49,0,0,1,2.28,1.53c1.9,1.93,2.32,2.58,2.32,3.4s-.38,1.23-1.54,1.7a35.11,35.11,0,0,1-3,4.58,34.75,34.75,0,0,0,10.88,1.34H234c.47,0,.54,0,.54.24s0,.23-.38.59a16.91,16.91,0,0,0-3.45,5.74c-.38,1.35-.58,1.53-1.62,1.53a13.93,13.93,0,0,1-11-5.16c-4.29,3.4-8,4.75-13.23,4.75a20.34,20.34,0,0,1-4.92-.59c-.39-.12-.43-.17-.43-.35a.27.27,0,0,1,.28-.29h.23a19.06,19.06,0,0,0,15.83-8.51,23.35,23.35,0,0,1-1.67-6.8h-.11c-2.75,5.63-5.5,9.09-9.21,11.73-1.63,1.11-4.46,2.52-5.11,2.52-.12,0-.2-.06-.2-.23s0-.3.35-.47c1.55-.94,3.87-3.58,5.69-6.46a43.42,43.42,0,0,0,4.88-11.55H202.7a21.7,21.7,0,0,0-2.79.12c-.62-1-.66-1.12-.66-1.23s.12-.41.31-.41a20.28,20.28,0,0,0,2.21.23Zm4.1,5.75.31.88a10,10,0,0,0,2.36,3.75,21.27,21.27,0,0,0,2.25-4.63Zm14.28-31.09c-4.64,2.41-7.93,3.7-10.6,4.22a5.08,5.08,0,0,1-.66.12,2.37,2.37,0,0,1-.5.06c-.23,0-.35-.06-.35-.18a.5.5,0,0,1,.23-.41c2.9-2.17,5.15-4.86,8.52-10.61,3.44,2.05,5.38,3.93,5.38,5.28C231.19,147.42,230.72,147.77,229.17,147.83Zm2.37,7.63c-5.42,3.52-9.18,5.28-12.55,5.8l-.77.12a2.71,2.71,0,0,1-.58.06c-.23,0-.31-.06-.31-.23s0-.18.19-.3a17,17,0,0,0,4.57-3.4,45,45,0,0,0,6.85-8.92,28.76,28.76,0,0,1,3.41,3,3.6,3.6,0,0,1,1.16,2.29C233.51,154.93,233,155.46,231.54,155.46Z"/><path class="cls-7" d="M251.8,177.15c-.37,5.63-1.28,9.5-3,12.77a15.78,15.78,0,0,1-1.72,2.52c-.19.23-.35.35-.43.35s-.15-.12-.15-.24a1,1,0,0,1,.12-.41,17.77,17.77,0,0,0,.95-4.45,72.24,72.24,0,0,0,.39-7.8c0-1.11,0-1.52-.05-6.39.5.17.5.17,2.24.71,1.51.48,2.36,1.13,2.36,1.71C252.5,176.33,252.35,176.63,251.8,177.15Zm-2.25-5.58a3.23,3.23,0,0,1-1.59.93c-.43,0-.62-.36-.73-1.35-.26-1.94-.41-3.58-.55-5.64q4.75.47,5.91.56a99.48,99.48,0,0,0,4.88-15.34,17.18,17.18,0,0,1,4,3.77,3.38,3.38,0,0,1,.8,1.88c0,.77-.47,1.17-1.59,1.34-1.84,2.75-2.85,4.21-6,8.54,2.09.12,2.09.12,3.91.19a13,13,0,0,0-1-2.82c-.19-.29-.19-.29-.19-.41s0-.18.19-.17a6.29,6.29,0,0,1,2.51,1,6.61,6.61,0,0,1,3.19,5.59c0,2.22-1,4-2.46,4-1.09,0-1.78-.89-1.85-2.18,0-.59-.11-1.64-.21-3.23-.47.18-1.44.53-1.79.64,0,6,0,6,.12,21.58v2.06a2.29,2.29,0,0,1-.62,1.93,4.46,4.46,0,0,1-2.64.93c-1.08,0-1.32-.36-1.31-2,0-.23.1-4,.38-13.89,0-.18.06-3.29.13-9.27-.55.23-1.24.52-2.14.87Zm8.21-24.48a59.58,59.58,0,0,1-4.88,7.49,5.77,5.77,0,0,1,1.49,4c0,2.29-1.18,4-2.73,4-1.27,0-1.62-.65-2-3.52a16.72,16.72,0,0,0-2.05-6.76.48.48,0,0,1-.12-.29.22.22,0,0,1,.2-.24,15.93,15.93,0,0,1,3.47,1.19c.87-4.1,1.47-7.5,2-11.78a18.4,18.4,0,0,1,4.78,2.38,2.6,2.6,0,0,1,1.27,1.88C259.2,146.28,258.81,146.69,257.76,147.09Zm2.82,40.37A1.63,1.63,0,0,1,259,186.1a7.25,7.25,0,0,1-.15-1.93c0-4.46-.27-6.69-1-8.34a.47.47,0,0,1-.08-.29c0-.12.08-.12.16-.12.58,0,2,1.07,3.08,2.25a7.9,7.9,0,0,1,2.22,5.64C263.14,185.77,262.09,187.47,260.58,187.46Zm15.57-34.23c.32-.71.87-2,1.61-3.81.47-1.17.94-1.69,1.4-1.69s1.39.89,2.58,3a6.92,6.92,0,0,1,1.11,2.88,1,1,0,0,1-1,1.11l-8.51,0-.05,10.56h2.47c.4-.82.75-1.58,1.57-3.4.47-1,1-1.63,1.4-1.63,1.08,0,3.47,3.71,3.46,5.35a1,1,0,0,1-1,1.11l-15.05-.07a25.4,25.4,0,0,0-3,.1c-.58-1.12-.61-1.24-.61-1.35s.11-.41.31-.41c.85.06,1.89.13,2.44.13h3.05l.06-10.43-3.29,0a25,25,0,0,0-3,.16c-.61-1.29-.65-1.41-.65-1.53s.12-.41.32-.41c.85.12,1.89.24,2.43.25l4.14,0q0-5.81-.05-11.61c0-.3,0-.36.19-.35a13.89,13.89,0,0,1,4.68,1c1,.42,1.47.95,1.46,1.71,0,.59-.31,1-1.17,1.7l-.11,7.62ZM274.42,174c.24-.53.47-1.11,1-2.28.39-.88.74-1.35,1.05-1.35a8.08,8.08,0,0,1,2.78,2.13c1.35,1.36,1.89,2.24,1.88,3.18,0,.64-.31,1.11-1.29,1.93,0,1.46.09,5.8.25,12.43,0,1.23,0,1.47,0,1.58a3.68,3.68,0,0,1-.55,2.17,4.45,4.45,0,0,1-3.3,1.28c-1.12,0-1.5-.6-1.5-2.3v-1.46l-6.35,0V192a2.59,2.59,0,0,1-1.33,2.63,5.42,5.42,0,0,1-1.7.46c-1.13,0-1.63-.48-1.62-1.53.05-2.29.14-4.52.19-6.81.05-1.81.05-3.16.06-4.74,0-3.29,0-6.93,0-8.51v-.82c0-.71,0-.82.31-.82,1.16,0,4.06,1.43,4.48,2.19Zm.37,11.44c0-3,0-8,0-9,0-.82-.19-1.12-.77-1.12l-4.92,0c-.54,0-.73.64-.74,2.4,0,4.05,0,9.1,0,12.15l6.39,0Z"/><path class="cls-7" d="M321.67,149.77c.34-.77,1-2,2.2-4.28.58-1.12.78-1.29,1.16-1.29.58,0,1.78,1.11,3.22,3.05,1,1.4,1.43,2.16,1.43,2.81s-.35,1.17-1,1.17h-25c-.89.53-1,.71-1,3.29v4.57c0,14-.39,19.07-1.94,24.4a30.74,30.74,0,0,1-5.34,10.21c-.46.59-.77.82-.93.82s-.19-.12-.19-.29,0-.24.46-1.06a24.65,24.65,0,0,0,2.48-8.62,68.63,68.63,0,0,0,.5-11c0-5.34,0-12.61-.15-19.06,0-2.41-.08-5.63-.16-7.45,0-.29.12-.47.39-.47a19,19,0,0,1,4,1.41,3.87,3.87,0,0,1,2,1.76h6.66c0-4.46,0-5.63-.08-7.92,0-.35.08-.41.31-.41a19.11,19.11,0,0,1,4,.59c1.93.47,2.63.93,2.63,1.93,0,.65-.27,1.06-1.12,1.64l0,4.17Zm1.31,14c.39-.83.39-.83,1.59-3.46.54-1.24.89-1.65,1.28-1.65s1.24.71,2.51,2.35c1.12,1.41,1.59,2.35,1.59,3.11s-.39,1-1.24,1H317.29l.08,10.62h3.44c1-2.46,1.55-3.34,2-3.34s1.31.53,3.09,2.23c1.55,1.46,1.86,2,1.86,2.75s-.15.94-1.12,2.11v1.12c0,1.7.12,5.57.23,8.62,0,1,.08,2.17.08,2.64a2.41,2.41,0,0,1-1.05,2.29,5.63,5.63,0,0,1-3,.94c-1.31,0-1.85-.47-1.85-1.76v-1.59H309.16c0,1.7-.23,2.23-1.08,2.88a4.74,4.74,0,0,1-2.4.7c-1.2,0-1.7-.53-1.7-1.82,0-.29.07-5.1.15-8.09,0-2.29.08-5.57.08-8,0-1.46,0-2.75,0-3.81v-.23c0-.36.08-.47.31-.47a16.12,16.12,0,0,1,4.22,1.52,1.92,1.92,0,0,1,1.08,1.29h2.33c0-3.11,0-4,0-6.69,0-4.86-.07-13.6-.11-15.77v-.24c0-.53,0-.59.35-.59a17.68,17.68,0,0,1,4.41.83c1.43.52,1.9,1,1.9,1.81s-.43,1.3-1.4,1.82v6.87Zm-1.93,17.06c0-3.46,0-3.81-.62-3.81H309.78c-.31,0-.5.41-.58.94,0,.23-.07,1.17-.07,1.82l0,10.56h11.89Z"/><path class="cls-11" d="M246.62,305.05c0-21.71-20.88-39.31-46.63-39.31s-46.62,17.6-46.62,39.31a33.79,33.79,0,0,0,2.37,12.39H162V306.79a23.79,23.79,0,0,1,3.56-4.19v14.84h3V300.1a34.75,34.75,0,0,1,3.55-2.27v19.61h3V296.28c1.15-.53,2.33-1,3.56-1.48v22.64h3V293.79c1.16-.35,2.35-.66,3.56-1v24.6h3V292.22c1.17-.21,2.35-.39,3.56-.54v25.76h3V291.39c1.17-.09,2.36-.15,3.56-.17v26.22h3V291.22c1.21,0,2.39.08,3.56.17v26.05h3V291.68c1.21.15,2.4.33,3.56.54v25.22h3v-24.6c1.22.29,2.4.6,3.56,1v23.65h3V294.8c1.23.45,2.42.95,3.56,1.48v21.16h3V297.83a36,36,0,0,1,3.56,2.27v17.34h3V302.6a23.79,23.79,0,0,1,3.56,4.19v10.65h6.24A33.8,33.8,0,0,0,246.62,305.05Z"/><path class="cls-12" d="M174.94,277.52a1.32,1.32,0,0,0-.36,1.21c0,.31.68,1,.8,1a2.18,2.18,0,0,0,1.34,0,1.3,1.3,0,0,0,.79-.88,1.39,1.39,0,0,0,0-1,.8.8,0,0,0-.22-.32A1.62,1.62,0,0,0,174.94,277.52Z"/><path class="cls-12" d="M176.9,272.87c.2-.63.88-.75,1.16-.87a1.65,1.65,0,0,1,1.94,1.8,1.47,1.47,0,0,1-.62,1.16,1.68,1.68,0,0,1-1.06.38.84.84,0,0,1-.42-.1A1.73,1.73,0,0,1,176.9,272.87Z"/><path class="cls-7" d="M183.13,280.61s-.51-2.84-.14-3.92c.53-1.55-.23-2-.79-1.25a2.94,2.94,0,0,0-.09,2.82,11.67,11.67,0,0,0,.83,2.15C183.18,280.77,183.13,280.61,183.13,280.61Z"/><path class="cls-7" d="M182.93,280.93a19.35,19.35,0,0,0-3.87,1.64c-1.7,1.12-3.26-.49-2-1.49s2.31-.54,3.4-.5a9.17,9.17,0,0,1,2.54.21C183.66,281,182.93,280.93,182.93,280.93Z"/><path class="cls-7" d="M183.25,280.51a12,12,0,0,1,2-4.28c1.12-1.22-.13-2.51-1.09-1.42s-.67,2.11-.79,3.18-.13,1.4-.28,2.39C183,281.06,183.25,280.51,183.25,280.51Z"/><path class="cls-7" d="M183.25,280.51a12,12,0,0,1,2-4.28c1.12-1.22-.13-2.51-1.09-1.42s-.67,2.11-.79,3.18-.13,1.4-.28,2.39C183,281.06,183.25,280.51,183.25,280.51Z"/><path class="cls-7" d="M186.47,283.6a8.54,8.54,0,0,0-4.22,1.86c-1.58,1.34-2-.32-.87-1.51s1.87-.85,2.84-.85a7.23,7.23,0,0,1,2.51.29C187.31,283.64,186.47,283.6,186.47,283.6Z"/><path class="cls-7" d="M187.33,283.33s-1.1-2-.17-3.64c1.45-2.49-1.07-1.8-1.41-.6a3.31,3.31,0,0,0,.47,2.51,8.76,8.76,0,0,0,1.07,2C187.65,284,187.33,283.33,187.33,283.33Z"/><path class="cls-7" d="M189.54,284.47a5.39,5.39,0,0,1-.24-2.38c.36-1.13-.25-1.19-.66-.52a1.5,1.5,0,0,0,0,1.78,4.08,4.08,0,0,0,.72,1C189.59,284.55,189.54,284.47,189.54,284.47Z"/><path class="cls-7" d="M189.06,284.49a5.55,5.55,0,0,0-2.14,1.11c-.76.94-1.13.45-.78-.28a1.49,1.49,0,0,1,1.51-1,4.07,4.07,0,0,1,1.28,0C189.15,284.5,189.06,284.49,189.06,284.49Z"/><path class="cls-7" d="M194.1,283.73a.29.29,0,0,0-.38-.12h0a7.14,7.14,0,0,1-.94.39,7,7,0,0,1-1,.26,6.07,6.07,0,0,1-2,.05,4.89,4.89,0,0,1-1-.26,8.76,8.76,0,0,1-.93-.45c-.65-.33-1.29-.62-1.92-.94a9.77,9.77,0,0,1-1.76-1.13,6.39,6.39,0,0,1-.76-.71l-.35-.39c-.11-.14-.23-.28-.35-.41a8,8,0,0,0-1.65-1.41l-.22-.13,0,0a3.84,3.84,0,0,1-1.38-1.71,1.77,1.77,0,0,1,.21-1.78c.26-.33-2,.11-1.67.51.47.65,1.13,1.33,1.26,1.58a5.65,5.65,0,0,0,.83,1.1,3.35,3.35,0,0,0-.55-.11l-.28,0c-.29,0-1-.34-1.72-.51-.42-.1-.09,1.83.11,1.52s.59-.64,1.45-.74a3,3,0,0,1,1.51.36l.33.2a7.29,7.29,0,0,1,1.55,1.39c.11.13.23.27.33.41s.24.27.35.41a8.22,8.22,0,0,0,.79.77,10.84,10.84,0,0,0,1.8,1.2c.64.34,1.28.64,1.9,1a9.94,9.94,0,0,0,1,.49,5.18,5.18,0,0,0,1.07.3,6.62,6.62,0,0,0,2.22,0,7.94,7.94,0,0,0,1.07-.26,7,7,0,0,0,1-.42h0A.29.29,0,0,0,194.1,283.73Z"/><path class="cls-7" d="M194.1,283.73a.29.29,0,0,0-.38-.12h0a7.14,7.14,0,0,1-.94.39,7,7,0,0,1-1,.26,6.07,6.07,0,0,1-2,.05,4.89,4.89,0,0,1-1-.26,8.76,8.76,0,0,1-.93-.45c-.65-.33-1.29-.62-1.92-.94a9.77,9.77,0,0,1-1.76-1.13,6.39,6.39,0,0,1-.76-.71l-.35-.39c-.11-.14-.23-.28-.35-.41a8,8,0,0,0-1.65-1.41l-.22-.13,0,0a3.84,3.84,0,0,1-1.38-1.71,1.77,1.77,0,0,1,.21-1.78c.26-.33-2,.11-1.67.51.47.65,1.13,1.33,1.26,1.58a5.65,5.65,0,0,0,.83,1.1,3.35,3.35,0,0,0-.55-.11l-.28,0c-.29,0-1-.34-1.72-.51-.42-.1-.09,1.83.11,1.52s.59-.64,1.45-.74a3,3,0,0,1,1.51.36l.33.2a7.29,7.29,0,0,1,1.55,1.39c.11.13.23.27.33.41s.24.27.35.41a8.22,8.22,0,0,0,.79.77,10.84,10.84,0,0,0,1.8,1.2c.64.34,1.28.64,1.9,1a9.94,9.94,0,0,0,1,.49,5.18,5.18,0,0,0,1.07.3,6.62,6.62,0,0,0,2.22,0,7.94,7.94,0,0,0,1.07-.26,7,7,0,0,0,1-.42h0A.29.29,0,0,0,194.1,283.73Z"/><path class="cls-7" d="M199.65,281.05l.13,0v-3a.85.85,0,0,0-1-.52.84.84,0,0,0-.62.91Z"/><path class="cls-7" d="M199.23,281.33a.47.47,0,0,1,.1-.1l-1.48-2.56a.84.84,0,0,0-1.22,1.15Z"/><path class="cls-7" d="M196,281.78h3a.5.5,0,0,1,0-.13l-2.57-1.48a.85.85,0,0,0-.47,1.61Z"/><path class="cls-7" d="M200.28,281.05l1.48-2.56a.84.84,0,0,0-.62-1,.83.83,0,0,0-1,.47v3Z"/><path class="cls-7" d="M200.7,281.33l2.56-1.48a.86.86,0,0,0,0-1.14h0a.84.84,0,0,0-1.09-.09l-1.51,2.61Z"/><path class="cls-7" d="M200.92,281.78h3a.84.84,0,0,0,.49-1h0a.85.85,0,0,0-.9-.62l-2.61,1.51Z"/><path class="cls-7" d="M203.91,282.16h-3l0,.12,2.58,1.49a.86.86,0,0,0,.94-.61h0A.85.85,0,0,0,203.91,282.16Z"/><path class="cls-7" d="M199,282.16h-3a.84.84,0,0,0,.4,1.62l2.6-1.5A.56.56,0,0,1,199,282.16Z"/><path class="cls-7" d="M200.7,282.61l-.09.09,1.49,2.58a.84.84,0,0,0,1.12-.07.85.85,0,0,0,.07-1.11Z"/><path class="cls-7" d="M200.28,282.89l-.12,0v3a.83.83,0,0,0,1,.5h0a.85.85,0,0,0,.62-.92Z"/><path class="cls-7" d="M199.65,282.89l-1.48,2.57a.84.84,0,0,0,1.61.46v-3Z"/><path class="cls-7" d="M199.23,282.61l-2.57,1.48a.84.84,0,0,0,.06,1.13.86.86,0,0,0,1.11.08l1.5-2.6Z"/><path class="cls-7" d="M192.92,281.24l.14.05a7.58,7.58,0,0,1,.09-1,3.27,3.27,0,0,1,1.07-2.32c.32-.24.47-1,.21-1.11a1.67,1.67,0,0,0-1.45.57,3,3,0,0,0-.27,2.43A11.25,11.25,0,0,1,192.92,281.24Z"/><path class="cls-7" d="M193.66,283a1,1,0,0,0-.19.21c-.22-.47-1.2-3.17-1.45-3.53-.92-1.31-1.69-2.07-3-2.07-.63,0-1.33-.93-1-1.3a2,2,0,0,1,2-.27c1.21.33,2.09,2.64,2.48,3.58C192.6,279.91,193.49,282.56,193.66,283Z"/><path class="cls-7" d="M176.37,284.59a.42.42,0,0,1,.14-.09,9.51,9.51,0,0,1-.86-.77,3.77,3.77,0,0,1-1.38-2.58c0-.45-.63-1.14-.87-.94a1.88,1.88,0,0,0-.48,1.7,3.46,3.46,0,0,0,2,1.93A13.31,13.31,0,0,1,176.37,284.59Z"/><path class="cls-7" d="M178.5,285.13a1.65,1.65,0,0,0,.06.32c-.57-.12-3.71-1.07-4.22-1.09-1.82-.06-3.05.12-4,1.34-.42.57-1.77.58-1.84,0a2.27,2.27,0,0,1,1.1-2c1.12-.87,3.84-.09,5,.19C174.93,284,178,285,178.5,285.13Z"/><path class="cls-12" d="M225,277.52a1.32,1.32,0,0,1,.36,1.21c0,.31-.68,1-.8,1a2.18,2.18,0,0,1-1.34,0,1.3,1.3,0,0,1-.79-.88,1.39,1.39,0,0,1,0-1,.8.8,0,0,1,.22-.32A1.62,1.62,0,0,1,225,277.52Z"/><path class="cls-12" d="M223.08,272.87c-.2-.63-.87-.75-1.16-.87a1.65,1.65,0,0,0-1.94,1.8,1.47,1.47,0,0,0,.62,1.16,1.68,1.68,0,0,0,1.06.38.84.84,0,0,0,.42-.1A1.73,1.73,0,0,0,223.08,272.87Z"/><path class="cls-7" d="M216.86,280.61a12.42,12.42,0,0,0,.14-3.92c-.53-1.55.22-2,.78-1.25a2.94,2.94,0,0,1,.09,2.82,11.67,11.67,0,0,1-.83,2.15C216.8,280.77,216.86,280.61,216.86,280.61Z"/><path class="cls-7" d="M217.05,280.93a19.35,19.35,0,0,1,3.87,1.64c1.7,1.12,3.26-.49,2-1.49s-2.31-.54-3.4-.5a9.17,9.17,0,0,0-2.54.21C216.33,281,217.05,280.93,217.05,280.93Z"/><path class="cls-7" d="M216.73,280.51a12,12,0,0,0-2-4.28c-1.12-1.22.13-2.51,1.09-1.42s.67,2.11.79,3.18.14,1.4.28,2.39C217,281.06,216.73,280.51,216.73,280.51Z"/><path class="cls-7" d="M216.73,280.51a12,12,0,0,0-2-4.28c-1.12-1.22.13-2.51,1.09-1.42s.67,2.11.79,3.18.14,1.4.28,2.39C217,281.06,216.73,280.51,216.73,280.51Z"/><path class="cls-7" d="M213.51,283.6a8.51,8.51,0,0,1,4.22,1.86c1.58,1.34,2-.32.87-1.51s-1.87-.85-2.84-.85a7.23,7.23,0,0,0-2.51.29C212.67,283.64,213.51,283.6,213.51,283.6Z"/><path class="cls-7" d="M212.65,283.33s1.1-2,.17-3.64c-1.45-2.49,1.07-1.8,1.41-.6a3.26,3.26,0,0,1-.47,2.51,8.76,8.76,0,0,1-1.07,2C212.33,284,212.65,283.33,212.65,283.33Z"/><path class="cls-7" d="M210.44,284.47a5.39,5.39,0,0,0,.24-2.38c-.36-1.13.25-1.19.66-.52a1.5,1.5,0,0,1,0,1.78,4.09,4.09,0,0,1-.73,1C210.39,284.55,210.44,284.47,210.44,284.47Z"/><path class="cls-7" d="M210.92,284.49a5.55,5.55,0,0,1,2.14,1.11c.76.94,1.13.45.78-.28a1.49,1.49,0,0,0-1.51-1,4.07,4.07,0,0,0-1.28,0C210.83,284.5,210.92,284.49,210.92,284.49Z"/><path class="cls-7" d="M205.88,283.73a.29.29,0,0,1,.38-.12h0a7.14,7.14,0,0,0,.94.39,7,7,0,0,0,1,.26,6.07,6.07,0,0,0,2,.05,4.89,4.89,0,0,0,1-.26,8.76,8.76,0,0,0,.93-.45c.65-.33,1.3-.62,1.92-.94a9.77,9.77,0,0,0,1.76-1.13,6.39,6.39,0,0,0,.76-.71l.35-.39c.11-.14.23-.28.35-.41a8,8,0,0,1,1.65-1.41l.22-.13,0,0a3.84,3.84,0,0,0,1.38-1.71,1.77,1.77,0,0,0-.21-1.78c-.26-.33,2,.11,1.67.51-.47.65-1.13,1.33-1.26,1.58a5.65,5.65,0,0,1-.83,1.1,3.35,3.35,0,0,1,.55-.11l.28,0c.29,0,1.05-.34,1.72-.51.42-.1.09,1.83-.11,1.52s-.59-.64-1.45-.74a3,3,0,0,0-1.51.36l-.33.2a7.29,7.29,0,0,0-1.55,1.39c-.11.13-.23.27-.33.41l-.35.41a9.45,9.45,0,0,1-.78.77,11.36,11.36,0,0,1-1.81,1.2c-.64.34-1.28.64-1.9,1a9.94,9.94,0,0,1-1,.49,5.18,5.18,0,0,1-1.07.3,6.55,6.55,0,0,1-2.21,0,7.73,7.73,0,0,1-1.08-.26,7,7,0,0,1-1-.42h0A.29.29,0,0,1,205.88,283.73Z"/><path class="cls-7" d="M205.88,283.73a.29.29,0,0,1,.38-.12h0a7.14,7.14,0,0,0,.94.39,7,7,0,0,0,1,.26,6.07,6.07,0,0,0,2,.05,4.89,4.89,0,0,0,1-.26,8.76,8.76,0,0,0,.93-.45c.65-.33,1.3-.62,1.92-.94a9.77,9.77,0,0,0,1.76-1.13,6.39,6.39,0,0,0,.76-.71l.35-.39c.11-.14.23-.28.35-.41a8,8,0,0,1,1.65-1.41l.22-.13,0,0a3.84,3.84,0,0,0,1.38-1.71,1.77,1.77,0,0,0-.21-1.78c-.26-.33,2,.11,1.67.51-.47.65-1.13,1.33-1.26,1.58a5.65,5.65,0,0,1-.83,1.1,3.35,3.35,0,0,1,.55-.11l.28,0c.29,0,1.05-.34,1.72-.51.42-.1.09,1.83-.11,1.52s-.59-.64-1.45-.74a3,3,0,0,0-1.51.36l-.33.2a7.29,7.29,0,0,0-1.55,1.39c-.11.13-.23.27-.33.41l-.35.41a9.45,9.45,0,0,1-.78.77,11.36,11.36,0,0,1-1.81,1.2c-.64.34-1.28.64-1.9,1a9.94,9.94,0,0,1-1,.49,5.18,5.18,0,0,1-1.07.3,6.55,6.55,0,0,1-2.21,0,7.73,7.73,0,0,1-1.08-.26,7,7,0,0,1-1-.42h0A.29.29,0,0,1,205.88,283.73Z"/><path class="cls-7" d="M207.06,281.24l-.14.05a7.65,7.65,0,0,0-.08-1,3.27,3.27,0,0,0-1.08-2.32c-.32-.24-.47-1-.21-1.11a1.67,1.67,0,0,1,1.45.57,3,3,0,0,1,.27,2.43C207.23,280.06,207.08,280.92,207.06,281.24Z"/><path class="cls-7" d="M206.32,283a1,1,0,0,1,.19.21c.22-.47,1.2-3.17,1.45-3.53.92-1.31,1.69-2.07,3-2.07.63,0,1.33-.93,1-1.3a2,2,0,0,0-2-.27c-1.21.33-2.08,2.64-2.47,3.58C207.38,279.91,206.49,282.56,206.32,283Z"/><path class="cls-7" d="M223.61,284.59a.42.42,0,0,0-.14-.09,9.51,9.51,0,0,0,.86-.77,3.77,3.77,0,0,0,1.38-2.58c0-.45.63-1.14.87-.94a1.88,1.88,0,0,1,.48,1.7,3.43,3.43,0,0,1-2,1.93A13.31,13.31,0,0,0,223.61,284.59Z"/><path class="cls-7" d="M221.48,285.13a1.65,1.65,0,0,1-.06.32c.58-.12,3.71-1.07,4.22-1.09,1.82-.06,3.05.12,4,1.34.42.57,1.77.58,1.84,0a2.27,2.27,0,0,0-1.1-2c-1.12-.87-3.84-.09-5,.19C225.05,284,222,285,221.48,285.13Z"/><path class="cls-7" d="M162.6,127.75l.53-1.19-6.72-3.15-.47,1-.45-.21a11.48,11.48,0,0,0,1.07-3.17l.28-.14,1.19.56a4.2,4.2,0,0,1-.11-3.09,2.87,2.87,0,0,1,1.84-1.74c.62-.18,1.26,0,2.61.61l4.2,2,.52-1.06.45.21-2,4.32-.45-.21.42-.94-5-2.33c-.81-.37-1.2-.45-1.52-.3a1.1,1.1,0,0,0-.59.57,2.45,2.45,0,0,0-.1,1.51c.08.36.17.65.34.73l5.53,2.6.42-.87.46.21-2,4.27Z"/><path class="cls-7" d="M159.65,107a1.35,1.35,0,0,1,1.87-.19,1.25,1.25,0,0,1,.16,1.79,1.29,1.29,0,0,1-2-1.6Zm8.51,10.1.79-1-5.79-4.65-.73.94-.37-.3a11.94,11.94,0,0,0,1.84-3l.26-.1c.52.46,1,.89,1.56,1.35l4.75,3.81.76-.92.39.32-3.07,3.84Z"/><path class="cls-7" d="M172.14,111.8l1-.75-7.32-10.13-1,.71-.27-.38c1.58-1.26,1.89-1.59,2.39-2.55l.32,0c.45.71,1,1.49,1.56,2.31l2.3,3.19a3.92,3.92,0,0,1,1.44-2.85,3,3,0,0,1,2.85-.37,4.07,4.07,0,0,1,1.46,1.46l2.81,3.88.92-.65.3.41-3.74,2.7-.3-.4.83-.63-3.29-4.55c-.48-.66-.69-.83-1.06-.9a1.11,1.11,0,0,0-.78.22,2.48,2.48,0,0,0-.89,1.4,1.34,1.34,0,0,0,0,1.08l3.36,4.65L176,109l.29.41-3.83,2.77Z"/><path class="cls-7" d="M186.75,104.53a4.36,4.36,0,0,1-5.69-2.94,4.41,4.41,0,0,1,3.14-5.67,4.49,4.49,0,1,1,2.55,8.61Zm-.12-.45a1.54,1.54,0,0,0,1.09-1.3,8,8,0,0,0-.39-3.11,8.24,8.24,0,0,0-1.4-2.84,1.52,1.52,0,0,0-1.62-.48c-1.24.37-1.48,1.9-.72,4.44S185.39,104.45,186.63,104.08Z"/><path class="cls-7" d="M192.86,102.16l1.3,0L194,94.7l-1.15,0v-.5a11.17,11.17,0,0,0,3.31-.43l.25.18,0,1.31a4.2,4.2,0,0,1,2.72-1.46,2.9,2.9,0,0,1,2.37.88c.43.47.58,1.12.6,2.6l.1,4.63h1.18v.5l-4.76.09V102l1,0-.11-5.46c0-.89-.12-1.28-.4-1.5a1.12,1.12,0,0,0-.76-.28,2.49,2.49,0,0,0-1.4.59c-.29.23-.51.43-.51.62l.12,6.09h1v.5l-4.71.09Z"/><path class="cls-7" d="M205.75,101.46c.19-.94.7-1.39,2-1.74a2.54,2.54,0,0,1-1-2.5c.35-1.69,2.21-2.67,4.28-2.26a4.07,4.07,0,0,1,2.36,1.35,5.06,5.06,0,0,1,.49.75c.48-1.17,1-1.6,1.75-1.44a1,1,0,0,1,.85,1.23.8.8,0,0,1-1,.69.58.58,0,0,1-.5-.72c0-.17.09-.25.1-.31s0-.12-.12-.13c-.29-.06-.65.43-.78,1.07a3.35,3.35,0,0,0-.05.58,3.72,3.72,0,0,1-.08.68,2.63,2.63,0,0,1-1.85,2,5.35,5.35,0,0,1-2.36.09,4.08,4.08,0,0,1-1.21-.5,1.07,1.07,0,0,0-.33-.14.93.93,0,0,0-1,.71c-.1.49.41.87,1.41,1.08.63.13,1.09.22,2.13.38l1.08.18a2.57,2.57,0,0,1,2.2,1.56,2.07,2.07,0,0,1,.12,1.36,4.2,4.2,0,0,1-2,2.82,6,6,0,0,1-3.95.37c-2.55-.52-4.11-1.91-3.82-3.39.18-.87.91-1.31,2.79-1.63C206,103.16,205.54,102.5,205.75,101.46Zm.65,3.8c-.26,1.25.89,2.49,2.69,2.85s3.86-.46,4.14-1.86a1.2,1.2,0,0,0-.45-1.23c-.48-.34-.62-.39-2.86-.82-.74-.15-1.1-.23-1.55-.34-.15,0-.42-.08-.67-.15A2.11,2.11,0,0,0,206.4,105.26Zm3.54-4.94c1,.2,1.71-.54,2-2s-.07-2.65-1-2.84-1.81.69-2.12,2.22S209,100.13,209.94,100.32Z"/><path class="cls-7" d="M223.3,101.2a1.24,1.24,0,0,0-.54-1.84c-.63-.32-1.31-.33-1.46,0-.06.12-.06.2,0,.46a.76.76,0,0,1,0,.65.88.88,0,0,1-1.21.42,1,1,0,0,1-.41-1.4c.53-1,2.22-1.13,4-.23a2.81,2.81,0,0,1,1.69,1.84,2.94,2.94,0,0,1-.47,2l-2,4a.59.59,0,0,0,.17.84c.23.12.38.07,1.08-.32l.26.36a2.34,2.34,0,0,1-2.63.33,1.83,1.83,0,0,1-1-1.12,1.93,1.93,0,0,1,0-.78,3.25,3.25,0,0,1-2.86,0,2.09,2.09,0,0,1-1.12-2.85c.54-1.07,1.86-1.49,3.54-1.1a16.2,16.2,0,0,1,2,.66Zm-1.17,2.25a6.25,6.25,0,0,0-1.47-.35,1.8,1.8,0,0,0-1.93,1,1.27,1.27,0,0,0,.47,1.85,1.59,1.59,0,0,0,1.76-.19Z"/><path class="cls-7" d="M225.39,108.79l.83,1,5.77-4.68-.75-.89.38-.32a10,10,0,0,0,2.4,2.36l0,.32-1.17.94a8,8,0,0,1,.95.12,3.54,3.54,0,0,1,2.14,1.13,2.47,2.47,0,0,1,.44,2.29,7.2,7.2,0,0,1-.23.74,6.56,6.56,0,0,1,.79,0,4,4,0,0,1,2.62,1.41,2.61,2.61,0,0,1,.42,2.59,3.12,3.12,0,0,1-1.16,1.44c-.68.55-1.35,1-2.14,1.67l-1.84,1.49.73.94-.39.31-3-3.7.39-.32.72.87,4.17-3.38c.59-.48.85-.83.86-1.22a1.24,1.24,0,0,0-.28-.94,2.71,2.71,0,0,0-1.46-.8,1.19,1.19,0,0,0-1,.21L231.22,116l.69.88-.39.31-2.9-3.57.39-.32.72.86,4.38-3.55c.85-.69,1-1.35.56-1.94a1.68,1.68,0,0,0-1.19-.54,3,3,0,0,0-1.64.3l-4.07,3.31.67.86-.39.31L225,109.1Z"/><path class="cls-7" d="M235.36,123l.46,1.21,7-2.52-.42-1.11.45-.17a11.7,11.7,0,0,0,1.56,3.11l-.06.27c-.66.2-1.27.39-2,.63l-5.72,2.08.38,1.12-.47.17-1.67-4.62Zm13-2a1.34,1.34,0,0,1-.81,1.69,1.24,1.24,0,0,1-1.61-.8,1.29,1.29,0,0,1,2.42-.89Z"/><path class="cls-1" d="M120.32,267.77a3,3,0,0,0,.62-1.63,3.09,3.09,0,0,0-.53-1.82l.2-.18c.35.4.74.88,1,1.17l.57.65,1.09-1,.27.3-1.09,1,2.34,2.59A6.2,6.2,0,0,0,126,270a.63.63,0,0,0,.75-.09,1.62,1.62,0,0,0,.44-1.12l.37,0a2.51,2.51,0,0,1-.86,1.91,1.88,1.88,0,0,1-2,.52,2.23,2.23,0,0,1-1-.71c-.19-.21-.47-.54-.71-.8l-1.94-2.21-.56.51Z"/><path class="cls-1" d="M128.53,268.25l.73-.61c-.24-.33-.46-.61-.72-.94l-1.88-2.28c-.33-.41-.6-.71-.94-1.08l-.67.57-.24-.29a7.89,7.89,0,0,0,1.75-1.8h.23l.84,1c0-.29-.06-.41-.08-.56a1.76,1.76,0,0,1,.58-1.64,1.16,1.16,0,0,1,1.7.14.73.73,0,0,1-.09,1.09.69.69,0,0,1-1.06-.17c-.06-.06-.09-.13-.15-.2s-.22-.13-.37,0a1.36,1.36,0,0,0-.11,1.49,4.86,4.86,0,0,0,1,1.55l1.6,1.94.8-.65.24.29-3,2.43Z"/><path class="cls-1" d="M133.81,258.08a.91.91,0,0,0-1.41-.25c-.43.31-.66.76-.51,1s.11.11.3.16a.57.57,0,0,1,.42.24.66.66,0,0,1-.12,1,.75.75,0,0,1-1.07-.19c-.53-.71,0-1.88,1.17-2.76a2.11,2.11,0,0,1,1.8-.52,2.21,2.21,0,0,1,1.19,1l2,2.69a.45.45,0,0,0,.62.16c.16-.12.18-.23.15-.83l.32-.05a1.74,1.74,0,0,1-.65,1.87,1.37,1.37,0,0,1-1.08.29,1.39,1.39,0,0,1-.51-.29,2.36,2.36,0,0,1-1,1.91,1.55,1.55,0,0,1-2.28-.19c-.54-.72-.38-1.75.44-2.75a11.32,11.32,0,0,1,1.12-1.14Zm1.13,1.54a4.4,4.4,0,0,0-.73.86,1.35,1.35,0,0,0,0,1.62,1,1,0,0,0,1.4.3,1.19,1.19,0,0,0,.46-1.24Z"/><path class="cls-1" d="M138.05,249.48l-.19-.29c1.31-.92,1.53-1.12,1.93-1.85h.26c.38.63.8,1.33,1.27,2l4.21,6.43.74-.49.19.3-.22.14a7.63,7.63,0,0,0-1.67,1.41l-.23,0-.58-.78a2.3,2.3,0,0,1-.07.52,2.44,2.44,0,0,1-1.07,1.5,2.92,2.92,0,0,1-4.08-1.17c-1.09-1.68-.91-3.6.45-4.5a2.15,2.15,0,0,1,1.42-.34,2.74,2.74,0,0,1,1,.34l-2.48-3.8Zm4,4.32a1.9,1.9,0,0,0-1-.9A1.27,1.27,0,0,0,140,253a1.14,1.14,0,0,0-.54,1,4.05,4.05,0,0,0,.73,2c.92,1.42,1.87,1.9,2.69,1.36a1.4,1.4,0,0,0,.6-1.5Z"/><path class="cls-1" d="M144.06,245.38a1,1,0,0,1,1.36.37,1,1,0,1,1-1.36-.37Zm3.23,9.36.83-.5-2.8-4.81-.76.46-.18-.31a8.77,8.77,0,0,0,2.08-1.57h.21c.24.45.45.88.73,1.36l2.3,3.94.77-.43.19.32-3.18,1.86Z"/><path class="cls-1" d="M148.62,247.2a2.9,2.9,0,0,0,1-1.43,3.16,3.16,0,0,0-.06-1.89l.23-.13c.24.48.5,1,.69,1.39l.39.76,1.3-.69.19.36-1.3.69,1.63,3.09a5.48,5.48,0,0,0,.85,1.37.6.6,0,0,0,.74.1c.32-.17.49-.42.71-1l.34.12a2.51,2.51,0,0,1-1.3,1.64,1.89,1.89,0,0,1-2,0,2.33,2.33,0,0,1-.75-.93c-.13-.24-.32-.63-.49-.95l-1.33-2.62-.67.36Z"/><path class="cls-1" d="M153.89,240.16a1,1,0,0,1,1.33.48,1,1,0,0,1-1.76.81A.94.94,0,0,1,153.89,240.16Zm2.47,9.6.87-.44-2.41-5-.79.4-.16-.33a8.66,8.66,0,0,0,2.2-1.39l.22,0c.19.48.37.92.61,1.42l2,4.12.81-.38.17.34-3.33,1.6Z"/><path class="cls-1" d="M164.35,246.77a3.27,3.27,0,0,1-4.46-1.77,3.31,3.31,0,0,1,1.92-4.46,3.36,3.36,0,1,1,2.54,6.23Zm-.12-.33a1.12,1.12,0,0,0,.71-1,5.91,5.91,0,0,0-.52-2.3,6,6,0,0,0-1.25-2,1.14,1.14,0,0,0-1.24-.24c-.9.37-1,1.52-.21,3.36S163.33,246.81,164.23,246.44Z"/><path class="cls-1" d="M168.5,244.46l.92-.31-1.71-5.29-.82.27-.12-.35a9.12,9.12,0,0,0,2.29-1l.21.07.3.94a3.2,3.2,0,0,1,1.64-1.64,2.18,2.18,0,0,1,1.89.12c.42.25.66.68,1,1.74l1.07,3.31L176,242l.12.36-3.4,1.1-.12-.36.73-.24L172.08,239c-.2-.63-.36-.89-.61-1a.81.81,0,0,0-.61,0,1.87,1.87,0,0,0-.88.72c-.16.23-.27.43-.22.56l1.4,4.35.7-.21.11.36-3.36,1.09Z"/><path class="cls-1" d="M179.38,236.35a.92.92,0,0,0-1.2-.78c-.52.12-.92.44-.86.68s.07.15.22.27a.57.57,0,0,1,.29.39.65.65,0,0,1-.48.83.77.77,0,0,1-.92-.6c-.2-.85.72-1.73,2.17-2.08a2.15,2.15,0,0,1,1.86.23,2.26,2.26,0,0,1,.71,1.38l.77,3.25a.46.46,0,0,0,.51.4c.19,0,.25-.15.46-.71l.32.08c-.26.89-.63,1.29-1.34,1.46a1.36,1.36,0,0,1-1.11-.15,1.56,1.56,0,0,1-.35-.47,2.44,2.44,0,0,1-1.63,1.39,1.58,1.58,0,0,1-2-1.08c-.21-.88.34-1.76,1.48-2.36a14,14,0,0,1,1.49-.61Zm.43,1.86a4.55,4.55,0,0,0-1,.51,1.37,1.37,0,0,0-.64,1.5,1,1,0,0,0,1.17.82,1.19,1.19,0,0,0,.92-1Z"/><path class="cls-1" d="M184.2,240.14l.93-.18c-.08-.6-.18-1.27-.3-2l-1.23-7.23-.91.18-.06-.37a5.15,5.15,0,0,0,2.51-.94l.24.16c.06.6.17,1.33.28,2l1.35,7.9.91-.14.06.37-3.72.64Z"/><path class="cls-1" d="M194.89,233.21l0-.34a10.12,10.12,0,0,0,2.68-.49l.18.12c0,.63,0,1.46.05,2.21l.07,1.41a16.9,16.9,0,0,1-.15,4.84,2.38,2.38,0,0,1-2.18,2c-.89,0-1.49-.33-1.52-.94a.7.7,0,0,1,.67-.77.64.64,0,0,1,.63.94.34.34,0,0,0,0,.21.35.35,0,0,0,.37.31c.5,0,.68-.69.6-2.37-.06-1.28-.17-2.83-.25-4.63l-.12-2.58Zm1.78-4.27a1,1,0,0,1,1,.94.93.93,0,0,1-.93,1,1,1,0,0,1-1-.92A.94.94,0,0,1,196.67,228.94Z"/><path class="cls-1" d="M203.65,233.88a.93.93,0,0,0-1-1.07c-.53,0-1,.2-1,.45s0,.15.15.31a.62.62,0,0,1,.18.45.66.66,0,0,1-.68.68.76.76,0,0,1-.74-.81c0-.88,1.14-1.49,2.62-1.46a2.1,2.1,0,0,1,1.74.7,2.18,2.18,0,0,1,.34,1.51l-.07,3.33c0,.27.14.51.39.51s.28-.07.62-.57l.29.16a1.76,1.76,0,0,1-1.67,1.08,1.37,1.37,0,0,1-1-.43,1.44,1.44,0,0,1-.22-.55,2.4,2.4,0,0,1-1.93.93,1.57,1.57,0,0,1-1.69-1.55c0-.91.78-1.61,2-1.9a12.91,12.91,0,0,1,1.59-.22Zm-.06,1.9a4.07,4.07,0,0,0-1.1.24,1.34,1.34,0,0,0-1,1.28,1,1,0,0,0,.92,1.1,1.2,1.2,0,0,0,1.13-.7Z"/><path class="cls-1" d="M206.87,242.48l.94.06c.09-.58.15-1,.21-1.59l.72-6.72a7,7,0,0,0,.08-1l-.88-.1,0-.36a8.13,8.13,0,0,0,2.59,0l.15.16-.12,1a4.41,4.41,0,0,1,.53-.43,2.35,2.35,0,0,1,1.66-.41c1.62.17,2.67,1.7,2.47,3.59s-1.61,3.27-3.31,3.09a2.27,2.27,0,0,1-1.78-1l-.43,4,1,.15,0,.36-3.83-.41Zm3.36-4.89a1.1,1.1,0,0,0,.35,1.13,1.52,1.52,0,0,0,.84.38c1,.11,1.66-.84,1.87-2.73.17-1.62-.24-2.55-1.16-2.65a1.84,1.84,0,0,0-1.57.77Z"/><path class="cls-1" d="M220.61,235.75a.92.92,0,0,0-.78-1.2c-.52-.1-1,0-1.06.28s0,.16.1.33a.63.63,0,0,1,.11.47.67.67,0,0,1-.79.57.76.76,0,0,1-.59-.92c.16-.86,1.36-1.29,2.82-1a2.13,2.13,0,0,1,1.61,1,2.23,2.23,0,0,1,.09,1.55l-.61,3.29a.44.44,0,0,0,.31.56c.19,0,.28,0,.71-.46l.26.21a1.75,1.75,0,0,1-1.82.79,1.38,1.38,0,0,1-1-.59,1.65,1.65,0,0,1-.13-.58,2.41,2.41,0,0,1-2,.62,1.58,1.58,0,0,1-1.42-1.81c.16-.89,1-1.47,2.31-1.56a12.12,12.12,0,0,1,1.61,0Zm-.36,1.88a4.34,4.34,0,0,0-1.13.06,1.34,1.34,0,0,0-1.18,1.11,1,1,0,0,0,.73,1.23,1.23,1.23,0,0,0,1.23-.51Z"/><path class="cls-1" d="M223.63,241.14l.94.24L226,236l-.84-.21.1-.36a8.22,8.22,0,0,0,2.47.36l.14.18-.25,1a3.15,3.15,0,0,1,2.26-.5,2.16,2.16,0,0,1,1.53,1.12c.22.43.19.93-.1,2l-.88,3.36.86.24-.1.37-3.45-.91.09-.37.74.19,1.05-4c.17-.65.17-.94,0-1.16a.85.85,0,0,0-.5-.36,1.83,1.83,0,0,0-1.13.13c-.26.11-.45.21-.49.35l-1.16,4.42.69.2-.09.36-3.42-.9Z"/><path class="cls-1" d="M238.69,244.42a2.93,2.93,0,0,1-3.32.72,3.25,3.25,0,0,1-2.17-4.25,3.37,3.37,0,0,1,4.33-2.13,3,3,0,0,1,1.85,1.72,2.62,2.62,0,0,1,.17,1.68.33.33,0,0,1-.21.22,6.45,6.45,0,0,1-1.68-.49l-2.47-.84-.09.26c-.68,2-.38,3.07,1,3.52.85.29,1.41.14,2.41-.68Zm-.77-2.81c.47-1.48.33-2.24-.48-2.51s-1.53.26-2.12,1.63Z"/><path class="cls-1" d="M239.71,246.36a5.14,5.14,0,0,0,.61-1.2l.27-.71.34.14a1.92,1.92,0,0,0-.06,1.35,1.84,1.84,0,0,0,1.1,1.26,1.2,1.2,0,0,0,1.65-.44c.18-.45,0-.82-.81-1.42a4.5,4.5,0,0,1-1.29-1.31,1.82,1.82,0,0,1,0-1.55,2.12,2.12,0,0,1,2.84-1.16,3.11,3.11,0,0,1,1.28,1l.38-.19.14.12c-.22.45-.34.69-.45,1s-.19.51-.29.75l-.31-.08a2.11,2.11,0,0,0,.07-1.17,1.6,1.6,0,0,0-1-1.07,1.05,1.05,0,0,0-1.46.43c-.22.52,0,.88.94,1.64a4,4,0,0,1,1.18,1.23,1.82,1.82,0,0,1,0,1.52,2.2,2.2,0,0,1-3.07,1,2.85,2.85,0,0,1-1.48-1.25l-.42.22Z"/><path class="cls-1" d="M252,250.2a3,3,0,0,1-3.4.34,3.26,3.26,0,0,1-1.67-4.48,3.36,3.36,0,0,1,4.55-1.62,2.92,2.92,0,0,1,1.65,1.91,2.63,2.63,0,0,1,0,1.7.37.37,0,0,1-.24.2,7.49,7.49,0,0,1-1.61-.69l-2.37-1.12-.12.25c-.9,1.91-.73,3,.54,3.62.82.38,1.4.3,2.49-.4Zm-.46-2.89c.64-1.42.59-2.19-.18-2.55s-1.56.08-2.3,1.38Z"/><path class="cls-1" d="M258,254.68l.81.48,4.86-8-.76-.45.18-.3a5.1,5.1,0,0,0,2.45.91l.12.22c-.36.51-.75,1.09-1.14,1.74L263,251.79a3,3,0,0,1,2.39.17,2.2,2.2,0,0,1,1.08,1.86,3.06,3.06,0,0,1-.58,1.44L264,258.32l.71.45-.19.32-3-1.79.19-.32.68.39,2.18-3.6c.32-.52.37-.72.32-1a.87.87,0,0,0-.38-.47,1.9,1.9,0,0,0-1.23-.21,1,1,0,0,0-.74.33l-2.23,3.69.66.41-.2.32-3-1.84Z"/><path class="cls-1" d="M271.13,257.46a.93.93,0,0,0-.22-1.42c-.44-.3-.94-.38-1.09-.17s-.06.14,0,.34a.55.55,0,0,1-.1.47.65.65,0,0,1-.94.2.77.77,0,0,1-.17-1.08c.5-.72,1.77-.63,3,.22a2.11,2.11,0,0,1,1.08,1.53,2.26,2.26,0,0,1-.55,1.45l-1.89,2.75a.44.44,0,0,0,.05.64c.16.11.28.09.83-.13l.16.29a1.75,1.75,0,0,1-2,0,1.4,1.4,0,0,1-.63-.93,1.67,1.67,0,0,1,.12-.58,2.37,2.37,0,0,1-2.12-.28,1.57,1.57,0,0,1-.57-2.22c.52-.75,1.53-.93,2.75-.48.46.19.71.31,1.45.69ZM270,259a4.3,4.3,0,0,0-1.06-.4,1.35,1.35,0,0,0-1.53.53,1,1,0,0,0,.17,1.42,1.21,1.21,0,0,0,1.33,0Z"/><path class="cls-1" d="M271.65,263.61l.79.58,3.35-4.43-.72-.52.22-.29a8.69,8.69,0,0,0,2.24,1.31l.08.2c-.33.39-.64.75-1,1.2l-2.75,3.63.7.54-.23.3-2.93-2.22ZM279,257a1,1,0,0,1,.18,1.39.91.91,0,0,1-1.33.16.93.93,0,0,1-.19-1.34A1,1,0,0,1,279,257Z"/><path class="cls-1" d="M275.68,266.67l.73.59c.28-.29.52-.56.79-.88l1.89-2.26c.34-.41.59-.73.89-1.13l-.68-.55.24-.29a7.72,7.72,0,0,0,2.09,1.38l.05.23-.85,1,.53-.18a1.78,1.78,0,0,1,1.72.26,1.17,1.17,0,0,1,.18,1.7.72.72,0,0,1-1.09.12.7.7,0,0,1,0-1.08l.17-.18c.11-.13.09-.24-.06-.36a1.36,1.36,0,0,0-1.48.16c-.38.22-.57.41-1.33,1.32l-1.61,1.92.78.67-.24.29L275.44,267Z"/><path class="cls-13" d="M367.82,165.63a5,5,0,0,0-9.72,2.2L354.49,169v-3.88a5,5,0,1,0-1.83,0v3.8l-3.68-1.2a5,5,0,1,0-.57,1.74l3.61,1.17-2.28,3.14a5,5,0,1,0,1.48,1.07l2.23-3.07,2.28,3.14a5,5,0,1,0,1.48-1.08L355,170.76l3.69-1.2a5,5,0,0,0,9.16-3.93Z"/><path class="cls-13" d="M63.48,165.63a5,5,0,0,0-9.72,2.2L50.15,169v-3.88a5,5,0,1,0-1.82,0v3.8l-3.69-1.2a5,5,0,1,0-.56,1.74l3.61,1.17-2.28,3.14a5,5,0,1,0,1.47,1.07l2.24-3.07,2.28,3.14a5,5,0,1,0,1.47-1.08l-2.23-3.07,3.69-1.2a5,5,0,0,0,9.15-3.93Z"/></g></g></svg>