<?xml version="1.0" encoding="utf-8"?>
<!-- Generator: Adobe Illustrator 26.0.3, SVG Export Plug-In . SVG Version: 6.00 Build 0)  -->
<svg version="1.1" id="レイヤー_1" xmlns="http://www.w3.org/2000/svg" xmlns:xlink="http://www.w3.org/1999/xlink" x="0px"
	 y="0px" viewBox="0 0 468.9 412" style="enable-background:new 0 0 468.9 412;" xml:space="preserve">
<style type="text/css">
	.st0{fill:#FDFCF6;stroke:#BFAF93;stroke-miterlimit:10;}
	.st1{fill:#BFAF93;stroke:#FDFCF6;stroke-linecap:round;stroke-linejoin:round;}
	.st2{fill:#FFFFFF;stroke:#BFAF93;stroke-width:0.75;stroke-linecap:round;stroke-linejoin:round;}
	.st3{fill:none;stroke:#FDFCF6;stroke-width:0.75;stroke-linecap:round;stroke-linejoin:round;}
	.st4{fill:#FDFCF6;stroke:#BFAF93;stroke-linecap:round;stroke-linejoin:round;}
	.st5{fill:#FFF4D6;}
	.st6{fill:#FDFCF6;}
	.st7{fill:none;stroke:#BFAF93;stroke-width:1.5;stroke-linecap:round;stroke-linejoin:round;}
	.st8{fill:none;stroke:#BFAF93;stroke-linecap:round;stroke-linejoin:round;}
	.st9{fill:none;stroke:#BFAF93;stroke-width:0.75;stroke-linecap:round;stroke-linejoin:round;}
	.st10{fill:#BFAF93;}
	.st11{fill:#D93924;}
	.st12{fill:#AB445A;}
</style>
<g>
	<path class="st0" d="M439.9,203.9c0.3-46-29.7-86.8-73.7-100.2C338.8,57.9,293,27.7,240.9,27.4c-52.1-0.3-98.2,29.3-126.1,74.7
		c-55.2,16.1-86.9,74-70.8,129.2c9.8,33.7,36,60.1,69.5,70.4c27.3,45.8,73.1,75.9,125.2,76.2c52.1,0.3,98.2-29.3,126.1-74.7
		C409.1,290.3,439.6,249.9,439.9,203.9z"/>
	<path class="st0" d="M239.9,364.8c-45.4,0-88.2-25.9-114.4-69.1l-2.6-4.3l-4.9-1.5c-48.2-14.4-75.5-65.1-61.2-113.2
		c8.8-29.4,31.8-52.4,61.2-61.2l4.9-1.4l2.6-4.3c26.2-43.3,69-69.2,114.4-69.2s88.2,25.8,114.4,69.2l2.6,4.3l4.9,1.4
		c48.2,14.4,75.5,65.1,61.2,113.2c-8.8,29.4-31.8,52.4-61.2,61.2l-4.9,1.5l-2.6,4.3C328.1,339,285.3,364.8,239.9,364.8z"/>
	<path class="st1" d="M330.8,131.1c-3.7-4-1.6-8.7-0.8-9.5s5.5-2.3,9.2,1.7c3.7,4,5.1,11.8,4.2,12.7S334.5,135.1,330.8,131.1z"/>
	<path class="st2" d="M339.9,132.5c-2.2-1.8-4.2-3.6-6.2-5.7c-1.6-2-4.1-5.9-4.1-5.9"/>
	<path class="st1" d="M267.3,58.5c7.1,1.4,8.5,8.1,8.2,9.6c-0.3,1.7-4.2,6.7-11.3,5.3s-14.7-8.8-14.4-10.5
		C250.3,61,260.2,57,267.3,58.5z"/>
	<path class="st2" d="M256.3,64c3.7,0.2,7.4,0.7,11.1,1.3c3.3,0.9,9.1,3.2,9.1,3.2"/>
	<path class="st1" d="M310.9,105.5c1.2,2.9,7.2,8.9,9.3,8s2.5-9.5,1.2-12.4s-3.6-5.9-7.9-4.1C309,98.9,309.6,102.6,310.9,105.5z"/>
	<path class="st1" d="M322.6,101.3c-1.9,2.5-4.1,10.7-2.3,12.1s9.4-2.6,11.4-5.1s3.3-6.1-0.4-8.9C327.3,96.4,324.5,98.8,322.6,101.3
		z"/>
	<path class="st1" d="M332,109.4c-3.1-0.4-11.3,1.8-11.6,4.1s7,6.9,10.1,7.3s6.9-0.2,7.5-4.8C338.6,111.1,335.1,109.8,332,109.4z"/>
	<path class="st1" d="M329.7,121.6c-1.2-2.9-7.2-8.9-9.3-8s-2.4,9.5-1.2,12.4c1.2,2.9,3.6,5.9,7.9,4.1
		C331.6,128.2,330.9,124.5,329.7,121.6z"/>
	<path class="st1" d="M318,125.8c1.9-2.5,4.1-10.7,2.3-12.1s-9.4,2.6-11.4,5.1s-3.3,6.1,0.4,8.9C313.3,130.7,316.1,128.3,318,125.8z
		"/>
	<path class="st1" d="M308.6,117.7c3.1,0.4,11.3-1.8,11.6-4.1s-7-6.9-10.1-7.3s-6.9,0.2-7.5,4.8C302,116,305.4,117.3,308.6,117.7z"
		/>
	<path class="st3" d="M316.6,101.3c0,0,4.4,12,3.6,12.2"/>
	<path class="st3" d="M321.8,110.8c0.5-1.8,5.5-7.1,5.5-7.1"/>
	<path class="st3" d="M332.1,116.5c0,0-8.8-2.2-8.5-3"/>
	<path class="st3" d="M322.6,122.2c0,0-1.6-5.6-0.8-5.8c1.5-0.2,4.7,7.1,4.7,7.1"/>
	<path class="st3" d="M318.1,116.4c-1.2,3.8-5.8,7.7-5.8,7.7"/>
	<path class="st3" d="M310.8,112.6c0,0,7,0,6.7,0.8"/>
	<line class="st3" x1="308.3" y1="112.1" x2="306.7" y2="112"/>
	<line class="st3" x1="332.2" y1="113.9" x2="330.4" y2="113.6"/>
	<line class="st3" x1="324.2" y1="127.1" x2="323.8" y2="126.1"/>
	<line class="st3" x1="314.2" y1="103.3" x2="313.7" y2="102.1"/>
	<path class="st4" d="M317.8,114.9c0.6,1.5,2.4,2.3,3.9,1.6c1.5-0.6,2.3-2.4,1.6-3.9c-0.6-1.5-2.4-2.3-3.9-1.6c0,0,0,0,0,0
		C317.9,111.6,317.2,113.4,317.8,114.9z"/>
	<path class="st1" d="M272.4,82.2c2.8,3.8,13.6,10.4,16.4,8.4s0.2-14.6-2.6-18.4s-7.3-7.2-12.9-3.2
		C267.4,73.2,269.6,78.4,272.4,82.2z"/>
	<path class="st1" d="M287.9,72c-1.9,4.3-2.2,17,0.9,18.3s12.8-7.1,14.7-11.4s2.6-10-3.7-12.8C293.1,63.2,289.8,67.7,287.9,72z"/>
	<path class="st1" d="M304.4,80.4c-4.7,0.5-15.8,6.6-15.4,10s12.6,7.5,17.2,7s9.9-2.7,9.2-9.6C314.7,80.5,309.1,79.9,304.4,80.4z"/>
	<path class="st1" d="M305.4,99c-2.8-3.8-13.6-10.4-16.4-8.4s-0.2,14.6,2.6,18.4s7.3,7.2,12.9,3.2C310.5,107.9,308.2,102.8,305.4,99
		z"/>
	<path class="st1" d="M289.9,109.1c1.9-4.3,2.2-17-0.9-18.3s-12.8,7.1-14.7,11.4s-2.6,10,3.7,12.8
		C284.7,117.9,288,113.4,289.9,109.1z"/>
	<path class="st1" d="M273.4,100.7c4.7-0.5,15.8-6.6,15.4-10s-12.6-7.5-17.3-7s-9.9,2.7-9.2,9.6
		C263.1,100.6,268.7,101.2,273.4,100.7z"/>
	<path class="st3" d="M279.2,74.1c0,0,10.6,15.9,9.5,16.4c-2,0.9-11-12.5-11-12.5"/>
	<path class="st3" d="M296.7,79.3c0,0-5.5,7.5-6.5,6.8c-1.8-1.3,3.3-12.5,3.3-12.5"/>
	<path class="st3" d="M304.8,91.7c0,0-11.2-1.1-11.1-2.3c0.2-2.2,8.4-2.7,8.4-2.7"/>
	<path class="st3" d="M296.3,104.6c0,0-5.4-9.9-4.2-10.4c2-0.9,6.4,5.9,6.4,5.9"/>
	<path class="st3" d="M279.6,108.2c0,0,6.2-13.5,7.2-12.8c1.8,1.3-2,10.7-2,10.7"/>
	<path class="st3" d="M278.5,90c0,0,6.5,0.2,6.3,1.4c-0.2,2.2-11.8,4.1-11.8,4.1"/>
	<line class="st3" x1="275.1" y1="90" x2="270.9" y2="90.2"/>
	<line class="st3" x1="305" y1="86.7" x2="307.5" y2="87.1"/>
	<line class="st3" x1="298.6" y1="75" x2="298.2" y2="76.5"/>
	<path class="st4" d="M285.8,93.4c1.4,2,4.2,2.5,6.3,1c2-1.4,2.5-4.2,1-6.3s-4.2-2.5-6.3-1c0,0,0,0,0,0
		C284.8,88.6,284.3,91.4,285.8,93.4z"/>
	<path class="st1" d="M146.7,131.1c3.7-4,1.6-8.7,0.8-9.5s-5.5-2.3-9.2,1.7c-3.7,4-5.1,11.8-4.2,12.7S143,135.1,146.7,131.1z"/>
	<path class="st2" d="M137.6,132.5c2.2-1.8,4.2-3.6,6.2-5.7c1.6-2,4.1-5.9,4.1-5.9"/>
	<path class="st1" d="M210.2,58.5c-7.1,1.4-8.5,8.1-8.2,9.6c0.3,1.7,4.2,6.7,11.3,5.3s14.7-8.8,14.4-10.5
		C227.2,61,217.3,57,210.2,58.5z"/>
	<path class="st2" d="M221.2,64c-3.7,0.2-7.4,0.7-11.1,1.3c-3.3,0.9-9.1,3.2-9.1,3.2"/>
	<path class="st1" d="M166.7,105.5c-1.2,2.9-7.2,8.9-9.3,8s-2.4-9.5-1.2-12.4s3.6-5.9,7.9-4.1C168.5,98.9,167.9,102.6,166.7,105.5z"
		/>
	<path class="st1" d="M155,101.3c1.9,2.5,4.1,10.7,2.3,12.1s-9.4-2.6-11.4-5.1s-3.3-6.1,0.4-8.9C150.2,96.4,153.1,98.8,155,101.3z"
		/>
	<path class="st1" d="M145.5,109.4c3.1-0.4,11.3,1.8,11.6,4.1s-7,6.9-10.1,7.3s-6.9-0.2-7.5-4.8
		C138.9,111.1,142.4,109.8,145.5,109.4z"/>
	<path class="st1" d="M147.8,121.6c1.2-2.9,7.2-8.9,9.3-8s2.4,9.5,1.2,12.4c-1.2,2.9-3.6,5.9-7.9,4.1
		C145.9,128.2,146.6,124.5,147.8,121.6z"/>
	<path class="st1" d="M159.5,125.8c-1.9-2.5-4.1-10.7-2.3-12.1s9.4,2.6,11.4,5.1s3.3,6.1-0.4,8.9
		C164.3,130.7,161.4,128.3,159.5,125.8z"/>
	<path class="st1" d="M168.9,117.7c-3.1,0.4-11.3-1.8-11.6-4.1s7-6.9,10.1-7.3s6.9,0.2,7.5,4.8C175.6,116,172.1,117.3,168.9,117.7z"
		/>
	<path class="st3" d="M160.9,101.3c0,0-4.4,12-3.6,12.2"/>
	<path class="st3" d="M155.7,110.8c-0.4-1.8-5.5-7.1-5.5-7.1"/>
	<path class="st3" d="M145.4,116.5c0,0,8.8-2.2,8.5-3"/>
	<path class="st3" d="M154.9,122.2c0,0,1.6-5.6,0.8-5.8c-1.5-0.2-4.7,7.1-4.7,7.1"/>
	<path class="st3" d="M159.4,116.4c1.2,3.8,5.8,7.7,5.8,7.7"/>
	<path class="st3" d="M166.7,112.6c0,0-7,0-6.7,0.8"/>
	<line class="st3" x1="169.3" y1="112.1" x2="170.9" y2="112"/>
	<line class="st3" x1="145.4" y1="113.9" x2="147.1" y2="113.6"/>
	<line class="st3" x1="153.3" y1="127.1" x2="153.7" y2="126.1"/>
	<line class="st3" x1="163.3" y1="103.3" x2="163.8" y2="102.1"/>
	<path class="st4" d="M159.7,114.9c-0.6,1.5-2.4,2.3-3.9,1.6c-1.5-0.6-2.3-2.4-1.6-3.9c0.6-1.5,2.4-2.3,3.9-1.6c0,0,0,0,0,0
		C159.6,111.6,160.4,113.4,159.7,114.9z"/>
	<path class="st1" d="M205.2,82.2c-2.8,3.8-13.6,10.4-16.4,8.4s-0.2-14.7,2.6-18.5s7.3-7.2,12.9-3.2
		C210.2,73.2,207.9,78.4,205.2,82.2z"/>
	<path class="st1" d="M189.6,72c1.9,4.3,2.2,17-0.9,18.3s-12.8-7.1-14.7-11.4s-2.6-10,3.7-12.8C184.4,63.2,187.7,67.7,189.6,72z"/>
	<path class="st1" d="M173.1,80.4c4.7,0.5,15.8,6.6,15.4,10s-12.6,7.5-17.2,7s-9.9-2.7-9.2-9.6C162.8,80.5,168.4,79.9,173.1,80.4z"
		/>
	<path class="st1" d="M172.1,99c2.8-3.8,13.6-10.4,16.4-8.4s0.2,14.6-2.6,18.4s-7.3,7.2-12.9,3.2C167.1,107.9,169.3,102.8,172.1,99z
		"/>
	<path class="st1" d="M187.6,109.1c-1.9-4.3-2.2-17,0.9-18.3s12.8,7.1,14.7,11.4s2.6,10-3.7,12.8
		C192.8,117.9,189.5,113.4,187.6,109.1z"/>
	<path class="st1" d="M204.2,100.7c-4.7-0.5-15.8-6.6-15.4-10s12.6-7.5,17.3-7s9.9,2.7,9.2,9.6C214.4,100.6,208.9,101.2,204.2,100.7
		z"/>
	<path class="st3" d="M198.3,74.1c0,0-10.6,15.9-9.5,16.4c2,0.9,11-12.5,11-12.5"/>
	<path class="st3" d="M180.9,79.3c0,0,5.5,7.5,6.5,6.8c1.8-1.3-3.3-12.5-3.3-12.5"/>
	<path class="st3" d="M172.7,91.7c0,0,11.2-1.1,11.1-2.3c-0.2-2.2-8.4-2.7-8.4-2.7"/>
	<path class="st3" d="M181.2,104.6c0,0,5.4-9.9,4.2-10.4c-2-0.9-6.4,5.9-6.4,5.9"/>
	<path class="st3" d="M197.9,108.2c0,0-6.2-13.5-7.2-12.8c-1.8,1.3,2,10.7,2,10.7"/>
	<path class="st3" d="M199.1,90c0,0-6.5,0.2-6.3,1.4c0.2,2.2,11.8,4.1,11.8,4.1"/>
	<line class="st3" x1="202.5" y1="90" x2="206.6" y2="90.2"/>
	<line class="st3" x1="172.5" y1="86.7" x2="170.1" y2="87.1"/>
	<line class="st3" x1="178.9" y1="75" x2="179.4" y2="76.5"/>
	<path class="st4" d="M191.8,93.4c-1.4,2-4.2,2.5-6.3,1c-2-1.4-2.5-4.2-1-6.3c1.4-2,4.2-2.5,6.3-1c0,0,0,0,0,0
		C192.8,88.6,193.2,91.4,191.8,93.4C191.8,93.4,191.8,93.4,191.8,93.4z"/>
	<path class="st5" d="M105.2,249.6l5.2-12.5c0,0-0.8-2.8-8.3-6.2s-11.2-1.7-11.2-1.7s1.5,7.2,6,12
		C102,246.6,105.2,249.6,105.2,249.6z"/>
	<path class="st6" d="M91,229c0,0-4.9,18.5-10,26.9s-10,11.4-10,11.4c16.4,22.9,27.3,26.5,50.5,28.2l16.9-41.2
		C111.1,251.8,99.3,247.3,91,229z"/>
	<polygon class="st5" points="113.4,268.1 118.4,310.2 126.8,315.6 138.4,254.4 	"/>
	<path class="st5" d="M376.1,249.6l-5.2-12.5c0,0,0.8-2.8,8.3-6.2s11.2-1.7,11.2-1.7s-1.5,7.2-6,12
		C379.3,246.6,376.1,249.6,376.1,249.6z"/>
	<path class="st6" d="M390.2,229c0,0,4.9,18.5,10,26.9s10,11.4,10,11.4c-16.4,22.8-27.4,26.5-50.5,28.2l-16.9-41.2
		C370.2,251.8,382,247.3,390.2,229z"/>
	<polygon class="st5" points="367.9,268.1 362.9,310.2 354.5,315.6 342.9,254.4 	"/>
	<path class="st6" d="M343.9,320.1c-17.2,0-29.2-7.9-41.9-16.2c-15.3-10.1-31.1-20.5-61.1-20.5s-45.8,10.4-61.1,20.5
		c-12.7,8.4-24.7,16.2-41.9,16.2c-10.9,0-21.5-3.7-30-10.4c0,0,3.3-12.3,4.7-18.6s1-23.1,1-23.1c6.3,6.8,15.1,10.6,24.3,10.6
		c12.8,0,21.8-6,33.3-13.5c15.7-10.4,35.3-23.2,69.8-23.2s54.1,12.9,69.8,23.2c11.5,7.5,20.5,13.5,33.3,13.5
		c9.3,0,18.1-3.8,24.4-10.7c0,0,0.4,13,1.2,21.4s4.5,20.4,4.5,20.4C365.3,316.4,354.8,320.1,343.9,320.1z"/>
	<path class="st7" d="M106.6,246.8l3.8-9.7c0,0-0.8-2.8-8.3-6.2s-11.2-1.7-11.2-1.7"/>
	<path class="st7" d="M138.4,254.4c-27.3-2.6-39.2-7.1-47.4-25.4c0,0-4.9,18.5-10,26.9s-10,11.4-10,11.4
		c13.3,18.5,23,24.4,38.6,26.9"/>
	<polyline class="st8" points="134.3,276.6 138.4,254.4 113.4,268.1 	"/>
	<path class="st7" d="M375.1,246.8l-4.2-9.7c0,0,0.8-2.8,8.3-6.2s11.2-1.7,11.2-1.7"/>
	<path class="st7" d="M342.9,254.4c27.3-2.6,39.2-7.1,47.4-25.4c0,0,4.9,18.5,10,26.9s10,11.4,10,11.4c-13.4,18.6-23.2,24.5-38.9,27
		"/>
	<polyline class="st8" points="347.1,276.2 342.9,254.4 367.9,268.1 	"/>
	<path class="st7" d="M343.9,320.1c-17.2,0-29.2-7.9-41.9-16.2c-15.3-10.1-31.1-20.5-61.1-20.5s-45.8,10.4-61.1,20.5
		c-12.7,8.4-24.7,16.2-41.9,16.2c-10.9,0-21.5-3.7-30-10.4c0,0,3.3-12.3,4.7-18.6s1-23.1,1-23.1c6.3,6.8,15.1,10.6,24.3,10.6
		c12.8,0,21.8-6,33.3-13.5c15.7-10.4,35.3-23.2,69.8-23.2s54.1,12.9,69.8,23.2c11.5,7.5,20.5,13.5,33.3,13.5
		c9.3,0,18.1-3.8,24.4-10.7c0,0,0.4,13,1.2,21.4s4.5,20.4,4.5,20.4C365.3,316.4,354.8,320.1,343.9,320.1z"/>
	<path class="st9" d="M91.2,272.3c3.7,4.4,7.4,6.2,12.9,8.8"/>
	<path class="st9" d="M78.7,259.6c3.7,5.7,8.7,10.6,9,10.3"/>
	<path class="st9" d="M89,237.5c12.8,20.1,26.2,18.9,26.2,18.9"/>
	<path class="st9" d="M91.1,257.9c4,3.6,8.2,6.9,12.7,10"/>
	<path class="st9" d="M91.6,249.3c1.5,2.6,3.7,4.8,6.3,6.4"/>
	<path class="st9" d="M76,263.5c3.9,6.2,8.4,12.1,16.6,16.9"/>
	<path class="st9" d="M125.7,311.9c8.2,2.3,22.1,2.2,28.8-1.8"/>
	<path class="st9" d="M137.1,285.4c1.7,0.5,3.4,0.8,5.2,0.7c5.9-0.3,7.6-2.8,7.6-2.8"/>
	<path class="st9" d="M140.2,298.6c3.7,0.4,7.4,0,10.9-1.2"/>
	<path class="st9" d="M150.3,291.1c1.1-0.2,2.1-0.6,2.9-1.3"/>
	<path class="st9" d="M121.2,302.6c5.5,3.4,13.9,4.8,21.5,3.1"/>
	<path class="st9" d="M111.9,297.2c1.6,1.5,3.8,2.9,3.8,2.5"/>
	<path class="st9" d="M113.6,275.8c9.4,7.3,18,7.8,18,7.8"/>
	<path class="st9" d="M113.3,289.5c2.9,2,6.9,8.3,22.5,8.8"/>
	<path class="st9" d="M117.8,285.3c1,0.6,10.8,8.6,27.6,6.9"/>
	<path class="st9" d="M109.5,303.1c3,4.2,6.7,5.4,10.2,7.2"/>
	<path class="st9" d="M355.6,311.9c-8.2,2.3-22.1,2.2-28.9-1.8"/>
	<path class="st9" d="M344.2,285.4c-1.7,0.5-3.4,0.8-5.2,0.7c-5.9-0.3-7.6-2.8-7.6-2.8"/>
	<path class="st9" d="M341.1,298.6c-3.7,0.4-7.4,0-10.9-1.2"/>
	<path class="st9" d="M331,291.1c-1.1-0.2-2.1-0.6-2.9-1.3"/>
	<path class="st9" d="M360.1,302.6c-5.5,3.4-13.9,4.8-21.5,3.1"/>
	<path class="st9" d="M369.4,297.2c-1.6,1.5-3.8,2.9-3.9,2.5"/>
	<path class="st9" d="M367.7,275.8c-9.4,7.3-18,7.8-18,7.8"/>
	<path class="st9" d="M368,289.5c-2.9,2-7,8.3-22.5,8.8"/>
	<path class="st9" d="M363.5,285.3c-1,0.6-10.8,8.6-27.6,6.9"/>
	<path class="st9" d="M371.8,303.1c-3,4.2-6.7,5.4-10.2,7.2"/>
	<path class="st9" d="M389.9,272.3c-3.7,4.4-7.4,6.2-12.9,8.8"/>
	<path class="st9" d="M402.4,259.6c-3.6,5.7-8.7,10.6-9,10.3"/>
	<path class="st9" d="M392.1,237.5c-12.8,20.1-26.2,18.9-26.2,18.9"/>
	<path class="st9" d="M390,257.9c-4,3.6-8.2,6.9-12.6,10"/>
	<path class="st9" d="M389.6,249.3c-1.5,2.6-3.7,4.8-6.3,6.4"/>
	<path class="st9" d="M405.1,263.5c-3.9,6.2-8.4,12.1-16.5,16.9"/>
	<path class="st10" d="M254.9,185c0.1-0.2,0.2-0.4,0.4-0.6c0.3-0.6,0.6-1.1,1-1.8c0.5-0.9,0.8-1.1,1-1.1c0.8,0,3.1,2.8,3.1,3.8
		c0,0.6-0.5,1-1.1,0.9c0,0,0,0,0,0h-10c0.2,0.1,0.3,0.3,0.3,0.5c0,0.4-0.2,0.6-1,0.8c-0.2,0.4-0.2,0.4-1.4,3.1l3-0.2
		c0.9-0.1,1.7-0.1,2.6-0.2c-0.4-1-0.8-1.9-1.3-2.9c-0.3-0.5-0.3-0.6-0.3-0.7c0-0.1,0.1-0.2,0.2-0.2c1,0.3,2,0.6,3,1.1
		c2.8,1.2,4,2.6,4,4.8c0.1,1.4-0.9,2.7-2.3,2.9c-0.1,0-0.2,0-0.2,0c-1,0.1-2-0.6-2.1-1.6c-0.2-0.9-0.4-1.8-0.5-2.1
		c-2.9,2.1-6.1,3.8-9.4,5.1c-0.3,0.1-0.5,0.3-0.8,0.5c-0.3,0.3-0.7,0.4-1.1,0.5c-0.4,0-0.7-0.5-1.4-2.8c-0.5-1.2-0.8-2.5-1-3.8
		c0-0.1,0.1-0.2,0.3-0.2l1,0.1c1.8,0.1,1.8,0.1,2.5,0.1c0.5-3.2,0.5-3.2,0.7-4.6c-1.6,0-3.1,0.1-4.7,0.2c-0.6-1.1-0.7-1.2-0.7-1.3
		s0.1-0.4,0.3-0.4c1.1,0,2.5,0.1,3.2,0.1h0.9v-5.8c0-5.9,0-7.8,0-9c0-0.3,0-0.4,0.2-0.4c0.5,0.1,1,0.2,1.6,0.4
		c1.9,0.6,2.9,1.2,3.2,2h5.5c1.2-2.4,2-3.6,2.4-3.6c1,0,3.4,2.8,3.4,3.8c0,0.6-0.4,1.1-1,1.2H248c-0.4,0.5-0.5,0.7-0.5,3.1h4.9
		l0.7-1.4c0.4-0.9,0.6-1.2,0.9-1.2c0.7,0,2.4,2.2,2.4,3.2c0,0.4-0.3,0.6-0.7,0.6c0,0,0,0,0,0h-8.2v3h4.9c0.4-0.8,0.6-1.2,0.9-1.8
		s0.5-0.8,0.7-0.8c0.6,0,2.3,2.2,2.3,3c0,0.5-0.3,0.8-0.7,0.8h-8.1v2.8L254.9,185z M250.7,200.6c0.4-1.6,0.7-3.2,0.9-4.8
		c0.2-1.1,0.2-1.2,0.4-1.2s1.2,0.3,4.5,1.6c2.6-1.1,4.9-2.6,7-4.5c2.5-2.1,4.7-4.5,6.5-7.2c3,1.8,4.9,3.9,4.9,5.3
		c0,0.9-0.4,1.3-2,1.6c-0.5,0.3-0.8,0.5-1,0.6c-4.4,2.6-9.4,4.3-14.5,4.8c0.4,0.2,0.6,0.7,0.6,1.1c0,0.3-0.2,0.6-0.4,0.8
		c-0.1,0-0.3,0.2-0.4,0.2c-0.1,0.1-0.2,0.1-0.4,0.2c-0.2,0.6-0.3,0.8-0.5,1.3h10.7l0.6-1.1c0.5-0.9,0.6-1.1,0.9-1.6
		c0.7-1.5,1.2-2.1,1.7-2.1s1.4,0.8,2.7,2.2c1.1,1.2,1.7,2.2,1.7,3c0,0.5-0.4,0.9-0.9,0.9h-17.9c-1,2.4-1,2.4-1.4,3.2h5.3
		c1.4-2.4,1.4-2.4,1.9-2.4c0.9,0.3,1.7,0.8,2.3,1.5c1.9,1.9,2.3,2.6,2.3,3.4s-0.4,1.2-1.5,1.7c-0.9,1.6-1.9,3.1-3,4.6
		c3.5,1,7.2,1.5,10.9,1.4h1.2c0.5,0,0.5,0,0.5,0.2s0,0.2-0.4,0.6c-1.5,1.7-2.7,3.6-3.5,5.8c-0.4,1.4-0.6,1.5-1.6,1.5
		c-4.3,0.1-8.3-1.8-11-5.2c-4.3,3.4-8,4.8-13.2,4.8c-1.7,0-3.3-0.2-4.9-0.6c-0.4-0.1-0.4-0.2-0.4-0.4c0-0.1,0.1-0.3,0.2-0.3
		c0,0,0,0,0,0h0.2c6.4,0,12.3-3.2,15.8-8.5c-0.9-2.2-1.5-4.5-1.7-6.8H254c-2.8,5.6-5.5,9.1-9.2,11.7c-1.6,1.1-4.4,2.5-5.1,2.5
		c-0.1,0-0.2-0.1-0.2-0.2s0-0.3,0.4-0.5c1.6-0.9,3.9-3.6,5.7-6.4c2.2-3.6,3.9-7.5,5-11.6h-7.8c-0.9,0-1.9,0-2.8,0.1
		c-0.6-1-0.6-1.1-0.6-1.2s0.1-0.4,0.3-0.4c0.7,0.1,1.5,0.2,2.2,0.2L250.7,200.6z M254.8,206.3c0.1,0.2,0.1,0.2,0.3,0.9
		c0.5,1.4,1.3,2.7,2.4,3.8c0.9-1.5,1.7-3,2.2-4.6H254.8z M269.1,175.2c-4.6,2.4-7.9,3.7-10.6,4.2c-0.2,0.1-0.4,0.1-0.7,0.1
		c-0.2,0-0.3,0-0.5,0c-0.2,0-0.4,0-0.4-0.2c0-0.2,0.1-0.3,0.2-0.4c2.9-2.2,5.1-4.9,8.5-10.6c3.4,2.1,5.4,3.9,5.4,5.3
		C271.1,174.8,270.6,175.2,269.1,175.2z M271.4,182.8c-5.4,3.5-9.2,5.3-12.5,5.8c-0.4,0.1-0.4,0.1-0.8,0.1c-0.2,0-0.4,0.1-0.6,0.1
		c-0.2,0-0.3-0.1-0.3-0.2s0-0.2,0.2-0.3c1.7-0.9,3.2-2,4.6-3.4c2.7-2.7,5-5.7,6.9-8.9c1.2,0.9,2.4,1.9,3.4,3.1
		c0.7,0.6,1.1,1.4,1.2,2.3C273.4,182.3,272.9,182.8,271.4,182.8L271.4,182.8z"/>
	<path class="st10" d="M292.7,204.5c-0.4,5.6-1.3,9.5-3,12.8c-0.5,0.9-1.1,1.7-1.7,2.5c-0.2,0.2-0.4,0.4-0.4,0.4s-0.1-0.1-0.1-0.2
		c0-0.1,0.1-0.3,0.1-0.4c0.5-1.4,0.8-2.9,1-4.4c0.3-2.6,0.4-5.2,0.4-7.8c0-1.1,0-1.5,0-6.4c0.5,0.2,0.5,0.2,2.2,0.7
		c1.5,0.5,2.4,1.1,2.4,1.7C293.4,203.7,293.2,204,292.7,204.5z M290.4,199c-0.4,0.5-1,0.8-1.6,0.9c-0.4,0-0.6-0.4-0.7-1.4
		c-0.3-1.9-0.4-3.6-0.5-5.6c3.2,0.3,5.1,0.5,5.9,0.6c2-5,3.7-10.1,4.9-15.4c1.6,1,2.9,2.3,4.1,3.8c0.5,0.5,0.7,1.2,0.8,1.9
		c0,0.8-0.5,1.2-1.6,1.3c-1.8,2.8-2.9,4.2-6,8.5c2.1,0.1,2.1,0.1,3.9,0.2c-0.2-1-0.6-1.9-1-2.8c-0.2-0.3-0.2-0.3-0.2-0.4
		s0-0.2,0.2-0.2c0.9,0.2,1.8,0.5,2.5,1c2,1.2,3.2,3.3,3.2,5.6c0,2.2-1,4-2.5,4c-1.1,0-1.8-0.9-1.9-2.2c0-0.6-0.1-1.6-0.2-3.2
		c-0.5,0.2-1.4,0.5-1.8,0.6c0,6.1,0,6.1,0.1,21.6v2.1c0.1,0.7-0.1,1.4-0.6,1.9c-0.8,0.6-1.7,0.9-2.6,0.9c-1.1,0-1.3-0.4-1.3-2
		c0-0.2,0.1-4,0.4-13.9c0-0.2,0.1-3.3,0.1-9.3c-0.5,0.2-1.2,0.5-2.1,0.9L290.4,199z M298.6,174.5c-1.4,2.6-3.1,5.1-4.9,7.5
		c1,1.1,1.5,2.5,1.5,4c0,2.3-1.2,4-2.7,4c-1.3,0-1.6-0.6-2-3.5c-0.2-2.4-0.9-4.7-2-6.8c-0.1-0.1-0.1-0.2-0.1-0.3
		c0-0.1,0.1-0.2,0.2-0.2c0,0,0,0,0,0c1.2,0.3,2.4,0.7,3.5,1.2c0.9-4.1,1.5-7.5,2-11.8c1.7,0.6,3.3,1.4,4.8,2.4
		c0.7,0.4,1.1,1.1,1.3,1.9C300.1,173.7,299.7,174.1,298.6,174.5z M301.4,214.9c-0.8,0-1.5-0.6-1.6-1.4c-0.1-0.6-0.2-1.3-0.1-1.9
		c0-4.5-0.3-6.7-1-8.3c-0.1-0.1-0.1-0.2-0.1-0.3c0-0.1,0.1-0.1,0.1-0.1c0.6,0,2,1.1,3.1,2.2c1.5,1.5,2.3,3.5,2.2,5.6
		C304,213.2,303,214.9,301.4,214.9z M317,180.6c0.3-0.7,0.9-2,1.6-3.8c0.5-1.2,0.9-1.7,1.4-1.7s1.4,0.9,2.6,3c0.6,0.9,1,1.8,1.1,2.9
		c0.1,0.5-0.3,1-0.9,1.1c0,0-0.1,0-0.1,0h-8.5l0,10.6h2.5c0.4-0.8,0.8-1.6,1.6-3.4c0.5-1.1,1-1.6,1.4-1.6c1.1,0,3.5,3.7,3.5,5.4
		c0.1,0.5-0.3,1-0.9,1.1c0,0-0.1,0-0.1,0L307,194c-1,0-2,0-3,0.1c-0.6-1.1-0.6-1.2-0.6-1.4s0.1-0.4,0.3-0.4c0.9,0.1,1.9,0.1,2.4,0.1
		h3l0.1-10.4h-3.3c-1,0-2,0.1-3,0.2c-0.6-1.3-0.7-1.4-0.6-1.5s0.1-0.4,0.3-0.4c0.8,0.1,1.6,0.2,2.4,0.2h4.1l-0.1-11.6
		c0-0.3,0-0.4,0.2-0.4c1.6,0.1,3.2,0.4,4.7,1c1,0.4,1.5,0.9,1.5,1.7c0,0.6-0.3,1-1.2,1.7l-0.1,7.6L317,180.6z M315.3,201.4
		c0.2-0.5,0.5-1.1,1-2.3c0.4-0.9,0.8-1.3,1.1-1.3c1.1,0.5,2,1.2,2.8,2.1c1.4,1.4,1.9,2.2,1.9,3.2c0,0.6-0.3,1.1-1.3,1.9
		c0,1.5,0.1,5.8,0.2,12.4c0,1.2,0,1.5,0,1.6c0.1,0.7-0.1,1.5-0.5,2.1c-0.9,0.9-2.1,1.3-3.3,1.3c-1.1,0-1.5-0.6-1.5-2.3v-1.5h-6.3
		v0.6c0.2,1.1-0.4,2.1-1.3,2.6c-0.5,0.2-1.1,0.4-1.7,0.5c-1.1,0-1.6-0.5-1.6-1.5c0-2.3,0.1-4.5,0.2-6.8c0-1.8,0-3.2,0.1-4.8
		c0-3.3,0-6.9,0-8.5V200c0-0.7,0-0.8,0.3-0.8c1.2,0,4.1,1.4,4.5,2.2L315.3,201.4z M315.6,212.9c0-3,0-8,0-9c0-0.8-0.2-1.1-0.8-1.1
		H310c-0.5,0-0.7,0.6-0.8,2.4c0,4,0,9.1,0,12.1h6.4L315.6,212.9z"/>
	<path class="st10" d="M361.5,177.2c0.4-0.8,1-2,2.2-4.3c0.6-1.1,0.8-1.3,1.2-1.3c0.6,0,1.8,1.1,3.2,3.1c1,1.4,1.4,2.2,1.4,2.8
		s-0.4,1.2-1,1.2h-25c-0.9,0.5-1,0.7-1,3.3v4.6c0,14-0.4,19.1-1.9,24.4c-1.1,3.7-2.9,7.2-5.4,10.2c-0.5,0.6-0.8,0.8-0.9,0.8
		s-0.2-0.1-0.2-0.3s0-0.2,0.5-1.1c1.3-2.7,2.2-5.6,2.5-8.6c0.5-3.6,0.6-7.3,0.5-11c0-5.3,0-12.6-0.2-19.1c0-2.4-0.1-5.6-0.1-7.4
		c0-0.3,0.1-0.5,0.4-0.5c1.4,0.3,2.7,0.8,4,1.4c0.9,0.3,1.6,1,2,1.8h6.7c0-4.5,0-5.6-0.1-7.9c0-0.4,0.1-0.4,0.3-0.4
		c1.4,0.1,2.7,0.3,4,0.6c1.9,0.5,2.6,0.9,2.6,1.9c0,0.6-0.3,1.1-1.1,1.6v4.2L361.5,177.2z M362.9,191.2c0.4-0.8,0.4-0.8,1.6-3.5
		c0.5-1.2,0.9-1.6,1.3-1.6s1.2,0.7,2.5,2.3c1.1,1.4,1.6,2.4,1.6,3.1s-0.4,1-1.2,1h-11.4l0.1,10.6h3.5c1-2.5,1.5-3.3,2-3.3
		s1.3,0.5,3.1,2.2c1.5,1.5,1.9,2,1.9,2.8s-0.1,0.9-1.1,2.1v1.1c0,1.7,0.1,5.6,0.2,8.6c0,1,0.1,2.2,0.1,2.6c0.1,0.9-0.3,1.8-1,2.3
		c-0.9,0.6-1.9,0.9-3,0.9c-1.3,0-1.9-0.5-1.9-1.8v-1.6H349c0,1.7-0.2,2.2-1.1,2.9c-0.7,0.4-1.6,0.7-2.4,0.7c-1.2,0-1.7-0.5-1.7-1.8
		c0-0.3,0.1-5.1,0.1-8.1c0-2.3,0.1-5.6,0.1-8c0-1.5,0-2.8,0-3.8v-0.2c0-0.4,0.1-0.5,0.3-0.5c1.5,0.3,2.9,0.8,4.2,1.5
		c0.5,0.3,0.9,0.7,1.1,1.3h2.3c0-3.1,0-4,0-6.7c0-4.9-0.1-13.6-0.1-15.8v-0.2c0-0.5,0-0.6,0.4-0.6c1.5,0.1,3,0.4,4.4,0.8
		c1.4,0.5,1.9,1,1.9,1.8s-0.4,1.3-1.4,1.8v6.9H362.9z M360.9,208.3c0-3.5,0-3.8-0.6-3.8h-10.6c-0.3,0-0.5,0.4-0.6,0.9
		c0,0.2-0.1,1.2-0.1,1.8v10.6h11.9V208.3z"/>
	<path class="st10" d="M286.5,332.4c0-21.7-20.9-39.3-46.6-39.3s-46.6,17.6-46.6,39.3c0,4.2,0.8,8.4,2.4,12.4h6.2v-10.6
		c1-1.5,2.2-2.9,3.6-4.2v14.8h3v-17.3c1.1-0.8,2.3-1.6,3.6-2.3v19.6h3v-21.2c1.1-0.5,2.3-1,3.6-1.5v22.6h3v-23.6
		c1.2-0.3,2.4-0.7,3.6-0.9v24.6h3v-25.2c1.2-0.2,2.4-0.4,3.6-0.5v25.8h3v-26.1c1.2-0.1,2.4-0.1,3.6-0.2v26.2h3v-26.2
		c1.2,0,2.4,0.1,3.6,0.2v26h3v-25.8c1.2,0.1,2.4,0.3,3.6,0.5v25.2h3v-24.6c1.2,0.3,2.4,0.6,3.6,0.9v23.6h3v-22.6
		c1.2,0.5,2.4,1,3.6,1.5v21.2h3v-19.6c1.2,0.7,2.4,1.4,3.6,2.3v17.3h3V330c1.3,1.2,2.5,2.7,3.6,4.2v10.6h6.2
		C285.5,340.9,286.4,336.7,286.5,332.4z"/>
	<path class="st11" d="M214.8,304.9c-0.3,0.3-0.5,0.8-0.4,1.2c0,0.3,0.7,1,0.8,1c0.4,0.1,0.9,0.1,1.4,0c0.4-0.2,0.7-0.5,0.8-0.9
		c0.1-0.3,0.1-0.7,0-1c-0.1-0.1-0.1-0.2-0.2-0.3C216.5,304.3,215.5,304.3,214.8,304.9C214.8,304.9,214.8,304.9,214.8,304.9z"/>
	<path class="st11" d="M216.8,300.3c0.2-0.6,0.9-0.8,1.1-0.9c0.5,0,1,0.1,1.4,0.4c0.3,0.4,0.5,0.9,0.5,1.4c0,0.5-0.2,0.9-0.6,1.2
		c-0.3,0.2-0.7,0.4-1.1,0.4c-0.1,0-0.3,0-0.4-0.1c-0.9-0.3-1.4-1.3-1.1-2.2C216.7,300.4,216.8,300.3,216.8,300.3z"/>
	<path class="st5" d="M223,308c0,0-0.5-2.8-0.1-3.9c0.5-1.5-0.2-2-0.8-1.2c-0.5,0.9-0.5,1.9-0.1,2.8c0.2,0.7,0.5,1.5,0.8,2.1
		C223.1,308.2,223,308,223,308z"/>
	<path class="st5" d="M222.8,308.3c-1.3,0.4-2.7,0.9-3.9,1.6c-1.7,1.1-3.3-0.5-2-1.5s2.3-0.5,3.4-0.5c0.9-0.1,1.7,0,2.5,0.2
		C223.5,308.4,222.8,308.3,222.8,308.3z"/>
	<path class="st5" d="M223.1,307.9c0.4-1.5,1.1-3,2-4.3c1.1-1.2-0.1-2.5-1.1-1.4s-0.7,2.1-0.8,3.2s-0.1,1.4-0.3,2.4
		C222.9,308.5,223.1,307.9,223.1,307.9z"/>
	<path class="st5" d="M223.1,307.9c0.4-1.5,1.1-3,2-4.3c1.1-1.2-0.1-2.5-1.1-1.4s-0.7,2.1-0.8,3.2s-0.1,1.4-0.3,2.4
		C222.9,308.5,223.1,307.9,223.1,307.9z"/>
	<path class="st5" d="M226.3,311c-1.6,0.2-3,0.9-4.2,1.9c-1.6,1.3-2-0.3-0.9-1.5s1.9-0.9,2.8-0.9c0.8,0,1.7,0.1,2.5,0.3
		C227.2,311,226.3,311,226.3,311z"/>
	<path class="st5" d="M227.2,310.7c0,0-1.1-2-0.2-3.6c1.4-2.5-1.1-1.8-1.4-0.6c-0.2,0.9,0,1.8,0.5,2.5c0.3,0.7,0.6,1.4,1.1,2
		C227.5,311.4,227.2,310.7,227.2,310.7z"/>
	<path class="st5" d="M229.4,311.9c-0.3-0.8-0.3-1.6-0.2-2.4c0.4-1.1-0.2-1.2-0.7-0.5c-0.4,0.5-0.4,1.2,0,1.8
		c0.2,0.4,0.4,0.7,0.7,1.1C229.4,311.9,229.4,311.9,229.4,311.9z"/>
	<path class="st5" d="M228.9,311.9c-0.8,0.2-1.5,0.6-2.1,1.1c-0.8,0.9-1.1,0.4-0.8-0.3c0.2-0.6,0.9-1,1.5-1c0.4-0.1,0.9-0.1,1.3,0
		C229,311.9,228.9,311.9,228.9,311.9z"/>
	<path class="st5" d="M234,311.1c-0.1-0.1-0.2-0.2-0.4-0.1c0,0,0,0,0,0l0,0c-0.3,0.2-0.6,0.3-0.9,0.4c-0.3,0.1-0.7,0.2-1,0.3
		c-0.7,0.1-1.3,0.1-2,0c-0.3-0.1-0.7-0.1-1-0.3c-0.3-0.1-0.6-0.3-0.9-0.5c-0.6-0.3-1.3-0.6-1.9-0.9c-0.6-0.3-1.2-0.7-1.8-1.1
		c-0.3-0.2-0.5-0.5-0.8-0.7l-0.3-0.4l-0.4-0.4c-0.5-0.5-1-1-1.6-1.4l-0.2-0.1l0,0c-0.6-0.4-1.1-1-1.4-1.7c-0.3-0.6-0.2-1.3,0.2-1.8
		c0.3-0.3-2,0.1-1.7,0.5c0.5,0.6,1.1,1.3,1.3,1.6c0.2,0.4,0.5,0.8,0.8,1.1c-0.2-0.1-0.4-0.1-0.5-0.1h-0.3c-0.3,0-1-0.4-1.7-0.5
		c-0.4-0.1-0.1,1.8,0.1,1.5s0.6-0.6,1.4-0.7c0.5,0,1,0.1,1.5,0.4l0.3,0.2c0.6,0.4,1.1,0.9,1.6,1.4l0.3,0.4l0.3,0.4
		c0.2,0.3,0.5,0.5,0.8,0.8c0.6,0.5,1.2,0.9,1.8,1.2c0.6,0.4,1.3,0.6,1.9,1c0.3,0.2,0.7,0.3,1,0.5c0.3,0.1,0.7,0.2,1.1,0.3
		c0.7,0.1,1.5,0.1,2.2,0c0.4-0.1,0.7-0.1,1.1-0.3c0.3-0.1,0.7-0.3,1-0.4l0,0c0.1-0.1,0.2-0.2,0.2-0.3C234,311.2,234,311.2,234,311.1
		z"/>
	<path class="st5" d="M234,311.1c-0.1-0.1-0.2-0.2-0.4-0.1c0,0,0,0,0,0l0,0c-0.3,0.2-0.6,0.3-0.9,0.4c-0.3,0.1-0.7,0.2-1,0.3
		c-0.7,0.1-1.3,0.1-2,0c-0.3-0.1-0.7-0.1-1-0.3c-0.3-0.1-0.6-0.3-0.9-0.5c-0.6-0.3-1.3-0.6-1.9-0.9c-0.6-0.3-1.2-0.7-1.8-1.1
		c-0.3-0.2-0.5-0.5-0.8-0.7l-0.3-0.4l-0.4-0.4c-0.5-0.5-1-1-1.6-1.4l-0.2-0.1l0,0c-0.6-0.4-1.1-1-1.4-1.7c-0.3-0.6-0.2-1.3,0.2-1.8
		c0.3-0.3-2,0.1-1.7,0.5c0.5,0.6,1.1,1.3,1.3,1.6c0.2,0.4,0.5,0.8,0.8,1.1c-0.2-0.1-0.4-0.1-0.5-0.1h-0.3c-0.3,0-1-0.4-1.7-0.5
		c-0.4-0.1-0.1,1.8,0.1,1.5s0.6-0.6,1.4-0.7c0.5,0,1,0.1,1.5,0.4l0.3,0.2c0.6,0.4,1.1,0.9,1.6,1.4l0.3,0.4l0.3,0.4
		c0.2,0.3,0.5,0.5,0.8,0.8c0.6,0.5,1.2,0.9,1.8,1.2c0.6,0.4,1.3,0.6,1.9,1c0.3,0.2,0.7,0.3,1,0.5c0.3,0.1,0.7,0.2,1.1,0.3
		c0.7,0.1,1.5,0.1,2.2,0c0.4-0.1,0.7-0.1,1.1-0.3c0.3-0.1,0.7-0.3,1-0.4l0,0c0.1-0.1,0.2-0.2,0.2-0.3C234,311.2,234,311.2,234,311.1
		z"/>
	<path class="st5" d="M239.5,308.4h0.1v-3c-0.1-0.4-0.6-0.7-1.1-0.5c-0.4,0.1-0.6,0.5-0.6,0.9L239.5,308.4z"/>
	<path class="st5" d="M239.1,308.7L239.1,308.7l-1.4-2.7c-0.4-0.3-0.9-0.2-1.2,0.1c-0.2,0.3-0.2,0.7,0,1L239.1,308.7z"/>
	<path class="st5" d="M235.9,309.2h3c0,0,0-0.1,0-0.1l-2.6-1.5c-0.4-0.1-0.9,0.2-1,0.6C235.2,308.6,235.5,309.1,235.9,309.2z"/>
	<path class="st5" d="M240.2,308.4l1.5-2.6c0.1-0.5-0.2-0.9-0.6-1c-0.4-0.1-0.8,0.1-1,0.5v3L240.2,308.4z"/>
	<path class="st5" d="M240.6,308.7l2.6-1.5c0.3-0.3,0.3-0.8-0.1-1.1l0,0c-0.3-0.3-0.8-0.3-1.1-0.1L240.6,308.7L240.6,308.7z"/>
	<path class="st5" d="M240.8,309.2h3c0.4-0.2,0.6-0.6,0.5-1l0,0c-0.1-0.4-0.5-0.7-0.9-0.6l-2.6,1.5
		C240.8,309.1,240.8,309.2,240.8,309.2z"/>
	<path class="st5" d="M243.8,309.5h-3c0,0,0,0.1,0,0.1l2.6,1.5c0.4,0.1,0.8-0.2,0.9-0.6l0,0C244.4,310.1,244.2,309.7,243.8,309.5z"
		/>
	<path class="st5" d="M238.9,309.5h-3c-0.4,0.2-0.6,0.6-0.5,1c0.1,0.4,0.5,0.7,0.9,0.6l2.6-1.5C238.9,309.6,238.9,309.6,238.9,309.5
		z"/>
	<path class="st5" d="M240.6,310L240.6,310l1.4,2.7c0.4,0.3,0.9,0.2,1.2-0.1c0.2-0.3,0.2-0.7,0-1L240.6,310z"/>
	<path class="st5" d="M240.2,310.3H240v3c0.2,0.4,0.6,0.6,1,0.5l0,0c0.4-0.1,0.7-0.5,0.6-0.9L240.2,310.3z"/>
	<path class="st5" d="M239.5,310.3l-1.5,2.6c-0.1,0.4,0.2,0.8,0.6,0.9c0.4,0.1,0.8-0.1,1-0.5v-3L239.5,310.3z"/>
	<path class="st5" d="M239.1,310l-2.6,1.5c-0.3,0.3-0.3,0.9,0.1,1.2c0.3,0.3,0.8,0.3,1.1,0L239.1,310L239.1,310z"/>
	<path class="st5" d="M232.8,308.6c0,0,0.1,0,0.1,0c0-0.3,0-0.7,0.1-1c0-0.9,0.4-1.7,1.1-2.3c0.3-0.2,0.5-1,0.2-1.1
		c-0.5-0.1-1.1,0.1-1.4,0.6c-0.4,0.7-0.5,1.6-0.3,2.4C232.7,307.7,232.8,308.2,232.8,308.6z"/>
	<path class="st5" d="M233.5,310.4c-0.1,0.1-0.1,0.1-0.2,0.2c-0.2-0.5-1.2-3.2-1.4-3.5c-0.9-1.3-1.7-2.1-3-2.1c-0.6,0-1.3-0.9-1-1.3
		c0.6-0.4,1.3-0.6,2-0.3c1.2,0.3,2.1,2.6,2.5,3.6C232.5,307.3,233.4,310,233.5,310.4z"/>
	<path class="st5" d="M216.2,312c0,0,0.1-0.1,0.1-0.1c-0.3-0.2-0.6-0.5-0.9-0.8c-0.8-0.6-1.3-1.6-1.4-2.6c0-0.5-0.6-1.1-0.9-1
		c-0.4,0.5-0.6,1.1-0.5,1.7c0.4,0.9,1.1,1.6,2,1.9C215.3,311.4,215.8,311.7,216.2,312z"/>
	<path class="st5" d="M218.4,312.5c0,0.1,0,0.2,0.1,0.3c-0.6-0.1-3.7-1.1-4.2-1.1c-1.8-0.1-3,0.1-4,1.3c-0.4,0.6-1.8,0.6-1.8,0
		c0-0.8,0.4-1.6,1.1-2c1.1-0.9,3.8-0.1,5,0.2C214.8,311.4,217.8,312.4,218.4,312.5z"/>
	<path class="st11" d="M264.9,304.9c0.5,0.4,0.4,1,0.4,1.2s-0.7,1-0.8,1c-0.4,0.1-0.9,0.1-1.3,0c-0.4-0.1-0.7-0.5-0.8-0.9
		c-0.1-0.3-0.1-0.7,0-1c0-0.1,0.1-0.2,0.2-0.3C263.2,304.3,264.2,304.2,264.9,304.9C264.9,304.9,264.9,304.9,264.9,304.9z"/>
	<path class="st11" d="M263,300.3c-0.2-0.6-0.9-0.8-1.2-0.9c-0.9-0.2-1.7,0.4-1.9,1.3c0,0.2,0,0.3,0,0.5c0,0.5,0.2,0.9,0.6,1.2
		c0.3,0.2,0.7,0.4,1.1,0.4c0.1,0,0.3,0,0.4-0.1c0.9-0.3,1.4-1.3,1.1-2.2C263,300.4,263,300.3,263,300.3z"/>
	<path class="st5" d="M256.7,308c0,0,0.5-2.8,0.1-3.9c-0.5-1.5,0.2-2,0.8-1.2c0.5,0.9,0.5,1.9,0.1,2.8c-0.2,0.7-0.5,1.5-0.8,2.1
		C256.7,308.2,256.7,308,256.7,308z"/>
	<path class="st5" d="M256.9,308.3c1.3,0.4,2.7,0.9,3.9,1.6c1.7,1.1,3.2-0.5,2-1.5s-2.3-0.5-3.4-0.5c-0.9-0.1-1.7,0-2.5,0.2
		C256.2,308.4,256.9,308.3,256.9,308.3z"/>
	<path class="st5" d="M256.6,307.9c-0.4-1.5-1.1-3-2-4.3c-1.1-1.2,0.1-2.5,1.1-1.4c1,1.1,0.7,2.1,0.8,3.2s0.1,1.4,0.3,2.4
		C256.8,308.5,256.6,307.9,256.6,307.9z"/>
	<path class="st5" d="M256.6,307.9c-0.4-1.5-1.1-3-2-4.3c-1.1-1.2,0.1-2.5,1.1-1.4c1,1.1,0.7,2.1,0.8,3.2s0.1,1.4,0.3,2.4
		C256.8,308.5,256.6,307.9,256.6,307.9z"/>
	<path class="st5" d="M253.4,311c1.6,0.2,3,0.9,4.2,1.9c1.6,1.3,2-0.3,0.9-1.5c-1.1-1.2-1.9-0.9-2.8-0.9c-0.8,0-1.7,0.1-2.5,0.3
		C252.5,311,253.4,311,253.4,311z"/>
	<path class="st5" d="M252.5,310.7c0,0,1.1-2,0.2-3.6c-1.4-2.5,1.1-1.8,1.4-0.6c0.2,0.9,0,1.8-0.5,2.5c-0.3,0.7-0.6,1.4-1.1,2
		C252.2,311.4,252.5,310.7,252.5,310.7z"/>
	<path class="st5" d="M250.3,311.9c0.3-0.8,0.3-1.6,0.2-2.4c-0.4-1.1,0.2-1.2,0.7-0.5c0.4,0.5,0.4,1.2,0,1.8
		c-0.2,0.4-0.4,0.7-0.7,1.1C250.3,311.9,250.3,311.9,250.3,311.9z"/>
	<path class="st5" d="M250.8,311.9c0.8,0.2,1.5,0.6,2.1,1.1c0.8,0.9,1.1,0.4,0.8-0.3c-0.2-0.6-0.9-1-1.5-1c-0.4-0.1-0.8-0.1-1.3,0
		C250.7,311.9,250.8,311.9,250.8,311.9z"/>
	<path class="st5" d="M245.8,311.1c0.1-0.1,0.2-0.2,0.4-0.1c0,0,0,0,0,0l0,0c0.3,0.2,0.6,0.3,0.9,0.4c0.3,0.1,0.7,0.2,1,0.3
		c0.7,0.1,1.3,0.1,2,0c0.3-0.1,0.7-0.1,1-0.3c0.3-0.1,0.6-0.3,0.9-0.5c0.6-0.3,1.3-0.6,1.9-0.9c0.6-0.3,1.2-0.7,1.8-1.1
		c0.3-0.2,0.5-0.5,0.8-0.7l0.4-0.4c0.1-0.1,0.2-0.3,0.4-0.4c0.5-0.5,1-1,1.6-1.4l0.2-0.1l0,0c0.6-0.4,1.1-1,1.4-1.7
		c0.3-0.6,0.2-1.3-0.2-1.8c-0.3-0.3,2,0.1,1.7,0.5c-0.5,0.6-1.1,1.3-1.3,1.6c-0.2,0.4-0.5,0.8-0.8,1.1c0.2-0.1,0.4-0.1,0.5-0.1h0.3
		c0.3,0,1-0.4,1.7-0.5c0.4-0.1,0.1,1.8-0.1,1.5c-0.3-0.5-0.9-0.8-1.4-0.7c-0.5,0-1.1,0.1-1.5,0.4l-0.3,0.2c-0.6,0.4-1.1,0.9-1.6,1.4
		l-0.3,0.4l-0.4,0.4c-0.2,0.3-0.5,0.5-0.8,0.8c-0.6,0.5-1.2,0.9-1.8,1.2c-0.6,0.4-1.3,0.6-1.9,1c-0.3,0.2-0.7,0.3-1,0.5
		c-0.3,0.1-0.7,0.2-1.1,0.3c-0.7,0.1-1.5,0.1-2.2,0c-0.4-0.1-0.7-0.1-1.1-0.3c-0.3-0.1-0.7-0.3-1-0.4l0,0c-0.1,0-0.2-0.2-0.2-0.3
		C245.7,311.2,245.7,311.2,245.8,311.1z"/>
	<path class="st5" d="M245.8,311.1c0.1-0.1,0.2-0.2,0.4-0.1c0,0,0,0,0,0l0,0c0.3,0.2,0.6,0.3,0.9,0.4c0.3,0.1,0.7,0.2,1,0.3
		c0.7,0.1,1.3,0.1,2,0c0.3-0.1,0.7-0.1,1-0.3c0.3-0.1,0.6-0.3,0.9-0.5c0.6-0.3,1.3-0.6,1.9-0.9c0.6-0.3,1.2-0.7,1.8-1.1
		c0.3-0.2,0.5-0.5,0.8-0.7l0.4-0.4c0.1-0.1,0.2-0.3,0.4-0.4c0.5-0.5,1-1,1.6-1.4l0.2-0.1l0,0c0.6-0.4,1.1-1,1.4-1.7
		c0.3-0.6,0.2-1.3-0.2-1.8c-0.3-0.3,2,0.1,1.7,0.5c-0.5,0.6-1.1,1.3-1.3,1.6c-0.2,0.4-0.5,0.8-0.8,1.1c0.2-0.1,0.4-0.1,0.5-0.1h0.3
		c0.3,0,1-0.4,1.7-0.5c0.4-0.1,0.1,1.8-0.1,1.5c-0.3-0.5-0.9-0.8-1.4-0.7c-0.5,0-1.1,0.1-1.5,0.4l-0.3,0.2c-0.6,0.4-1.1,0.9-1.6,1.4
		l-0.3,0.4l-0.4,0.4c-0.2,0.3-0.5,0.5-0.8,0.8c-0.6,0.5-1.2,0.9-1.8,1.2c-0.6,0.4-1.3,0.6-1.9,1c-0.3,0.2-0.7,0.3-1,0.5
		c-0.3,0.1-0.7,0.2-1.1,0.3c-0.7,0.1-1.5,0.1-2.2,0c-0.4-0.1-0.7-0.1-1.1-0.3c-0.3-0.1-0.7-0.3-1-0.4l0,0c-0.1,0-0.2-0.2-0.2-0.3
		C245.7,311.2,245.7,311.2,245.8,311.1z"/>
	<path class="st5" d="M246.9,308.6c-0.1,0-0.1,0-0.1,0c0-0.3,0-0.7-0.1-1c0-0.9-0.4-1.7-1.1-2.3c-0.3-0.2-0.5-1-0.2-1.1
		c0.5-0.1,1.1,0.1,1.4,0.6c0.4,0.7,0.5,1.6,0.3,2.4C247.1,307.7,247,308.2,246.9,308.6z"/>
	<path class="st5" d="M246.2,310.4c0.1,0.1,0.1,0.1,0.2,0.2c0.2-0.5,1.2-3.2,1.5-3.5c0.9-1.3,1.7-2.1,3-2.1c0.6,0,1.3-0.9,1-1.3
		c-0.6-0.4-1.3-0.6-2-0.3c-1.2,0.3-2.1,2.6-2.5,3.6C247.3,307.3,246.4,310,246.2,310.4z"/>
	<path class="st5" d="M263.5,312c0,0-0.1-0.1-0.1-0.1c0.3-0.2,0.6-0.5,0.9-0.8c0.8-0.6,1.3-1.6,1.4-2.6c0-0.5,0.6-1.1,0.9-1
		c0.4,0.5,0.6,1.1,0.5,1.7c-0.4,0.9-1.1,1.6-2,1.9C264.4,311.4,264,311.7,263.5,312z"/>
	<path class="st5" d="M261.4,312.5c0,0.1,0,0.2-0.1,0.3c0.6-0.1,3.7-1.1,4.2-1.1c1.8-0.1,3,0.1,4,1.3c0.4,0.6,1.8,0.6,1.8,0
		c0-0.8-0.4-1.6-1.1-2c-1.1-0.9-3.8-0.1-5,0.2C264.9,311.4,261.9,312.4,261.4,312.5z"/>
	<path class="st10" d="M202.5,155.1l0.5-1.2l-6.7-3.2l-0.5,1.1l-0.4-0.2c0.5-1,0.9-2.1,1.1-3.2l0.3-0.1l1.2,0.6
		c-0.4-1-0.5-2.1-0.1-3.1c0.3-0.8,1-1.5,1.8-1.7c0.6-0.2,1.3,0,2.6,0.6l4.2,2l0.5-1.1l0.4,0.2l-2,4.3l-0.5-0.2l0.4-0.9l-5-2.3
		c-0.8-0.4-1.2-0.5-1.5-0.3c-0.3,0.1-0.5,0.3-0.6,0.6c-0.2,0.5-0.2,1-0.1,1.5c0.1,0.4,0.2,0.6,0.3,0.7l5.5,2.6l0.4-0.9l0.5,0.2
		l-2,4.3L202.5,155.1z"/>
	<path class="st10" d="M199.5,134.3c0.5-0.6,1.3-0.6,1.9-0.1c0.5,0.5,0.6,1.3,0.1,1.8s-1.3,0.6-1.8,0.1
		C199.2,135.7,199.1,134.9,199.5,134.3L199.5,134.3z M208,144.4l0.8-1l-5.8-4.6l-0.7,0.9l-0.4-0.3c0.8-0.9,1.4-1.9,1.8-3l0.3-0.1
		c0.5,0.5,1,0.9,1.6,1.3l4.8,3.8l0.8-0.9l0.4,0.3l-3.1,3.9L208,144.4z"/>
	<path class="st10" d="M212,139.2l1-0.8l-7.3-10.1l-0.9,0.7l-0.3-0.4c1.6-1.3,1.9-1.6,2.4-2.6h0.3c0.4,0.7,1,1.5,1.6,2.3l2.3,3.2
		c0.1-1.1,0.6-2.1,1.4-2.9c0.8-0.6,1.9-0.7,2.9-0.4c0.6,0.3,1.1,0.9,1.5,1.5l2.8,3.9l0.9-0.6l0.3,0.4l-3.7,2.7l-0.3-0.4l0.8-0.6
		l-3.3-4.6c-0.5-0.7-0.7-0.8-1.1-0.9c-0.3,0-0.6,0.1-0.8,0.2c-0.4,0.4-0.8,0.8-0.9,1.4c-0.2,0.3-0.2,0.7,0,1.1l3.4,4.7l0.9-0.6
		l0.3,0.4l-3.8,2.8L212,139.2z"/>
	<path class="st10" d="M226.6,131.9c-2.3,0.8-4.8-0.3-5.6-2.6c0-0.1-0.1-0.2-0.1-0.3c-0.8-2.3,0.5-4.8,2.8-5.6
		c0.1,0,0.2-0.1,0.3-0.1c2.4-0.7,4.9,0.6,5.6,3C230.4,128.7,229.1,131.2,226.6,131.9C226.7,131.9,226.7,131.9,226.6,131.9z
		 M226.5,131.5c0.6-0.2,1-0.7,1.1-1.3c0.1-1.1-0.1-2.1-0.4-3.1c-0.3-1-0.8-2-1.4-2.8c-0.4-0.5-1-0.7-1.6-0.5
		c-1.2,0.4-1.5,1.9-0.7,4.4C224.2,130.7,225.3,131.8,226.5,131.5z"/>
	<path class="st10" d="M232.7,129.5h1.3l-0.1-7.4h-1.1v-0.5c1.1,0,2.2-0.1,3.3-0.4l0.2,0.2v1.3c0.7-0.8,1.7-1.4,2.7-1.5
		c0.9-0.1,1.8,0.2,2.4,0.9c0.4,0.5,0.6,1.1,0.6,2.6l0.1,4.6h1.2v0.5l-4.8,0.1v-0.5h1l-0.1-5.5c0-0.9-0.1-1.3-0.4-1.5
		c-0.2-0.2-0.5-0.3-0.8-0.3c-0.5,0-1,0.2-1.4,0.6c-0.3,0.2-0.5,0.4-0.5,0.6l0.1,6.1h1v0.5l-4.7,0.1L232.7,129.5z"/>
	<path class="st10" d="M245.6,128.9c0.2-1,0.7-1.4,2-1.7c-0.8-0.6-1.2-1.6-1-2.5c0.3-1.7,2.2-2.7,4.3-2.2c0.9,0.2,1.8,0.6,2.4,1.3
		c0.2,0.2,0.4,0.5,0.5,0.7c0.5-1.2,1-1.6,1.8-1.4c0.5,0.1,0.9,0.6,0.9,1.1c0,0,0,0.1,0,0.1c0,0.4-0.4,0.8-0.9,0.7c0,0-0.1,0-0.1,0
		c-0.3,0-0.5-0.3-0.5-0.6c0,0,0-0.1,0-0.1c0-0.1,0.1-0.2,0.1-0.3c0-0.1,0-0.1-0.1-0.1c-0.3-0.1-0.6,0.4-0.8,1.1c0,0.2,0,0.4,0,0.6
		c0,0.2,0,0.5-0.1,0.7c-0.2,0.9-0.9,1.7-1.9,2c-0.8,0.2-1.6,0.2-2.4,0.1c-0.4-0.1-0.8-0.3-1.2-0.5c-0.1-0.1-0.2-0.1-0.3-0.1
		c-0.5,0-0.9,0.3-1,0.7c-0.1,0.5,0.4,0.9,1.4,1.1c0.6,0.1,1.1,0.2,2.1,0.4c0.4,0.1,0.9,0.1,1.1,0.2c1,0.1,1.8,0.7,2.2,1.6
		c0.2,0.4,0.2,0.9,0.1,1.4c-0.2,1.2-1,2.2-2,2.8c-1.2,0.6-2.7,0.7-4,0.4c-2.5-0.5-4.1-1.9-3.8-3.4c0.2-0.9,0.9-1.3,2.8-1.6
		C245.9,130.6,245.4,129.9,245.6,128.9z M246.3,132.6c-0.2,1.3,0.9,2.5,2.7,2.9c2,0.4,3.9-0.5,4.1-1.9c0.1-0.5-0.1-0.9-0.4-1.2
		c-0.5-0.4-0.6-0.4-2.9-0.8c-0.7-0.1-1.1-0.2-1.6-0.3c-0.1,0-0.4-0.1-0.7-0.2C246.9,131.4,246.4,131.9,246.3,132.6L246.3,132.6z
		 M249.8,127.7c1,0.2,1.7-0.5,2-2.1s-0.1-2.6-1-2.8s-1.8,0.7-2.1,2.2S248.8,127.5,249.8,127.7L249.8,127.7z"/>
	<path class="st10" d="M263.2,128.6c0.4-0.6,0.2-1.3-0.3-1.7c-0.1,0-0.1-0.1-0.2-0.1c-0.6-0.3-1.3-0.3-1.5,0c-0.1,0.1-0.1,0.2,0,0.4
		c0.1,0.2,0.1,0.4,0,0.6c-0.2,0.4-0.7,0.6-1.2,0.4c0,0,0,0-0.1,0c-0.5-0.3-0.7-0.9-0.4-1.3c0,0,0,0,0,0c0.5-1.1,2.2-1.1,4-0.2
		c0.8,0.3,1.4,1,1.7,1.8c0.1,0.7-0.1,1.4-0.5,2l-2,4c-0.2,0.3-0.1,0.7,0.2,0.8c0.2,0.1,0.4,0.1,1.1-0.3l0.3,0.4
		c-0.7,0.6-1.8,0.8-2.6,0.3c-0.5-0.2-0.8-0.6-1-1.1c0-0.3,0-0.5,0-0.8c-0.9,0.5-2,0.5-2.9,0c-1.1-0.4-1.6-1.6-1.2-2.7
		c0,0,0-0.1,0.1-0.1c0.5-1.1,1.9-1.5,3.5-1.1c0.7,0.2,1.3,0.4,2,0.7L263.2,128.6z M262,130.8c-0.5-0.2-1-0.3-1.5-0.4
		c-0.8-0.1-1.6,0.3-1.9,1c-0.4,0.6-0.3,1.4,0.3,1.8c0,0,0.1,0.1,0.1,0.1c0.6,0.3,1.3,0.2,1.8-0.2L262,130.8z"/>
	<path class="st10" d="M265.3,136.2l0.8,1l5.8-4.7l-0.8-0.9l0.4-0.3c0.7,0.9,1.5,1.7,2.4,2.4v0.3l-1.2,0.9c0.3,0,0.6,0.1,1,0.1
		c0.8,0.1,1.6,0.5,2.1,1.1c0.5,0.6,0.7,1.5,0.4,2.3c-0.1,0.3-0.1,0.5-0.2,0.7c0.5,0,0.6,0,0.8,0c1,0.1,2,0.6,2.6,1.4
		c0.6,0.7,0.8,1.7,0.4,2.6c-0.2,0.6-0.6,1.1-1.2,1.4c-0.7,0.6-1.4,1-2.1,1.7l-1.8,1.5l0.7,0.9l-0.4,0.3l-3-3.7l0.4-0.3l0.7,0.9
		l4.2-3.4c0.6-0.5,0.9-0.8,0.9-1.2c0-0.3-0.1-0.7-0.3-0.9c-0.4-0.4-0.9-0.7-1.5-0.8c-0.3-0.1-0.7,0-1,0.2l-4.4,3.6l0.7,0.9l-0.4,0.3
		l-2.9-3.6l0.4-0.3l0.7,0.9l4.4-3.6c0.9-0.7,1-1.3,0.6-1.9c-0.3-0.3-0.7-0.5-1.2-0.6c-0.6-0.1-1.1,0.1-1.6,0.3l-4.1,3.3l0.7,0.9
		l-0.4,0.3l-3-3.8L265.3,136.2z"/>
	<path class="st10" d="M275.2,150.4l0.5,1.2l7-2.5l-0.4-1.1l0.5-0.2c0.4,1.1,0.9,2.1,1.6,3.1l-0.1,0.3c-0.7,0.2-1.3,0.4-2,0.6
		l-5.7,2.1l0.4,1.1l-0.5,0.2l-1.7-4.6L275.2,150.4z M288.3,148.4c0.2,0.7-0.1,1.4-0.8,1.7c-0.7,0.2-1.4-0.2-1.6-0.8
		c-0.2-0.7,0.2-1.4,0.8-1.6C287.3,147.4,288,147.8,288.3,148.4z"/>
	<path class="st10" d="M160.2,295.2c0.4-0.5,0.6-1,0.6-1.6c0-0.6-0.2-1.3-0.5-1.8l0.2-0.2c0.4,0.4,0.7,0.9,1,1.2l0.6,0.6l1.1-1
		l0.3,0.3l-1.1,1l2.4,2.6c0.3,0.4,0.7,0.8,1.2,1.1c0.2,0.1,0.5,0.1,0.7-0.1c0.3-0.3,0.5-0.7,0.4-1.1h0.4c0,0.7-0.3,1.4-0.9,1.9
		c-0.5,0.6-1.3,0.8-2,0.5c-0.4-0.1-0.7-0.4-1-0.7c-0.2-0.2-0.5-0.5-0.7-0.8l-1.9-2.2l-0.6,0.5L160.2,295.2z"/>
	<path class="st10" d="M168.4,295.6l0.7-0.6c-0.2-0.3-0.5-0.6-0.7-0.9l-1.9-2.3c-0.3-0.4-0.6-0.7-0.9-1.1l-0.7,0.6l-0.2-0.3
		c0.7-0.5,1.2-1.1,1.7-1.8h0.2l0.8,1c0-0.3-0.1-0.4-0.1-0.5c-0.1-0.6,0.1-1.2,0.6-1.6c0.5-0.4,1.2-0.4,1.6,0.1c0,0,0,0,0.1,0.1
		c0.3,0.3,0.3,0.7,0,1c0,0-0.1,0.1-0.1,0.1c-0.3,0.3-0.7,0.2-1-0.1c0,0-0.1-0.1-0.1-0.1l-0.1-0.2c-0.1-0.1-0.2-0.1-0.4,0
		s-0.4,0.8-0.1,1.5c0.2,0.6,0.6,1.1,1,1.5l1.6,1.9l0.8-0.6l0.2,0.3l-3,2.4L168.4,295.6z"/>
	<path class="st10" d="M173.7,285.5c-0.2-0.4-0.8-0.6-1.2-0.4c-0.1,0-0.1,0.1-0.2,0.1c-0.4,0.3-0.7,0.8-0.5,1s0.1,0.1,0.3,0.1
		c0.2,0,0.3,0.1,0.4,0.2c0.2,0.3,0.2,0.7,0,0.9c0,0-0.1,0-0.1,0.1c-0.3,0.2-0.8,0.2-1-0.2c0,0,0,0,0,0c-0.5-0.7,0-1.9,1.2-2.8
		c0.5-0.4,1.2-0.6,1.8-0.5c0.5,0.2,0.9,0.5,1.2,1l2,2.7c0.1,0.2,0.4,0.3,0.6,0.2c0.1-0.1,0.2-0.2,0.1-0.8l0.3,0
		c0.2,0.7-0.1,1.4-0.6,1.9c-0.3,0.2-0.7,0.4-1.1,0.3c-0.2-0.1-0.4-0.2-0.5-0.3c0,0.8-0.4,1.5-1,1.9c-0.6,0.6-1.6,0.5-2.2-0.1
		c0,0,0,0-0.1-0.1c-0.5-0.7-0.4-1.8,0.4-2.8c0.3-0.4,0.7-0.8,1.1-1.1L173.7,285.5z M174.8,287c-0.3,0.3-0.5,0.5-0.7,0.9
		c-0.4,0.5-0.4,1.1,0,1.6c0.3,0.5,0.9,0.6,1.4,0.3c0,0,0,0,0,0c0.4-0.3,0.6-0.8,0.5-1.2L174.8,287z"/>
	<path class="st10" d="M177.9,276.9l-0.2-0.3c1.3-0.9,1.5-1.1,1.9-1.9h0.3c0.4,0.6,0.8,1.3,1.3,2l4.2,6.4l0.7-0.5l0.2,0.3l-0.2,0.1
		c-0.6,0.4-1.2,0.9-1.7,1.4h-0.2l-0.6-0.8c0,0.8-0.4,1.6-1.1,2c-1.4,0.8-3.2,0.4-4-1c0,0-0.1-0.1-0.1-0.1c-1.1-1.7-0.9-3.6,0.4-4.5
		c0.4-0.3,0.9-0.4,1.4-0.4c0.3,0.1,0.7,0.2,0.9,0.3l-2.5-3.8L177.9,276.9z M181.9,281.2c-0.2-0.4-0.6-0.7-1-0.9
		c-0.4-0.1-0.8-0.1-1.1,0.1c-0.3,0.2-0.6,0.6-0.5,1c0.1,0.7,0.3,1.4,0.7,2c0.9,1.4,1.9,1.9,2.7,1.4c0.5-0.3,0.7-0.9,0.6-1.5
		L181.9,281.2z"/>
	<path class="st10" d="M183.9,272.8c0.5-0.3,1.1-0.1,1.4,0.4c0.3,0.5,0.1,1-0.3,1.3c0,0,0,0,0,0c-0.5,0.2-1.1-0.1-1.2-0.7
		C183.6,273.4,183.7,273,183.9,272.8L183.9,272.8z M187.2,282.1l0.8-0.5l-2.8-4.8l-0.8,0.5l-0.2-0.3c0.8-0.4,1.5-0.9,2.1-1.6h0.2
		c0.2,0.5,0.4,0.9,0.7,1.4l2.3,4l0.8-0.4l0.2,0.3l-3.2,1.9L187.2,282.1z"/>
	<path class="st10" d="M188.5,274.6c0.5-0.4,0.8-0.9,1-1.4c0.2-0.6,0.2-1.3-0.1-1.9l0.2-0.1c0.2,0.5,0.5,1,0.7,1.4l0.4,0.8l1.3-0.7
		l0.2,0.4l-1.3,0.7l1.6,3.1c0.2,0.5,0.5,1,0.9,1.4c0.2,0.2,0.5,0.2,0.7,0.1c0.4-0.2,0.6-0.6,0.7-1l0.3,0.1c-0.2,0.7-0.6,1.3-1.3,1.6
		c-0.6,0.4-1.4,0.4-2,0c-0.3-0.2-0.6-0.6-0.7-0.9c-0.1-0.2-0.3-0.6-0.5-1l-1.3-2.6l-0.7,0.4L188.5,274.6z"/>
	<path class="st10" d="M193.8,267.6c0.5-0.2,1.1,0,1.3,0.5c0.2,0.5,0,1.1-0.5,1.3c-0.5,0.2-1.1,0-1.3-0.5
		C193.1,268.4,193.3,267.8,193.8,267.6C193.8,267.6,193.8,267.6,193.8,267.6z M196.2,277.1l0.9-0.4l-2.4-5l-0.8,0.4l-0.2-0.3
		c0.8-0.4,1.5-0.8,2.2-1.4h0.2c0.2,0.5,0.4,0.9,0.6,1.4l2,4.1l0.8-0.4l0.2,0.3l-3.3,1.6L196.2,277.1z"/>
	<path class="st10" d="M204.2,274.2c-1.6,0.8-3.6,0.1-4.3-1.5c0-0.1-0.1-0.2-0.1-0.3c-0.7-1.7,0-3.6,1.7-4.4c0.1,0,0.2-0.1,0.2-0.1
		c1.7-0.7,3.7,0,4.4,1.8c0.7,1.7,0,3.7-1.8,4.4C204.3,274.2,204.3,274.2,204.2,274.2z M204.1,273.9c0.4-0.2,0.7-0.6,0.7-1
		c-0.1-1.6-0.7-3.1-1.8-4.3c-0.3-0.3-0.8-0.4-1.2-0.2c-0.9,0.4-1,1.5-0.2,3.4S203.2,274.2,204.1,273.9L204.1,273.9z"/>
	<path class="st10" d="M208.4,271.8l0.9-0.3l-1.7-5.3l-0.8,0.3l-0.1-0.4c0.8-0.2,1.6-0.6,2.3-1l0.2,0.1l0.3,0.9
		c0.3-0.7,0.9-1.3,1.6-1.6c0.6-0.3,1.3-0.2,1.9,0.1c0.4,0.2,0.7,0.7,1,1.7l1.1,3.3l0.9-0.3l0.1,0.4l-3.4,1.1l-0.1-0.4l0.7-0.2
		l-1.3-3.9c-0.2-0.6-0.4-0.9-0.6-1c-0.2-0.1-0.4-0.1-0.6,0c-0.4,0.1-0.7,0.4-0.9,0.7c-0.2,0.2-0.3,0.4-0.2,0.5l1.4,4.4l0.7-0.2
		l0.1,0.4l-3.4,1L208.4,271.8z"/>
	<path class="st10" d="M219.3,263.7c-0.1-0.5-0.5-0.9-1-0.8c-0.1,0-0.1,0-0.2,0c-0.5,0.1-0.9,0.4-0.9,0.7c0,0.1,0.1,0.1,0.2,0.3
		s0.3,0.2,0.3,0.4c0.1,0.3-0.1,0.7-0.4,0.8c0,0,0,0,0,0c-0.4,0.1-0.8-0.2-0.9-0.6c0,0,0,0,0,0c-0.2-0.9,0.7-1.7,2.2-2.1
		c0.6-0.2,1.3-0.1,1.9,0.2c0.4,0.4,0.6,0.8,0.7,1.4l0.8,3.3c0.1,0.2,0.3,0.5,0.5,0.4s0.3-0.1,0.5-0.7l0.3,0.1
		c-0.3,0.9-0.6,1.3-1.3,1.5c-0.6,0.2-1.2,0-1.5-0.6c0,0,0,0,0,0c-0.3,0.7-0.9,1.2-1.6,1.4c-0.8,0.3-1.7-0.2-2-1c0,0,0-0.1,0-0.1
		c-0.2-0.9,0.3-1.8,1.5-2.4c0.5-0.2,1-0.4,1.5-0.6L219.3,263.7z M219.7,265.6c-0.4,0.1-0.7,0.3-1,0.5c-0.5,0.3-0.8,0.9-0.6,1.5
		c0.1,0.5,0.6,0.9,1.1,0.8c0,0,0,0,0,0c0.5-0.1,0.8-0.5,0.9-1L219.7,265.6z"/>
	<path class="st10" d="M224.1,267.5l0.9-0.2c-0.1-0.6-0.2-1.3-0.3-2l-1.2-7.2l-0.9,0.2l-0.1-0.4c0.9-0.1,1.8-0.4,2.5-0.9l0.2,0.1
		c0.1,0.6,0.2,1.3,0.3,2l1.3,7.9l0.9-0.1l0.1,0.4l-3.7,0.6L224.1,267.5z"/>
	<path class="st10" d="M234.8,260.6v-0.4c0.9,0,1.8-0.2,2.7-0.5l0.2,0.1c0,0.6,0,1.5,0.1,2.2l0.1,1.4c0.2,1.6,0.1,3.2-0.1,4.8
		c-0.2,1.1-1.1,1.9-2.2,2c-0.9,0-1.5-0.3-1.5-1c0-0.4,0.2-0.7,0.6-0.8c0,0,0,0,0,0c0.4,0,0.7,0.2,0.7,0.6c0,0,0,0,0,0
		c0,0.1,0,0.2-0.1,0.3c0,0.1,0,0.1,0,0.2c0,0.2,0.2,0.3,0.4,0.3c0.5,0,0.7-0.7,0.6-2.4c-0.1-1.3-0.2-2.8-0.2-4.6l-0.1-2.6
		L234.8,260.6z M236.5,256.3c0.5,0,1,0.4,1,1c0,0.5-0.3,1-0.8,1c0,0-0.1,0-0.1,0c-0.5-0.1-0.9-0.7-0.7-1.2
		C235.9,256.7,236.2,256.5,236.5,256.3L236.5,256.3z"/>
	<path class="st10" d="M243.5,261.3c0.1-0.5-0.2-1-0.7-1.1c-0.1,0-0.2,0-0.3,0c-0.5,0-1,0.2-1,0.4s0,0.2,0.1,0.3
		c0.1,0.1,0.2,0.3,0.2,0.5c0,0.4-0.3,0.7-0.6,0.7c0,0,0,0-0.1,0c-0.4,0-0.7-0.4-0.7-0.8c0,0,0,0,0,0c0-0.9,1.1-1.5,2.6-1.5
		c0.7-0.1,1.3,0.2,1.7,0.7c0.3,0.4,0.4,1,0.3,1.5l-0.1,3.3c0,0.2,0.1,0.5,0.4,0.5c0,0,0,0,0,0c0.2,0,0.3-0.1,0.6-0.6l0.3,0.2
		c-0.3,0.7-0.9,1.1-1.7,1.1c-0.4,0-0.7-0.2-1-0.4c-0.1-0.2-0.2-0.3-0.2-0.5c-0.5,0.6-1.2,0.9-1.9,0.9c-0.9,0.1-1.6-0.6-1.7-1.5
		c0,0,0-0.1,0-0.1c0-0.9,0.8-1.6,2-1.9c0.5-0.1,1.1-0.2,1.6-0.2L243.5,261.3z M243.4,263.2c-0.4,0-0.7,0.1-1.1,0.2
		c-0.6,0.2-1,0.7-1,1.3c-0.1,0.5,0.4,1,0.9,1.1c0,0,0,0,0,0c0.5,0,0.9-0.3,1.1-0.7L243.4,263.2z"/>
	<path class="st10" d="M246.7,269.9l0.9,0.1c0.1-0.6,0.1-1,0.2-1.6l0.7-6.7c0-0.3,0.1-0.7,0.1-1l-0.9-0.1v-0.4
		c0.9,0.1,1.7,0.1,2.6,0l0.2,0.2l-0.1,1c0.3-0.3,0.4-0.3,0.5-0.4c0.5-0.3,1.1-0.5,1.7-0.4c1.6,0.2,2.7,1.7,2.5,3.6s-1.6,3.3-3.3,3.1
		c-0.7,0-1.4-0.4-1.8-1l-0.4,4l1,0.1v0.4l-3.8-0.4L246.7,269.9z M250.1,265c-0.1,0.4,0,0.9,0.4,1.1c0.2,0.2,0.5,0.3,0.8,0.4
		c1,0.1,1.6-0.8,1.9-2.7c0.2-1.6-0.2-2.5-1.2-2.6c-0.6,0-1.2,0.3-1.6,0.8L250.1,265z"/>
	<path class="st10" d="M260.5,263.2c0.2-0.5-0.1-1-0.6-1.2c-0.1,0-0.1,0-0.2,0c-0.5-0.1-1,0-1.1,0.3c0,0.1,0,0.1,0.1,0.3
		c0.1,0.1,0.1,0.3,0.1,0.5c0,0.4-0.4,0.6-0.7,0.6c0,0,0,0,0,0c-0.4-0.1-0.7-0.5-0.6-0.9c0,0,0,0,0,0c0.2-0.9,1.4-1.3,2.8-1
		c0.7,0.1,1.3,0.4,1.6,1c0.2,0.5,0.2,1,0.1,1.5l-0.6,3.3c-0.1,0.2,0.1,0.5,0.3,0.6c0,0,0,0,0,0c0.2,0,0.3,0,0.7-0.5l0.3,0.2
		c-0.4,0.6-1.1,0.9-1.8,0.8c-0.4,0-0.8-0.2-1-0.6c-0.1-0.2-0.1-0.4-0.1-0.6c-0.5,0.5-1.3,0.7-2.1,0.6c-0.9-0.1-1.5-0.8-1.4-1.7
		c0,0,0-0.1,0-0.1c0.2-0.9,1-1.5,2.3-1.5c0.5,0,1.1,0,1.6,0L260.5,263.2z M260.1,265.1c-0.4,0-0.8,0-1.1,0.1
		c-0.6,0.1-1.1,0.5-1.2,1.1c-0.1,0.5,0.2,1.1,0.7,1.2c0,0,0,0,0,0c0.5,0.1,1-0.1,1.2-0.5L260.1,265.1z"/>
	<path class="st10" d="M263.5,268.5l0.9,0.2l1.4-5.4l-0.8-0.2l0.1-0.4c0.8,0.2,1.6,0.4,2.5,0.4l0.1,0.2l-0.2,1
		c0.7-0.4,1.5-0.6,2.3-0.5c0.7,0.1,1.2,0.5,1.5,1.1c0.2,0.4,0.2,0.9-0.1,2l-0.9,3.4l0.9,0.2l-0.1,0.4l-3.5-0.9l0.1-0.4l0.8,0.2l1-4
		c0.2-0.6,0.2-0.9,0-1.2c-0.1-0.2-0.3-0.3-0.5-0.4c-0.4-0.1-0.8,0-1.1,0.1c-0.2,0.1-0.5,0.2-0.5,0.3l-1.1,4.4l0.7,0.2l-0.1,0.4
		l-3.4-0.8L263.5,268.5z"/>
	<path class="st10" d="M278.6,271.8c-0.8,0.9-2.2,1.2-3.3,0.7c-1.7-0.5-2.7-2.3-2.2-4c0-0.1,0-0.2,0.1-0.2c0.6-1.8,2.5-2.7,4.3-2.1
		c0,0,0.1,0,0.1,0c0.8,0.3,1.5,0.9,1.9,1.7c0.2,0.5,0.3,1.1,0.2,1.7c0,0.1-0.1,0.2-0.2,0.2c-0.6-0.1-1.1-0.3-1.7-0.5l-2.5-0.8
		l-0.1,0.3c-0.7,2-0.4,3.1,1,3.5c0.9,0.3,1.4,0.1,2.4-0.7L278.6,271.8z M277.8,269c0.5-1.5,0.3-2.2-0.5-2.5s-1.5,0.3-2.1,1.6
		L277.8,269z"/>
	<path class="st10" d="M279.6,273.7c0.2-0.4,0.4-0.8,0.6-1.2c0.1-0.2,0.2-0.5,0.3-0.7l0.3,0.1c-0.2,0.4-0.2,0.9-0.1,1.4
		c0.1,0.6,0.6,1,1.1,1.2c0.6,0.3,1.3,0.2,1.6-0.4c0,0,0,0,0,0c0.2-0.5,0-0.8-0.8-1.4c-0.5-0.3-1-0.8-1.3-1.3c-0.2-0.5-0.2-1.1,0-1.5
		c0.4-1.1,1.7-1.6,2.8-1.2c0,0,0.1,0,0.1,0c0.5,0.2,1,0.6,1.3,1l0.4-0.2l0.1,0.1c-0.2,0.5-0.3,0.7-0.4,1l-0.3,0.8l-0.3-0.1
		c0.1-0.4,0.2-0.8,0.1-1.2c-0.1-0.5-0.5-0.9-1-1.1c-0.5-0.3-1.2-0.1-1.4,0.4c0,0,0,0,0,0c-0.2,0.5,0,0.9,0.9,1.6
		c0.5,0.3,0.9,0.7,1.2,1.2c0.2,0.5,0.2,1,0,1.5c-0.5,1.1-1.8,1.6-2.9,1.1c-0.1,0-0.1-0.1-0.2-0.1c-0.6-0.2-1.1-0.7-1.5-1.2l-0.4,0.2
		L279.6,273.7z"/>
	<path class="st10" d="M291.9,277.6c-1,0.8-2.3,0.9-3.4,0.3c-1.7-0.7-2.5-2.6-1.8-4.3c0-0.1,0.1-0.1,0.1-0.2
		c0.8-1.7,2.8-2.4,4.5-1.7c0,0,0.1,0,0.1,0c0.8,0.4,1.4,1.1,1.6,1.9c0.2,0.5,0.2,1.1,0,1.7c0,0.1-0.1,0.2-0.2,0.2
		c-0.6-0.2-1.1-0.4-1.6-0.7l-2.4-1.1l-0.1,0.2c-0.9,1.9-0.7,3,0.5,3.6c0.8,0.4,1.4,0.3,2.5-0.4L291.9,277.6z M291.4,274.7
		c0.6-1.4,0.6-2.2-0.2-2.5s-1.6,0.1-2.3,1.4L291.4,274.7z"/>
	<path class="st10" d="M297.8,282.1l0.8,0.5l4.9-8l-0.8-0.4l0.2-0.3c0.7,0.5,1.6,0.8,2.5,0.9l0.1,0.2c-0.4,0.5-0.8,1.1-1.1,1.8
		l-1.5,2.5c0.8-0.3,1.7-0.2,2.4,0.2c0.7,0.4,1.1,1.1,1.1,1.9c-0.1,0.5-0.3,1-0.6,1.4l-1.9,3.1l0.7,0.5l-0.2,0.3l-3-1.8l0.2-0.3
		l0.7,0.4l2.2-3.6c0.3-0.5,0.4-0.7,0.3-1c-0.1-0.2-0.2-0.4-0.4-0.5c-0.4-0.2-0.8-0.3-1.2-0.2c-0.3,0-0.5,0.1-0.7,0.3l-2.2,3.7
		l0.7,0.4l-0.2,0.3l-3-1.8L297.8,282.1z"/>
	<path class="st10" d="M311,284.8c0.3-0.4,0.3-1-0.1-1.3c0,0-0.1-0.1-0.1-0.1c-0.4-0.3-0.9-0.4-1.1-0.2s-0.1,0.1,0,0.3
		c0,0.2,0,0.3-0.1,0.5c-0.2,0.3-0.6,0.4-0.9,0.2c0,0,0,0,0,0c-0.4-0.2-0.5-0.7-0.3-1c0,0,0,0,0,0c0.5-0.7,1.8-0.6,3,0.2
		c0.6,0.3,1,0.9,1.1,1.5c0,0.5-0.2,1-0.5,1.5l-1.9,2.8c-0.2,0.2-0.1,0.5,0,0.6c0,0,0,0,0,0c0.2,0.1,0.3,0.1,0.8-0.1l0.1,0.3
		c-0.6,0.4-1.4,0.4-2,0c-0.3-0.2-0.6-0.5-0.6-0.9c0-0.2,0-0.4,0.1-0.6c-0.7,0.3-1.5,0.2-2.1-0.3c-0.8-0.4-1-1.4-0.6-2.1
		c0,0,0-0.1,0.1-0.1c0.5-0.7,1.5-0.9,2.7-0.5c0.5,0.2,1,0.4,1.5,0.7L311,284.8z M309.9,286.4c-0.3-0.2-0.7-0.3-1.1-0.4
		c-0.6-0.2-1.2,0-1.5,0.5c-0.3,0.4-0.3,1.1,0.2,1.4c0,0,0,0,0,0c0.4,0.3,0.9,0.3,1.3,0L309.9,286.4z"/>
	<path class="st10" d="M311.5,291l0.8,0.6l3.4-4.4l-0.7-0.5l0.2-0.3c0.7,0.5,1.4,1,2.2,1.3l0.1,0.2c-0.3,0.4-0.6,0.8-1,1.2l-2.8,3.6
		l0.7,0.5l-0.2,0.3l-2.9-2.2L311.5,291z M318.9,284.4c0.4,0.3,0.5,1,0.2,1.4c-0.3,0.4-0.9,0.5-1.3,0.2c0,0,0,0,0,0
		c-0.3-0.4-0.2-1.1,0.2-1.4C318.2,284.4,318.6,284.3,318.9,284.4z"/>
	<path class="st10" d="M315.6,294.1l0.7,0.6c0.3-0.3,0.5-0.6,0.8-0.9l1.9-2.3c0.3-0.4,0.6-0.7,0.9-1.1l-0.7-0.5l0.2-0.3
		c0.6,0.6,1.3,1,2.1,1.4l0,0.2l-0.9,1l0.5-0.2c0.6-0.2,1.2-0.1,1.7,0.3c0.5,0.4,0.6,1.1,0.2,1.6c0,0,0,0-0.1,0.1
		c-0.2,0.3-0.7,0.4-1,0.2c0,0-0.1,0-0.1-0.1c-0.3-0.2-0.3-0.7-0.1-1c0,0,0.1-0.1,0.1-0.1c0-0.1,0.1-0.1,0.2-0.2s0.1-0.2-0.1-0.4
		c-0.5-0.2-1.1-0.2-1.5,0.2c-0.5,0.4-1,0.8-1.3,1.3l-1.6,1.9l0.8,0.7l-0.2,0.3l-2.9-2.5L315.6,294.1z"/>
	<path class="st12" d="M407.7,193c-0.8-2.6-3.6-4.1-6.3-3.3c-2.3,0.7-3.8,3-3.4,5.5l-3.6,1.2v-3.9c2.7-0.5,4.5-3.1,4-5.8
		c-0.5-2.7-3.1-4.5-5.8-4s-4.5,3.1-4,5.8c0.4,2,2,3.6,4,4v3.8l-3.7-1.2c0.4-2.7-1.5-5.3-4.3-5.6c-2.7-0.4-5.3,1.5-5.6,4.3
		c-0.4,2.7,1.5,5.3,4.3,5.6c2.1,0.3,4.1-0.7,5.1-2.6l3.6,1.2l-2.3,3.2c-2.5-1.2-5.5-0.1-6.7,2.4c-1.2,2.5-0.1,5.5,2.4,6.7
		c2.5,1.2,5.5,0.1,6.7-2.4c0.9-1.9,0.5-4.1-0.9-5.6l2.2-3.1l2.3,3.1c-1.9,2-1.8,5.2,0.2,7.1s5.2,1.8,7.1-0.2c1.9-2,1.8-5.2-0.2-7.1
		c-1.5-1.4-3.7-1.8-5.6-0.9l-2.2-3.1l3.7-1.2c1.3,2.4,4.3,3.4,6.8,2.1C407.5,197.9,408.5,195.4,407.7,193L407.7,193z"/>
	<path class="st12" d="M103.4,193c-0.8-2.6-3.6-4.1-6.3-3.3c-2.3,0.7-3.8,3-3.4,5.5l-3.6,1.2v-3.9c2.7-0.5,4.5-3.1,4-5.8
		s-3.1-4.5-5.8-4s-4.5,3.1-4,5.8c0.4,2,2,3.6,4,4v3.8l-3.7-1.2c0.4-2.7-1.6-5.2-4.3-5.6s-5.2,1.6-5.6,4.3s1.6,5.2,4.3,5.6
		c2.1,0.3,4.1-0.8,5-2.6l3.6,1.2l-2.3,3.2c-2.5-1.1-5.5,0-6.6,2.5s0,5.5,2.5,6.6c2.5,1.1,5.5,0,6.6-2.5c0.8-1.9,0.4-4.1-1.1-5.6
		l2.2-3l2.3,3.1c-1.8,2.1-1.6,5.2,0.4,7.1c2.1,1.8,5.2,1.6,7.1-0.4c1.8-2.1,1.6-5.2-0.4-7.1c-1.5-1.4-3.7-1.7-5.6-0.7l-2.2-3
		l3.7-1.2c1.3,2.4,4.4,3.3,6.8,2C103.1,197.9,104.1,195.4,103.4,193L103.4,193z"/>
	<path class="st10" d="M118.9,200.2l0.8-2.8c0-0.1,0.1-0.2,0.2-0.3c1.3-0.9,2.8-1.5,4.4-1.6c1.3,0,3.2-0.7,5.8-2.1
		c0.5-0.4,1.1-0.7,1.6-1c-0.3-3.2-0.6-5-0.9-5.3c-0.8-0.9-1.3-2-1.7-3.1c-0.6-1.8-0.9-3.6-0.9-5.5c0-0.1,0-0.2,0-0.2l0.8-2.9
		c0.1-0.2,0.2-0.3,0.3-0.3c3.2,0,5.3,0.8,6.1,2.2c0.9,1.8,1.1,3.8,0.8,5.7c-0.2,2.2-0.3,4.5-0.3,6.8c0.5-0.3,1-0.6,1.5-1
		c2.3-1.4,4.2-2.7,5.4-3.6c0.9-0.8,2-1.3,3.2-1.5c1,0.1,2,0.7,2.6,1.6c0.9,1.1,1.5,2.5,1.7,3.9c0.4,1.7-0.3,3.4-1.8,4.3
		c-1.2,1-2.2,2.2-3,3.5c-0.8,1.4-2.2,4.1-4.3,8c-0.1,0.1-0.2,0.2-0.4,0.1c0,0-0.1-0.1-0.1-0.1l-0.8-1.5c-0.1-0.3-0.1-0.5,0-0.8
		c0.8-2,1.4-4,1.5-6.1c0.1-0.8,0-1.7-0.3-2.5c-0.2-0.4-1.1-0.6-2.5-0.6c-1,0-2,0.3-2.9,0.9v9.4c-0.1,2.4,0.1,4.8,0.4,7.2
		c0.3,1.3,1,2.5,2.1,3.2c1.2,0.9,2.7,1.2,4.1,0.7c1.2-0.3,2.4-0.8,3.6-1.4c0.7-0.4,1.6-0.7,2.4-0.7c0.9,0,1.7,0.3,2.4,0.7
		c1,0.6,1.2,2,0.6,4.4c-0.5,2.1-2.3,3.7-4.5,3.9c-2.6,0.5-5.3,0.5-7.9,0c-2.9-0.5-4.8-1.5-5.6-3c-0.9-1.9-1.5-4-1.7-6.1
		c-0.3-2.5-0.3-5,0-7.4c0.2-2.5,0.2-5,0.1-7.5c-0.9,0.8-1.8,1.6-2.8,2.3c-1.4,0.9-2.6,2.1-3.4,3.6c-0.5,1-1.5,1.7-2.6,1.6
		c-1.1,0-2.5-1.5-4.1-4.6C118.8,200.6,118.8,200.4,118.9,200.2z"/>
	<path class="st10" d="M177.6,176.7l0.7-1.2c0-0.1,0.1-0.1,0.2-0.1c1.6-0.2,3.2,0.7,3.9,2.1c0.7,1.4,1.2,3,1.4,4.6
		c0.1,2.1-0.5,4.3-1.8,6c-0.7,1-1.4,2.2-2.2,3.5c-0.2,2.4-0.1,4.8,0.2,7.1c0.5,1.9,0.6,3.8,0.4,5.7c-0.2,2.2-0.2,4.4,0,6.6
		c0.2,2.9,0.3,5.2,0.3,6.9c0.1,1.4-0.2,2.8-0.7,4.1c-0.2,0.4-0.5,0.7-0.9,1c-0.3,0.2-0.6,0.4-1,0.4c-0.8,0-1.4-0.7-1.6-2.2
		c-0.3-2.5-0.3-5.1,0-7.7c0.2-3.3,0.2-6.5,0-9.8c-0.2-1.7-0.5-3.4-0.9-5c-1.4,2.1-2.9,4.1-4.6,6c-2.2,2.4-4.8,4.5-7.6,6.2
		c-0.1,0-0.2,0-0.3-0.1l-0.7-1.2l0,0c-0.2-0.3-0.2-0.6,0.1-0.8c2.5-1.9,4.6-4.2,6.4-6.7c2-2.8,3.7-5.9,5.1-9.1
		c1-2.6,2.1-5.1,3.4-7.5c0.8-1.4,1.3-3,1.3-4.6c0.1-1.2-0.4-2.4-1.2-3.2C177.4,177.2,177.4,177,177.6,176.7z"/>
	<path class="st10" d="M201.9,185l0.8-1.6c0.1-0.1,0.1-0.2,0.2-0.2c1.4,0,2.9,0.3,4.2,0.9c2.6,1.4,5.8,1.1,8.2-0.8
		c1.7-1,3.4-1.8,5.3-2.4c1.4-0.6,2.9-0.6,4.2,0c1.1,0.5,1.9,1.9,2.5,4.2c0.6,2.1,0.4,4.3-0.4,6.3c-1,2.2-1.7,4.5-2.2,6.9
		c-0.5,2.1-0.9,4.2-1,6.4c0.5,0.8,0.9,1.6,1.3,2.3c0.6,1.3,0.6,2.8,0,4.1c-0.6,1.2-1.6,2.1-2.8,2.6c-1.2,0.6-2.6,0.6-3.9,0
		c-1.2-0.5-3.1-0.3-5.5,0.8c-1.8,0.8-3.7,1.3-5.7,1.5c-1.3,0-2.5-0.8-3.6-2.4c-0.2-0.3-0.4-0.7-0.5-1c-0.7-1.2-0.8-2.7-0.3-4
		l0.7-1.4c0.1-0.2,0.2-0.2,0.3-0.2c1.3,0.9,2.9,1.5,4.5,1.5c1.6,0,3.3-0.3,4.8-0.8c2.1-0.7,4-1.7,5.6-3.1c0.4-0.4,0.9-0.7,1.4-0.9
		c-0.4-3.2-0.4-6.5,0-9.7c0.1-0.4,0.1-0.7,0.1-1c0.1-0.6,0-1.3-0.3-1.9c-0.4-0.5-0.9-0.8-1.5-1c-1.7-0.4-3.5-0.4-5.2,0
		c-1.5,0.4-3,1-4.5,1.6c-1.2,0.6-2.5,0.8-3.8,0.9c-1.4,0-2.4-2.3-2.9-6.8C201.9,185.5,201.9,185.3,201.9,185z"/>
</g>
</svg>
