<svg xmlns="http://www.w3.org/2000/svg" viewBox="0 0 250 245.89"><defs><style>.cls-1{fill:#fff;}</style></defs><g id="レイヤー_2" data-name="レイヤー 2"><g id="レイヤー_1-2" data-name="レイヤー 1"><path class="cls-1" d="M173.64,21.38c-1.23-1.34-2.4-2.56-3.53-3.67-5.38-5.59-11.36-9.19-18.38-12.31A63.38,63.38,0,0,0,137.42,1L133.7.48c-.62-.08-1.24-.19-1.86-.24L130,.16,126.22,0c-1.25,0-2.5.11-3.74.16s-2.5.1-3.75.23L115,1c-.62.1-1.24.17-1.85.3l-1.82.46c-1.21.33-2.44.59-3.63,1A60.93,60.93,0,0,0,94.14,9.05a63.73,63.73,0,0,0-11.57,9.53,60.87,60.87,0,0,0-9.08,12l1,.54A59,59,0,0,1,84.4,20.36a60.12,60.12,0,0,1,11.85-8,56.49,56.49,0,0,1,13.06-4.61c1.11-.23,2.25-.35,3.37-.53L114.35,7c.56-.07,1.13-.07,1.7-.1l3.36-.17c1.13,0,2.28.1,3.41.14s2.27.06,3.38.2l3.33.49,1.65.24c.55.1,1.08.26,1.62.39L136,9a54.42,54.42,0,0,1,11.92,5.1c.54.32,1.07.66,1.61,1a26.79,26.79,0,0,1,7,8.18c2.21,3.85-1.42,8.59,1.94,13.74,3.82,5.85,11,6.59,15.7,2.58S177.79,25.91,173.64,21.38Z"/><path class="cls-1" d="M38.09,48.55q-2.48,1.14-4.57,2.24c-7,3.4-12.22,8-17.35,13.73a64,64,0,0,0-8.59,12.3L5.94,80.21c-.26.57-.56,1.12-.8,1.7l-.66,1.76L3.17,87.2c-.4,1.19-.66,2.42-1,3.62s-.67,2.42-.93,3.64L.62,98.18C.52,98.8.4,99.42.33,100l-.12,1.89c-.07,1.25-.2,2.5-.21,3.76a61.52,61.52,0,0,0,1.84,14.92,63.87,63.87,0,0,0,5.46,14A60,60,0,0,0,15.84,147l.84-.82a58.31,58.31,0,0,1-7.13-12.75,59.68,59.68,0,0,1-3.91-13.77,56.74,56.74,0,0,1-.34-13.88c.13-1.14.37-2.26.54-3.38l.27-1.68c.12-.55.3-1.1.44-1.64l.88-3.27c.35-1.08.8-2.14,1.19-3.21s.75-2.14,1.23-3.17l1.49-3,.74-1.5c.26-.49.58-1,.87-1.43l1.74-2.81a54.53,54.53,0,0,1,8.52-9.8c.47-.42,1-.82,1.44-1.23a26.61,26.61,0,0,1,9.91-4.12c4.33-.92,7.7,4,13.62,2.39a10.46,10.46,0,0,0,7.3-14.18C53.13,48,43.67,46,38.09,48.55Z"/><path class="cls-1" d="M22,186.3c.21,1.81.44,3.49.71,5.06,1.07,7.69,3.81,14.13,7.65,20.79a64.28,64.28,0,0,0,9,12L42,226.77c.45.43.89.88,1.36,1.29l1.47,1.17,2.94,2.34c1,.75,2.08,1.38,3.12,2.08s2.08,1.39,3.16,2l3.34,1.73c.56.28,1.1.6,1.68.85l1.74.7c1.17.45,2.32,1,3.5,1.36a61.59,61.59,0,0,0,14.71,2.86,63.47,63.47,0,0,0,15-.89A60.18,60.18,0,0,0,108.36,238l-.52-1a58.45,58.45,0,0,1-14.29,2.86,59.47,59.47,0,0,1-14.26-.52,56.81,56.81,0,0,1-13.26-4c-1-.47-2-1.05-3-1.56l-1.5-.78c-.49-.28-1-.62-1.43-.92l-2.82-1.85c-.92-.67-1.79-1.43-2.68-2.13s-1.8-1.38-2.62-2.15l-2.4-2.36-1.2-1.17c-.38-.4-.72-.85-1.08-1.27l-2.13-2.53a54.71,54.71,0,0,1-6.66-11.16c-.25-.58-.48-1.17-.72-1.75a27.07,27.07,0,0,1-.84-10.74c.46-4.41,6.17-6.11,6.48-12.25.34-7-5.08-11.85-11.19-11.36S21.25,180.19,22,186.3Z"/><path class="cls-1" d="M147.54,244.27c1.78.36,3.44.65,5,.88,7.62,1.36,14.57.73,22.07-.88a62.77,62.77,0,0,0,14.16-4.88l3.31-1.77c.55-.31,1.12-.58,1.65-.91l1.56-1,3.13-2.08c1-.71,1.95-1.56,2.93-2.33s2-1.56,2.9-2.4l2.67-2.64c.44-.45.9-.87,1.32-1.34l1.2-1.45c.79-1,1.63-1.91,2.37-2.92a61.59,61.59,0,0,0,7.26-13.15,63.64,63.64,0,0,0,3.77-14.54,60.13,60.13,0,0,0,.34-15l-1.16.17a58.44,58.44,0,0,1-1.7,14.52,60.32,60.32,0,0,1-4.9,13.45,56.68,56.68,0,0,1-7.87,11.43c-.76.85-1.62,1.61-2.41,2.42L204,221c-.42.38-.88.72-1.32,1.08L200,224.15c-.92.67-1.91,1.27-2.85,1.9s-1.86,1.29-2.85,1.83l-3,1.57-1.47.78c-.5.24-1,.42-1.54.64l-3.06,1.25a54.38,54.38,0,0,1-12.63,2.9c-.63.07-1.26.1-1.89.15a26.7,26.7,0,0,1-10.43-2.51c-4-1.81-3.88-7.79-9.62-10a10.4,10.4,0,0,0-14.21,7.17C135.05,235.84,141.53,243.05,147.54,244.27Z"/><path class="cls-1" d="M241.28,142.34c.9-1.59,1.69-3.09,2.39-4.51,3.64-6.86,5.2-13.68,6-21.34a64.51,64.51,0,0,0-.25-15l-.66-3.7c-.12-.62-.2-1.24-.35-1.85l-.5-1.82-1-3.62c-.36-1.2-.87-2.35-1.3-3.53s-.87-2.35-1.38-3.49l-1.68-3.37c-.29-.56-.55-1.14-.86-1.68l-1-1.59c-.68-1.06-1.31-2.15-2-3.17a61.92,61.92,0,0,0-10.22-11,63.31,63.31,0,0,0-12.62-8.09,60.07,60.07,0,0,0-14.15-5l-.2,1.16a57.89,57.89,0,0,1,13.24,6.11,59.93,59.93,0,0,1,11.23,8.83,56.53,56.53,0,0,1,8.4,11c.57,1,1,2,1.55,3.05l.76,1.51c.23.52.4,1.07.61,1.59l1.2,3.16c.35,1.08.61,2.21.92,3.3s.64,2.18.86,3.29l.56,3.33.28,1.65c.08.55.09,1.11.14,1.66l.24,3.3a55.31,55.31,0,0,1-1.15,13c-.14.62-.3,1.23-.45,1.84a26.8,26.8,0,0,1-5.61,9.19c-3,3.29-8.57,1.3-12.41,6.09-4.38,5.46-2.84,12.57,2.4,15.78S238.27,147.7,241.28,142.34Z"/><path class="cls-1" d="M77.16,117.85,82.27,119a42.76,42.76,0,0,0,8.7,1q3.73,0,16.82-2.37-.78-13.65-1.9-17.27t-2.81-4.93a14.73,14.73,0,0,0-4.19-2.16A3.3,3.3,0,0,1,96.4,90q0-1,3.54-3.35a13.36,13.36,0,0,1,7.39-2.3q3.87,0,10.35,4.47t6.48,6.76a8.51,8.51,0,0,1-2.16,5.06c-1.44,1.84-2.45,3.21-3,4.13s-1.15,4.54-1.76,10.84q12.3-2.76,15.31-3.87a48.28,48.28,0,0,1,4.85-1.58,24.53,24.53,0,0,0,2.48-.72l2-.79a6.68,6.68,0,0,0,2-1,8.08,8.08,0,0,0,1.37-1.84q1.7-2.62,3.54-2.63,8.5,0,11.65,1.84c4.79,3,7.2,5.83,7.2,8.54,0,1.66-.46,2.76-1.38,3.28a16.87,16.87,0,0,1-4.78,1.45q-1.44.14-17.21,12.67t-17,12.55c-1,0-1.57-.44-1.57-1.32s1.81-3.32,5.43-7.35a136.83,136.83,0,0,0,11.58-15.24l3-4.73q-16.23,3.67-28.93,6.44-.39,9.45-.39,17.27a41.24,41.24,0,0,0,1.64,12.74q1.64,4.93,7.07,4.93t17.93-3.42q12.5-3.4,15.38-3.41a13.38,13.38,0,0,1,6.42,2c2.35,1.31,3.53,3,3.53,5q0,6-5.5,7.49-2,.53-16.56,1.11t-19.17.59q-16.64,0-18.07-9.32-.39-3-1-33l-9.68,1.84c-4.63.87-7.86,1.82-9.69,2.82a12.84,12.84,0,0,1-3.27,1.51q-3.8,0-7.79-4t-4-5.13a2,2,0,0,1,1.31-1.77A5.13,5.13,0,0,1,77.16,117.85Z"/></g></g></svg>