<svg xmlns="http://www.w3.org/2000/svg" viewBox="0 0 1253.31 60"><defs><style>.cls-1{fill:#b9965f;}.cls-2{fill:#b93728;}</style></defs><g id="レイヤー_2" data-name="レイヤー 2"><g id="img"><path class="cls-1" d="M613,39.29c4,.77,14.65,1.21,19-4.55a19.64,19.64,0,0,1,5.17,5.81c-4.28,4.69-12.17,7.37-20.65,6.26C614.84,45.86,612.93,42.21,613,39.29Z"/><path class="cls-2" d="M623.37,27.8c7.45-1.27,15.37,11,17.5,14.27a23.33,23.33,0,0,0,5.7-5.33c-4.1-5.5-13.61-19.28-26.92-16.7A32.34,32.34,0,0,0,623.37,27.8Z"/><path class="cls-1" d="M644.77,31.8c5.94-5.27,17.07-6.13,20.2,5h7.83C671.26,22.57,652.7,12.69,639.86,26A20.2,20.2,0,0,1,644.77,31.8Z"/><path class="cls-2" d="M665.52,39.9c-1.38,1.85-6.34,4.69-12.21,6.89h600V39.9Z"/><path class="cls-1" d="M596.28,39.9c-1.16,2-.92,5,3.72,6.89H0V39.9Z"/><path class="cls-2" d="M611.84,33.53a13,13,0,0,0,0,12.77c2.4,4.17,8.76,7,15.16,5.69a16.49,16.49,0,0,0,8.09,5.68c-16,5.81-26.88,0-31.33-9.47-3.3-7.05-2.53-15,4.68-22.5A21.15,21.15,0,0,0,611.84,33.53Z"/><path class="cls-2" d="M647.69,49.3c3.34-3.09,10.36-10.77,12.63-15.95-1.58-2.07-3.91-2.9-7-3A46,46,0,0,1,640.21,46,12.34,12.34,0,0,0,647.69,49.3Z"/><path class="cls-1" d="M659.34,49.56c-4,4.19-17.71,4.19-25.1-3.76a23,23,0,0,1-7.58,3.11c8.91,8.16,15.11,10.56,23.81,10.56,9.54,0,16.44-4.72,19.68-9.91Z"/><path class="cls-1" d="M611.79,0h-7.92c2.07,12.64,6.46,28.71,13.6,37.65.48,0,6-.3,8.71-1.3-1-1.29-2-2.65-3-4.15C617.15,23.25,613.65,9.63,611.79,0Z"/><path class="cls-2" d="M663.71,0a137.61,137.61,0,0,1-5,18.22,20.23,20.23,0,0,1,7.14,3.45A146.21,146.21,0,0,0,671.59,0Z"/></g></g></svg>