<svg xmlns="http://www.w3.org/2000/svg" viewBox="0 0 1177.34 67.53"><defs><style>.cls-1{fill:#b93728;}</style></defs><g id="レイヤー_2" data-name="レイヤー 2"><g id="レイヤー_1-2" data-name="レイヤー 1"><path class="cls-1" d="M576.2,43.14a18.79,18.79,0,0,1-11-5.38,10.15,10.15,0,0,1-2.87-5.56,10.25,10.25,0,0,1,1.26-6.08,14.25,14.25,0,0,1,4.66-5l1.2,1.77a12.16,12.16,0,0,0-4,4.26,8.33,8.33,0,0,0-1,4.83,8.15,8.15,0,0,0,2.3,4.35A17,17,0,0,0,576.51,41Z"/><path class="cls-1" d="M576,47.43a24.88,24.88,0,0,1-9.62-3.32,18.74,18.74,0,0,1-6.27-6,13,13,0,0,1-2-8.89c.8-5.69,5-10.82,10.88-13.38l.84,2c-5.23,2.27-8.91,6.75-9.6,11.71A10.9,10.9,0,0,0,561.93,37a16.75,16.75,0,0,0,5.59,5.29,22.66,22.66,0,0,0,8.79,3Z"/><path class="cls-1" d="M576.85,51.8a28.64,28.64,0,0,1-13.49-4.56,22.54,22.54,0,0,1-8.14-9.17,17.22,17.22,0,0,1-1.06-10.76A20.88,20.88,0,0,1,560,16.85a25.23,25.23,0,0,1,10.72-6.13l.61,2a23,23,0,0,0-9.83,5.6,19.06,19.06,0,0,0-5.27,9.38,15.09,15.09,0,0,0,.91,9.42,20.23,20.23,0,0,0,7.38,8.28A26.48,26.48,0,0,0,577,49.68Z"/><path class="cls-1" d="M568.07,28.94v-.18c-.12-1.66-.25-3.39-.26-5.11,0-1.25.06-2.45.16-3.86a22.85,22.85,0,0,1,4.6-12.55,20.27,20.27,0,0,1,13.28-7A21.88,21.88,0,0,1,599,2.34c4.33,2.24,8.13,5.8,11.62,10.89l-1.76,1.21C605.54,9.65,602,6.31,598,4.24a19.78,19.78,0,0,0-11.85-1.9,18.17,18.17,0,0,0-11.9,6.23,20.75,20.75,0,0,0-4.14,11.37c-.1,1.37-.16,2.52-.15,3.69,0,1.66.13,3.27.25,5v.17Z"/><path class="cls-1" d="M572.14,26.18c-.49-8.47,1.27-14.36,5.4-18a16.47,16.47,0,0,1,8.53-3.68,17.91,17.91,0,0,1,10.07,1.21,23.47,23.47,0,0,1,8.19,6.35l-1.61,1.4a21.38,21.38,0,0,0-7.43-5.79,15.75,15.75,0,0,0-8.89-1.06A14.41,14.41,0,0,0,579,9.79c-3.6,3.17-5.13,8.49-4.68,16.26Z"/><path class="cls-1" d="M576.33,23.67a23.53,23.53,0,0,1,1-7.6,10.55,10.55,0,0,1,3.6-5.16,13.24,13.24,0,0,1,6.26-2.25,13.44,13.44,0,0,1,5.5.34,15.65,15.65,0,0,1,6,3.44L597.28,14a13.5,13.5,0,0,0-5.14-3,11.35,11.35,0,0,0-4.64-.28,11.19,11.19,0,0,0-5.27,1.84,8.63,8.63,0,0,0-2.85,4.14,21.55,21.55,0,0,0-.92,6.91Z"/><path class="cls-1" d="M616.75,47.78l-1.48-1.55a20.55,20.55,0,0,0,6.05-11.13,17.69,17.69,0,0,0,.08-6,17,17,0,0,0-1.91-5.32,19.45,19.45,0,0,0-7.29-7.47,19,19,0,0,0-10.14-2.48A25.72,25.72,0,0,0,590.38,17l-1.06-1.86A28.09,28.09,0,0,1,602,11.71a21.15,21.15,0,0,1,11.28,2.77,21.47,21.47,0,0,1,8.1,8.3,19,19,0,0,1,2.15,6,19.87,19.87,0,0,1-.09,6.7A22.74,22.74,0,0,1,616.75,47.78Z"/><path class="cls-1" d="M615.69,42.59,614,41.27a15.55,15.55,0,0,0,3.33-8.83c.22-5.07-2.94-10.19-7.88-12.73A14.55,14.55,0,0,0,602,18.12a22.7,22.7,0,0,0-8.58,2.08l-.94-1.92a25,25,0,0,1,9.4-2.29,16.68,16.68,0,0,1,8.57,1.82c5.66,2.92,9.29,8.84,9,14.72A17.75,17.75,0,0,1,615.69,42.59Z"/><path class="cls-1" d="M613.51,38.16l-1.84-1.08A10.28,10.28,0,0,0,613,30.85a10.39,10.39,0,0,0-10.49-8.47,18.37,18.37,0,0,0-5.9,1.11l-.73-2a20.7,20.7,0,0,1,6.6-1.24A12.65,12.65,0,0,1,608,21.35a12.51,12.51,0,0,1,7.18,9.22A12.33,12.33,0,0,1,613.51,38.16Z"/><path class="cls-1" d="M565.34,35.63l-1.74-1.24a41.18,41.18,0,0,1,5.93-6.68,32.17,32.17,0,0,1,7.39-5c1.6-.78,3.2-1.49,4.75-2.09l.78,2c-1.5.58-3,1.26-4.59,2a30.14,30.14,0,0,0-6.9,4.67A39.64,39.64,0,0,0,565.34,35.63Z"/><path class="cls-1" d="M568.27,38.9l-1.76-1.21a38.6,38.6,0,0,1,5.93-6.86A26.23,26.23,0,0,1,576.1,28a35.14,35.14,0,0,1,4.3-2.23c1.65-.74,3.37-1.45,5.27-2.17l.76,2c-1.86.71-3.55,1.4-5.16,2.12a32.66,32.66,0,0,0-4,2.09,24.18,24.18,0,0,0-3.36,2.59A35.91,35.91,0,0,0,568.27,38.9Z"/><path class="cls-1" d="M571.92,41.13l-1.76-1.21a32.56,32.56,0,0,1,5.78-6.48,30.86,30.86,0,0,1,8.21-4.62c1.61-.67,3.34-1.37,5.09-2l.7,2c-1.7.59-3.39,1.28-5,1.93a28.5,28.5,0,0,0-7.66,4.28A30.13,30.13,0,0,0,571.92,41.13Z"/><path class="cls-1" d="M599.43,27.66l-2.17-2.46A59.89,59.89,0,0,0,593,20.75a79,79,0,0,0-11.46-8.45l1.13-1.81a80.72,80.72,0,0,1,11.77,8.68,57.45,57.45,0,0,1,4.38,4.62L601,26.24Z"/><path class="cls-1" d="M596.92,31.27c-.73-.8-1.46-1.63-2.15-2.43l-1.36-1.55c-.85-.95-2-2.18-3.19-3.32a46.42,46.42,0,0,0-3.6-3,95.14,95.14,0,0,0-8.1-5.54l1.12-1.81a97.06,97.06,0,0,1,8.28,5.66c1.44,1.11,2.63,2.06,3.76,3.12,1.28,1.2,2.45,2.48,3.32,3.46l1.38,1.57c.69.79,1.4,1.61,2.12,2.39Z"/><path class="cls-1" d="M593.71,34.09,590,29.87a43.29,43.29,0,0,0-6.1-5.61c-2-1.52-4.16-3-6.65-4.59l1.14-1.81c2.54,1.6,4.77,3.14,6.81,4.71a44.67,44.67,0,0,1,6.4,5.89l3.73,4.22Z"/><path class="cls-1" d="M589.35,39.6,588,37.91c1.24-1,2.53-2,3.81-3.2a50.76,50.76,0,0,0,6-6.3A21.32,21.32,0,0,0,600.12,25a5.24,5.24,0,0,0,.82-2.83l2.09-.41A6.7,6.7,0,0,1,602,26a23.74,23.74,0,0,1-2.46,3.76,52.14,52.14,0,0,1-6.28,6.57C592,37.49,590.63,38.6,589.35,39.6Z"/><path class="cls-1" d="M592.61,42.45l-1.33-1.67c1.46-1.16,2.86-2.36,4.16-3.56a50.15,50.15,0,0,0,6.44-7c1.55-2.09,3.57-5.22,3.33-8.27l2.12-.17c.3,3.77-2,7.35-3.73,9.71a52,52,0,0,1-6.71,7.33C595.55,40,594.11,41.26,592.61,42.45Z"/><path class="cls-1" d="M596.36,44.59V42.45a.84.84,0,0,0-.46.13c.07,0,.24-.23.32-.31l.23-.23.95-.83c.64-.58,1.23-1.12,1.8-1.66,1.2-1.14,2.34-2.32,3.39-3.48a33.57,33.57,0,0,0,5.27-7.46,15.33,15.33,0,0,0,1.51-4.54l2.11.32a17.67,17.67,0,0,1-1.7,5.17,35.82,35.82,0,0,1-5.6,7.94c-1.09,1.2-2.27,2.41-3.51,3.59-.58.56-1.19,1.12-1.85,1.71l-1,.85-.1.11A2,2,0,0,1,596.36,44.59Z"/><path class="cls-1" d="M588.37,55.78a19.67,19.67,0,0,1-3.74-5.62c-3.14-7.41,1.61-15.29,6.63-19.8L592.68,32c-4.49,4-8.78,11-6.08,17.37a17.42,17.42,0,0,0,3.33,5Z"/><path class="cls-1" d="M584.63,58a19.92,19.92,0,0,1-5.3-12.54,22,22,0,0,1,4.33-12.86,30.71,30.71,0,0,1,4.86-5.52l1.42,1.6a28.3,28.3,0,0,0-4.53,5.13,20,20,0,0,0-3.94,11.61c.09,4.8,2.64,8.73,4.77,11.18Z"/><path class="cls-1" d="M579.57,58.47a26.69,26.69,0,0,1-3-5.52c-2.71-6.81-1.6-15,3-21.83l1.78,1.18c-4.18,6.27-5.22,13.7-2.76,19.87a23.74,23.74,0,0,0,2.78,5.06Z"/><path class="cls-1" d="M602.33,45.34a23.65,23.65,0,0,1-6.24-.79,15.68,15.68,0,0,1-7.88-4.69l-.36-.45c-.42-.49-.85-1-1.25-1.55l1.72-1.27c.36.49.77,1,1.16,1.45l.38.46a13.49,13.49,0,0,0,6.78,4,24.29,24.29,0,0,0,9.64.43l.29,2.11A29.72,29.72,0,0,1,602.33,45.34Z"/><path class="cls-1" d="M602.41,49.6a24.36,24.36,0,0,1-14.52-4.29,16.3,16.3,0,0,1-3.82-3.83l1.77-1.21a13.87,13.87,0,0,0,3.31,3.32c4.61,3.36,11.11,4.6,18.31,3.47l.33,2.12A35.81,35.81,0,0,1,602.41,49.6Z"/><path class="cls-1" d="M602.37,53.87h-.8c-7-.16-13.16-2.32-17.45-6.09l1.41-1.61c3.91,3.44,9.62,5.42,16.09,5.56a36.79,36.79,0,0,0,5-.24l.25,2.12A38,38,0,0,1,602.37,53.87Z"/><path class="cls-1" d="M597.54,67.3A25.42,25.42,0,0,1,589.45,66l.68-2a22.14,22.14,0,0,0,12.58.6,16.38,16.38,0,0,0,8.63-5.36,16.91,16.91,0,0,0,3.76-9.68c.33-5.85-2.87-12.26-8.57-17.16l1.4-1.62c6.2,5.33,9.67,12.39,9.3,18.9A19.08,19.08,0,0,1,613,60.52a18.53,18.53,0,0,1-9.75,6.07A23.12,23.12,0,0,1,597.54,67.3Z"/><path class="cls-1" d="M597.47,63a20.23,20.23,0,0,1-3-.22l.32-2.12c4.59.7,10.65-.29,13.9-5.15a13.81,13.81,0,0,0,2-5.13,12.65,12.65,0,0,0-1.34-7.65,22.4,22.4,0,0,0-5.55-7.12L605.23,34a24.63,24.63,0,0,1,6.09,7.8,15,15,0,0,1,1.51,9,15.79,15.79,0,0,1-2.34,5.91C607.37,61.38,602.14,63,597.47,63Z"/><path class="cls-1" d="M598.27,58.74l-.1-2.13a10.29,10.29,0,0,0,4.72-1.29,7.39,7.39,0,0,0,2.88-3.24c1.86-3.77-.09-7.58-1.42-9.51a17.54,17.54,0,0,0-3.19-3.6l1.35-1.66a19.69,19.69,0,0,1,3.6,4c2.75,4,3.31,8.14,1.58,11.66A9.63,9.63,0,0,1,604,57.16,12.35,12.35,0,0,1,598.27,58.74Z"/><path class="cls-1" d="M581.41,59a15.94,15.94,0,0,1-4.58-.68,9,9,0,0,1-4.45-2.74,11.59,11.59,0,0,1-2.45-5.77l2.11-.34a9.42,9.42,0,0,0,2,4.72,6.77,6.77,0,0,0,3.43,2.08,12,12,0,0,0,10.31-1.3,9.27,9.27,0,0,0,2-1.86,8.25,8.25,0,0,0,1.21-2.51l2,.68a10.08,10.08,0,0,1-1.56,3.13A11,11,0,0,1,589,56.69,13.14,13.14,0,0,1,581.41,59Z"/><path class="cls-1" d="M581.5,63.26a20.57,20.57,0,0,1-6.32-1,13.28,13.28,0,0,1-6.84-4.94c-2.14-3-2.7-6.63-2.94-9.43l2.12-.19c.34,3.76,1.13,6.34,2.57,8.38a10.94,10.94,0,0,0,5.74,4.15,18.4,18.4,0,0,0,8.16.72,14.74,14.74,0,0,0,7.12-3.2,12,12,0,0,0,4-6.13l2.06.59a14.23,14.23,0,0,1-4.67,7.19,16.68,16.68,0,0,1-8.17,3.66A18.65,18.65,0,0,1,581.5,63.26Z"/><path class="cls-1" d="M581.48,67.53a24.36,24.36,0,0,1-8.94-1.69,17.21,17.21,0,0,1-8.72-7.72C561.94,54.69,561,50.51,561,45l2.14,0c0,5.17.85,9,2.56,12.13a15.12,15.12,0,0,0,7.64,6.77,22.41,22.41,0,0,0,10.5,1.41c7.44-.82,13.77-6,15.39-12.62l2.08.51c-1.84,7.47-8.93,13.32-17.24,14.23A24.48,24.48,0,0,1,581.48,67.53Z"/><rect class="cls-1" x="627.34" y="26.01" width="550" height="2.5"/><rect class="cls-1" x="627.34" y="30.71" width="550" height="2.5"/><rect class="cls-1" x="627.34" y="35.4" width="550" height="2.5"/><rect class="cls-1" y="26.01" width="550" height="2.5"/><rect class="cls-1" y="30.71" width="550" height="2.5"/><rect class="cls-1" y="35.4" width="550" height="2.5"/></g></g></svg>