<svg xmlns="http://www.w3.org/2000/svg" viewBox="0 0 440.2 170.07"><defs><style>.cls-1,.cls-2{fill:none;stroke:#bfaf93;}.cls-1,.cls-2,.cls-5,.cls-8{stroke-linecap:round;stroke-linejoin:round;}.cls-2{stroke-width:1.5px;}.cls-3{fill:#bfaf93;}.cls-4{fill:#3d4035;}.cls-5{fill:#8b6841;stroke:#fcd7a1;stroke-width:0.54px;}.cls-6{fill:#fcd7a1;}.cls-7{fill:#74302e;stroke-miterlimit:10;}.cls-7,.cls-8{stroke:#3d4035;stroke-width:0.5px;}.cls-8{fill:#fff;}.cls-9{fill:#87775c;}</style></defs><g id="レイヤー_2" data-name="レイヤー 2"><g id="レイヤー_1-2" data-name="レイヤー 1"><path class="cls-1" d="M428,56.11c-8.67-7.39-5.42-15.9-5.42-15.9l-14.63,0c.75-7.09-6.94-23-16.08-23L266.42,16.8C249.36-1.07,221.29.51,220.29.55s-29-1.77-46.18,16L48.66,16.26c-9.18,0-16.91,15.82-16.19,23l-14.65,0S21,47.69,12.31,55,.63,59.78.63,59.78L.5,109.11s3-2.49,11.66,4.84,5.41,15.9,5.41,15.9l14.65,0c-.75,7.08,6.89,23,16.07,23l125.49.33c17.05,17.91,45.23,16.38,46.06,16.28s29,1.78,46.17-16l125.53.33c9.18,0,16.92-15.82,16.2-22.9l14.63,0s-3.19-8.51,5.52-15.87,11.68-4.78,11.68-4.78L439.7,61S436.7,63.49,428,56.11Z"/><path class="cls-1" d="M222.41,163.73h-5.09c-6.12,0-27.08-1.14-40.11-14.79a4.84,4.84,0,0,0-1.56-1.13,4.77,4.77,0,0,0-1.89-.42l-125.45-.33c-1.82,0-4-1.55-6.12-4.21-3.33-4.31-5.11-10.14-4.9-12.24A6.32,6.32,0,0,0,36.05,126a4.85,4.85,0,0,0-3.81-1.92l-9,0a21.79,21.79,0,0,0-2.52-8.17,21.75,21.75,0,0,0-5.46-6.57,29.16,29.16,0,0,0-9.59-5.86l.1-38a28.93,28.93,0,0,0,9.62-5.79,22.1,22.1,0,0,0,5.5-6.55A21.57,21.57,0,0,0,23.45,45l9,0a4.84,4.84,0,0,0,3.84-2,6.45,6.45,0,0,0,1.32-4.5c-.22-2.11,1.61-7.93,5-12.21,2.08-2.66,4.31-4.19,6.14-4.18l125.42.33a4.66,4.66,0,0,0,1.88-.39,4.82,4.82,0,0,0,1.58-1.18c13.09-13.59,34-14.6,40.2-14.58h5.05c6.12,0,27.09,1.13,40.12,14.8a4.84,4.84,0,0,0,1.56,1.13,4.68,4.68,0,0,0,1.88.41L391.89,23c1.81,0,4,1.55,6.11,4.22,3.34,4.3,5.12,10.12,4.9,12.23a6.39,6.39,0,0,0,1.28,4.62,4.71,4.71,0,0,0,1.63,1.44A5,5,0,0,0,408,46l9,0a21.79,21.79,0,0,0,8,14.75,28.76,28.76,0,0,0,9.59,5.85l-.11,37.92a29.23,29.23,0,0,0-9.61,5.79,21.76,21.76,0,0,0-8,14.77l-9,0a4.85,4.85,0,0,0-3.84,2,6.36,6.36,0,0,0-1.26,4.56c.22,2.11-1.6,7.93-5,12.22-2.07,2.66-4.31,4.18-6.13,4.17l-125.54-.33a4.84,4.84,0,0,0-1.88.4,4.92,4.92,0,0,0-1.58,1.13C249.52,162.74,228.53,163.75,222.41,163.73Z"/><path class="cls-2" d="M112.94,106.92l214.22.57"/><path class="cls-3" d="M228.71,20.68a4,4,0,0,0-1.1-2.51A11,11,0,0,0,224.1,15c-.56-.28-1.15-.48-1.7-.81a5.37,5.37,0,0,1-1.85-1.85c0-.49,0-.12.11-.59-.1.32-.23-1.41-.39-1.11-.15-.3-.29,1.43-.39,1.1.07.48.1.11.12.6a5.18,5.18,0,0,1-1.88,1.84,16.35,16.35,0,0,1-1.69.8,11.25,11.25,0,0,0-3.53,3.16,4.21,4.21,0,0,0-1.11,2.5,3.75,3.75,0,0,0,.27,1.19,3.09,3.09,0,0,0,.34.65,1.62,1.62,0,0,0,.65.54,1.69,1.69,0,0,0,.82.18,2.21,2.21,0,0,0,1.49-.76,1.78,1.78,0,0,0,.48-.93c.25-1.37-1.53-1.37-1.13-.35.12.3.38.52.17.85a1,1,0,0,1-1.26.18,1.59,1.59,0,0,1-.52-.78,2.08,2.08,0,0,1,0-1.21,2.2,2.2,0,0,1,.59-1.05.74.74,0,0,1,.4-.27,1,1,0,0,1,.48,0c.29.1.52.43.83.42s.46-.25.59-.53.16-.53.25-.79a1.3,1.3,0,0,1,.71-.48,1.17,1.17,0,0,1,.84.06,2.47,2.47,0,0,1,.68.61,2.37,2.37,0,0,1,.4.83,5.94,5.94,0,0,0,.23.75,3.06,3.06,0,0,0,1,1.25.14.14,0,0,0,.1.08h.11a.19.19,0,0,0,.1-.08,3.18,3.18,0,0,0,1-1.24c.09-.24.14-.5.23-.75a2.28,2.28,0,0,1,.4-.83,2.72,2.72,0,0,1,.7-.61,1.2,1.2,0,0,1,1.5.43c.14.26.2.56.33.82s.33.53.59.53.54-.32.82-.42a1,1,0,0,1,.49,0,.9.9,0,0,1,.4.26,2.25,2.25,0,0,1,.63,1,2.3,2.3,0,0,1,0,1.22,1.41,1.41,0,0,1-.55.78,1,1,0,0,1-.66.14.92.92,0,0,1-.59-.32c-.2-.33.07-.55.18-.85.4-1-1.37-1-1.15.35a2.09,2.09,0,0,0,.49.93,2.25,2.25,0,0,0,1.48.76,1.59,1.59,0,0,0,.83-.17,1.71,1.71,0,0,0,.66-.53,3.56,3.56,0,0,0,.32-.65A3.13,3.13,0,0,0,228.71,20.68Zm-8.47-2.53a2.16,2.16,0,0,1-.3-1.78,2.32,2.32,0,0,1,.31-.46,1.62,1.62,0,0,1,.33.46,2.32,2.32,0,0,1,0,.91,2.12,2.12,0,0,1-.37.84Z"/><path class="cls-3" d="M235.34,28.09a2.29,2.29,0,0,0-.66-.69,2.18,2.18,0,0,0-.89-.33,34.35,34.35,0,0,0-6.84-1,5.47,5.47,0,0,1-3.27-.81,6.69,6.69,0,0,1-1-1c-.8-1-1.62-2-2.42-3l-2.45,3a5.26,5.26,0,0,1-1,1,5.47,5.47,0,0,1-3.26.8,33,33,0,0,0-6.84,1,2.09,2.09,0,0,0-.9.33,2,2,0,0,0-.65.67,1.65,1.65,0,0,0-.12.69,1.46,1.46,0,0,0,.17.68,2,2,0,0,0,.92.92,2.59,2.59,0,0,0,1.31.29,2.39,2.39,0,0,0,1.27-.43l-.3,1.33a.86.86,0,0,0,0,.39.65.65,0,0,0,.19.32.67.67,0,0,0,.33.18c1.51.49,3-1.11,4.58-1a6,6,0,0,0-1.71,2.62,1.43,1.43,0,0,0,0,.65.94.94,0,0,0,.25.43,1.06,1.06,0,0,0,.43.26,3.29,3.29,0,0,0,.94,0,4.48,4.48,0,0,0,.19,3.06,3.75,3.75,0,0,0,2,2,2.61,2.61,0,0,0,1.72.13,2.58,2.58,0,0,0,1.22-4.21,2,2,0,0,0-1.15-.5,1,1,0,0,0-.72.09,1.08,1.08,0,0,0-.48.55.82.82,0,0,0,0,.49.8.8,0,0,0,.33.37.58.58,0,0,0,.21.07.33.33,0,0,0,.22,0,.57.57,0,0,0,.19-.1.52.52,0,0,0,.13-.17s.54.3.5.62a1.11,1.11,0,0,1-.15.43,1,1,0,0,1-.32.32A1.72,1.72,0,0,1,215,38.2a2.55,2.55,0,0,1-.47-1.33,2.43,2.43,0,0,1,.37-1.36,4.26,4.26,0,0,1,1.25-1.1,8.46,8.46,0,0,0,3.6-4,2.28,2.28,0,0,0,.22-1,2.49,2.49,0,0,0-.21-1c-.48.37-1.1.77-1.6.46a1.81,1.81,0,0,1-.48-.65,2,2,0,0,1-.16-.8,1.19,1.19,0,0,1,0-.46,1.12,1.12,0,0,1,.26-.38c.81-.83,1.66-1.62,2.51-2.37.87.76,1.71,1.55,2.5,2.38A.87.87,0,0,1,223,27a1.19,1.19,0,0,1,0,.46c-.09.56-.2,1.25-.64,1.45a1.8,1.8,0,0,1-1.6-.46,2.28,2.28,0,0,0-.23,1,2.36,2.36,0,0,0,.22,1,8.51,8.51,0,0,0,3.56,4,4.28,4.28,0,0,1,1.26,1.1,2.32,2.32,0,0,1,.34,1.36,2.38,2.38,0,0,1-.47,1.33,1.69,1.69,0,0,1-2.34.35,1.07,1.07,0,0,1-.48-.75c0-.32.51-.62.51-.62a1.09,1.09,0,0,0,.13.17.56.56,0,0,0,.2.11.41.41,0,0,0,.22,0,.5.5,0,0,0,.2-.08.73.73,0,0,0,.36-.86,1,1,0,0,0-.46-.55,1,1,0,0,0-.72-.1,1.89,1.89,0,0,0-1.13.5A2.43,2.43,0,0,0,221.2,38a2.66,2.66,0,0,0,3.71,2.51,3.75,3.75,0,0,0,2-2,4.69,4.69,0,0,0,.2-3.07,2.7,2.7,0,0,0,.94,0,1,1,0,0,0,.43-.25.92.92,0,0,0,.24-.43,1.43,1.43,0,0,0,0-.65A5.92,5.92,0,0,0,227,31.46c1.58-.08,3.06,1.52,4.58,1a.73.73,0,0,0,.33-.16,1,1,0,0,0,.26-.28,2.41,2.41,0,0,0,0-.38l-.3-1.33a2.48,2.48,0,0,0,2.57.14,2.1,2.1,0,0,0,.93-.91,1.69,1.69,0,0,0,.15-.7A1.67,1.67,0,0,0,235.34,28.09Zm-19.59-.85a11.09,11.09,0,0,0-1.13,1.25c-.41.4-.83.77-1.27,1.14A5.23,5.23,0,0,1,211.1,31l.12-.8a.38.38,0,0,0,0-.15.32.32,0,0,0-.13-.1,3.75,3.75,0,0,0-1.25-.18,1.83,1.83,0,0,1-.64-.16,1.55,1.55,0,0,1-.53-.39,4.35,4.35,0,0,1,1.48-.17A10.94,10.94,0,0,0,215.75,27.24Zm2.46,3.13c-.83.85-1.42,1.91-2.32,2.73-.28.25-.82.87-1.25.87s-.37-.59,0-.87l.75-.59A20.92,20.92,0,0,0,218.21,30.37Zm6.61,2.17.73.59c.33.28.5.87,0,.87s-.93-.62-1.25-.88c-.88-.82-1.48-1.89-2.29-2.74a22.26,22.26,0,0,0,2.76,2.16Zm6.72-3.34a1.43,1.43,0,0,1-.52.39,1.76,1.76,0,0,1-.64.15,3.82,3.82,0,0,0-1.25.18.12.12,0,0,0-.12.1.2.2,0,0,0,0,.15l.12.8a5.28,5.28,0,0,1-2.37-1.41c-.41-.37-.83-.74-1.24-1.14a9.59,9.59,0,0,0-1.13-1.25A11,11,0,0,0,230,28.92a4.18,4.18,0,0,1,1.48.28Z"/><path class="cls-4" d="M402.31,85.14a150.07,150.07,0,0,0,25.15-4.37A24,24,0,0,1,402.31,85.14Z"/><path class="cls-4" d="M402.26,84.25h-.07s1.46-5.39,11.69-7.47c5.42-1.12,13.75,3,13.75,3l-.16.16A151.59,151.59,0,0,1,402.26,84.25Z"/><path class="cls-4" d="M396.71,73.8a.13.13,0,0,1,.12,0,.24.24,0,0,1,.08.11.22.22,0,0,1-.08.24A60.58,60.58,0,0,1,354,83.64a.17.17,0,0,1-.14-.07.23.23,0,0,1-.06-.16.11.11,0,0,1,0-.08.18.18,0,0,1,.05-.07.11.11,0,0,1,.08,0,.11.11,0,0,1,.08,0,60.08,60.08,0,0,0,42.56-9.52A.14.14,0,0,1,396.71,73.8Z"/><path class="cls-4" d="M385.92,88.53s5-2.09,5.77-6.93l.84-4.84a18.63,18.63,0,0,0-5.68,4.36C384.7,83.76,385.92,88.53,385.92,88.53Z"/><path class="cls-4" d="M372,74.77s3.63,4.56,8.74,4.77l5.08.23a24.87,24.87,0,0,0-6.12-5C376.34,73,372,74.77,372,74.77Z"/><path class="cls-4" d="M343.13,80.26s4,4.22,9.07,3.94l5-.31a25.44,25.44,0,0,0-6.54-4.37C347.2,78.09,343.13,80.26,343.13,80.26Z"/><path class="cls-4" d="M355.27,77.8s1.87,4.21,5.55,5.25l3.68,1a19.41,19.41,0,0,0-3.62-5C358.75,77.17,355.27,77.8,355.27,77.8Z"/><path class="cls-4" d="M385.39,71.12a8.35,8.35,0,0,1,6.08,1.93l2.5,2.41a15,15,0,0,1-4.93-.59C386.76,74,385.39,71.12,385.39,71.12Z"/><path class="cls-4" d="M366.76,78.27a8.34,8.34,0,0,1,6.08,1.94l2.49,2.36a14.71,14.71,0,0,1-4.93-.6C368.08,81.22,366.76,78.27,366.76,78.27Z"/><path class="cls-4" d="M375.24,89s.39-4.26,3.77-6l3.41-1.72a14.89,14.89,0,0,1-1.9,5.32C379.06,88.76,375.24,89,375.24,89Z"/><path class="cls-4" d="M362.38,90.37s.92-4.1,4.52-5.35l3.58-1.24a14.69,14.69,0,0,1-2.52,5C366.13,90.61,362.38,90.37,362.38,90.37Z"/><path class="cls-4" d="M408.68,82a.9.9,0,0,0,.43-.13.56.56,0,0,0,.33-.76.76.76,0,0,0-.24-.39,2.1,2.1,0,0,0-.81-.39,14.22,14.22,0,0,0-2.51-.46c-.55,0-1.25-.14-1.43-.66.71.67,1.85.21,2.68-.3,1.53-.9,3.07-1.33,3.23-4.23-2.43-.68-4.19,1.74-6.69,2A3.92,3.92,0,0,1,404.83,74a12.76,12.76,0,0,0,1.35-2.59,1.37,1.37,0,0,0,.16-.63,1.32,1.32,0,0,0-.15-.62c-.34-.43-1-.28-1.46,0a6.19,6.19,0,0,0-2.24,2.22,6.36,6.36,0,0,0-.9,3,24.47,24.47,0,0,1-.35,3.42c-.15,1.16.33,1.45,1.25,1.78C404.32,81.32,406.58,82.35,408.68,82Z"/><path class="cls-4" d="M400.34,72a6,6,0,0,1,1.89-3.18c.36-.27.9-.46,1.25-.14s.19.87,0,1.25l-1,2.91c1.07-1.37,2.33-2.84,4-3a1.24,1.24,0,0,1,.88.18,1.07,1.07,0,0,1,.31.52,1.18,1.18,0,0,1,0,.59,2.81,2.81,0,0,1-.54,1.06,15.27,15.27,0,0,1-2.2,2.42,4.85,4.85,0,0,1,1.44-1.19,4.63,4.63,0,0,1,1.77-.55,1.74,1.74,0,0,1,.93.14.79.79,0,0,1,.41.83,1.1,1.1,0,0,1-.41.52,12.24,12.24,0,0,1-3.37,2.13,5.37,5.37,0,0,1,2.16-.72,5.81,5.81,0,0,1,2.27.18,1.84,1.84,0,0,1-.84,1.39,4.37,4.37,0,0,1-1.54.55,24.24,24.24,0,0,1-3.81.51,8.8,8.8,0,0,1-3.75-.15C398.69,77.41,400,73.24,400.34,72Z"/><path class="cls-4" d="M401.19,80.19a1.78,1.78,0,0,1-1.26-.49,2,2,0,0,1-.37-.8,4.57,4.57,0,0,1,.13-2.43c0-.16.19-.35.34-.27s.08.09.11.16c.13.25.25.5.37.75.26,0,.46-.43.69-.3a.48.48,0,0,1,.15.28,3.7,3.7,0,0,1,0,1.15,2.56,2.56,0,0,0,1.55,0,1.55,1.55,0,0,1-.47.92,3.42,3.42,0,0,1,1.26.3.2.2,0,0,1,.17.19C403.84,80.35,401.47,80.21,401.19,80.19Z"/><path class="cls-4" d="M398.51,85.12a5.34,5.34,0,0,0,0,1.44c-.12,0-.16-.17-.16-.3a13.55,13.55,0,0,1,.71-5.17,8.75,8.75,0,0,1,.51-1.18c.1-.2.49-.72.41-.15a6,6,0,0,1-.52,1.19c-.17.43-.33.87-.45,1.25A16,16,0,0,0,398.51,85.12Z"/><path class="cls-5" d="M396.81,97h-.12a10.39,10.39,0,0,0-5.39,2.22,10,10,0,0,0-2.27,2.5,12.29,12.29,0,0,0,2.59.65,4,4,0,0,1-.65,2.5l2.29.24a15.79,15.79,0,0,1-.91,2.49,12.08,12.08,0,0,0,8.51-6.73,4.64,4.64,0,0,0,.54-2.25h.37a1.91,1.91,0,0,0-.36,1.25,23.1,23.1,0,0,0,0,3,11.48,11.48,0,0,0,2.12,5.63,10.23,10.23,0,0,0,2.41,2.37,13.1,13.1,0,0,0,.64-2.7,3.55,3.55,0,0,1,2.44.68c.08-.7.15-1.68.22-2.39a14.32,14.32,0,0,1,2.43,1,12.46,12.46,0,0,0-6.46-9L405,98.4a13.86,13.86,0,0,0,2.28.5,10.1,10.1,0,0,0,8.42-3,12.29,12.29,0,0,0-2.41-1.26,3.83,3.83,0,0,1,1.12-2.35c-.65-.23-1.55-.49-2.2-.7a14.35,14.35,0,0,1,1.38-2.29,11.78,11.78,0,0,0-7.58,2.7,11.44,11.44,0,0,0,1.88-5.13,10.79,10.79,0,0,0-.16-3.45,12,12,0,0,0-2.25,1.49,4,4,0,0,1-1.31-2.25c-.53.44-1.25,1.09-1.74,1.55a15.19,15.19,0,0,1-1.13-2.5,13.06,13.06,0,0,0-1.84,8.56,12.24,12.24,0,0,0-5.84-4.81,15.88,15.88,0,0,1,.44,2.66c-.68,0-1.62-.17-2.29-.23a4,4,0,0,1,.16,2.62,13.16,13.16,0,0,0-2.66.15A10.13,10.13,0,0,0,391,93.53a10.77,10.77,0,0,0,4.89,3.26A7,7,0,0,0,396.81,97Z"/><path class="cls-6" d="M398.64,95.06a3.59,3.59,0,0,0,2.7,4.21,3.46,3.46,0,0,0,1.36,0,3.4,3.4,0,0,0,1.25-.54,3.44,3.44,0,0,0,.94-1,3.48,3.48,0,0,0,.5-1.27,3.59,3.59,0,0,0-2.71-4.22,3.46,3.46,0,0,0-1.36,0,3.33,3.33,0,0,0-1.25.54,3.62,3.62,0,0,0-.95,1A3.68,3.68,0,0,0,398.64,95.06Z"/><path class="cls-7" d="M405.86,87.06l.42-1.49h.11L406,87.05a1.46,1.46,0,0,1-.21.57,1.44,1.44,0,0,1-.43.42v-.1C405.61,87.84,405.74,87.43,405.86,87.06Z"/><path class="cls-7" d="M404.57,85.16a23,23,0,0,1-.83,2.28h-.11a20.49,20.49,0,0,0,.82-2.27Z"/><path class="cls-7" d="M402.33,84.73a9.34,9.34,0,0,0-.19,3.29h-.08a9.81,9.81,0,0,1,.18-3.33Z"/><path class="cls-7" d="M408.9,92.84V93h0v-.13a.24.24,0,0,1,.16-.07,8.89,8.89,0,0,0,2.22-.78v.1a8.74,8.74,0,0,1-2.27.79A.09.09,0,0,0,408.9,92.84Z"/><path class="cls-7" d="M409.9,94h-.1a.19.19,0,0,1,0-.15.5.5,0,0,1,.22-.21l1.61-.84v.11l-1.59,1A.41.41,0,0,0,409.9,94Z"/><path class="cls-7" d="M410.75,95.33l1.6-.4V95l-1.6.39a.42.42,0,0,0-.19.09v.08l-.07.09a.13.13,0,0,1,0-.12.3.3,0,0,1,.06-.18A.66.66,0,0,1,410.75,95.33Z"/><path class="cls-7" d="M406.74,104l1.33,1.51c.09.11.2.22.33.21v.11h-.08a.61.61,0,0,1-.34-.25l-1.32-1.51Z"/><path class="cls-7" d="M406.12,105.27h.1a7,7,0,0,0,1,1.4l-.08.09A7.28,7.28,0,0,1,406.12,105.27Z"/><path class="cls-7" d="M406,107.66h-.1a19.1,19.1,0,0,0-1.37-2.8h.1A19.1,19.1,0,0,1,406,107.66Z"/><path class="cls-7" d="M395.63,103.3a30.07,30.07,0,0,1-2.82,1.32v-.11a28.32,28.32,0,0,0,2.81-1.26Z"/><path class="cls-7" d="M394.87,102A17,17,0,0,1,393,103v-.1a14.84,14.84,0,0,0,1.9-1.09Z"/><path class="cls-7" d="M393.85,100.94l.06.1c-.53.38-1.08.75-1.63,1.08l-.06-.09C392.77,101.69,393.32,101.3,393.85,100.94Z"/><path class="cls-7" d="M392.91,91.14a3.25,3.25,0,0,0,.58,1.25.78.78,0,0,0,.46.33v.12a.92.92,0,0,1-.52-.39,3.23,3.23,0,0,1-.6-1.35Z"/><path class="cls-7" d="M394.9,91.3a7.5,7.5,0,0,1-.93-.94.86.86,0,0,1-.21-.29,1.13,1.13,0,0,1-.06-.36h.11a.78.78,0,0,0,.07.3.62.62,0,0,0,.17.25A7,7,0,0,0,394.9,91.3Z"/><path class="cls-7" d="M395.06,88.53h.11a2.36,2.36,0,0,0,.68,1.36l-.08.08A2.44,2.44,0,0,1,395.06,88.53Z"/><path class="cls-4" d="M400,94.47a.22.22,0,0,1,.14.11.43.43,0,0,1,0,.16l.92.42a1.09,1.09,0,0,1,.47-.38l-.3-1.09a.24.24,0,0,1-.12,0,.14.14,0,0,1-.08-.09.25.25,0,0,1,0-.17.24.24,0,0,1,.1-.14.17.17,0,0,1,.17,0,.15.15,0,0,1,.13.11.22.22,0,0,1,0,.16.33.33,0,0,1-.1.14l.3,1.09a.89.89,0,0,1,.51,0,1.24,1.24,0,0,1,.45.21,1.17,1.17,0,0,1,.3.4v-.09l1.06-.31a.28.28,0,0,1,0-.13.2.2,0,0,1,.09-.09h.23l.05.07a.2.2,0,0,1-.07.28l0,0H404l-.05-.06-1,.3a1.19,1.19,0,0,1,.08.72l.89.53a.24.24,0,0,1,.12,0,.2.2,0,0,1,.11,0,.19.19,0,0,1,.12.11.22.22,0,0,1,0,.16.11.11,0,0,1,0,.08l-.07.06H404a.43.43,0,0,1-.12-.11.22.22,0,0,1,0-.16l-.87-.5a1.08,1.08,0,0,1-.23.42.93.93,0,0,1-.37.28l.34.88a.24.24,0,0,1,.12,0,.24.24,0,0,1,.09.08.11.11,0,0,1,0,.08v.09a.11.11,0,0,1,0,.08.09.09,0,0,1-.06.06.22.22,0,0,1-.3,0,.25.25,0,0,1,0-.17.22.22,0,0,1,.09-.14l-.34-.88a.83.83,0,0,1-.58,0h-.14l-.41.79a.24.24,0,0,1,.06.11.29.29,0,0,1,0,.13.09.09,0,0,1,0,.07l-.07.06H401l-.05-.07a.11.11,0,0,1,0-.08v-.16l.06-.06h.17l.41-.77a1.3,1.3,0,0,1-.39-.31,1.06,1.06,0,0,1-.21-.44l-.84.35a.24.24,0,0,1,0,.12.16.16,0,0,1-.09.09.14.14,0,0,1-.15.06.22.22,0,0,1-.15-.06.25.25,0,0,1,0-.17.45.45,0,0,1,.1-.14.23.23,0,0,1,.16-.06.27.27,0,0,1,.14.07l.85-.35a1,1,0,0,1,0-.43.84.84,0,0,1,.15-.38l-.9-.4-.11.07H400a.18.18,0,0,1-.13-.26.24.24,0,0,1,0-.12.27.27,0,0,1,.05-.11.22.22,0,0,1,.09-.07A.17.17,0,0,1,400,94.47Z"/><path class="cls-4" d="M403,93.82l-.43,1h-.09l.43-1a.26.26,0,0,1-.07-.1.29.29,0,0,1,0-.13v-.08l.06-.06a.14.14,0,0,1,.09,0h.1a.21.21,0,0,1,.14.1.22.22,0,0,1,0,.16.23.23,0,0,1-.1.12A.2.2,0,0,1,403,93.82Z"/><path class="cls-5" d="M383.55,86.54h-.09a11,11,0,0,0-4.27,4.11,10.53,10.53,0,0,0-1.26,3.2,12.36,12.36,0,0,0,2.65-.37,4,4,0,0,1,.27,2.62c.67-.17,1.56-.45,2.22-.64a15.22,15.22,0,0,1,0,2.7,12.6,12.6,0,0,0,3.89-4.1,12.9,12.9,0,0,0,1.73-5.4,4.57,4.57,0,0,0-.29-2.28h.38a2,2,0,0,0,.1,1.33c.37.93.58,1.9,1,2.8a11.25,11.25,0,0,0,4,4.47,9.9,9.9,0,0,0,3.06,1.26,13.48,13.48,0,0,0-.37-2.77,3.67,3.67,0,0,1,2.5-.29c-.16-.68-.44-1.62-.61-2.31a12.46,12.46,0,0,1,2.59,0A12.06,12.06,0,0,0,392,85h-.18a16.44,16.44,0,0,0,2.3-.37,11,11,0,0,0,5-3.13,10.57,10.57,0,0,0,1.84-2.87,11.94,11.94,0,0,0-2.67-.21,4,4,0,0,1,.24-2.63c-.68,0-1.61.14-2.3.17a14.83,14.83,0,0,1,.51-2.64,12.22,12.22,0,0,0-6.18,5.38,11.89,11.89,0,0,0,0-5.5,10.66,10.66,0,0,0-1.41-3.2,11.71,11.71,0,0,0-1.6,2.22,3.63,3.63,0,0,1-2-1.61c-.34.63-.77,1.49-1.09,2.12a13.92,13.92,0,0,1-1.89-1.87,13.12,13.12,0,0,0,1.23,8.68,11.77,11.77,0,0,0-7.23-2.63,18.2,18.2,0,0,1,1.31,2.32c-.65.19-1.56.44-2.21.66a3.78,3.78,0,0,1,1.06,2.37,12.81,12.81,0,0,0-2.5,1.14,10,10,0,0,0,2.66,2,10.38,10.38,0,0,0,5.7,1.2A4.48,4.48,0,0,0,383.55,86.54Z"/><path class="cls-6" d="M384.61,84a3.72,3.72,0,0,0,.46,1.31,3.42,3.42,0,0,0,2.2,1.58,3.38,3.38,0,0,0,3.62-1.45,3.51,3.51,0,0,0,.55-2.65,3.26,3.26,0,0,0-.45-1.29,3.44,3.44,0,0,0-3.56-1.62,3.57,3.57,0,0,0-2.25,1.51A3.5,3.5,0,0,0,384.61,84Z"/><path class="cls-8" d="M388.57,73.86l-.11-1.56h.11l.1,1.54a1.78,1.78,0,0,1,0,.61,1.36,1.36,0,0,1-.25.56l-.08-.08a1.39,1.39,0,0,0,.24-1.07Z"/><path class="cls-8" d="M386.69,72.52a20.85,20.85,0,0,1,0,2.5h-.11a20.85,20.85,0,0,0,0-2.5Z"/><path class="cls-8" d="M384.47,73a9.59,9.59,0,0,0,1,3.14h-.1a9.65,9.65,0,0,1-1-3.18Z"/><path class="cls-8" d="M393.39,78.1v.12h-.09v-.13a.28.28,0,0,1,.12-.12,9.74,9.74,0,0,0,1.82-1.57l.08.08a9.09,9.09,0,0,1-1.85,1.59S393.4,78.08,393.39,78.1Z"/><path class="cls-8" d="M394.7,78.79l-.07.09v-.13a.5.5,0,0,1,.12-.28L396,77.09l.08.08-1.26,1.38a.47.47,0,0,0-.1.1A.57.57,0,0,0,394.7,78.79Z"/><path class="cls-8" d="M396,79.73l1.37-1h.08l-1.36,1a.4.4,0,0,0-.14.15h0V80s-.07,0-.1-.1a.25.25,0,0,1,0-.17Z"/><path class="cls-8" d="M395.24,89.32l1.76.91a.71.71,0,0,0,.18.08h.2v.16h0a.63.63,0,0,1-.4-.1l-1.74-.91Z"/><path class="cls-8" d="M395.05,90.76l.07-.09a7.4,7.4,0,0,0,1.41,1v.1A7.5,7.5,0,0,1,395.05,90.76Z"/><path class="cls-8" d="M395.78,93l-.09.07a18.47,18.47,0,0,0-2.23-2.1v-.09A18.64,18.64,0,0,1,395.78,93Z"/><path class="cls-8" d="M384.63,92.87c-.69.79-1.41,1.55-2.17,2.28l-.08-.13a29.47,29.47,0,0,0,2.19-2.28Z"/><path class="cls-8" d="M383.4,91.92A16.85,16.85,0,0,1,382,93.66l-.08-.09a15.74,15.74,0,0,0,1.42-1.73Z"/><path class="cls-8" d="M382.16,91.33h.09c-.36.55-.74,1.11-1.14,1.63l-.09-.08A13.14,13.14,0,0,0,382.16,91.33Z"/><path class="cls-8" d="M377.9,82.5a3,3,0,0,0,1,1,.88.88,0,0,0,.55.15v.12a1,1,0,0,1-.62-.17,3.4,3.4,0,0,1-1-1Z"/><path class="cls-8" d="M379.78,82a7.58,7.58,0,0,1-1.24-.53,1,1,0,0,1-.29-.2.92.92,0,0,1-.18-.3h.11c0,.2.24.33.41.43a8.12,8.12,0,0,0,1.17.51Z"/><path class="cls-8" d="M379,79.3h.1a2.3,2.3,0,0,0,1.11,1v.12A2.53,2.53,0,0,1,379,79.3Z"/><path class="cls-4" d="M385.66,83h.16l.05.06a.11.11,0,0,1,0,.08h1a1.14,1.14,0,0,1,.32-.51l-.65-.9a.24.24,0,0,1-.12,0,.24.24,0,0,1-.12,0,.35.35,0,0,1-.06-.17.29.29,0,0,1,.07-.16.2.2,0,0,1,.15-.06.21.21,0,0,1,.22.2v0a.22.22,0,0,1-.06.15l.65.9a1.09,1.09,0,0,1,.48-.21,1,1,0,0,1,.49,0,1,1,0,0,1,.42.25v-.08l.86-.68a.24.24,0,0,1,0-.12.2.2,0,0,1,0-.11l.07-.06h.18l.07.06a.17.17,0,0,1,.06.15.2.2,0,0,1-.06.16h-.3l-.88.69a1.13,1.13,0,0,1,.42.77l1,.15a.41.41,0,0,1,.07-.11h.12a.23.23,0,0,1,.16.06.26.26,0,0,1,.07.15v.16a.18.18,0,0,1-.07,0,.11.11,0,0,1-.08,0h-.16l-.05-.06v-.08l-1-.15a1.29,1.29,0,0,1-.06.47,1,1,0,0,1-.24.39l.61.7h.12a.24.24,0,0,1,.12,0,.18.18,0,0,1,.05.16.22.22,0,0,1-.06.15.19.19,0,0,1-.15.06.32.32,0,0,1-.15-.06l-.05-.07v-.08a.28.28,0,0,1,0-.09.12.12,0,0,1,.05-.07l-.62-.7a1,1,0,0,1-.53.28h-.15l-.12.88a.2.2,0,0,1,.09.09.21.21,0,0,1,.05.12.11.11,0,0,1,0,.08.11.11,0,0,1,0,.08h-.31v-.16a.33.33,0,0,1,0-.16.31.31,0,0,1,.15-.08l.12-.87a1,1,0,0,1-.46-.14,1,1,0,0,1-.36-.33l-.65.63a.48.48,0,0,1,0,.12.29.29,0,0,1,0,.13h-.3a.22.22,0,0,1,.15-.37.22.22,0,0,1,.15.06l.66-.65a1,1,0,0,1-.15-.4,1.48,1.48,0,0,1,0-.42h-1a.24.24,0,0,1-.06.11.26.26,0,0,1-.11.07.25.25,0,0,1-.17,0,.22.22,0,0,1-.08-.15.17.17,0,0,1,0-.14A.24.24,0,0,1,385.66,83Z"/><path class="cls-4" d="M388.2,81.27v1.17h-.12V81.29a.18.18,0,0,1-.1-.07.24.24,0,0,1-.06-.11.22.22,0,0,1,0-.16.24.24,0,0,1,.14-.1h.17l.06.06V81a.2.2,0,0,1-.14.24h0Z"/><path class="cls-4" d="M36.59,84.16a150.1,150.1,0,0,1-25.16-4.5A24,24,0,0,0,36.59,84.16Z"/><path class="cls-4" d="M36.64,83.27h.07s-1.45-5.39-11.62-7.53c-5.42-1.15-13.77,3-13.77,3l.16.16A151.09,151.09,0,0,0,36.64,83.27Z"/><path class="cls-4" d="M42.25,72.85h-.12a.21.21,0,0,0-.08.11.29.29,0,0,0,0,.13.19.19,0,0,0,.07.11A60.56,60.56,0,0,0,84.9,82.92a.16.16,0,0,0,.14-.08.2.2,0,0,0,0-.11.17.17,0,0,0,0-.1h-.16a60,60,0,0,1-42.5-9.75A.16.16,0,0,0,42.25,72.85Z"/><path class="cls-4" d="M53,87.64s-5-2.12-5.74-7l-.81-4.84a18.77,18.77,0,0,1,5.67,4.38C54.2,82.88,53,87.64,53,87.64Z"/><path class="cls-4" d="M66.94,74s-3.65,4.54-8.76,4.73l-5.1.2a25,25,0,0,1,6.14-5C62.62,72.2,66.94,74,66.94,74Z"/><path class="cls-4" d="M95.79,79.6s-4,4.2-9.09,3.89l-5-.34a25,25,0,0,1,6.56-4.33C91.72,77.41,95.79,79.6,95.79,79.6Z"/><path class="cls-4" d="M83.66,77.07s-1.9,4.2-5.59,5.22l-3.68,1a19.62,19.62,0,0,1,3.64-5C80.19,76.43,83.66,77.07,83.66,77.07Z"/><path class="cls-4" d="M53.57,70.23a8.34,8.34,0,0,0-6.08,1.9L45,74.53A14.6,14.6,0,0,0,49.9,74C52.18,73.15,53.57,70.23,53.57,70.23Z"/><path class="cls-4" d="M72.17,77.48a8.33,8.33,0,0,0-6.09,1.91l-2.51,2.35a14.63,14.63,0,0,0,4.93-.58C70.79,80.42,72.17,77.48,72.17,77.48Z"/><path class="cls-4" d="M63.64,88.15s-.37-4.27-3.75-6L56.54,80.4a15.21,15.21,0,0,0,1.85,5.31C59.87,87.91,63.64,88.15,63.64,88.15Z"/><path class="cls-4" d="M76.47,89.61S75.58,85.5,72,84.23L68.42,83a14.65,14.65,0,0,0,2.5,5C72.69,89.83,76.47,89.61,76.47,89.61Z"/><path class="cls-4" d="M30.27,81a1.15,1.15,0,0,1-.42-.13,1,1,0,0,1-.32-.31.72.72,0,0,1,0-.46.73.73,0,0,1,.24-.38,2,2,0,0,1,.81-.39,15.25,15.25,0,0,1,2.5-.45c.55,0,1.25-.13,1.43-.65-.72.67-1.85.2-2.69-.31-1.51-.91-3-1.35-3.2-4.25,2.45-.67,4.18,1.76,6.69,2A4,4,0,0,0,34.17,73a12.58,12.58,0,0,1-1.35-2.6,1.36,1.36,0,0,1-.15-.63,1.25,1.25,0,0,1,.16-.62c.34-.43,1-.27,1.45,0a6.35,6.35,0,0,1,3.11,5.27,26.22,26.22,0,0,0,.33,3.42c.15,1.16-.34,1.45-1.25,1.77C34.64,80.33,32.32,81.35,30.27,81Z"/><path class="cls-4" d="M38.62,71a6.13,6.13,0,0,0-1.87-3.19c-.36-.27-.9-.46-1.25-.14s-.19.87,0,1.25l1,2.85c-1.07-1.38-2.31-2.85-4-3a1.29,1.29,0,0,0-.88.19,1.16,1.16,0,0,0-.32.5,1.11,1.11,0,0,0,0,.6,3,3,0,0,0,.54,1.06A15.1,15.1,0,0,0,34,73.5a4.84,4.84,0,0,0-3.2-1.76,1.6,1.6,0,0,0-.94.14.73.73,0,0,0-.34.33.8.8,0,0,0-.06.48,1.23,1.23,0,0,0,.39.54,12.1,12.1,0,0,0,3.39,2.26,5.54,5.54,0,0,0-2.19-.78,6,6,0,0,0-2.27.17,1.82,1.82,0,0,0,.24.79,1.79,1.79,0,0,0,.56.6,4,4,0,0,0,1.53.56,23.17,23.17,0,0,0,3.8.53,8.72,8.72,0,0,0,3.77-.13C40.28,76.45,39,72.28,38.62,71Z"/><path class="cls-4" d="M37.8,79.22a1.78,1.78,0,0,0,1.28-.48,2,2,0,0,0,.37-.8,4.46,4.46,0,0,0-.14-2.43c0-.16-.19-.35-.34-.27a.33.33,0,0,0-.11.15l-.38.75c-.25,0-.45-.43-.67-.3a.39.39,0,0,0-.15.28,3.18,3.18,0,0,0,0,1.15,2.56,2.56,0,0,1-1.55,0,1.52,1.52,0,0,0,.45.92,3.73,3.73,0,0,0-1.31.3.19.19,0,0,0-.17.19C35.08,79.37,37.45,79.24,37.8,79.22Z"/><path class="cls-4" d="M40.38,84.16a5,5,0,0,1,0,1.44c.12,0,.16-.17.16-.3a13.75,13.75,0,0,0-.67-5.17A12.34,12.34,0,0,0,39.35,79c-.1-.2-.49-.72-.41-.15A5.5,5.5,0,0,0,39.46,80c.16.43.31.87.43,1.25A15.36,15.36,0,0,1,40.38,84.16Z"/><path class="cls-5" d="M42.9,95.85a10.68,10.68,0,0,0,4.9-3.24,10.14,10.14,0,0,0,1.83-2.91A13.22,13.22,0,0,0,47,89.53a4,4,0,0,1,.19-2.62c-.68.06-1.62.17-2.29.22a14.29,14.29,0,0,1,.45-2.6,12.06,12.06,0,0,0-5.87,5.16,13,13,0,0,0-1.82-8.57,14.22,14.22,0,0,1-1.11,2.49c-.52-.46-1.25-1.11-1.74-1.56a3.9,3.9,0,0,1-1.25,2.25,13,13,0,0,0-2.25-1.51,10.22,10.22,0,0,0-.21,3.4,11.56,11.56,0,0,0,1.85,5.14,11.81,11.81,0,0,0-7.61-2.74,14.91,14.91,0,0,1,1.38,2.3c-.65.22-1.55.47-2.2.69a3.85,3.85,0,0,1,1.1,2.36,12.51,12.51,0,0,0-2.41,1.25,9.92,9.92,0,0,0,2.63,1.87,10.44,10.44,0,0,0,5.71,1.09,16.24,16.24,0,0,0,2.28-.49l-.16.08a12.49,12.49,0,0,0-6.54,8.84,14.14,14.14,0,0,1,2.44-.94c.08.71.13,1.7.2,2.4a3.56,3.56,0,0,1,2.44-.66,14.54,14.54,0,0,0,.64,2.7,10,10,0,0,0,2.42-2.36,11.58,11.58,0,0,0,2.15-5.62c0-1,0-2,0-3a2.07,2.07,0,0,0-.33-1.28.46.46,0,0,0,.26,0h.11a4.65,4.65,0,0,0,.52,2.25,12.21,12.21,0,0,0,8.48,6.82,15,15,0,0,1-.91-2.5l2.29-.23a4,4,0,0,1-.63-2.5,12.11,12.11,0,0,0,2.59-.64,10.09,10.09,0,0,0-2.2-2.5,10.61,10.61,0,0,0-5.47-2.44H42A6.59,6.59,0,0,0,42.9,95.85Z"/><path class="cls-6" d="M40.17,94.1a3.57,3.57,0,0,1-2.71,4.2,3.71,3.71,0,0,1-1.37,0,3.42,3.42,0,0,1-1.25-.55,3.73,3.73,0,0,1-.94-1,3.46,3.46,0,0,1-.47-1.24,3.55,3.55,0,0,1,.5-2.66,3.64,3.64,0,0,1,2.22-1.55,3.33,3.33,0,0,1,1.37,0,3.26,3.26,0,0,1,1.25.55,3.51,3.51,0,0,1,.92,1A3.19,3.19,0,0,1,40.17,94.1Z"/><path class="cls-7" d="M33.06,86.06l-.41-1.49h-.11L33,86.05a1.4,1.4,0,0,0,.21.57,1.47,1.47,0,0,0,.43.43V87C33.27,86.84,33.14,86.43,33.06,86.06Z"/><path class="cls-7" d="M34.33,84.17a19.47,19.47,0,0,0,.81,2.33h.1a20.21,20.21,0,0,1-.81-2.38Z"/><path class="cls-7" d="M36.57,83.75A9.85,9.85,0,0,1,36.74,87h.11a10.36,10.36,0,0,0-.16-3.33Z"/><path class="cls-7" d="M30,91.83v.11a.23.23,0,0,0,.07-.07v-.13a.19.19,0,0,0-.15-.07,9.18,9.18,0,0,1-2.22-.79V91a8.94,8.94,0,0,0,2.26.8Z"/><path class="cls-7" d="M29,93H29a.38.38,0,0,0,0-.15.43.43,0,0,0-.21-.21l-1.59-.85v.11l1.59.84a.31.31,0,0,1,.09.11A.21.21,0,0,1,29,93Z"/><path class="cls-7" d="M28.09,94.31l-1.6-.41V94l1.6.4a.31.31,0,0,1,.18.09.11.11,0,0,1,0,.08l.08.09a.24.24,0,0,0,0-.12.3.3,0,0,0-.06-.18A.66.66,0,0,0,28.09,94.31Z"/><path class="cls-7" d="M32.08,103l-1.35,1.49c-.08.11-.2.22-.32.21v.11h.07a.61.61,0,0,0,.34-.25l1.26-1.5Z"/><path class="cls-7" d="M32.71,104.27h-.1a8.11,8.11,0,0,1-1,1.4l.08.09A7.56,7.56,0,0,0,32.71,104.27Z"/><path class="cls-7" d="M32.81,106.66h.11a19.49,19.49,0,0,1,1.37-2.79h-.1A20.66,20.66,0,0,0,32.81,106.66Z"/><path class="cls-7" d="M43.17,102.36A27.15,27.15,0,0,0,46,103.69v-.11a29.13,29.13,0,0,1-2.79-1.27Z"/><path class="cls-7" d="M44,101a15.08,15.08,0,0,0,1.92,1.09V102a14,14,0,0,1-1.92-1.1Z"/><path class="cls-7" d="M45,100v.1c.52.38,1.07.75,1.62,1.09v-.09C46,100.76,45.48,100.37,45,100Z"/><path class="cls-7" d="M46,90.21a3.25,3.25,0,0,1-.58,1.25.84.84,0,0,1-.46.33v.12a1,1,0,0,0,.51-.39,3.28,3.28,0,0,0,.63-1.35Z"/><path class="cls-7" d="M44.05,90.36a8.08,8.08,0,0,0,.92-.93.86.86,0,0,0,.21-.3.71.71,0,0,0,.07-.35h-.2a.82.82,0,0,1-.07.3,1,1,0,0,1-.17.25,7.35,7.35,0,0,1-.93.92Z"/><path class="cls-7" d="M43.79,87.59h-.11A2.45,2.45,0,0,1,43,89l.08.08A2.62,2.62,0,0,0,43.79,87.59Z"/><path class="cls-4" d="M38.86,93.51a.21.21,0,0,0-.14.1.22.22,0,0,0,0,.16l-.92.42a1.09,1.09,0,0,0-.47-.38l.3-1.09a.24.24,0,0,0,.12,0,.14.14,0,0,0,.08-.09.25.25,0,0,0,0-.17.23.23,0,0,0-.09-.14.17.17,0,0,0-.17,0,.15.15,0,0,0-.14.11.43.43,0,0,0,0,.16.45.45,0,0,0,.1.14l-.3,1.09a.89.89,0,0,0-.51,0,1.05,1.05,0,0,0-.45.22,1.16,1.16,0,0,0-.31.39v-.09L34.91,94a.29.29,0,0,0,0-.13.2.2,0,0,0-.09-.09h-.23v.07a.25.25,0,0,0,0,.17.26.26,0,0,0,.1.13.21.21,0,0,0,.29-.08h0l1.05.31a1.19,1.19,0,0,0-.08.72l-.91.52a.18.18,0,0,0-.22,0,.19.19,0,0,0-.12.11.22.22,0,0,0,0,.16.11.11,0,0,0,0,.08l.06.06h.16a.28.28,0,0,0,.13-.11.22.22,0,0,0,0-.16l.88-.52a1,1,0,0,0,.22.42.93.93,0,0,0,.37.28l-.35.88a.24.24,0,0,0-.12,0,.14.14,0,0,0-.09.08.24.24,0,0,0-.07.16.26.26,0,0,0,.07.15.2.2,0,0,0,.14.06.21.21,0,0,0,.21-.21.25.25,0,0,0-.06-.16l.34-.88a.92.92,0,0,0,.59,0h.14l.4.79a.24.24,0,0,0-.06.11.28.28,0,0,0,0,.13v.07l.07.06H38v-.07a.11.11,0,0,0,0-.08A.14.14,0,0,0,38,97a.08.08,0,0,0,0-.07.13.13,0,0,0-.07-.06h-.08a.11.11,0,0,0-.08,0l-.4-.77a1.3,1.3,0,0,0,.39-.31,1.19,1.19,0,0,0,.21-.44l.82.35a.24.24,0,0,0,0,.12.19.19,0,0,0,.08.1.2.2,0,0,0,.15.06.22.22,0,0,0,.15-.06.25.25,0,0,0,.06-.15.23.23,0,0,0-.06-.16.22.22,0,0,0-.15-.06.2.2,0,0,0-.15.06l-.8-.33a1,1,0,0,0,0-.43,1.26,1.26,0,0,0-.15-.38l.91-.4.1.07a.24.24,0,0,0,.12,0,.19.19,0,0,0,.13-.1.22.22,0,0,0,0-.16.15.15,0,0,0,0-.13.13.13,0,0,0,0-.12.15.15,0,0,0-.11-.08A.19.19,0,0,0,38.86,93.51Z"/><path class="cls-4" d="M35.86,92.84l.42,1h.09l-.39-1a.14.14,0,0,0,.07-.1.29.29,0,0,0,0-.13V92.5H36a.14.14,0,0,0-.09,0h-.08a.23.23,0,0,0-.14.1.21.21,0,0,0,.09.26A.16.16,0,0,0,35.86,92.84Z"/><path class="cls-5" d="M56.2,85.8a10.52,10.52,0,0,0,5.72-1.17,10,10,0,0,0,2.66-2,13.1,13.1,0,0,0-2.42-1.15,4,4,0,0,1,1.08-2.38c-.65-.21-1.56-.46-2.21-.66a14.72,14.72,0,0,1,1.33-2.31,11.74,11.74,0,0,0-7.28,2.54A13,13,0,0,0,56.35,70a14.45,14.45,0,0,1-1.89,1.86c-.32-.63-.75-1.51-1.08-2.13a3.66,3.66,0,0,1-2,1.6,11.93,11.93,0,0,0-1.58-2.22,10.53,10.53,0,0,0-1.39,3.14,11.62,11.62,0,0,0,0,5.5,12.26,12.26,0,0,0-6.14-5.42A14.88,14.88,0,0,1,42.72,75c-.68,0-1.62-.14-2.29-.19a4,4,0,0,1,.21,2.63,11.33,11.33,0,0,0-2.66.2,10.49,10.49,0,0,0,1.87,2.88,10.83,10.83,0,0,0,5,3.15,14.84,14.84,0,0,0,2.3.45H47a12.13,12.13,0,0,0-9.13,5.83,12.46,12.46,0,0,1,2.59,0c-.18.68-.45,1.62-.63,2.31a3.56,3.56,0,0,1,2.5.3,12.2,12.2,0,0,0-.35,2.76A9.6,9.6,0,0,0,45,94.07a11.16,11.16,0,0,0,4-4.44c.44-.9.66-1.88,1-2.79a2,2,0,0,0,.05-1.3h.38a4.61,4.61,0,0,0-.31,2.38,12.66,12.66,0,0,0,5.56,9.51,15.22,15.22,0,0,1,0-2.7c.65.2,1.55.49,2.22.66a4,4,0,0,1,.27-2.61,12,12,0,0,0,2.66.37A10.51,10.51,0,0,0,59.6,90a11,11,0,0,0-4.25-4.14h-.09A3,3,0,0,1,56.2,85.8Z"/><path class="cls-6" d="M54.28,83.13a3.44,3.44,0,0,1-.46,1.29,3.55,3.55,0,0,1-.93,1,3.32,3.32,0,0,1-1.24.56,3.46,3.46,0,0,1-1.36,0,3.58,3.58,0,0,1-2.77-4.17A3.54,3.54,0,0,1,48,80.53a3.61,3.61,0,0,1,.92-1A3.32,3.32,0,0,1,50.15,79a3.46,3.46,0,0,1,1.36,0,3.58,3.58,0,0,1,2.77,4.16Z"/><path class="cls-8" d="M50.39,73l.11-1.56h-.11l-.1,1.54a1.57,1.57,0,0,0,0,.61,1.47,1.47,0,0,0,.24.56L50.6,74a1.53,1.53,0,0,1-.21-.51A1.32,1.32,0,0,1,50.39,73Z"/><path class="cls-8" d="M52.27,71.63a19,19,0,0,0,0,2.5h.11a23.16,23.16,0,0,1,0-2.5Z"/><path class="cls-8" d="M54.49,72.14a9.65,9.65,0,0,1-1,3.13h.1a9.56,9.56,0,0,0,1-3.17Z"/><path class="cls-8" d="M45.54,77.17v.12h.1v-.13a.32.32,0,0,0-.11-.12,9.79,9.79,0,0,1-1.82-1.58l-.07.08a9,9,0,0,0,1.82,1.6S45.53,77.15,45.54,77.17Z"/><path class="cls-8" d="M44.21,77.85l.08.09v-.06a.08.08,0,0,0,0-.07.39.39,0,0,0-.12-.28L43,76.15l-.09.08,1.24,1.38A.31.31,0,0,1,44.21,77.85Z"/><path class="cls-8" d="M42.94,78.79l-1.37-.94V78l1.37,1a.4.4,0,0,1,.14.15h0v.1h0a.09.09,0,0,0,0-.07.11.11,0,0,0,0-.08.14.14,0,0,0,0-.09A.39.39,0,0,0,42.94,78.79Z"/><path class="cls-8" d="M43.63,88.38l-1.77.9a.49.49,0,0,1-.18.08h-.2v.16h.08a.62.62,0,0,0,.4-.1l1.77-.9Z"/><path class="cls-8" d="M43.8,89.82l-.08-.09a7.35,7.35,0,0,1-1.41,1v.1A7.52,7.52,0,0,0,43.8,89.82Z"/><path class="cls-8" d="M43.05,92.1l.09.07a18.43,18.43,0,0,1,2.24-2.09V90A17.28,17.28,0,0,0,43.05,92.1Z"/><path class="cls-8" d="M54.22,92c.67.79,1.4,1.55,2.16,2.29l.08-.09a29.26,29.26,0,0,1-2.17-2.29Z"/><path class="cls-8" d="M55.46,91a18.09,18.09,0,0,0,1.39,1.75l.08-.09A16.56,16.56,0,0,1,55.54,91Z"/><path class="cls-8" d="M56.69,90.46h-.08c.36.55.74,1.11,1.14,1.64l.08-.08A17.29,17.29,0,0,1,56.69,90.46Z"/><path class="cls-8" d="M61,81.65a3,3,0,0,1-1,1,.82.82,0,0,1-.55.14v.12a1,1,0,0,0,.62-.16,3.18,3.18,0,0,0,1-1Z"/><path class="cls-8" d="M59.12,81.12a7.07,7.07,0,0,0,1.26-.55.69.69,0,0,0,.28-.2.92.92,0,0,0,.18-.3h-.1a.78.78,0,0,1-.17.26,1.06,1.06,0,0,1-.26.17,5.64,5.64,0,0,1-1.16.5Z"/><path class="cls-8" d="M59.89,78.45H59.8a2.33,2.33,0,0,1-1.11,1v.12A2.4,2.4,0,0,0,59.89,78.45Z"/><path class="cls-4" d="M53.24,82.13a.22.22,0,0,0-.16,0,.19.19,0,0,0-.09.14H52a1.19,1.19,0,0,0-.32-.51l.66-.89h.12a.24.24,0,0,0,.12,0,.36.36,0,0,0,.07-.17.29.29,0,0,0-.07-.16.08.08,0,0,0-.07,0h-.16a.08.08,0,0,0-.07,0,.23.23,0,0,0-.06.16.24.24,0,0,0,.06.15l-.66.89a1.06,1.06,0,0,0-.47-.21,1,1,0,0,0-.49,0,1,1,0,0,0-.43.25v-.08L49.36,81a.24.24,0,0,0,0-.12.2.2,0,0,0,0-.11.08.08,0,0,1-.07-.06h-.21a.08.08,0,0,0-.07.06.17.17,0,0,0-.06.15.2.2,0,0,0,.06.16h.3l.86.7a1.1,1.1,0,0,0-.33.64l-1,.15a.41.41,0,0,0-.07-.11h-.12a.25.25,0,0,0-.16.06.26.26,0,0,0-.07.15v.16l.07,0h.24l.05-.06v-.08l1-.15a1.24,1.24,0,0,0,.06.47,1,1,0,0,0,.24.4l-.61.69a.24.24,0,0,0-.12,0,.24.24,0,0,0-.12,0,.23.23,0,0,0-.06.16.22.22,0,0,0,.06.15h.23a.34.34,0,0,0,.12-.12v-.17a.18.18,0,0,0,0-.07l.61-.69a1.12,1.12,0,0,0,.54.28h.14l.12.89a.12.12,0,0,0-.09.08.13.13,0,0,0,0,.12.25.25,0,0,0,0,.08v.08H51a.2.2,0,0,0,.15-.06.21.21,0,0,0,.08-.16.24.24,0,0,0-.07-.16.3.3,0,0,0-.15-.07l-.12-.87a1.16,1.16,0,0,0,.47-.14,1.13,1.13,0,0,0,.36-.33l.65.64a.13.13,0,0,0,0,.12.15.15,0,0,0,0,.13h.3a.25.25,0,0,0,.06-.16.2.2,0,0,0-.06-.15.22.22,0,0,0-.3,0l-.66-.66a.9.9,0,0,0,.13-.4,1,1,0,0,0,0-.42h1a.21.21,0,0,0,.11.27.25.25,0,0,0,.12,0,.22.22,0,0,0,.16,0,.24.24,0,0,0,.09-.15.29.29,0,0,0,0-.13A.39.39,0,0,0,53.24,82.13Z"/><path class="cls-4" d="M50.72,80.37v1.17h.19V80.39l.1-.07a.24.24,0,0,0,.06-.11.25.25,0,0,0,0-.17.24.24,0,0,0-.15-.09h-.16a.06.06,0,0,0,0,.06v.08a.33.33,0,0,0,0,.14A.18.18,0,0,0,50.72,80.37Z"/><path class="cls-3" d="M180.33,128.48a2.1,2.1,0,0,1-.57-1.92c0-.49,1.09-1.57,1.28-1.62a3.6,3.6,0,0,1,2.13,0,2.06,2.06,0,0,1,1.24,1.38,2.29,2.29,0,0,1,0,1.55,1.33,1.33,0,0,1-.35.49,2.56,2.56,0,0,1-3.61.22Z"/><path class="cls-3" d="M183.42,135.9c.32,1,1.38,1.19,1.83,1.37a2.59,2.59,0,0,0,3-2.06,2.56,2.56,0,0,0,0-.78,2.32,2.32,0,0,0-1-1.84,2.74,2.74,0,0,0-1.68-.62,1.45,1.45,0,0,0-.67.17,2.75,2.75,0,0,0-1.66,3.52A2.44,2.44,0,0,0,183.42,135.9Z"/><path class="cls-3" d="M193.31,123.62s-.82,4.5-.23,6.21c.83,2.45-.37,3.23-1.26,2-1.21-1.71-.43-3.44-.13-4.46A19.81,19.81,0,0,1,193,124C193.4,123.37,193.31,123.62,193.31,123.62Z"/><path class="cls-3" d="M193,123.11a30.67,30.67,0,0,1-6.14-2.6c-2.68-1.79-5.16.76-3.17,2.34,1.8,1.42,3.67.86,5.38.81a14.16,14.16,0,0,0,4-.33C194.15,122.92,193,123.11,193,123.11Z"/><path class="cls-3" d="M193.51,123.78s1.13,4.52,3.21,6.79c1.78,1.94-.21,4-1.72,2.26-1.36-1.56-1.06-3.36-1.24-5.06s-.21-2.22-.45-3.78C193.15,122.92,193.51,123.78,193.51,123.78Z"/><path class="cls-3" d="M193.51,123.78s1.13,4.52,3.21,6.79c1.78,1.94-.21,4-1.72,2.26-1.36-1.56-1.06-3.36-1.24-5.06s-.21-2.22-.45-3.78C193.15,122.92,193.51,123.78,193.51,123.78Z"/><path class="cls-3" d="M198.62,118.94a13.64,13.64,0,0,1-6.68-3c-2.49-2.13-3.23.49-1.37,2.38,1.65,1.69,3,1.35,4.49,1.37a11.74,11.74,0,0,0,4-.46C200,118.84,198.62,118.94,198.62,118.94Z"/><path class="cls-3" d="M200,119.32s-1.75,3.24-.28,5.77c2.29,4-1.7,2.87-2.22.94-.49-1.71.19-2.7.74-4a13.56,13.56,0,0,1,1.76-3.1C200.51,118.25,200,119.32,200,119.32Z"/><path class="cls-3" d="M203.49,117.54s-.79,2.52-.39,3.77c.57,1.79-.4,1.88-1,.81a2.36,2.36,0,0,1,0-2.81,6.63,6.63,0,0,1,1.15-1.67C203.57,117.41,203.49,117.54,203.49,117.54Z"/><path class="cls-3" d="M202.74,117.49s-2.55-.73-3.39-1.76c-1.2-1.49-1.8-.72-1.25.45a2.35,2.35,0,0,0,2.4,1.51,6.39,6.39,0,0,0,2,0C202.89,117.49,202.74,117.49,202.74,117.49Z"/><path class="cls-3" d="M210.71,118.72a.46.46,0,0,1-.6.19h0a9.68,9.68,0,0,0-1.48-.63,12.65,12.65,0,0,0-1.58-.41,9.74,9.74,0,0,0-3.23-.09,7.54,7.54,0,0,0-1.55.41,12,12,0,0,0-1.49.71c-1,.52-2,1-3,1.48a15.35,15.35,0,0,0-2.79,1.78,11.64,11.64,0,0,0-1.22,1.11l-.54.63c-.18.22-.37.44-.56.65a12.49,12.49,0,0,1-2.63,2.23l-.35.19h0a6.25,6.25,0,0,0-2.19,2.71c-.4,1.45-.22,2.14.32,2.83.41.52-3.11-.19-2.65-.82.75-1,1.81-2.1,2-2.5a8.54,8.54,0,0,1,1.31-1.74,6.25,6.25,0,0,1-.86.18h-.45c-.46.07-1.65.54-2.72.8-.68.17-.14-2.9.18-2.4a2.64,2.64,0,0,0,2.28,1.18,4.76,4.76,0,0,0,2.4-.58,4.4,4.4,0,0,0,.52-.3,11.26,11.26,0,0,0,2.47-2.2c.18-.21.36-.42.53-.64s.37-.45.55-.67a10.8,10.8,0,0,1,1.25-1.19,17.25,17.25,0,0,1,2.87-1.91c1-.53,2-1,3-1.54a12.29,12.29,0,0,1,1.54-.77,9.22,9.22,0,0,1,1.71-.47,10.28,10.28,0,0,1,3.5,0,14.49,14.49,0,0,1,1.7.41,13.75,13.75,0,0,1,1.64.67h0a.43.43,0,0,1,.18.58A.44.44,0,0,1,210.71,118.72Z"/><path class="cls-3" d="M210.71,118.72a.46.46,0,0,1-.6.19h0a9.68,9.68,0,0,0-1.48-.63,12.65,12.65,0,0,0-1.58-.41,9.74,9.74,0,0,0-3.23-.09,7.54,7.54,0,0,0-1.55.41,12,12,0,0,0-1.49.71c-1,.52-2,1-3,1.48a15.35,15.35,0,0,0-2.79,1.78,11.64,11.64,0,0,0-1.22,1.11l-.54.63c-.18.22-.37.44-.56.65a12.49,12.49,0,0,1-2.63,2.23l-.35.19h0a6.25,6.25,0,0,0-2.19,2.71c-.4,1.45-.22,2.14.32,2.83.41.52-3.11-.19-2.65-.82.75-1,1.81-2.1,2-2.5a8.54,8.54,0,0,1,1.31-1.74,6.25,6.25,0,0,1-.86.18h-.45c-.46.07-1.65.54-2.72.8-.68.17-.14-2.9.18-2.4a2.64,2.64,0,0,0,2.28,1.18,4.76,4.76,0,0,0,2.4-.58,4.4,4.4,0,0,0,.52-.3,11.26,11.26,0,0,0,2.47-2.2c.18-.21.36-.42.53-.64s.37-.45.55-.67a10.8,10.8,0,0,1,1.25-1.19,17.25,17.25,0,0,1,2.87-1.91c1-.53,2-1,3-1.54a12.29,12.29,0,0,1,1.54-.77,9.22,9.22,0,0,1,1.71-.47,10.28,10.28,0,0,1,3.5,0,14.49,14.49,0,0,1,1.7.41,13.75,13.75,0,0,1,1.64.67h0a.43.43,0,0,1,.18.58A.44.44,0,0,1,210.71,118.72Z"/><path class="cls-3" d="M219.5,123l.2.06v4.68a1.34,1.34,0,0,1-2.59-.61Z"/><path class="cls-3" d="M218.84,122.56l.14.14-2.35,4a1.34,1.34,0,0,1-1.92-1.82Z"/><path class="cls-3" d="M213.73,121.83h4.76a.76.76,0,0,0,.06.2l-4.08,2.34a1.34,1.34,0,0,1-.74-2.55Z"/><path class="cls-3" d="M220.49,123l2.34,4a1.35,1.35,0,0,1-1,1.53,1.32,1.32,0,0,1-1.56-.76V123Z"/><path class="cls-3" d="M221.16,122.56l4.05,2.35a1.34,1.34,0,0,1-.09,1.81h0a1.34,1.34,0,0,1-1.73.13L221,122.71A2,2,0,0,0,221.16,122.56Z"/><path class="cls-3" d="M221.52,121.85h4.73a1.32,1.32,0,0,1,.78,1.58h0a1.34,1.34,0,0,1-1.42,1l-4.14-2.4A1.33,1.33,0,0,0,221.52,121.85Z"/><path class="cls-3" d="M226.25,121.26h-4.73a.66.66,0,0,0-.06-.2l4.11-2.35a1.33,1.33,0,0,1,1.47,1h0A1.33,1.33,0,0,1,226.25,121.26Z"/><path class="cls-3" d="M218.49,121.24h-4.7a1.34,1.34,0,0,1,.65-2.58l4.11,2.39A.76.76,0,0,0,218.49,121.24Z"/><path class="cls-3" d="M221.17,120.54c0-.06-.1-.1-.15-.15l2.37-4.09a1.34,1.34,0,0,1,1.89,1.88Z"/><path class="cls-3" d="M220.5,120.09l-.19-.07v-4.71a1.34,1.34,0,0,1,1.6-.79h0a1.34,1.34,0,0,1,1,1.46Z"/><path class="cls-3" d="M219.51,120.08,217.16,116a1.34,1.34,0,0,1,2.56-.72V120Z"/><path class="cls-3" d="M218.85,120.53l-4.07-2.37a1.34,1.34,0,0,1,1.85-1.91l2.36,4.13Z"/><path class="cls-3" d="M208.82,122.66l.23-.08a13.81,13.81,0,0,0,.14,1.59c.29,1.74.64,2.9,1.7,3.69.49.37.74,1.64.32,1.75a2.65,2.65,0,0,1-2.29-.9c-.84-1-.69-2.8-.43-3.87A15.7,15.7,0,0,0,208.82,122.66Z"/><path class="cls-3" d="M210,119.86c-.11-.11-.21-.22-.31-.34-.35.74-1.91,5-2.31,5.58-1.46,2.07-2.68,3.27-4.79,3.26-1,0-2.11,1.48-1.53,2a3.16,3.16,0,0,0,3.13.45c1.9-.51,3.3-4.17,3.93-5.66C208.32,124.77,209.75,120.57,210,119.86Z"/><path class="cls-3" d="M182.62,117.28a1.14,1.14,0,0,0,.23.15,14.41,14.41,0,0,0-1.36,1.22c-1.4,1.45-2.2,2.57-2.21,4.08,0,.71-1,1.8-1.38,1.49a3,3,0,0,1-.74-2.71c.35-1.47,2.07-2.56,3.24-3A22,22,0,0,0,182.62,117.28Z"/><path class="cls-3" d="M186,116.44a3.06,3.06,0,0,1,.1-.51c-.91.19-5.89,1.69-6.69,1.72-2.88.09-4.83-.21-6.27-2.15-.67-.91-2.79-.92-2.92,0,0,.38,0,1.77,1.74,3.17s6.07.16,7.87-.29C180.35,118.27,185.16,116.69,186,116.44Z"/><path class="cls-3" d="M259.72,128.69c.74-.57.56-1.49.57-1.92s-1.07-1.57-1.26-1.62a3.6,3.6,0,0,0-2.13,0,2.11,2.11,0,0,0-1.26,1.38,2.29,2.29,0,0,0,0,1.55,1.14,1.14,0,0,0,.35.49,2.56,2.56,0,0,0,3.61.24Z"/><path class="cls-3" d="M256.59,136.09c-.32,1-1.38,1.19-1.83,1.37a2.61,2.61,0,0,1-3-2.08,2.56,2.56,0,0,1,0-.78,2.31,2.31,0,0,1,1-1.84,2.7,2.7,0,0,1,1.68-.6,1.45,1.45,0,0,1,.67.17,2.74,2.74,0,0,1,1.64,3.52A2.44,2.44,0,0,1,256.59,136.09Z"/><path class="cls-3" d="M246.76,123.77s.8,4.5.21,6.21c-.85,2.44.35,3.23,1.24,2,1.21-1.71.45-3.44.15-4.46a19.73,19.73,0,0,0-1.31-3.4C246.66,123.52,246.76,123.77,246.76,123.77Z"/><path class="cls-3" d="M247.06,123.26a30.53,30.53,0,0,0,6.16-2.58c2.68-1.77,5.16.8,3.15,2.36-1.8,1.42-3.67.84-5.38.79a14.55,14.55,0,0,1-4-.35C246,123.06,247.06,123.26,247.06,123.26Z"/><path class="cls-3" d="M246.56,123.92s-1.15,4.51-3.25,6.78c-1.78,1.92.19,4,1.72,2.26,1.36-1.55,1.07-3.35,1.26-5.05s.23-2.22.47-3.77C247,123.07,246.56,123.92,246.56,123.92Z"/><path class="cls-3" d="M246.56,123.92s-1.15,4.51-3.25,6.78c-1.78,1.92.19,4,1.72,2.26,1.36-1.55,1.07-3.35,1.26-5.05s.23-2.22.47-3.77C247,123.07,246.56,123.92,246.56,123.92Z"/><path class="cls-3" d="M241.47,119.05a13.52,13.52,0,0,0,6.7-3c2.51-2.11,3.23.51,1.37,2.38-1.67,1.69-3,1.34-4.51,1.35a11.54,11.54,0,0,1-4-.48C240.14,119,241.47,119.05,241.47,119.05Z"/><path class="cls-3" d="M240.11,119.43s1.73,3.24.26,5.77c-2.32,3.94,1.68,2.87,2.22,1,.49-1.7-.19-2.7-.72-4a14,14,0,0,0-1.7-3.16C239.6,118.36,240.11,119.43,240.11,119.43Z"/><path class="cls-3" d="M236.62,117.63s.77,2.52.37,3.77c-.59,1.79.38,1.88,1,.81a2.36,2.36,0,0,0,0-2.81,6.73,6.73,0,0,0-1.13-1.67C236.54,117.5,236.62,117.63,236.62,117.63Z"/><path class="cls-3" d="M237.37,117.58s2.55-.71,3.39-1.74c1.21-1.49,1.8-.71,1.25.45a2.37,2.37,0,0,1-2.4,1.51,6.39,6.39,0,0,1-2-.07C237.22,117.58,237.37,117.58,237.37,117.58Z"/><path class="cls-3" d="M229.39,118.77a.44.44,0,0,0,.59.19h0a9.86,9.86,0,0,1,1.5-.62,11.79,11.79,0,0,1,1.58-.4,9.72,9.72,0,0,1,3.23-.07,7.54,7.54,0,0,1,1.55.41,11.82,11.82,0,0,1,1.47.73c1,.52,2,1,3,1.49a16.34,16.34,0,0,1,2.79,1.79,12.72,12.72,0,0,1,1.2,1.12l.54.64c.18.22.37.44.56.65a12.43,12.43,0,0,0,2.61,2.24l.34.19h0a6.33,6.33,0,0,1,2.19,2.72c.37,1.45.2,2.14-.34,2.83-.41.52,3.11-.17,2.65-.8-.75-1-1.79-2.12-2-2.52a8.49,8.49,0,0,0-1.3-1.74,5.06,5.06,0,0,0,.86.18h.45c.46.08,1.65.56,2.72.82.68.17.15-2.9-.16-2.4a2.63,2.63,0,0,1-2.3,1.16,4.79,4.79,0,0,1-2.4-.58c-.17-.09-.35-.2-.52-.31a11.68,11.68,0,0,1-2.45-2.21c-.18-.21-.36-.42-.53-.64s-.37-.45-.55-.67a11.71,11.71,0,0,0-1.23-1.21,17.31,17.31,0,0,0-2.87-1.92c-1-.54-2-1-3-1.55a13.16,13.16,0,0,0-1.54-.79,9.22,9.22,0,0,0-1.71-.47,10,10,0,0,0-3.5,0,14,14,0,0,0-1.7.4,12.21,12.21,0,0,0-1.64.66h0a.42.42,0,0,0-.18.59A.36.36,0,0,0,229.39,118.77Z"/><path class="cls-3" d="M229.39,118.77a.44.44,0,0,0,.59.19h0a9.86,9.86,0,0,1,1.5-.62,11.79,11.79,0,0,1,1.58-.4,9.72,9.72,0,0,1,3.23-.07,7.54,7.54,0,0,1,1.55.41,11.82,11.82,0,0,1,1.47.73c1,.52,2,1,3,1.49a16.34,16.34,0,0,1,2.79,1.79,12.72,12.72,0,0,1,1.2,1.12l.54.64c.18.22.37.44.56.65a12.43,12.43,0,0,0,2.61,2.24l.34.19h0a6.33,6.33,0,0,1,2.19,2.72c.37,1.45.2,2.14-.34,2.83-.41.52,3.11-.17,2.65-.8-.75-1-1.79-2.12-2-2.52a8.49,8.49,0,0,0-1.3-1.74,5.06,5.06,0,0,0,.86.18h.45c.46.08,1.65.56,2.72.82.68.17.15-2.9-.16-2.4a2.63,2.63,0,0,1-2.3,1.16,4.79,4.79,0,0,1-2.4-.58c-.17-.09-.35-.2-.52-.31a11.68,11.68,0,0,1-2.45-2.21c-.18-.21-.36-.42-.53-.64s-.37-.45-.55-.67a11.71,11.71,0,0,0-1.23-1.21,17.31,17.31,0,0,0-2.87-1.92c-1-.54-2-1-3-1.55a13.16,13.16,0,0,0-1.54-.79,9.22,9.22,0,0,0-1.71-.47,10,10,0,0,0-3.5,0,14,14,0,0,0-1.7.4,12.21,12.21,0,0,0-1.64.66h0a.42.42,0,0,0-.18.59A.36.36,0,0,0,229.39,118.77Z"/><path class="cls-3" d="M231.24,122.72l-.22-.08a11.89,11.89,0,0,1-.14,1.59c-.29,1.73-.66,2.89-1.72,3.68-.49.37-.74,1.64-.32,1.75a2.63,2.63,0,0,0,2.29-.89c.84-1,.71-2.79.45-3.87A17.36,17.36,0,0,1,231.24,122.72Z"/><path class="cls-3" d="M230.07,119.91a2,2,0,0,0,.31-.34c.35.74,1.89,5,2.29,5.6,1.44,2.07,2.66,3.28,4.77,3.28,1,0,2.11,1.5,1.51,2.06a3.16,3.16,0,0,1-3.13.44c-1.9-.53-3.29-4.19-3.89-5.68C231.75,124.84,230.34,120.62,230.07,119.91Z"/><path class="cls-3" d="M257.48,117.48a.78.78,0,0,1-.22.15,14.26,14.26,0,0,1,1.35,1.23c1.39,1.45,2.19,2.57,2.18,4.08,0,.71,1,1.82,1.38,1.51a3,3,0,0,0,.76-2.71c-.35-1.47-2.07-2.57-3.22-3A21.18,21.18,0,0,1,257.48,117.48Z"/><path class="cls-3" d="M254.11,116.62a3.06,3.06,0,0,0-.1-.51c.91.2,5.88,1.72,6.68,1.75,2.89.11,4.84-.17,6.28-2.11.69-.91,2.81-.9,2.92,0a3.86,3.86,0,0,1-1.75,3.15c-1.74,1.39-6.08.14-7.86-.33C259.76,118.48,255,116.88,254.11,116.62Z"/><path class="cls-9" d="M171.51,80.91V88a45.25,45.25,0,0,0,.17,5.25,2.63,2.63,0,0,0,1,1.84,5.85,5.85,0,0,0,3.17.61H177v1.15l-15.91,0V95.7H162a6,6,0,0,0,3.09-.54,2.52,2.52,0,0,0,1.1-1.71,39.11,39.11,0,0,0,.24-5.42l.05-16.64a36.87,36.87,0,0,0-.22-5.24,2.25,2.25,0,0,0-1-1.63,8.37,8.37,0,0,0-3.43-.46h-.65V62.91l4.36-.14q5.22-.17,8.15-.15a31.84,31.84,0,0,1,8.29.85,9.74,9.74,0,0,1,4.76,2.94,7.7,7.7,0,0,1,1.84,5.31,9.42,9.42,0,0,1-1.28,4.9,8.08,8.08,0,0,1-3.65,3.22q-2.37,1.09-8.35,1.08Zm0-1.25H174a16.5,16.5,0,0,0,4.85-.58,5.75,5.75,0,0,0,3.08-2.46A8.25,8.25,0,0,0,183.18,72q0-4.22-2.1-6.18t-6.85-2a23.61,23.61,0,0,0-2.67.09Z"/><path class="cls-9" d="M200.33,80.86a8.64,8.64,0,0,1,2.85-3.72A6.34,6.34,0,0,1,207,75.65a3.52,3.52,0,0,1,2.67,1,3.06,3.06,0,0,1,1,2.11,1.77,1.77,0,0,1-.5,1.25,1.61,1.61,0,0,1-1.22.52c-.85,0-1.5-.62-1.94-1.86-.31-.83-.77-1.25-1.38-1.25A4.23,4.23,0,0,0,203,78.9a6.93,6.93,0,0,0-2,3,16.92,16.92,0,0,0-.44,4.33v3.65c0,2.19,0,3.57.07,4.13a1.73,1.73,0,0,0,.73,1.31,4.2,4.2,0,0,0,2.28.45h.72V97l-11.15,0V95.79h.54a4.38,4.38,0,0,0,2.19-.41,1.61,1.61,0,0,0,.78-1.16,36.84,36.84,0,0,0,.14-4.31l0-5.78c0-2.2,0-3.58-.08-4.14a1.75,1.75,0,0,0-.73-1.3,4,4,0,0,0-2.28-.47h-.53V77.09a37.13,37.13,0,0,0,6.31-1.46A16.19,16.19,0,0,1,200.33,80.86Z"/><path class="cls-9" d="M221.84,75.69l0,14.29c0,2.19,0,3.56.09,4.13a1.75,1.75,0,0,0,.74,1.3,4.09,4.09,0,0,0,2.28.46h.54V97l-11.31,0V95.84H215a3.69,3.69,0,0,0,2.37-.5,2,2,0,0,0,.64-1.23c.06-.47.1-1.85.1-4.14l0-6.21a15.51,15.51,0,0,0-.33-4.4,1.69,1.69,0,0,0-.92-1,7.13,7.13,0,0,0-2-.2h-.69V77a31.83,31.83,0,0,0,7.07-1.3Zm-4.92-10.48a2.49,2.49,0,0,1,.79-1.85,2.6,2.6,0,0,1,1.88-.77,2.63,2.63,0,0,1,2.63,2.64,2.56,2.56,0,0,1-.77,1.87,2.52,2.52,0,0,1-1.87.77,2.66,2.66,0,0,1-2.66-2.66Z"/><path class="cls-9" d="M249.15,92.08h1.13q-1.75,5.83-8.73,5.81A10.34,10.34,0,0,1,231,87a10.73,10.73,0,0,1,3.33-8.15,11.31,11.31,0,0,1,12.82-1.93c1.52.78,2.27,1.73,2.27,2.85a1.84,1.84,0,0,1-.43,1.17,1.42,1.42,0,0,1-1.21.55c-1.13,0-1.82-.65-2.08-1.93a3.66,3.66,0,0,0-.94-2,4.13,4.13,0,0,0-2.59-.59A6,6,0,0,0,237,79.26c-1.15,1.55-1.74,3.88-1.75,7a13.43,13.43,0,0,0,1.84,7.57,6.37,6.37,0,0,0,5.62,2.74Q247.75,96.59,249.15,92.08Z"/><path class="cls-9" d="M275.12,83.59l-14.63,0c-.07,1-.11,1.72-.11,2.2q0,5.41,1.71,8.13a5.74,5.74,0,0,0,5.16,2.73,6.78,6.78,0,0,0,6.62-4.06h1.23a7,7,0,0,1-3.26,4,10.4,10.4,0,0,1-10.35.1,10.55,10.55,0,0,1-3.87-3.73,10.8,10.8,0,0,1-1.5-5.83A11.54,11.54,0,0,1,259.07,79a9.43,9.43,0,0,1,7.31-3.19,8.22,8.22,0,0,1,6.38,2.47A8.32,8.32,0,0,1,275.12,83.59Zm-4.48-1a8.27,8.27,0,0,0,.08-1,4.38,4.38,0,0,0-1.31-3.42,4.61,4.61,0,0,0-3.24-1.22q-4.67,0-5.58,5.64Z"/></g></g></svg>