<svg xmlns="http://www.w3.org/2000/svg" viewBox="0 0 440.07 170.09"><defs><style>.cls-1,.cls-2{fill:none;stroke:#bfaf93;}.cls-1,.cls-2,.cls-5,.cls-8{stroke-linecap:round;stroke-linejoin:round;}.cls-2{stroke-width:1.5px;}.cls-3{fill:#bfaf93;}.cls-4{fill:#3d4035;}.cls-5{fill:#8b6841;stroke:#fcd7a1;stroke-width:0.54px;}.cls-6{fill:#fcd7a1;}.cls-7{fill:#74302e;stroke-miterlimit:10;}.cls-7,.cls-8{stroke:#3d4035;stroke-width:0.5px;}.cls-8{fill:#fff;}.cls-9{fill:#87775c;}</style></defs><g id="レイヤー_2" data-name="レイヤー 2"><g id="レイヤー_1-2" data-name="レイヤー 1"><path class="cls-1" d="M427.9,55.56c-8.69-7.37-5.47-15.88-5.47-15.88H407.8c.74-7.09-7-23-16.14-23H266.17C249.06-1.14,221,.51,220,.56s-29-1.7-46.14,16.16H48.41c-9.18,0-16.87,15.87-16.13,23H17.63s3.17,8.51-5.46,15.88S.5,60.37.5,60.37V109.7s3-2.5,11.67,4.81,5.46,15.89,5.46,15.89H32.28c-.74,7.08,6.95,22.95,16.13,22.95H173.9C191,171.21,219.17,169.61,220,169.51s29,1.7,46.13-16.16H391.66c9.18,0,16.88-15.87,16.14-22.95h14.63s-3.22-8.51,5.47-15.89,11.67-4.81,11.67-4.81V60.37S436.58,62.92,427.9,55.56Z"/><path class="cls-1" d="M222.56,163.73h-5.09c-6.12,0-27.09-1.06-40.15-14.68a4.88,4.88,0,0,0-1.57-1.13,4.94,4.94,0,0,0-1.89-.41H48.41c-1.82,0-4-1.53-6.13-4.19-3.34-4.3-5.14-10.12-4.93-12.23a6.34,6.34,0,0,0-1.25-4.57,4.87,4.87,0,0,0-1.69-1.4,4.77,4.77,0,0,0-2.13-.51h-9a21.71,21.71,0,0,0-2.54-8.16,21.8,21.8,0,0,0-5.48-6.56,29.16,29.16,0,0,0-9.61-5.83v-38a28.87,28.87,0,0,0,9.61-5.82,22,22,0,0,0,5.48-6.56,21.76,21.76,0,0,0,2.54-8.17h9a4.85,4.85,0,0,0,3.83-2A6.47,6.47,0,0,0,37.42,39c-.22-2.11,1.59-7.93,4.93-12.22,2.07-2.66,4.3-4.2,6.13-4.2H173.9a4.67,4.67,0,0,0,1.88-.4A4.78,4.78,0,0,0,177.35,21c13.06-13.63,34-14.69,40.16-14.69h5.05c6.12,0,27.1,1.06,40.16,14.69a4.88,4.88,0,0,0,1.57,1.13,4.67,4.67,0,0,0,1.88.4H391.66c1.81,0,4,1.54,6.12,4.2,3.35,4.29,5.15,10.11,4.93,12.22A6.37,6.37,0,0,0,404,43.56,4.83,4.83,0,0,0,405.64,45a4.88,4.88,0,0,0,2.15.53h9a21.8,21.8,0,0,0,8.05,14.73,28.83,28.83,0,0,0,9.6,5.82V104a29.26,29.26,0,0,0-9.6,5.82,21.76,21.76,0,0,0-8,14.79h-9a4.89,4.89,0,0,0-2.15.54,4.83,4.83,0,0,0-1.68,1.43,6.35,6.35,0,0,0-1.25,4.57c.22,2.11-1.58,7.93-4.93,12.23-2.06,2.67-4.3,4.19-6.12,4.19H266.17a4.85,4.85,0,0,0-1.88.41,4.78,4.78,0,0,0-1.57,1.13C249.66,162.67,228.68,163.73,222.56,163.73Z"/><path class="cls-2" d="M112.93,107.21H327.15"/><path class="cls-3" d="M228.47,20.66a4,4,0,0,0-1.1-2.5A11,11,0,0,0,223.85,15c-.56-.28-1.15-.48-1.7-.81a5.37,5.37,0,0,1-1.86-1.84c0-.49,0-.12.11-.6-.1.33-.23-1.4-.39-1.1-.15-.3-.29,1.43-.39,1.1.07.48.1.11.12.6a5.23,5.23,0,0,1-1.87,1.84c-.53.33-1.12.53-1.69.81a11,11,0,0,0-3.52,3.17,4.18,4.18,0,0,0-1.11,2.5,3.76,3.76,0,0,0,.28,1.19,3.09,3.09,0,0,0,.34.65,1.7,1.7,0,0,0,.65.54,1.78,1.78,0,0,0,.82.17,2.19,2.19,0,0,0,1.49-.76,1.85,1.85,0,0,0,.48-.93c.24-1.37-1.54-1.37-1.14-.35.13.3.39.52.18.85a1,1,0,0,1-1.26.18,1.56,1.56,0,0,1-.53-.78,2.17,2.17,0,0,1,0-1.21,2.21,2.21,0,0,1,.59-1.05.8.8,0,0,1,.4-.27,1,1,0,0,1,.48,0c.29.1.52.43.83.42s.46-.25.59-.53A7.18,7.18,0,0,1,216,18a1.29,1.29,0,0,1,.7-.49,1.21,1.21,0,0,1,.84.06,2.52,2.52,0,0,1,.69.61,2.37,2.37,0,0,1,.4.83,5.94,5.94,0,0,0,.23.75,3.07,3.07,0,0,0,1,1.25.2.2,0,0,0,.1.08h.11a.25.25,0,0,0,.1-.08,3.19,3.19,0,0,0,1-1.25c.09-.24.14-.5.23-.75a2.2,2.2,0,0,1,.4-.83,2.52,2.52,0,0,1,.69-.61,1.21,1.21,0,0,1,.84-.06A1.23,1.23,0,0,1,224,18c.14.25.2.55.33.81s.33.53.59.53.54-.32.82-.42a.91.91,0,0,1,.49,0,.87.87,0,0,1,.4.26,2.24,2.24,0,0,1,.63,1,2.3,2.3,0,0,1,0,1.22,1.44,1.44,0,0,1-.54.78,1,1,0,0,1-.66.14.92.92,0,0,1-.59-.32c-.2-.33.06-.55.17-.85.4-1-1.37-1-1.14.35a2,2,0,0,0,.49.93,2.21,2.21,0,0,0,1.48.76,1.7,1.7,0,0,0,.83-.17,1.73,1.73,0,0,0,.66-.54,3.27,3.27,0,0,0,.32-.65A3.23,3.23,0,0,0,228.47,20.66ZM220,18.16a2.15,2.15,0,0,1-.31-1.78,2.06,2.06,0,0,1,.31-.46,1.5,1.5,0,0,1,.33.46,2.15,2.15,0,0,1,0,.91,2.1,2.1,0,0,1-.36.84Z"/><path class="cls-3" d="M235.12,28.06a2.17,2.17,0,0,0-.66-.69,2.13,2.13,0,0,0-.89-.33,34.38,34.38,0,0,0-6.84-1,5.52,5.52,0,0,1-3.27-.8,6.9,6.9,0,0,1-1-1c-.8-1-1.62-2-2.43-3l-2.44,3a5.68,5.68,0,0,1-1,1,5.49,5.49,0,0,1-3.26.8,33.58,33.58,0,0,0-6.84,1.05,2.09,2.09,0,0,0-.9.33,2,2,0,0,0-.65.68,1.65,1.65,0,0,0-.12.69,1.6,1.6,0,0,0,.18.68,2,2,0,0,0,.92.91,2.62,2.62,0,0,0,1.31.29,2.42,2.42,0,0,0,1.27-.43l-.3,1.33a.86.86,0,0,0,0,.39.7.7,0,0,0,.19.32.72.72,0,0,0,.33.18c1.52.48,3-1.12,4.58-1a6,6,0,0,0-1.7,2.63,1.43,1.43,0,0,0,0,.65,1,1,0,0,0,.25.43,1.06,1.06,0,0,0,.43.26,3,3,0,0,0,.94,0,4.54,4.54,0,0,0,.2,3.06,3.76,3.76,0,0,0,2,2,2.61,2.61,0,0,0,1.72.12,2.56,2.56,0,0,0,1.2-4.21,2,2,0,0,0-1.15-.5,1,1,0,0,0-.72.1,1,1,0,0,0-.47.55.83.83,0,0,0,0,.49.8.8,0,0,0,.33.37.58.58,0,0,0,.21.07.41.41,0,0,0,.22,0,.5.5,0,0,0,.19-.1.52.52,0,0,0,.13-.17s.54.3.5.62a1.11,1.11,0,0,1-.15.43,1,1,0,0,1-.32.32,1.71,1.71,0,0,1-2.34-.36,2.46,2.46,0,0,1-.47-1.33,2.42,2.42,0,0,1,.36-1.36,4.26,4.26,0,0,1,1.25-1.1,8.53,8.53,0,0,0,3.59-4,2.34,2.34,0,0,0,.22-1,2.38,2.38,0,0,0-.22-1c-.48.37-1.09.77-1.6.46a1.81,1.81,0,0,1-.48-.65,2,2,0,0,1-.16-.8,1.19,1.19,0,0,1,0-.46,1.22,1.22,0,0,1,.26-.38c.81-.83,1.65-1.62,2.5-2.37.87.75,1.72,1.54,2.51,2.37a.9.9,0,0,1,.25.38,1.19,1.19,0,0,1,0,.46c-.09.56-.2,1.25-.64,1.45a1.8,1.8,0,0,1-1.6-.46,2.23,2.23,0,0,0-.22,1,2.2,2.2,0,0,0,.22,1,8.49,8.49,0,0,0,3.57,4,4.43,4.43,0,0,1,1.26,1.1,2.41,2.41,0,0,1,.35,1.36,2.38,2.38,0,0,1-.47,1.33,1.7,1.7,0,0,1-1.09.65,1.74,1.74,0,0,1-1.25-.29,1,1,0,0,1-.32-.32.94.94,0,0,1-.16-.43c0-.32.51-.62.51-.62a.7.7,0,0,0,.13.17.49.49,0,0,0,.2.11.54.54,0,0,0,.22,0,.5.5,0,0,0,.2-.08.75.75,0,0,0,.36-.86,1,1,0,0,0-.47-.55,1,1,0,0,0-.72-.1,1.91,1.91,0,0,0-1.13.5,2.47,2.47,0,0,0-.72,1.58A2.55,2.55,0,0,0,223,40.62a2.52,2.52,0,0,0,1.73-.14,3.76,3.76,0,0,0,2-2,4.63,4.63,0,0,0,.19-3.07,2.48,2.48,0,0,0,.94,0,.94.94,0,0,0,.43-.25.92.92,0,0,0,.24-.43,1.43,1.43,0,0,0,0-.65,5.91,5.91,0,0,0-1.7-2.63c1.58-.09,3.07,1.51,4.58,1a.7.7,0,0,0,.33-.17A.79.79,0,0,0,232,32a2.41,2.41,0,0,0,0-.38l-.3-1.33a2.47,2.47,0,0,0,1.26.43,2.57,2.57,0,0,0,1.31-.29,2.15,2.15,0,0,0,.93-.91,1.76,1.76,0,0,0,.14-.71A1.57,1.57,0,0,0,235.12,28.06Zm-19.59-.8a11.09,11.09,0,0,0-1.13,1.25c-.41.4-.82.77-1.26,1.14A5.25,5.25,0,0,1,210.89,31l.12-.8a.38.38,0,0,0,0-.15.32.32,0,0,0-.13-.1,3.79,3.79,0,0,0-1.25-.18,1.76,1.76,0,0,1-.64-.15,1.69,1.69,0,0,1-.53-.39,4.13,4.13,0,0,1,1.48-.18A10.91,10.91,0,0,0,215.53,27.26ZM218,30.38c-.83.85-1.42,1.92-2.31,2.74-.28.25-.82.87-1.25.87s-.37-.59,0-.87l.74-.59A21.37,21.37,0,0,0,218,30.38Zm6.61,2.15.74.59c.33.28.5.87,0,.87s-.93-.62-1.25-.87c-.89-.82-1.49-1.89-2.3-2.74a21.28,21.28,0,0,0,2.76,2.15Zm6.72-3.35a1.55,1.55,0,0,1-.52.39,1.76,1.76,0,0,1-.64.15,4,4,0,0,0-1.25.18.12.12,0,0,0-.12.1.19.19,0,0,0,0,.15l.12.8a5.26,5.26,0,0,1-2.37-1.4c-.41-.37-.84-.74-1.25-1.14a9.52,9.52,0,0,0-1.13-1.25,11,11,0,0,0,5.62,1.74,4.19,4.19,0,0,1,1.49.28Z"/><path class="cls-4" d="M402.24,84.66a149.92,149.92,0,0,0,25.14-4.44,24,24,0,0,1-25.14,4.44Z"/><path class="cls-4" d="M402.19,83.77h-.07s1.45-5.39,11.67-7.5c5.42-1.14,13.76,3,13.76,3l-.16.16A151.52,151.52,0,0,1,402.19,83.77Z"/><path class="cls-4" d="M396.61,73.33a.21.21,0,0,1,.12,0,.21.21,0,0,1,.08.11.28.28,0,0,1,0,.13.26.26,0,0,1-.07.11,60.56,60.56,0,0,1-42.81,9.61.19.19,0,0,1-.14-.07.27.27,0,0,1-.06-.16.19.19,0,0,1,0-.08.18.18,0,0,1,.05-.07.11.11,0,0,1,.08,0,.11.11,0,0,1,.08,0,60.05,60.05,0,0,0,42.53-9.64A.16.16,0,0,1,396.61,73.33Z"/><path class="cls-4" d="M385.86,88.09s5-2.1,5.76-6.94l.82-4.84a18.62,18.62,0,0,0-5.67,4.37C384.63,83.33,385.86,88.09,385.86,88.09Z"/><path class="cls-4" d="M371.91,74.37s3.64,4.55,8.75,4.75l5.08.21a24.84,24.84,0,0,0-6.13-5C376.24,72.63,371.91,74.37,371.91,74.37Z"/><path class="cls-4" d="M343.05,79.94s4.05,4.21,9.08,3.91l5-.32a25.26,25.26,0,0,0-6.55-4.35C347.12,77.76,343.05,79.94,343.05,79.94Z"/><path class="cls-4" d="M355.19,77.44s1.88,4.21,5.56,5.24l3.68,1a19.46,19.46,0,0,0-3.63-5C358.66,76.81,355.19,77.44,355.19,77.44Z"/><path class="cls-4" d="M385.29,70.68a8.34,8.34,0,0,1,6.08,1.92L393.88,75a14.63,14.63,0,0,1-4.93-.58C386.66,73.6,385.29,70.68,385.29,70.68Z"/><path class="cls-4" d="M366.68,77.88a8.35,8.35,0,0,1,6.08,1.93l2.5,2.35a14.45,14.45,0,0,1-4.93-.59C368,80.83,366.68,77.88,366.68,77.88Z"/><path class="cls-4" d="M375.18,88.57s.38-4.26,3.76-6l3.4-1.73a14.9,14.9,0,0,1-1.88,5.33C379,88.34,375.18,88.57,375.18,88.57Z"/><path class="cls-4" d="M362.33,90s.91-4.11,4.5-5.37l3.58-1.25a14.67,14.67,0,0,1-2.51,5C366.08,90.23,362.33,90,362.33,90Z"/><path class="cls-4" d="M408.61,81.5a.94.94,0,0,0,.43-.13.84.84,0,0,0,.32-.3.73.73,0,0,0,0-.46.76.76,0,0,0-.24-.39,2.1,2.1,0,0,0-.81-.39,15.17,15.17,0,0,0-2.51-.45c-.55,0-1.25-.14-1.43-.66.71.67,1.85.21,2.68-.3,1.53-.91,3.06-1.34,3.22-4.24-2.44-.68-4.19,1.75-6.69,2a4,4,0,0,1,1.15-2.69,12.28,12.28,0,0,0,1.35-2.59,1.4,1.4,0,0,0,.16-.63,1.33,1.33,0,0,0-.16-.62c-.34-.43-1-.28-1.46,0a6.27,6.27,0,0,0-2.23,2.23,6.35,6.35,0,0,0-.89,3,25.07,25.07,0,0,1-.34,3.42c-.15,1.16.33,1.45,1.25,1.78C404.24,80.83,406.51,81.86,408.61,81.5Z"/><path class="cls-4" d="M400.24,71.51a6,6,0,0,1,1.88-3.18c.36-.27.9-.46,1.25-.14s.19.87,0,1.25l-1,2.91c1.07-1.37,2.32-2.85,4-3a1.23,1.23,0,0,1,.88.18,1.14,1.14,0,0,1,.32.51,1.18,1.18,0,0,1,0,.59,2.85,2.85,0,0,1-.54,1.07,15.26,15.26,0,0,1-2.19,2.42,4.84,4.84,0,0,1,1.43-1.19,4.77,4.77,0,0,1,1.77-.56,1.74,1.74,0,0,1,.93.14.88.88,0,0,1,.34.35.78.78,0,0,1,.07.48,1.14,1.14,0,0,1-.4.52A12.28,12.28,0,0,1,405.61,76a5.48,5.48,0,0,1,2.16-.73,5.81,5.81,0,0,1,2.27.18,1.82,1.82,0,0,1-.84,1.39,4.2,4.2,0,0,1-1.53.55,23.27,23.27,0,0,1-3.81.52,8.63,8.63,0,0,1-3.75-.14C398.6,76.94,399.85,72.77,400.24,71.51Z"/><path class="cls-4" d="M401.11,79.71a1.78,1.78,0,0,1-1.26-.48,2,2,0,0,1-.37-.8A4.57,4.57,0,0,1,399.6,76c0-.16.19-.35.34-.27s.08.09.11.15c.13.25.25.5.37.75.26,0,.46-.43.69-.3a.48.48,0,0,1,.15.28,3.7,3.7,0,0,1,0,1.15,2.56,2.56,0,0,0,1.55,0,1.57,1.57,0,0,1-.47.92,3.42,3.42,0,0,1,1.26.3.2.2,0,0,1,.17.19C403.76,79.87,401.39,79.73,401.11,79.71Z"/><path class="cls-4" d="M398.44,84.65a5.78,5.78,0,0,0,0,1.44c-.12,0-.16-.17-.16-.3a13.74,13.74,0,0,1,.69-5.17,8.75,8.75,0,0,1,.51-1.18c.1-.2.49-.72.41-.15a6,6,0,0,1-.52,1.19c-.17.43-.32.87-.44,1.25A16,16,0,0,0,398.44,84.65Z"/><path class="cls-5" d="M396.78,96.53h-.12a10.5,10.5,0,0,0-5.39,2.24,10,10,0,0,0-2.26,2.5,12.14,12.14,0,0,0,2.59.65,4,4,0,0,1-.64,2.5l2.29.23a15,15,0,0,1-.91,2.5,12.09,12.09,0,0,0,8.5-6.76,4.61,4.61,0,0,0,.53-2.25h.11a1.13,1.13,0,0,0,.26,0,1.93,1.93,0,0,0-.36,1.25,24.86,24.86,0,0,0,0,3,11.5,11.5,0,0,0,2.14,5.63,10.38,10.38,0,0,0,2.41,2.36,13.1,13.1,0,0,0,.64-2.7,3.54,3.54,0,0,1,2.44.67c.08-.7.14-1.68.21-2.39a14.08,14.08,0,0,1,2.43,1A12.45,12.45,0,0,0,405.17,98l-.16-.09a14.71,14.71,0,0,0,2.28.5A10.35,10.35,0,0,0,413,97.38a10,10,0,0,0,2.7-2,12.51,12.51,0,0,0-2.41-1.25,3.82,3.82,0,0,1,1.11-2.35c-.65-.23-1.55-.49-2.2-.7a14.35,14.35,0,0,1,1.38-2.29A11.8,11.8,0,0,0,406,91.51a11.46,11.46,0,0,0,1.87-5.14,10.82,10.82,0,0,0-.17-3.45,13,13,0,0,0-2.25,1.5,3.93,3.93,0,0,1-1.31-2.25c-.53.45-1.25,1.1-1.74,1.56a14.82,14.82,0,0,1-1.13-2.5,13.08,13.08,0,0,0-1.82,8.57A12.27,12.27,0,0,0,393.6,85a15.88,15.88,0,0,1,.44,2.66c-.68,0-1.62-.16-2.29-.22a4,4,0,0,1,.17,2.62,13.16,13.16,0,0,0-2.66.15A10.17,10.17,0,0,0,391,93.08a10.72,10.72,0,0,0,4.9,3.25A7.35,7.35,0,0,0,396.78,96.53Zm6.86,1.17h0Z"/><path class="cls-6" d="M398.6,94.59a3.58,3.58,0,0,0,2.71,4.2,3.46,3.46,0,0,0,1.36,0,3.35,3.35,0,0,0,1.25-.55,3.29,3.29,0,0,0,.94-1,3.46,3.46,0,0,0,.49-1.27,3.58,3.58,0,0,0-2.72-4.21,3.46,3.46,0,0,0-1.36,0,3.35,3.35,0,0,0-1.25.55,3.51,3.51,0,0,0-.94,1A3.68,3.68,0,0,0,398.6,94.59Z"/><path class="cls-7" d="M405.8,86.57l.42-1.49h.11l-.43,1.48a1.52,1.52,0,0,1-.21.57,1.44,1.44,0,0,1-.43.42v-.1C405.55,87.35,405.68,86.94,405.8,86.57Z"/><path class="cls-7" d="M404.5,84.67a20.81,20.81,0,0,1-.82,2.29h-.11a18.15,18.15,0,0,0,.81-2.28Z"/><path class="cls-7" d="M402.26,84.25a9.58,9.58,0,0,0-.18,3.29H402a10.07,10.07,0,0,1,.17-3.33Z"/><path class="cls-7" d="M408.86,92.34v.11s0,0,0,0a.05.05,0,0,1,0,0,.14.14,0,0,1,0-.07.14.14,0,0,1,0-.06.21.21,0,0,1,.15-.07,8.75,8.75,0,0,0,2.22-.78v.1a8.92,8.92,0,0,1-2.26.79A.11.11,0,0,0,408.86,92.34Z"/><path class="cls-7" d="M409.86,93.49h-.1a.2.2,0,0,1,0-.15.41.41,0,0,1,.22-.21l1.6-.85v.11l-1.59,1A.37.37,0,0,0,409.86,93.49Z"/><path class="cls-7" d="M410.71,94.83l1.6-.41v.11l-1.6.4a.37.37,0,0,0-.19.09v.08l-.07.09a.18.18,0,0,1,0-.12.28.28,0,0,1,.06-.18A.47.47,0,0,1,410.71,94.83Z"/><path class="cls-7" d="M406.72,103.51l1.34,1.5c.09.11.2.22.33.21v.11h-.08a.61.61,0,0,1-.34-.25l-1.32-1.5Z"/><path class="cls-7" d="M406.11,104.78h.1a7.36,7.36,0,0,0,1,1.4l-.08.09A8,8,0,0,1,406.11,104.78Z"/><path class="cls-7" d="M406,107.17h-.1a19.6,19.6,0,0,0-1.37-2.8h.1A19.6,19.6,0,0,1,406,107.17Z"/><path class="cls-7" d="M395.61,102.84a28.77,28.77,0,0,1-2.81,1.32v-.11a28.15,28.15,0,0,0,2.8-1.26Z"/><path class="cls-7" d="M394.85,101.5a15.61,15.61,0,0,1-1.91,1.08v-.1a14.35,14.35,0,0,0,1.9-1.09Z"/><path class="cls-7" d="M393.83,100.48l.06.1c-.53.38-1.08.75-1.63,1.09l-.06-.09C392.75,101.23,393.3,100.84,393.83,100.48Z"/><path class="cls-7" d="M392.86,90.68a3.25,3.25,0,0,0,.58,1.25.81.81,0,0,0,.46.33v.12a.91.91,0,0,1-.53-.39,3.23,3.23,0,0,1-.6-1.35Z"/><path class="cls-7" d="M394.85,90.84a7.5,7.5,0,0,1-.93-.94.86.86,0,0,1-.21-.29.91.91,0,0,1-.06-.36h.11a.66.66,0,0,0,.07.3.59.59,0,0,0,.17.25A7,7,0,0,0,394.85,90.84Z"/><path class="cls-7" d="M395,88.07h.11a2.44,2.44,0,0,0,.69,1.36l-.08.08A2.45,2.45,0,0,1,395,88.07Z"/><path class="cls-4" d="M399.94,94a.21.21,0,0,1,.14.1.32.32,0,0,1,0,.16l.92.42a1.09,1.09,0,0,1,.47-.38l-.3-1.09a.16.16,0,0,1-.12,0,.14.14,0,0,1-.08-.09.25.25,0,0,1,0-.17.24.24,0,0,1,.1-.14.2.2,0,0,1,.17,0,.16.16,0,0,1,.13.11.23.23,0,0,1,0,.16.3.3,0,0,1-.1.14l.3,1.09a.89.89,0,0,1,.51,0,1.16,1.16,0,0,1,.45.21,1.17,1.17,0,0,1,.3.4v-.09l1.06-.32a.28.28,0,0,1,0-.13.26.26,0,0,1,.09-.09l.08,0h.08l.07,0,.05.07a.21.21,0,0,1-.09.3.11.11,0,0,1-.07,0h-.09a.1.1,0,0,1-.07,0l-.05-.06-1,.31a1.19,1.19,0,0,1,.08.72l.9.52a.28.28,0,0,1,.12,0,.21.21,0,0,1,.11,0,.22.22,0,0,1,.12.11.23.23,0,0,1,0,.16.2.2,0,0,1,0,.08l-.07.06-.08,0H404a.25.25,0,0,1-.12-.11.18.18,0,0,1,0-.16L403,95.8a1.06,1.06,0,0,1-.22.42,1,1,0,0,1-.37.28l.34.88a.17.17,0,0,1,.12,0,.18.18,0,0,1,.09.08.2.2,0,0,1,0,.08v.09a.2.2,0,0,1,0,.08.17.17,0,0,1-.06.06.22.22,0,0,1-.15.06.2.2,0,0,1-.15-.06.25.25,0,0,1,0-.17.22.22,0,0,1,.09-.14l-.34-.88a.83.83,0,0,1-.58,0h-.14l-.41.79a.24.24,0,0,1,.06.11.29.29,0,0,1,0,.13.16.16,0,0,1,0,.07l-.07.06-.08,0h-.09l-.07,0-.05-.07a.13.13,0,0,1,0-.08.27.27,0,0,1,0-.09.43.43,0,0,1,0-.07l.06-.06.08,0a.14.14,0,0,1,.09,0l.41-.77a1.16,1.16,0,0,1-.39-.31,1.08,1.08,0,0,1-.22-.44l-.83.35a.24.24,0,0,1,0,.12.22.22,0,0,1-.09.1.19.19,0,0,1-.15.06.22.22,0,0,1-.15-.06.25.25,0,0,1,0-.17.28.28,0,0,1,.1-.14.2.2,0,0,1,.15-.06.22.22,0,0,1,.15.06l.84-.35a1,1,0,0,1,0-.43,1,1,0,0,1,.15-.38l-.9-.4a.41.41,0,0,1-.11.07.25.25,0,0,1-.12,0,.19.19,0,0,1-.13-.1.18.18,0,0,1,0-.16.21.21,0,0,1,0-.12.22.22,0,0,1,.05-.11.16.16,0,0,1,.09-.07A.24.24,0,0,1,399.94,94Z"/><path class="cls-4" d="M402.91,93.34l-.43,1h-.09l.43-1a.23.23,0,0,1-.07-.1.27.27,0,0,1,0-.13l0-.08.06-.06a.16.16,0,0,1,.09,0H403a.21.21,0,0,1,.14.1.23.23,0,0,1,0,.16.29.29,0,0,1-.1.12A.26.26,0,0,1,402.91,93.34Z"/><path class="cls-5" d="M383.49,86.11h-.09a10.89,10.89,0,0,0-4.26,4.12,10.51,10.51,0,0,0-1.25,3.2,11.92,11.92,0,0,0,2.65-.37,4,4,0,0,1,.27,2.62c.67-.18,1.56-.46,2.22-.65a15.22,15.22,0,0,1,0,2.7,12.6,12.6,0,0,0,3.88-4.11,12.73,12.73,0,0,0,1.71-5.4,4.55,4.55,0,0,0-.29-2.28h.38a2,2,0,0,0,.1,1.33c.37.92.59,1.89,1,2.79a11.14,11.14,0,0,0,4,4.46,9.73,9.73,0,0,0,3.06,1.25A13,13,0,0,0,396.5,93a3.67,3.67,0,0,1,2.5-.29c-.17-.68-.45-1.62-.62-2.31a12.46,12.46,0,0,1,2.59,0,12.06,12.06,0,0,0-9.07-5.82h-.18a16,16,0,0,0,2.3-.38,10.92,10.92,0,0,0,5-3.14,10.62,10.62,0,0,0,1.84-2.88,11.93,11.93,0,0,0-2.67-.2,3.92,3.92,0,0,1,.23-2.63c-.68,0-1.61.14-2.3.18a14.92,14.92,0,0,1,.5-2.65,12.26,12.26,0,0,0-6.16,5.4,11.89,11.89,0,0,0,0-5.5,10.44,10.44,0,0,0-1.42-3.2,12.05,12.05,0,0,0-1.59,2.23,3.59,3.59,0,0,1-2-1.61c-.34.63-.77,1.5-1.09,2.13a14.52,14.52,0,0,1-1.89-1.87,13.12,13.12,0,0,0,1.25,8.68,11.71,11.71,0,0,0-7.24-2.61,17,17,0,0,1,1.32,2.31c-.65.2-1.56.45-2.21.67a3.84,3.84,0,0,1,1.07,2.37,12.81,12.81,0,0,0-2.5,1.14,10.06,10.06,0,0,0,2.67,2,10.37,10.37,0,0,0,5.7,1.18C382.92,86.21,383.2,86.16,383.49,86.11Zm6.82-1.53h0Z"/><path class="cls-6" d="M384.54,83.58a3.62,3.62,0,0,0,.47,1.31,3.45,3.45,0,0,0,2.2,1.57A3.38,3.38,0,0,0,390.83,85a3.55,3.55,0,0,0,.54-2.65,3.27,3.27,0,0,0-.46-1.29,3.44,3.44,0,0,0-3.56-1.61,3.57,3.57,0,0,0-2.25,1.51A3.53,3.53,0,0,0,384.54,83.58Z"/><path class="cls-8" d="M388.47,73.42l-.11-1.56h.11l.1,1.54a1.57,1.57,0,0,1,0,.61,1.49,1.49,0,0,1-.25.56l-.08-.08a1.38,1.38,0,0,0,.23-.51A1.32,1.32,0,0,0,388.47,73.42Z"/><path class="cls-8" d="M386.59,72.08a20.85,20.85,0,0,1,0,2.5h-.11a20.85,20.85,0,0,0,0-2.5Z"/><path class="cls-8" d="M384.37,72.59a9.58,9.58,0,0,0,1,3.13h-.1a9.51,9.51,0,0,1-1-3.17Z"/><path class="cls-8" d="M393.31,77.64v.12h-.09a.17.17,0,0,1,0-.07.13.13,0,0,1,0-.06.28.28,0,0,1,.12-.12,9.68,9.68,0,0,0,1.81-1.57l.08.08a9,9,0,0,1-1.84,1.59S393.32,77.62,393.31,77.64Z"/><path class="cls-8" d="M394.62,78.33l-.07.09a.13.13,0,0,1,0-.06.15.15,0,0,1,0-.07.42.42,0,0,1,.12-.28l1.26-1.38.08.08-1.25,1.38a.32.32,0,0,0-.1.1A.37.37,0,0,0,394.62,78.33Z"/><path class="cls-8" d="M395.9,79.27l1.37-1,.08,0-1.36,1a.34.34,0,0,0-.14.15s0,0,0,0,0,0,0,0v.1s-.07,0-.1-.1a.25.25,0,0,1,0-.17A.49.49,0,0,1,395.9,79.27Z"/><path class="cls-8" d="M395.19,88.86l1.76.9a.48.48,0,0,0,.18.08h.2V90h0a.58.58,0,0,1-.4-.1L395.19,89Z"/><path class="cls-8" d="M395,90.3l.07-.09a7.42,7.42,0,0,0,1.41,1v.1A7.5,7.5,0,0,1,395,90.3Z"/><path class="cls-8" d="M395.74,92.58l-.09.07a19.34,19.34,0,0,0-2.24-2.1v-.09A19.47,19.47,0,0,1,395.74,92.58Z"/><path class="cls-8" d="M384.59,92.44c-.69.79-1.41,1.55-2.17,2.28l-.08-.13a29.35,29.35,0,0,0,2.18-2.28Z"/><path class="cls-8" d="M383.35,91.49a16.75,16.75,0,0,1-1.41,1.74l-.08-.09a15.65,15.65,0,0,0,1.41-1.73Z"/><path class="cls-8" d="M382.11,90.9h.09c-.36.55-.74,1.11-1.13,1.64l-.09-.08A14.53,14.53,0,0,0,382.11,90.9Z"/><path class="cls-8" d="M377.83,82.08a2.85,2.85,0,0,0,1,1,.85.85,0,0,0,.55.15v.12a1,1,0,0,1-.62-.17,3.2,3.2,0,0,1-1-1Z"/><path class="cls-8" d="M379.71,81.56a7.21,7.21,0,0,1-1.25-.53.8.8,0,0,1-.29-.2.92.92,0,0,1-.18-.3h.11c0,.2.24.33.41.43a7.25,7.25,0,0,0,1.18.51Z"/><path class="cls-8" d="M378.94,78.88h.1a2.3,2.3,0,0,0,1.11,1V80A2.56,2.56,0,0,1,378.94,78.88Z"/><path class="cls-4" d="M385.59,82.58h.09l.07,0,.05.06a.11.11,0,0,1,0,.08h1a1.14,1.14,0,0,1,.32-.51l-.65-.9a.27.27,0,0,1-.12,0,.24.24,0,0,1-.12,0,.27.27,0,0,1-.06-.17.25.25,0,0,1,.06-.16.22.22,0,0,1,.15-.06.21.21,0,0,1,.22.22.22.22,0,0,1-.06.15l.65.9a1,1,0,0,1,.48-.21,1,1,0,0,1,.49,0,1,1,0,0,1,.42.25v-.08l.86-.69a.21.21,0,0,1,0-.12.2.2,0,0,1,0-.11s0,0,.07-.06h.18s0,0,.07.06a.2.2,0,0,1,.06.15.23.23,0,0,1-.06.16.18.18,0,0,1-.07,0l-.08,0-.09,0-.06,0-.88.7A1.12,1.12,0,0,1,389,83l1,.15a.41.41,0,0,1,.07-.11.28.28,0,0,1,.12,0,.23.23,0,0,1,.16.06.26.26,0,0,1,.07.15.28.28,0,0,1,0,.09.25.25,0,0,1,0,.07.18.18,0,0,1-.07.05.13.13,0,0,1-.08,0h-.09l-.07,0-.05-.06a.31.31,0,0,1,0-.08l-1-.15a1.24,1.24,0,0,1-.06.47,1,1,0,0,1-.24.4l.61.69.12,0a.27.27,0,0,1,.12,0,.23.23,0,0,1,.06.16.22.22,0,0,1-.06.15.2.2,0,0,1-.15.06.22.22,0,0,1-.15-.06.18.18,0,0,1-.05-.07.24.24,0,0,1,0-.08.29.29,0,0,1,0-.09.18.18,0,0,1,.05-.07l-.62-.69a1.09,1.09,0,0,1-.53.28h-.15l-.11.88a.2.2,0,0,1,.09.09.22.22,0,0,1,.05.12.25.25,0,0,1,0,.08.2.2,0,0,1,0,.08.18.18,0,0,1-.07,0l-.09,0h-.08l-.07,0a.22.22,0,0,1,0-.08.19.19,0,0,1,0-.08.3.3,0,0,1,.05-.16.28.28,0,0,1,.15-.08l.11-.87a1.07,1.07,0,0,1-.46-.14,1,1,0,0,1-.36-.33l-.65.63a.27.27,0,0,1,0,.12.28.28,0,0,1,0,.13l-.07,0-.08,0-.09,0-.06,0a.23.23,0,0,1-.06-.16.22.22,0,0,1,.06-.15.2.2,0,0,1,.15-.06.22.22,0,0,1,.15.06l.66-.65a1,1,0,0,1-.15-.4,1.48,1.48,0,0,1,0-.42h-1a.2.2,0,0,1-.06.11.19.19,0,0,1-.11.07.25.25,0,0,1-.17,0,.22.22,0,0,1-.08-.15.17.17,0,0,1,0-.14A.24.24,0,0,1,385.59,82.58Z"/><path class="cls-4" d="M388.12,80.83V82H388V80.85a.26.26,0,0,1-.1-.07.24.24,0,0,1-.06-.11.21.21,0,0,1,0-.16.26.26,0,0,1,.14-.1h.09l.08,0s0,0,.06.06a.31.31,0,0,1,0,.08.19.19,0,0,1-.16.24Z"/><path class="cls-4" d="M36.52,84.66a150.09,150.09,0,0,1-25.17-4.44,24,24,0,0,0,25.17,4.44Z"/><path class="cls-4" d="M36.57,83.77h.07S35.18,78.38,25,76.27c-5.42-1.14-13.76,3-13.76,3l.16.16A151.52,151.52,0,0,0,36.57,83.77Z"/><path class="cls-4" d="M42.15,73.33a.21.21,0,0,0-.12,0,.28.28,0,0,0-.08.11.28.28,0,0,0,0,.13.26.26,0,0,0,.07.11,60.56,60.56,0,0,0,42.81,9.61.19.19,0,0,0,.14-.08A.22.22,0,0,0,85,83.1.19.19,0,0,0,85,83,.18.18,0,0,0,85,83a.11.11,0,0,0-.08,0,.11.11,0,0,0-.08,0,60.05,60.05,0,0,1-42.53-9.64A.16.16,0,0,0,42.15,73.33Z"/><path class="cls-4" d="M52.9,88.09s-5-2.1-5.76-6.94l-.82-4.84A18.62,18.62,0,0,1,52,80.68C54.13,83.33,52.9,88.09,52.9,88.09Z"/><path class="cls-4" d="M66.85,74.37s-3.64,4.55-8.75,4.75L53,79.33a24.84,24.84,0,0,1,6.13-5C62.52,72.63,66.85,74.37,66.85,74.37Z"/><path class="cls-4" d="M95.71,79.94s-4,4.21-9.08,3.91l-5-.32a24.76,24.76,0,0,1,6.55-4.35C91.63,77.76,95.71,79.94,95.71,79.94Z"/><path class="cls-4" d="M83.57,77.44S81.69,81.65,78,82.68l-3.68,1a19.46,19.46,0,0,1,3.63-5C80.1,76.81,83.57,77.44,83.57,77.44Z"/><path class="cls-4" d="M53.47,70.68a8.34,8.34,0,0,0-6.08,1.92L44.89,75a14.6,14.6,0,0,0,4.92-.58C52.08,73.6,53.47,70.68,53.47,70.68Z"/><path class="cls-4" d="M72.09,77.88A8.36,8.36,0,0,0,66,79.81l-2.5,2.35a14.42,14.42,0,0,0,4.93-.59C70.71,80.83,72.09,77.88,72.09,77.88Z"/><path class="cls-4" d="M63.58,88.57s-.38-4.26-3.76-6l-3.36-1.73a15.25,15.25,0,0,0,1.87,5.31C59.81,88.34,63.58,88.57,63.58,88.57Z"/><path class="cls-4" d="M76.42,90s-.9-4.11-4.49-5.37l-3.58-1.25a14.67,14.67,0,0,0,2.51,5C72.64,90.23,76.42,90,76.42,90Z"/><path class="cls-4" d="M30.19,81.5a1,1,0,0,1-.42-.13.92.92,0,0,1-.32-.3.73.73,0,0,1,0-.46.76.76,0,0,1,.24-.39,2.1,2.1,0,0,1,.81-.39A15.17,15.17,0,0,1,33,79.38c.55,0,1.25-.14,1.43-.66-.72.67-1.85.21-2.69-.3-1.52-.91-3-1.34-3.21-4.24,2.44-.68,4.18,1.75,6.69,2a4,4,0,0,0-1.15-2.69,12.28,12.28,0,0,1-1.35-2.59,1.4,1.4,0,0,1-.16-.63,1.33,1.33,0,0,1,.16-.62c.34-.43,1-.28,1.45,0a6.36,6.36,0,0,1,3.13,5.26,25.07,25.07,0,0,0,.34,3.42c.15,1.16-.34,1.45-1.25,1.78C34.56,80.83,32.25,81.86,30.19,81.5Z"/><path class="cls-4" d="M38.52,71.51a6.08,6.08,0,0,0-1.88-3.18c-.36-.27-.9-.46-1.25-.14s-.19.87,0,1.25l1.06,2.85c-1.07-1.38-2.32-2.85-4-3a1.29,1.29,0,0,0-.88.19,1.16,1.16,0,0,0-.32.5,1.11,1.11,0,0,0,0,.6,2.81,2.81,0,0,0,.54,1.06A15.27,15.27,0,0,0,33.94,74a4.83,4.83,0,0,0-3.2-1.75,1.68,1.68,0,0,0-.94.14.75.75,0,0,0-.34.34.8.8,0,0,0-.06.48,1.21,1.21,0,0,0,.39.53A12.23,12.23,0,0,0,33.19,76,5.54,5.54,0,0,0,31,75.22a5.81,5.81,0,0,0-2.27.18,1.82,1.82,0,0,0,.24.79,1.79,1.79,0,0,0,.56.6,4.2,4.2,0,0,0,1.53.55,23.27,23.27,0,0,0,3.81.52,8.68,8.68,0,0,0,3.76-.14C40.19,76.94,38.88,72.77,38.52,71.51Z"/><path class="cls-4" d="M37.72,79.71A1.77,1.77,0,0,0,39,79.23a2,2,0,0,0,.37-.8A4.57,4.57,0,0,0,39.22,76c0-.16-.19-.35-.34-.27a.33.33,0,0,0-.11.15l-.38.75c-.25,0-.45-.43-.67-.3a.43.43,0,0,0-.15.28,3.18,3.18,0,0,0,0,1.15,2.56,2.56,0,0,1-1.55,0,1.56,1.56,0,0,0,.46.92,3.48,3.48,0,0,0-1.31.3.19.19,0,0,0-.17.19C35,79.87,37.37,79.73,37.72,79.71Z"/><path class="cls-4" d="M40.31,84.65a5,5,0,0,1,0,1.44c.12,0,.16-.17.16-.3a13.94,13.94,0,0,0-.69-5.17,10.24,10.24,0,0,0-.51-1.18c-.1-.2-.49-.72-.41-.15a5.5,5.5,0,0,0,.52,1.19c.16.43.31.87.44,1.25A15.23,15.23,0,0,1,40.31,84.65Z"/><path class="cls-5" d="M42.86,96.33a10.78,10.78,0,0,0,4.9-3.25,10.3,10.3,0,0,0,1.82-2.92A13.26,13.26,0,0,0,46.91,90a4,4,0,0,1,.18-2.62c-.68.06-1.62.17-2.29.22A14.92,14.92,0,0,1,45.24,85a12.09,12.09,0,0,0-5.85,5.18,13.08,13.08,0,0,0-1.84-8.57,14.31,14.31,0,0,1-1.11,2.5c-.52-.46-1.25-1.11-1.74-1.56a3.9,3.9,0,0,1-1.25,2.25,13,13,0,0,0-2.25-1.5A10.25,10.25,0,0,0,31,86.7a11.57,11.57,0,0,0,1.86,5.14,11.73,11.73,0,0,0-7.61-2.72,15.3,15.3,0,0,1,1.38,2.29c-.65.22-1.55.48-2.2.7a3.84,3.84,0,0,1,1.11,2.36,12.53,12.53,0,0,0-2.41,1.25,10,10,0,0,0,2.64,1.87,10.45,10.45,0,0,0,5.71,1.07,15.68,15.68,0,0,0,2.28-.5l-.16.08a12.51,12.51,0,0,0-6.52,8.86,13.37,13.37,0,0,1,2.44-.94c.08.71.14,1.69.21,2.39a3.56,3.56,0,0,1,2.44-.66,14,14,0,0,0,.64,2.7,10.27,10.27,0,0,0,2.42-2.37,11.55,11.55,0,0,0,2.13-5.63,29.62,29.62,0,0,0,0-3,2,2,0,0,0-.33-1.27.57.57,0,0,0,.26,0h.11a4.61,4.61,0,0,0,.53,2.25A12.11,12.11,0,0,0,41.42,105a12.24,12.24,0,0,0,5,2.37,15,15,0,0,1-.91-2.5l2.29-.23a4,4,0,0,1-.64-2.5,12,12,0,0,0,2.59-.65A10.16,10.16,0,0,0,47.54,99a10.6,10.6,0,0,0-5.47-2.43H42A7.32,7.32,0,0,0,42.86,96.33Zm-7.68,1.32h0Z"/><path class="cls-6" d="M40.13,94.59a3.56,3.56,0,0,1-2.7,4.2,3.51,3.51,0,0,1-1.37,0,3.42,3.42,0,0,1-1.25-.55,3.55,3.55,0,0,1-.94-1A3.44,3.44,0,0,1,33.39,96a3.56,3.56,0,0,1,.5-2.66,3.62,3.62,0,0,1,2.21-1.55,3.51,3.51,0,0,1,1.37,0,3.42,3.42,0,0,1,1.25.55,3.47,3.47,0,0,1,.93,1A3.32,3.32,0,0,1,40.13,94.59Z"/><path class="cls-7" d="M33,86.57l-.42-1.49h-.11l.43,1.48a1.52,1.52,0,0,0,.21.57,1.44,1.44,0,0,0,.43.42v-.1C33.21,87.35,33.08,86.94,33,86.57Z"/><path class="cls-7" d="M34.26,84.67A20.81,20.81,0,0,0,35.08,87h.1a21.55,21.55,0,0,1-.82-2.38Z"/><path class="cls-7" d="M36.5,84.25a9.58,9.58,0,0,1,.18,3.29h.11a10.35,10.35,0,0,0-.17-3.33Z"/><path class="cls-7" d="M29.9,92.34v.11a.12.12,0,0,0,.07-.07.14.14,0,0,0,0-.07.14.14,0,0,0,0-.06.21.21,0,0,0-.15-.07,8.75,8.75,0,0,1-2.22-.78v.1a8.92,8.92,0,0,0,2.26.79A.11.11,0,0,1,29.9,92.34Z"/><path class="cls-7" d="M28.92,93.49H29a.38.38,0,0,0,0-.15.43.43,0,0,0-.21-.21l-1.6-.85v.11l1.6.84a.31.31,0,0,1,.09.11A.26.26,0,0,1,28.92,93.49Z"/><path class="cls-7" d="M28.05,94.83l-1.6-.41v.11l1.6.4a.34.34,0,0,1,.18.09.11.11,0,0,1,0,.08l.08.09a.18.18,0,0,0,0-.12.28.28,0,0,0-.06-.18A.47.47,0,0,0,28.05,94.83Z"/><path class="cls-7" d="M32.06,103.51,30.72,105c-.08.11-.2.22-.32.21v.11h.07a.61.61,0,0,0,.34-.25l1.25-1.5Z"/><path class="cls-7" d="M32.7,104.78h-.1a8.05,8.05,0,0,1-1,1.4l.08.09A8,8,0,0,0,32.7,104.78Z"/><path class="cls-7" d="M32.8,107.17h.11a19.6,19.6,0,0,1,1.37-2.8h-.1A21.38,21.38,0,0,0,32.8,107.17Z"/><path class="cls-7" d="M43.15,102.84A28.77,28.77,0,0,0,46,104.16v-.11a28.15,28.15,0,0,1-2.8-1.26Z"/><path class="cls-7" d="M44,101.5a15,15,0,0,0,1.92,1.08v-.1A14.46,14.46,0,0,1,44,101.39Z"/><path class="cls-7" d="M44.94,100.48v.1c.52.38,1.07.75,1.62,1.09v-.09C46,101.23,45.46,100.84,44.94,100.48Z"/><path class="cls-7" d="M45.9,90.68a3.25,3.25,0,0,1-.58,1.25.81.81,0,0,1-.46.33v.12a.91.91,0,0,0,.51-.39A3.26,3.26,0,0,0,46,90.64Z"/><path class="cls-7" d="M44,90.84a8.17,8.17,0,0,0,.92-.94.81.81,0,0,0,.21-.3.84.84,0,0,0,.07-.35H45a1.09,1.09,0,0,1-.07.3.85.85,0,0,1-.17.25,6.81,6.81,0,0,1-.93.93Z"/><path class="cls-7" d="M43.73,88.07h-.11a2.44,2.44,0,0,1-.69,1.36l.08.08A2.61,2.61,0,0,0,43.73,88.07Z"/><path class="cls-4" d="M38.82,94a.21.21,0,0,0-.14.1.24.24,0,0,0,0,.16l-.92.42a1.09,1.09,0,0,0-.47-.38l.3-1.09a.16.16,0,0,0,.12,0,.14.14,0,0,0,.08-.09.25.25,0,0,0,0-.17.24.24,0,0,0-.1-.14.2.2,0,0,0-.17,0,.16.16,0,0,0-.13.11.23.23,0,0,0,0,.16.3.3,0,0,0,.1.14l-.3,1.09a.89.89,0,0,0-.51,0,1,1,0,0,0-.45.22,1.07,1.07,0,0,0-.31.39v-.09l-1.05-.32a.28.28,0,0,0,0-.13.26.26,0,0,0-.09-.09l-.08,0h-.08l-.07,0,0,.07a.2.2,0,0,0,0,.17.22.22,0,0,0,.1.13.21.21,0,0,0,.29-.08l1.05.31a1.19,1.19,0,0,0-.08.72l-.91.52a.17.17,0,0,0-.22,0,.22.22,0,0,0-.12.11.23.23,0,0,0,0,.16.2.2,0,0,0,0,.08.17.17,0,0,0,.06.06l.08,0h.08a.24.24,0,0,0,.13-.11.18.18,0,0,0,0-.16l.88-.52a1.06,1.06,0,0,0,.22.42,1,1,0,0,0,.37.28l-.34.88a.17.17,0,0,0-.12,0,.14.14,0,0,0-.09.08.24.24,0,0,0-.07.16.23.23,0,0,0,.07.15.2.2,0,0,0,.14.06.2.2,0,0,0,.15-.06.22.22,0,0,0,.06-.15.23.23,0,0,0-.06-.16l.33-.88a.86.86,0,0,0,.59,0h.14l.41.79a.24.24,0,0,0-.06.11.29.29,0,0,0,0,.13.16.16,0,0,0,0,.07l.07.06.08,0h.08l.08,0,0-.07a.31.31,0,0,0,0-.08.28.28,0,0,0,0-.09.15.15,0,0,0,0-.07.2.2,0,0,0-.07-.06l-.08,0a.11.11,0,0,0-.08,0l-.41-.77a1.16,1.16,0,0,0,.39-.31,1.19,1.19,0,0,0,.21-.44l.82.35a.25.25,0,0,0,0,.12.27.27,0,0,0,.08.1.22.22,0,0,0,.15.06.2.2,0,0,0,.15-.06.22.22,0,0,0,.06-.15.23.23,0,0,0-.06-.16.2.2,0,0,0-.15-.06.22.22,0,0,0-.15.06L38,95.73a1,1,0,0,0,0-.43,1.37,1.37,0,0,0-.15-.38l.91-.4a.26.26,0,0,0,.1.07.25.25,0,0,0,.12,0,.19.19,0,0,0,.13-.1.22.22,0,0,0,0-.16.15.15,0,0,0,0-.13.17.17,0,0,0,0-.12A.19.19,0,0,0,39,94,.2.2,0,0,0,38.82,94Z"/><path class="cls-4" d="M35.82,93.34l.42,1h.09l-.39-1a.23.23,0,0,0,.07-.1.27.27,0,0,0,0-.13L36,93,35.94,93a.16.16,0,0,0-.09,0h-.08a.21.21,0,0,0-.14.1.23.23,0,0,0,0,.16.22.22,0,0,0,.09.1A.2.2,0,0,0,35.82,93.34Z"/><path class="cls-5" d="M56.14,86.24a10.47,10.47,0,0,0,5.71-1.18,9.86,9.86,0,0,0,2.66-2,13.37,13.37,0,0,0-2.42-1.14,3.9,3.9,0,0,1,1.07-2.38c-.65-.21-1.56-.46-2.21-.66a14.66,14.66,0,0,1,1.32-2.31A11.71,11.71,0,0,0,55,79.13a13.12,13.12,0,0,0,1.25-8.68,14.52,14.52,0,0,1-1.89,1.87c-.32-.63-.75-1.51-1.09-2.13a3.67,3.67,0,0,1-2,1.61,12,12,0,0,0-1.59-2.22,10.51,10.51,0,0,0-1.38,3.14,11.62,11.62,0,0,0,0,5.5,12.31,12.31,0,0,0-6.16-5.4,15.67,15.67,0,0,1,.49,2.65c-.68,0-1.62-.14-2.29-.18a4,4,0,0,1,.22,2.63,11.33,11.33,0,0,0-2.66.2A10.54,10.54,0,0,0,39.77,81a10.79,10.79,0,0,0,5,3.13,15.32,15.32,0,0,0,2.3.45h-.18a12.09,12.09,0,0,0-9.11,5.85,12.46,12.46,0,0,1,2.59,0c-.18.68-.45,1.62-.63,2.31a3.59,3.59,0,0,1,2.51.29,12.2,12.2,0,0,0-.35,2.76A9.5,9.5,0,0,0,45,94.54a11.16,11.16,0,0,0,3.95-4.45c.44-.9.65-1.88,1-2.79A2,2,0,0,0,50,86h.38a4.61,4.61,0,0,0-.31,2.38,12.69,12.69,0,0,0,5.59,9.5,15.22,15.22,0,0,1,0-2.7c.65.19,1.55.48,2.22.65a4,4,0,0,1,.27-2.61,11.91,11.91,0,0,0,2.66.36,10.79,10.79,0,0,0-1.26-3.2,11,11,0,0,0-4.26-4.12h-.09A3.07,3.07,0,0,1,56.14,86.24Zm-7.61-1.66h0Z"/><path class="cls-6" d="M54.21,83.58a3.44,3.44,0,0,1-.46,1.29,3.55,3.55,0,0,1-.92,1,3.51,3.51,0,0,1-1.24.57,3.66,3.66,0,0,1-1.36,0,3.57,3.57,0,0,1-2.78-4.16,3.45,3.45,0,0,1,.46-1.28,3.54,3.54,0,0,1,.92-1,3.32,3.32,0,0,1,1.24-.56,3.46,3.46,0,0,1,1.36,0,3.57,3.57,0,0,1,2.78,4.15Z"/><path class="cls-8" d="M50.29,73.42l.11-1.56h-.11l-.1,1.54a1.57,1.57,0,0,0,0,.61,1.49,1.49,0,0,0,.25.56l.07-.08a1.55,1.55,0,0,1-.22-.51A1.32,1.32,0,0,1,50.29,73.42Z"/><path class="cls-8" d="M52.17,72.08a17.38,17.38,0,0,0,0,2.5h.11a20.85,20.85,0,0,1,0-2.5Z"/><path class="cls-8" d="M54.39,72.59a9.58,9.58,0,0,1-1,3.13h.1a9.76,9.76,0,0,0,1-3.17Z"/><path class="cls-8" d="M45.45,77.64v.12h.1a.17.17,0,0,0,0-.07.13.13,0,0,0,0-.06.26.26,0,0,0-.11-.12,9.74,9.74,0,0,1-1.82-1.57l-.07.08a8.92,8.92,0,0,0,1.82,1.59S45.44,77.62,45.45,77.64Z"/><path class="cls-8" d="M44.13,78.33l.08.09s0,0,0-.06a.15.15,0,0,0,0-.07.38.38,0,0,0-.12-.28L42.9,76.63l-.09.08,1.25,1.38A.36.36,0,0,1,44.13,78.33Z"/><path class="cls-8" d="M42.86,79.27l-1.37-.94v.1l1.37,1a.41.41,0,0,1,.14.15v0s0,0,0,0v.1a.09.09,0,0,0,0,0,.09.09,0,0,0,0-.07.11.11,0,0,0,0-.08.15.15,0,0,0,0-.09A.4.4,0,0,0,42.86,79.27Z"/><path class="cls-8" d="M43.57,88.86l-1.76.9a.48.48,0,0,1-.18.08h-.2V90h.08a.58.58,0,0,0,.4-.1L43.67,89Z"/><path class="cls-8" d="M43.75,90.3l-.08-.09a7.75,7.75,0,0,1-1.41,1v.1A7.57,7.57,0,0,0,43.75,90.3Z"/><path class="cls-8" d="M43,92.58l.09.07a19.34,19.34,0,0,1,2.24-2.1v-.09A18,18,0,0,0,43,92.58Z"/><path class="cls-8" d="M54.17,92.44c.68.79,1.41,1.55,2.17,2.28l.08-.09a29.35,29.35,0,0,1-2.18-2.28Z"/><path class="cls-8" d="M55.41,91.49a18.06,18.06,0,0,0,1.4,1.74l.08-.09a16.79,16.79,0,0,1-1.4-1.73Z"/><path class="cls-8" d="M56.64,90.9h-.08c.36.55.74,1.11,1.14,1.64l.08-.08A16.1,16.1,0,0,1,56.64,90.9Z"/><path class="cls-8" d="M60.94,82.08a3,3,0,0,1-1,1,.84.84,0,0,1-.55.15v.12a1,1,0,0,0,.62-.17,3.2,3.2,0,0,0,1-1Z"/><path class="cls-8" d="M59.05,81.56A7.21,7.21,0,0,0,60.3,81a.69.69,0,0,0,.28-.2.83.83,0,0,0,.18-.3h-.1a.65.65,0,0,1-.17.26.78.78,0,0,1-.26.17,5.75,5.75,0,0,1-1.16.51Z"/><path class="cls-8" d="M59.81,78.88h-.09a2.3,2.3,0,0,1-1.11,1V80A2.44,2.44,0,0,0,59.81,78.88Z"/><path class="cls-4" d="M53.17,82.58a.27.27,0,0,0-.16,0,.19.19,0,0,0-.09.14h-1a1.14,1.14,0,0,0-.32-.51l.65-.9a.27.27,0,0,0,.12,0,.24.24,0,0,0,.12,0,.28.28,0,0,0,.07-.17.24.24,0,0,0-.07-.16.18.18,0,0,0-.07,0l-.08,0-.08,0a.18.18,0,0,0-.07,0,.23.23,0,0,0-.06.16.22.22,0,0,0,.06.15l-.65.9a1.05,1.05,0,0,0-.47-.21,1,1,0,0,0-.49,0,1,1,0,0,0-.43.25v-.08l-.87-.69a.21.21,0,0,0,0-.12.2.2,0,0,0,0-.11s-.05,0-.07-.06H49s-.05,0-.07.06a.2.2,0,0,0-.06.15.23.23,0,0,0,.06.16l.07,0,.08,0,.09,0,.06,0,.87.7a1.1,1.1,0,0,0-.33.64l-1,.15a.41.41,0,0,0-.07-.11.28.28,0,0,0-.12,0,.25.25,0,0,0-.16.06.26.26,0,0,0-.07.15.28.28,0,0,0,0,.09.25.25,0,0,0,0,.07.18.18,0,0,0,.07.05.13.13,0,0,0,.08,0h.09l.07,0,.05-.06a.31.31,0,0,0,0-.08l1-.15a1.07,1.07,0,0,0,.06.47,1,1,0,0,0,.24.4l-.61.69a.27.27,0,0,0-.12,0,.24.24,0,0,0-.12,0,.23.23,0,0,0-.06.16.22.22,0,0,0,.06.15.18.18,0,0,0,.07,0l.08,0,.08,0a.26.26,0,0,0,.12-.12.24.24,0,0,0,0-.08.29.29,0,0,0,0-.09.18.18,0,0,0-.05-.07l.61-.69a1.12,1.12,0,0,0,.54.28h.14l.12.89a.14.14,0,0,0-.09.08.22.22,0,0,0,0,.12.25.25,0,0,0,0,.08.2.2,0,0,0,0,.08l.07,0,.09,0a.22.22,0,0,0,.15-.06.21.21,0,0,0,.07-.16.2.2,0,0,0-.07-.16.23.23,0,0,0-.15-.07l-.12-.87a1.11,1.11,0,0,0,.47-.14,1.13,1.13,0,0,0,.36-.33l.65.63a.19.19,0,0,0,0,.12.2.2,0,0,0,0,.13.18.18,0,0,0,.07,0l.08,0,.08,0a.18.18,0,0,0,.07,0,.23.23,0,0,0,.06-.16.22.22,0,0,0-.06-.15.22.22,0,0,0-.3,0l-.66-.65a.94.94,0,0,0,.13-.4,1,1,0,0,0,0-.42h1A.21.21,0,0,0,53,83a.24.24,0,0,0,.16,0,.24.24,0,0,0,.09-.15.3.3,0,0,0,0-.13A.44.44,0,0,0,53.17,82.58Z"/><path class="cls-4" d="M50.64,80.83V82h.19V80.85l.1-.07a.24.24,0,0,0,.06-.11.25.25,0,0,0,0-.17.24.24,0,0,0-.15-.09h-.08l-.08,0a.15.15,0,0,0,0,.06.41.41,0,0,0,0,.08.33.33,0,0,0,0,.14A.2.2,0,0,0,50.64,80.83Z"/><path class="cls-9" d="M172,86.71c0-.07,0,.38-.1,1.34-.13,1.92-.19,3.78-.19,5.56,0,.2,0,.61.09,1.22a20.15,20.15,0,0,1,.1,2.22v.44c0,.43-.13.65-.39.65s-.5-.25-.7-.75a5.09,5.09,0,0,0-1.39-2.13,12.65,12.65,0,0,1-8.6,3.13,15.93,15.93,0,0,1-12.11-5.1,18,18,0,0,1-4.79-12.85q0-7.8,4.4-12.75a14.49,14.49,0,0,1,11.36-4.94,15.69,15.69,0,0,1,4.05.42,17,17,0,0,1,3.75,1.71,3.77,3.77,0,0,0,1.64.65c.3,0,.58-.27.84-.8.44-.92.78-1.39,1.05-1.39a.35.35,0,0,1,.4.4,4.14,4.14,0,0,1-.1.65,47,47,0,0,0-.55,8.94,2.16,2.16,0,0,1-.15,1.1.54.54,0,0,1-.4.15c-.33,0-.54-.32-.64-1a16.86,16.86,0,0,0-1.84-5.91q-2.44-4-7.66-4a8,8,0,0,0-6.36,2.68q-4.23,4.83-4.23,14.12,0,8.31,3.48,12.88a9.64,9.64,0,0,0,8.06,4,9.14,9.14,0,0,0,4.72-1.26A8.6,8.6,0,0,0,169,92.67a20.26,20.26,0,0,0,1.84-5.52c.13-.79.35-1.19.65-1.19S172,86.21,172,86.71Z"/><path class="cls-9" d="M197.81,87.05a11.64,11.64,0,0,1-2.93,8.08,9.44,9.44,0,0,1-7.31,3.26A9.9,9.9,0,0,1,180,95.13a11.37,11.37,0,0,1-3-8.08,11.88,11.88,0,0,1,3-8.25,9.51,9.51,0,0,1,7.38-3.28,9.66,9.66,0,0,1,7.48,3.31A11.72,11.72,0,0,1,197.81,87.05Zm-4.52,0c0-3.64-.57-6.47-1.69-8.5a4.39,4.39,0,0,0-4.18-2.23,4.81,4.81,0,0,0-4.35,2.86,16.65,16.65,0,0,0-1.56,7.92,15.4,15.4,0,0,0,1.66,7.83,5.15,5.15,0,0,0,4.65,2.81A3.72,3.72,0,0,0,191.2,96Q193.29,92.67,193.29,87Z"/><path class="cls-9" d="M224.65,97.52c0,.25-.24.37-.74.37h-9.15c-.43,0-.64-.12-.64-.35a.29.29,0,0,1,.27-.3c.18,0,.82-.06,1.91-.09.63,0,1-.13,1.1-.28a4.47,4.47,0,0,0,.15-1.61V85.74c0-3.6-.14-5.75-.4-6.45a3.3,3.3,0,0,0-3.38-2.23,5.12,5.12,0,0,0-4.18,2.18A2.88,2.88,0,0,0,209.1,81V96.5c0,.4.35.61,1.06.65l1.51,0c.34,0,.51.11.51.34s-.2.35-.6.35h-9.05c-.49,0-.74-.1-.74-.3s.3-.34.89-.4h1.25c.49,0,.79-.11.89-.34l.15-.75V85.3q0-5.65-.1-6.25c-.07-.4-.48-.6-1.24-.6h-1.44c-.67,0-1-.12-1-.37s.35-.47,1.05-.47a13.41,13.41,0,0,0,3.23-.55,6.1,6.1,0,0,0,2.43-1.14,1.24,1.24,0,0,1,.7-.4c.23,0,.35.32.35,1v2.38a8.05,8.05,0,0,1,6.66-3.33,5.58,5.58,0,0,1,5.17,2.64q.89,1.49.89,5.66V95.16a4.71,4.71,0,0,0,.15,1.74,2.32,2.32,0,0,0,1.44.29h.9C224.49,97.19,224.65,97.3,224.65,97.52Z"/><path class="cls-9" d="M241.16,94.86c0,.3-.42.83-1.25,1.59a7.29,7.29,0,0,1-5.07,1.94A5.62,5.62,0,0,1,230.72,97c-.53-.53-.8-2.08-.8-4.66V77.56a.55.55,0,0,0-.54-.55h-1.89c-.73,0-1.1-.11-1.1-.35s.18-.36.55-.39a7.66,7.66,0,0,0,6-3.83.88.88,0,0,1,.74-.45.31.31,0,0,1,.35.35v1a11,11,0,0,0,.2,2.69,7.41,7.41,0,0,0,1.49.1,17.06,17.06,0,0,0,3.63-.25,1.63,1.63,0,0,1,.35,0c.26,0,.39.14.39.43,0,.47-1.34.71-4,.71h-2v9.2a62.81,62.81,0,0,0,.35,8.72,2.05,2.05,0,0,0,2.28,1.77,5.86,5.86,0,0,0,3.68-1.84.55.55,0,0,1,.45-.25C241,94.61,241.16,94.69,241.16,94.86Z"/><path class="cls-9" d="M262.78,95.55c0,.57-.58,1.16-1.76,1.77a7.33,7.33,0,0,1-3.38.92c-2.28,0-3.46-1.18-3.56-3.53a6.18,6.18,0,0,1-5.84,3.68,5,5,0,0,1-3.51-1.27,4.24,4.24,0,0,1-1.39-3.26c0-2.71,1.63-4.87,4.88-6.46A26.94,26.94,0,0,1,254,85.81V84.57a23.11,23.11,0,0,0-.45-5.77A3.38,3.38,0,0,0,250,76.27a4.48,4.48,0,0,0-2.91.94,3,3,0,0,0-1.17,2.39c0,.26.2.39.61.39a1.39,1.39,0,0,1,1.09.6,2.11,2.11,0,0,1,.49,1.34A1.93,1.93,0,0,1,246,84.12a2.5,2.5,0,0,1-1.87-.77,2.73,2.73,0,0,1-.74-2,5.32,5.32,0,0,1,1.84-4,8.19,8.19,0,0,1,5.67-1.84c3.65,0,5.88,1,6.71,3A14.7,14.7,0,0,1,258,83v9.29c0,1.53,0,2.42.05,2.69.16,1.19.64,1.79,1.44,1.79a2.93,2.93,0,0,0,2.29-1c.33-.36.58-.54.74-.54S262.78,95.35,262.78,95.55ZM254,90.28V86.66a12.59,12.59,0,0,0-5.27,2.21,4.57,4.57,0,0,0-1.59,3.65,3.76,3.76,0,0,0,.91,2.61,2.91,2.91,0,0,0,2.28,1,3.82,3.82,0,0,0,3.38-2.39A11.24,11.24,0,0,0,254,90.28Z"/><path class="cls-9" d="M282.07,80.64a2,2,0,0,1-2.24,2.29c-1.46,0-2.19-.7-2.19-2.09a4.52,4.52,0,0,1,.5-1.64,1.73,1.73,0,0,0,.15-.7,1.9,1.9,0,0,0-1-1.64,4.7,4.7,0,0,0-2.56-.64,5.17,5.17,0,0,0-4.62,2.58,13.48,13.48,0,0,0-1.64,7.26q0,5.26,1.69,8.13a5.27,5.27,0,0,0,4.77,2.86,5.9,5.9,0,0,0,3.73-1.3,12.55,12.55,0,0,0,1.94-2.28.65.65,0,0,1,.44-.25c.33,0,.5.13.5.39,0,.44-.58,1.25-1.74,2.44a7.57,7.57,0,0,1-5.72,2.34,9.4,9.4,0,0,1-7.23-3.13A11.32,11.32,0,0,1,264,87.35a12.11,12.11,0,0,1,3-8.47,9.8,9.8,0,0,1,7.6-3.36,9.07,9.07,0,0,1,5.2,1.54A4.38,4.38,0,0,1,282.07,80.64Z"/><path class="cls-9" d="M299.07,94.86c0,.3-.42.83-1.25,1.59a7.29,7.29,0,0,1-5.07,1.94A5.62,5.62,0,0,1,288.63,97c-.53-.53-.8-2.08-.8-4.66V77.56a.55.55,0,0,0-.54-.55H285.4c-.73,0-1.1-.11-1.1-.35s.19-.36.55-.39a7.66,7.66,0,0,0,6-3.83.88.88,0,0,1,.74-.45.31.31,0,0,1,.35.35v1a11,11,0,0,0,.2,2.69,7.41,7.41,0,0,0,1.49.1,17.06,17.06,0,0,0,3.63-.25,1.63,1.63,0,0,1,.35,0c.26,0,.39.14.39.43,0,.47-1.34.71-4,.71h-2v9.2a62.81,62.81,0,0,0,.35,8.72,2.05,2.05,0,0,0,2.28,1.77,5.86,5.86,0,0,0,3.68-1.84.55.55,0,0,1,.45-.25C299,94.61,299.07,94.69,299.07,94.86Z"/><path class="cls-3" d="M180.38,128.59a2.09,2.09,0,0,1-.57-1.92c0-.49,1.08-1.57,1.27-1.62a3.61,3.61,0,0,1,2.13,0,2.09,2.09,0,0,1,1.25,1.38,2.33,2.33,0,0,1,0,1.55,1.28,1.28,0,0,1-.35.49A2.56,2.56,0,0,1,180.38,128.59Z"/><path class="cls-3" d="M183.49,136c.32,1,1.38,1.19,1.83,1.37a2.6,2.6,0,0,0,3.07-2.85,2.32,2.32,0,0,0-1-1.84,2.74,2.74,0,0,0-1.68-.61,1.48,1.48,0,0,0-.67.17A2.75,2.75,0,0,0,183.49,136Z"/><path class="cls-3" d="M193.35,123.7s-.81,4.5-.22,6.21c.84,2.45-.36,3.23-1.25,2-1.21-1.71-.44-3.44-.14-4.46a19.35,19.35,0,0,1,1.32-3.4C193.44,123.45,193.35,123.7,193.35,123.7Z"/><path class="cls-3" d="M193.05,123.19a30.27,30.27,0,0,1-6.15-2.59c-2.68-1.78-5.16.78-3.16,2.35,1.8,1.42,3.67.85,5.38.8a14,14,0,0,0,4-.34C194.19,123,193.05,123.19,193.05,123.19Z"/><path class="cls-3" d="M193.55,123.86s1.14,4.51,3.23,6.78c1.78,1.93-.2,4-1.72,2.26-1.36-1.55-1.07-3.35-1.25-5.05s-.22-2.22-.46-3.78C193.19,123,193.55,123.86,193.55,123.86Z"/><path class="cls-3" d="M193.55,123.86s1.14,4.51,3.23,6.78c1.78,1.93-.2,4-1.72,2.26-1.36-1.55-1.07-3.35-1.25-5.05s-.22-2.22-.46-3.78C193.19,123,193.55,123.86,193.55,123.86Z"/><path class="cls-3" d="M198.65,119a13.58,13.58,0,0,1-6.69-3c-2.5-2.12-3.23.5-1.37,2.38,1.66,1.69,3,1.35,4.5,1.36a11.53,11.53,0,0,0,4-.47C200,118.9,198.65,119,198.65,119Z"/><path class="cls-3" d="M200,119.38s-1.74,3.24-.27,5.77c2.3,3.95-1.69,2.87-2.22.95-.49-1.71.19-2.7.73-4A13.71,13.71,0,0,1,200,119C200.53,118.31,200,119.38,200,119.38Z"/><path class="cls-3" d="M203.51,117.59s-.78,2.52-.38,3.77c.58,1.79-.39,1.88-1,.81a2.36,2.36,0,0,1,0-2.81,6.73,6.73,0,0,1,1.14-1.67C203.59,117.46,203.51,117.59,203.51,117.59Z"/><path class="cls-3" d="M202.76,117.54s-2.55-.72-3.39-1.75c-1.21-1.49-1.8-.71-1.25.45a2.36,2.36,0,0,0,2.4,1.51,6.28,6.28,0,0,0,2-.06C202.91,117.54,202.76,117.54,202.76,117.54Z"/><path class="cls-3" d="M210.73,118.75a.44.44,0,0,1-.59.19h0a9.92,9.92,0,0,0-1.49-.62,11.81,11.81,0,0,0-1.58-.41,9.74,9.74,0,0,0-3.23-.08,7.54,7.54,0,0,0-1.55.41,13.37,13.37,0,0,0-1.48.72c-1,.52-2,1-3,1.49a15.55,15.55,0,0,0-2.79,1.78,11.71,11.71,0,0,0-1.21,1.12l-.54.63c-.18.22-.37.44-.56.65a12.48,12.48,0,0,1-2.62,2.24l-.35.19,0,0a6.21,6.21,0,0,0-2.19,2.71c-.39,1.45-.21,2.14.33,2.83.41.52-3.11-.18-2.65-.81.75-1,1.8-2.11,2-2.51a9,9,0,0,1,1.31-1.74,4.86,4.86,0,0,1-.86.18l-.45,0c-.46.08-1.65.55-2.72.81-.68.17-.15-2.9.17-2.4a2.62,2.62,0,0,0,2.29,1.17,4.74,4.74,0,0,0,2.4-.58,5.39,5.39,0,0,0,.52-.3,11.73,11.73,0,0,0,2.46-2.21c.18-.21.36-.42.53-.64s.37-.45.55-.67a11.71,11.71,0,0,1,1.24-1.2,17,17,0,0,1,2.87-1.91c1-.54,2-1,3-1.55a13.83,13.83,0,0,1,1.54-.78,9.22,9.22,0,0,1,1.71-.47,10.28,10.28,0,0,1,3.5,0,14,14,0,0,1,1.7.41,12,12,0,0,1,1.64.66h0A.43.43,0,0,1,210.73,118.75Z"/><path class="cls-3" d="M210.73,118.75a.44.44,0,0,1-.59.19h0a9.92,9.92,0,0,0-1.49-.62,11.81,11.81,0,0,0-1.58-.41,9.74,9.74,0,0,0-3.23-.08,7.54,7.54,0,0,0-1.55.41,13.37,13.37,0,0,0-1.48.72c-1,.52-2,1-3,1.49a15.55,15.55,0,0,0-2.79,1.78,11.71,11.71,0,0,0-1.21,1.12l-.54.63c-.18.22-.37.44-.56.65a12.48,12.48,0,0,1-2.62,2.24l-.35.19,0,0a6.21,6.21,0,0,0-2.19,2.71c-.39,1.45-.21,2.14.33,2.83.41.52-3.11-.18-2.65-.81.75-1,1.8-2.11,2-2.51a9,9,0,0,1,1.31-1.74,4.86,4.86,0,0,1-.86.18l-.45,0c-.46.08-1.65.55-2.72.81-.68.17-.15-2.9.17-2.4a2.62,2.62,0,0,0,2.29,1.17,4.74,4.74,0,0,0,2.4-.58,5.39,5.39,0,0,0,.52-.3,11.73,11.73,0,0,0,2.46-2.21c.18-.21.36-.42.53-.64s.37-.45.55-.67a11.71,11.71,0,0,1,1.24-1.2,17,17,0,0,1,2.87-1.91c1-.54,2-1,3-1.55a13.83,13.83,0,0,1,1.54-.78,9.22,9.22,0,0,1,1.71-.47,10.28,10.28,0,0,1,3.5,0,14,14,0,0,1,1.7.41,12,12,0,0,1,1.64.66h0A.43.43,0,0,1,210.73,118.75Z"/><path class="cls-3" d="M219.54,123l.2.06v4.68a1.34,1.34,0,0,1-2.59-.61Z"/><path class="cls-3" d="M218.88,122.57a.93.93,0,0,0,.14.14l-2.34,4.06a1.34,1.34,0,0,1-1.93-1.82Z"/><path class="cls-3" d="M213.76,121.85h4.76a1.52,1.52,0,0,0,.06.2l-4.07,2.35a1.35,1.35,0,0,1-1.51-1A1.34,1.34,0,0,1,213.76,121.85Z"/><path class="cls-3" d="M220.53,123l2.35,4a1.35,1.35,0,0,1-1,1.53,1.33,1.33,0,0,1-1.56-.75v-4.77Z"/><path class="cls-3" d="M221.2,122.56l4.05,2.34a1.34,1.34,0,0,1-.08,1.81h0a1.34,1.34,0,0,1-1.73.14l-2.39-4.14S221.15,122.62,221.2,122.56Z"/><path class="cls-3" d="M221.55,121.85h4.73a1.33,1.33,0,0,1,.79,1.58v0h0a1.34,1.34,0,0,1-1.42,1l-4.15-2.39A.76.76,0,0,0,221.55,121.85Z"/><path class="cls-3" d="M226.28,121.25h-4.73a.76.76,0,0,0-.06-.2l4.1-2.36a1.34,1.34,0,0,1,1.48,1h0A1.33,1.33,0,0,1,226.28,121.25Z"/><path class="cls-3" d="M218.52,121.25h-4.7a1.34,1.34,0,0,1,.64-2.58l4.12,2.38A1.52,1.52,0,0,0,218.52,121.25Z"/><path class="cls-3" d="M221.2,120.54c0-.06-.1-.1-.15-.15l2.36-4.09a1.34,1.34,0,0,1,1.89,1.87Z"/><path class="cls-3" d="M220.53,120.09l-.19-.06v-4.71a1.33,1.33,0,0,1,1.59-.8h0a1.35,1.35,0,0,1,1,1.46Z"/><path class="cls-3" d="M219.54,120.09,217.18,116a1.34,1.34,0,0,1,2.56-.72V120Z"/><path class="cls-3" d="M218.88,120.54l-4.08-2.36a1.34,1.34,0,0,1,1.85-1.91l2.37,4.12A1,1,0,0,0,218.88,120.54Z"/><path class="cls-3" d="M208.86,122.7l.23-.08a12.89,12.89,0,0,0,.14,1.59c.29,1.73.65,2.89,1.71,3.68.49.37.74,1.64.32,1.75a2.65,2.65,0,0,1-2.29-.89c-.84-1-.7-2.8-.44-3.87A16,16,0,0,0,208.86,122.7Z"/><path class="cls-3" d="M210.05,119.89a2.45,2.45,0,0,1-.31-.34c-.35.74-1.9,5-2.3,5.59-1.45,2.07-2.67,3.28-4.78,3.27-1,0-2.11,1.49-1.52,2.06a3.16,3.16,0,0,0,3.13.44c1.9-.52,3.29-4.18,3.91-5.67C208.36,124.81,209.78,120.6,210.05,119.89Z"/><path class="cls-3" d="M182.64,117.39a1.14,1.14,0,0,0,.23.15,15.14,15.14,0,0,0-1.36,1.22c-1.39,1.45-2.19,2.57-2.19,4.08,0,.71-1,1.81-1.38,1.5a3,3,0,0,1-.75-2.71c.35-1.47,2.07-2.56,3.23-3A20.81,20.81,0,0,0,182.64,117.39Z"/><path class="cls-3" d="M186,116.54a2.71,2.71,0,0,1,.1-.51c-.91.19-5.89,1.7-6.69,1.73-2.88.1-4.83-.19-6.27-2.13-.68-.91-2.8-.91-2.92,0-.05.38,0,1.77,1.74,3.16s6.08.15,7.87-.31C180.37,118.38,185.18,116.79,186,116.54Z"/><path class="cls-3" d="M259.77,128.59c.74-.57.56-1.49.57-1.92s-1.08-1.57-1.27-1.62a3.61,3.61,0,0,0-2.13,0,2.09,2.09,0,0,0-1.25,1.38,2.27,2.27,0,0,0,0,1.55,1.19,1.19,0,0,0,.35.49A2.56,2.56,0,0,0,259.77,128.59Z"/><path class="cls-3" d="M256.66,136c-.32,1-1.38,1.19-1.83,1.37a2.6,2.6,0,0,1-3.07-2.85,2.29,2.29,0,0,1,1-1.84,2.74,2.74,0,0,1,1.68-.61,1.48,1.48,0,0,1,.67.17A2.75,2.75,0,0,1,256.66,136Z"/><path class="cls-3" d="M246.8,123.7s.81,4.5.22,6.21c-.84,2.45.36,3.23,1.25,2,1.21-1.71.44-3.44.14-4.46a19.35,19.35,0,0,0-1.32-3.4C246.7,123.45,246.8,123.7,246.8,123.7Z"/><path class="cls-3" d="M247.1,123.19a30.27,30.27,0,0,0,6.15-2.59c2.68-1.78,5.16.78,3.16,2.35-1.8,1.42-3.67.85-5.38.8a14,14,0,0,1-4-.34C246,123,247.1,123.19,247.1,123.19Z"/><path class="cls-3" d="M246.6,123.86s-1.14,4.51-3.23,6.78c-1.78,1.93.2,4,1.72,2.26,1.36-1.55,1.06-3.35,1.25-5.05s.22-2.22.46-3.78C247,123,246.6,123.86,246.6,123.86Z"/><path class="cls-3" d="M246.6,123.86s-1.14,4.51-3.23,6.78c-1.78,1.93.2,4,1.72,2.26,1.36-1.55,1.06-3.35,1.25-5.05s.22-2.22.46-3.78C247,123,246.6,123.86,246.6,123.86Z"/><path class="cls-3" d="M241.5,119a13.58,13.58,0,0,0,6.69-3c2.5-2.12,3.23.5,1.37,2.38-1.66,1.69-3,1.35-4.5,1.36a11.53,11.53,0,0,1-4-.47C240.17,118.9,241.5,119,241.5,119Z"/><path class="cls-3" d="M240.14,119.38s1.74,3.24.27,5.77c-2.31,3.95,1.69,2.87,2.22.95.49-1.71-.19-2.7-.73-4a13.71,13.71,0,0,0-1.7-3.16C239.62,118.31,240.14,119.38,240.14,119.38Z"/><path class="cls-3" d="M236.64,117.59s.78,2.52.38,3.77c-.58,1.79.39,1.88,1,.81a2.36,2.36,0,0,0,0-2.81,6.73,6.73,0,0,0-1.14-1.67C236.56,117.46,236.64,117.59,236.64,117.59Z"/><path class="cls-3" d="M237.39,117.54s2.55-.72,3.39-1.75c1.2-1.49,1.8-.71,1.25.45a2.36,2.36,0,0,1-2.4,1.51,6.28,6.28,0,0,1-2-.06C237.24,117.54,237.39,117.54,237.39,117.54Z"/><path class="cls-3" d="M229.41,118.75a.45.45,0,0,0,.6.19h0a9.92,9.92,0,0,1,1.49-.62,11.81,11.81,0,0,1,1.58-.41,9.73,9.73,0,0,1,3.23-.08,7.54,7.54,0,0,1,1.55.41,13.37,13.37,0,0,1,1.48.72c1,.52,2,1,3,1.49a15.55,15.55,0,0,1,2.79,1.78,11.71,11.71,0,0,1,1.21,1.12l.54.63c.18.22.37.44.56.65a12.48,12.48,0,0,0,2.62,2.24l.34.19,0,0a6.21,6.21,0,0,1,2.19,2.71c.38,1.45.21,2.14-.33,2.83-.41.52,3.11-.18,2.65-.81-.75-1-1.8-2.11-2-2.51a8.46,8.46,0,0,0-1.3-1.74,4.86,4.86,0,0,0,.86.18l.45,0c.46.08,1.65.55,2.72.81.68.17.14-2.9-.17-2.4a2.62,2.62,0,0,1-2.29,1.17,4.74,4.74,0,0,1-2.4-.58,5.39,5.39,0,0,1-.52-.3,11.73,11.73,0,0,1-2.46-2.21c-.18-.21-.36-.42-.53-.64s-.37-.45-.55-.67a12.76,12.76,0,0,0-1.24-1.2,17,17,0,0,0-2.87-1.91c-1-.54-2-1-3-1.55a13.83,13.83,0,0,0-1.54-.78,9.22,9.22,0,0,0-1.71-.47,10.28,10.28,0,0,0-3.5,0,14,14,0,0,0-1.7.41,12,12,0,0,0-1.64.66h0A.44.44,0,0,0,229.41,118.75Z"/><path class="cls-3" d="M229.41,118.75a.45.45,0,0,0,.6.19h0a9.92,9.92,0,0,1,1.49-.62,11.81,11.81,0,0,1,1.58-.41,9.73,9.73,0,0,1,3.23-.08,7.54,7.54,0,0,1,1.55.41,13.37,13.37,0,0,1,1.48.72c1,.52,2,1,3,1.49a15.55,15.55,0,0,1,2.79,1.78,11.71,11.71,0,0,1,1.21,1.12l.54.63c.18.22.37.44.56.65a12.48,12.48,0,0,0,2.62,2.24l.34.19,0,0a6.21,6.21,0,0,1,2.19,2.71c.38,1.45.21,2.14-.33,2.83-.41.52,3.11-.18,2.65-.81-.75-1-1.8-2.11-2-2.51a8.46,8.46,0,0,0-1.3-1.74,4.86,4.86,0,0,0,.86.18l.45,0c.46.08,1.65.55,2.72.81.68.17.14-2.9-.17-2.4a2.62,2.62,0,0,1-2.29,1.17,4.74,4.74,0,0,1-2.4-.58,5.39,5.39,0,0,1-.52-.3,11.73,11.73,0,0,1-2.46-2.21c-.18-.21-.36-.42-.53-.64s-.37-.45-.55-.67a12.76,12.76,0,0,0-1.24-1.2,17,17,0,0,0-2.87-1.91c-1-.54-2-1-3-1.55a13.83,13.83,0,0,0-1.54-.78,9.22,9.22,0,0,0-1.71-.47,10.28,10.28,0,0,0-3.5,0,14,14,0,0,0-1.7.41,12,12,0,0,0-1.64.66h0A.44.44,0,0,0,229.41,118.75Z"/><path class="cls-3" d="M231.28,122.7l-.22-.08a12.89,12.89,0,0,1-.14,1.59c-.29,1.73-.65,2.89-1.71,3.68-.49.37-.74,1.64-.32,1.75a2.65,2.65,0,0,0,2.29-.89c.84-1,.7-2.8.44-3.87A17.64,17.64,0,0,1,231.28,122.7Z"/><path class="cls-3" d="M230.1,119.89a2.45,2.45,0,0,0,.31-.34c.35.74,1.9,5,2.3,5.59,1.45,2.07,2.67,3.28,4.78,3.27,1,0,2.11,1.49,1.52,2.06a3.16,3.16,0,0,1-3.13.44c-1.9-.52-3.3-4.18-3.91-5.67C231.79,124.81,230.37,120.6,230.1,119.89Z"/><path class="cls-3" d="M257.5,117.39a.86.86,0,0,1-.22.15,15.14,15.14,0,0,1,1.36,1.22c1.39,1.45,2.19,2.57,2.19,4.08,0,.71,1,1.81,1.38,1.5a3,3,0,0,0,.75-2.71c-.35-1.47-2.07-2.56-3.23-3A21.88,21.88,0,0,1,257.5,117.39Z"/><path class="cls-3" d="M254.13,116.54a2.71,2.71,0,0,0-.1-.51c.91.19,5.88,1.7,6.68,1.73,2.89.1,4.84-.19,6.28-2.13.68-.91,2.8-.91,2.92,0,0,.38,0,1.77-1.74,3.16s-6.08.15-7.87-.31C259.78,118.38,255,116.79,254.13,116.54Z"/></g></g></svg>